G04 #@! TF.GenerationSoftware,KiCad,Pcbnew,(5.0.2)-1*
G04 #@! TF.CreationDate,2019-10-27T17:27:48+01:00*
G04 #@! TF.ProjectId,HM-LC-Sw1-FM,484d2d4c-432d-4537-9731-2d464d2e6b69,rev?*
G04 #@! TF.SameCoordinates,Original*
G04 #@! TF.FileFunction,Legend,Top*
G04 #@! TF.FilePolarity,Positive*
%FSLAX46Y46*%
G04 Gerber Fmt 4.6, Leading zero omitted, Abs format (unit mm)*
G04 Created by KiCad (PCBNEW (5.0.2)-1) date 27.10.2019 17:27:48*
%MOMM*%
%LPD*%
G01*
G04 APERTURE LIST*
%ADD10C,0.250000*%
%ADD11C,0.300000*%
%ADD12C,0.120000*%
%ADD13C,0.150000*%
%ADD14C,0.200000*%
%ADD15C,0.100000*%
%ADD16C,0.254000*%
%ADD17C,4.800000*%
%ADD18C,1.100000*%
%ADD19C,2.600000*%
%ADD20R,1.900000X3.400000*%
%ADD21O,1.900000X3.400000*%
%ADD22C,2.000000*%
%ADD23O,2.000000X2.000000*%
%ADD24C,2.400000*%
%ADD25R,2.200000X2.200000*%
%ADD26C,2.200000*%
%ADD27R,1.600000X1.600000*%
%ADD28C,1.600000*%
%ADD29C,1.750000*%
%ADD30R,2.200000X1.750000*%
%ADD31C,3.400000*%
%ADD32R,3.400000X3.400000*%
%ADD33R,3.400000X1.900000*%
%ADD34O,3.400000X1.900000*%
%ADD35C,6.400000*%
%ADD36R,2.000000X2.000000*%
%ADD37C,2.350000*%
%ADD38C,1.900000*%
%ADD39O,1.900000X1.450000*%
%ADD40R,1.900000X1.450000*%
%ADD41R,2.100000X2.100000*%
%ADD42O,2.100000X2.100000*%
G04 APERTURE END LIST*
D10*
X151614380Y-81605380D02*
X151042952Y-81605380D01*
X151328666Y-81605380D02*
X151328666Y-80605380D01*
X151233428Y-80748238D01*
X151138190Y-80843476D01*
X151042952Y-80891095D01*
X152233428Y-80605380D02*
X152328666Y-80605380D01*
X152423904Y-80653000D01*
X152471523Y-80700619D01*
X152519142Y-80795857D01*
X152566761Y-80986333D01*
X152566761Y-81224428D01*
X152519142Y-81414904D01*
X152471523Y-81510142D01*
X152423904Y-81557761D01*
X152328666Y-81605380D01*
X152233428Y-81605380D01*
X152138190Y-81557761D01*
X152090571Y-81510142D01*
X152042952Y-81414904D01*
X151995333Y-81224428D01*
X151995333Y-80986333D01*
X152042952Y-80795857D01*
X152090571Y-80700619D01*
X152138190Y-80653000D01*
X152233428Y-80605380D01*
X153185809Y-80605380D02*
X153281047Y-80605380D01*
X153376285Y-80653000D01*
X153423904Y-80700619D01*
X153471523Y-80795857D01*
X153519142Y-80986333D01*
X153519142Y-81224428D01*
X153471523Y-81414904D01*
X153423904Y-81510142D01*
X153376285Y-81557761D01*
X153281047Y-81605380D01*
X153185809Y-81605380D01*
X153090571Y-81557761D01*
X153042952Y-81510142D01*
X152995333Y-81414904D01*
X152947714Y-81224428D01*
X152947714Y-80986333D01*
X152995333Y-80795857D01*
X153042952Y-80700619D01*
X153090571Y-80653000D01*
X153185809Y-80605380D01*
X153947714Y-80938714D02*
X153947714Y-81605380D01*
X153947714Y-81033952D02*
X153995333Y-80986333D01*
X154090571Y-80938714D01*
X154233428Y-80938714D01*
X154328666Y-80986333D01*
X154376285Y-81081571D01*
X154376285Y-81605380D01*
X155185809Y-81081571D02*
X154852476Y-81081571D01*
X154852476Y-81605380D02*
X154852476Y-80605380D01*
X155328666Y-80605380D01*
D11*
X102770857Y-124142642D02*
X102699428Y-124356928D01*
X102699428Y-124714071D01*
X102770857Y-124856928D01*
X102842285Y-124928357D01*
X102985142Y-124999785D01*
X103128000Y-124999785D01*
X103270857Y-124928357D01*
X103342285Y-124856928D01*
X103413714Y-124714071D01*
X103485142Y-124428357D01*
X103556571Y-124285500D01*
X103628000Y-124214071D01*
X103770857Y-124142642D01*
X103913714Y-124142642D01*
X104056571Y-124214071D01*
X104128000Y-124285500D01*
X104199428Y-124428357D01*
X104199428Y-124785500D01*
X104128000Y-124999785D01*
X102699428Y-126428357D02*
X102699428Y-125571214D01*
X102699428Y-125999785D02*
X104199428Y-125999785D01*
X103985142Y-125856928D01*
X103842285Y-125714071D01*
X103770857Y-125571214D01*
X174922571Y-133651571D02*
X173422571Y-133651571D01*
X174922571Y-132794428D01*
X173422571Y-132794428D01*
X175240071Y-143807714D02*
X175240071Y-144522000D01*
X173740071Y-144522000D01*
X175240071Y-139513357D02*
X175240071Y-140227642D01*
X173740071Y-140227642D01*
X174811500Y-139084785D02*
X174811500Y-138370500D01*
X175240071Y-139227642D02*
X173740071Y-138727642D01*
X175240071Y-138227642D01*
X173882928Y-137799071D02*
X173811500Y-137727642D01*
X173740071Y-137584785D01*
X173740071Y-137227642D01*
X173811500Y-137084785D01*
X173882928Y-137013357D01*
X174025785Y-136941928D01*
X174168642Y-136941928D01*
X174382928Y-137013357D01*
X175240071Y-137870500D01*
X175240071Y-136941928D01*
X109562214Y-133433357D02*
X109062214Y-133433357D01*
X109062214Y-134219071D02*
X109062214Y-132719071D01*
X109776500Y-132719071D01*
X110990785Y-133219071D02*
X110990785Y-134219071D01*
X110347928Y-133219071D02*
X110347928Y-134004785D01*
X110419357Y-134147642D01*
X110562214Y-134219071D01*
X110776500Y-134219071D01*
X110919357Y-134147642D01*
X110990785Y-134076214D01*
X111633642Y-134147642D02*
X111776500Y-134219071D01*
X112062214Y-134219071D01*
X112205071Y-134147642D01*
X112276500Y-134004785D01*
X112276500Y-133933357D01*
X112205071Y-133790500D01*
X112062214Y-133719071D01*
X111847928Y-133719071D01*
X111705071Y-133647642D01*
X111633642Y-133504785D01*
X111633642Y-133433357D01*
X111705071Y-133290500D01*
X111847928Y-133219071D01*
X112062214Y-133219071D01*
X112205071Y-133290500D01*
X113490785Y-134147642D02*
X113347928Y-134219071D01*
X113062214Y-134219071D01*
X112919357Y-134147642D01*
X112847928Y-134004785D01*
X112847928Y-133433357D01*
X112919357Y-133290500D01*
X113062214Y-133219071D01*
X113347928Y-133219071D01*
X113490785Y-133290500D01*
X113562214Y-133433357D01*
X113562214Y-133576214D01*
X112847928Y-133719071D01*
X115990785Y-132719071D02*
X115705071Y-132719071D01*
X115562214Y-132790500D01*
X115490785Y-132861928D01*
X115347928Y-133076214D01*
X115276500Y-133361928D01*
X115276500Y-133933357D01*
X115347928Y-134076214D01*
X115419357Y-134147642D01*
X115562214Y-134219071D01*
X115847928Y-134219071D01*
X115990785Y-134147642D01*
X116062214Y-134076214D01*
X116133642Y-133933357D01*
X116133642Y-133576214D01*
X116062214Y-133433357D01*
X115990785Y-133361928D01*
X115847928Y-133290500D01*
X115562214Y-133290500D01*
X115419357Y-133361928D01*
X115347928Y-133433357D01*
X115276500Y-133576214D01*
X116705071Y-133790500D02*
X117419357Y-133790500D01*
X116562214Y-134219071D02*
X117062214Y-132719071D01*
X117562214Y-134219071D01*
X119133642Y-132647642D02*
X117847928Y-134576214D01*
X119562214Y-132861928D02*
X119633642Y-132790500D01*
X119776500Y-132719071D01*
X120133642Y-132719071D01*
X120276500Y-132790500D01*
X120347928Y-132861928D01*
X120419357Y-133004785D01*
X120419357Y-133147642D01*
X120347928Y-133361928D01*
X119490785Y-134219071D01*
X120419357Y-134219071D01*
X121776500Y-132719071D02*
X121062214Y-132719071D01*
X120990785Y-133433357D01*
X121062214Y-133361928D01*
X121205071Y-133290500D01*
X121562214Y-133290500D01*
X121705071Y-133361928D01*
X121776500Y-133433357D01*
X121847928Y-133576214D01*
X121847928Y-133933357D01*
X121776500Y-134076214D01*
X121705071Y-134147642D01*
X121562214Y-134219071D01*
X121205071Y-134219071D01*
X121062214Y-134147642D01*
X120990785Y-134076214D01*
X122776500Y-132719071D02*
X122919357Y-132719071D01*
X123062214Y-132790500D01*
X123133642Y-132861928D01*
X123205071Y-133004785D01*
X123276500Y-133290500D01*
X123276500Y-133647642D01*
X123205071Y-133933357D01*
X123133642Y-134076214D01*
X123062214Y-134147642D01*
X122919357Y-134219071D01*
X122776500Y-134219071D01*
X122633642Y-134147642D01*
X122562214Y-134076214D01*
X122490785Y-133933357D01*
X122419357Y-133647642D01*
X122419357Y-133290500D01*
X122490785Y-133004785D01*
X122562214Y-132861928D01*
X122633642Y-132790500D01*
X122776500Y-132719071D01*
X123705071Y-132719071D02*
X124205071Y-134219071D01*
X124705071Y-132719071D01*
D10*
X102703380Y-84724714D02*
X102703380Y-84105666D01*
X103084333Y-84439000D01*
X103084333Y-84296142D01*
X103131952Y-84200904D01*
X103179571Y-84153285D01*
X103274809Y-84105666D01*
X103512904Y-84105666D01*
X103608142Y-84153285D01*
X103655761Y-84200904D01*
X103703380Y-84296142D01*
X103703380Y-84581857D01*
X103655761Y-84677095D01*
X103608142Y-84724714D01*
X102703380Y-83772333D02*
X102703380Y-83153285D01*
X103084333Y-83486619D01*
X103084333Y-83343761D01*
X103131952Y-83248523D01*
X103179571Y-83200904D01*
X103274809Y-83153285D01*
X103512904Y-83153285D01*
X103608142Y-83200904D01*
X103655761Y-83248523D01*
X103703380Y-83343761D01*
X103703380Y-83629476D01*
X103655761Y-83724714D01*
X103608142Y-83772333D01*
X102703380Y-82534238D02*
X102703380Y-82439000D01*
X102751000Y-82343761D01*
X102798619Y-82296142D01*
X102893857Y-82248523D01*
X103084333Y-82200904D01*
X103322428Y-82200904D01*
X103512904Y-82248523D01*
X103608142Y-82296142D01*
X103655761Y-82343761D01*
X103703380Y-82439000D01*
X103703380Y-82534238D01*
X103655761Y-82629476D01*
X103608142Y-82677095D01*
X103512904Y-82724714D01*
X103322428Y-82772333D01*
X103084333Y-82772333D01*
X102893857Y-82724714D01*
X102798619Y-82677095D01*
X102751000Y-82629476D01*
X102703380Y-82534238D01*
X104148071Y-92019380D02*
X103576642Y-92019380D01*
X103862357Y-92019380D02*
X103862357Y-91019380D01*
X103767119Y-91162238D01*
X103671880Y-91257476D01*
X103576642Y-91305095D01*
X104767119Y-91019380D02*
X104862357Y-91019380D01*
X104957595Y-91067000D01*
X105005214Y-91114619D01*
X105052833Y-91209857D01*
X105100452Y-91400333D01*
X105100452Y-91638428D01*
X105052833Y-91828904D01*
X105005214Y-91924142D01*
X104957595Y-91971761D01*
X104862357Y-92019380D01*
X104767119Y-92019380D01*
X104671880Y-91971761D01*
X104624261Y-91924142D01*
X104576642Y-91828904D01*
X104529023Y-91638428D01*
X104529023Y-91400333D01*
X104576642Y-91209857D01*
X104624261Y-91114619D01*
X104671880Y-91067000D01*
X104767119Y-91019380D01*
X105957595Y-91352714D02*
X105957595Y-92019380D01*
X105529023Y-91352714D02*
X105529023Y-91876523D01*
X105576642Y-91971761D01*
X105671880Y-92019380D01*
X105814738Y-92019380D01*
X105909976Y-91971761D01*
X105957595Y-91924142D01*
X106767119Y-91495571D02*
X106433785Y-91495571D01*
X106433785Y-92019380D02*
X106433785Y-91019380D01*
X106909976Y-91019380D01*
D11*
X152154071Y-152126071D02*
X152154071Y-150626071D01*
X152725500Y-150626071D01*
X152868357Y-150697500D01*
X152939785Y-150768928D01*
X153011214Y-150911785D01*
X153011214Y-151126071D01*
X152939785Y-151268928D01*
X152868357Y-151340357D01*
X152725500Y-151411785D01*
X152154071Y-151411785D01*
X153654071Y-151340357D02*
X154154071Y-151340357D01*
X154368357Y-152126071D02*
X153654071Y-152126071D01*
X153654071Y-150626071D01*
X154368357Y-150626071D01*
X148609785Y-152126071D02*
X147895500Y-152126071D01*
X147895500Y-150626071D01*
X142192428Y-152126071D02*
X142192428Y-150626071D01*
X143049571Y-152126071D01*
X143049571Y-150626071D01*
X170878642Y-90563000D02*
X170735785Y-90491571D01*
X170521500Y-90491571D01*
X170307214Y-90563000D01*
X170164357Y-90705857D01*
X170092928Y-90848714D01*
X170021500Y-91134428D01*
X170021500Y-91348714D01*
X170092928Y-91634428D01*
X170164357Y-91777285D01*
X170307214Y-91920142D01*
X170521500Y-91991571D01*
X170664357Y-91991571D01*
X170878642Y-91920142D01*
X170950071Y-91848714D01*
X170950071Y-91348714D01*
X170664357Y-91348714D01*
X171592928Y-91991571D02*
X171592928Y-90491571D01*
X172450071Y-91991571D01*
X172450071Y-90491571D01*
X173164357Y-91991571D02*
X173164357Y-90491571D01*
X173521500Y-90491571D01*
X173735785Y-90563000D01*
X173878642Y-90705857D01*
X173950071Y-90848714D01*
X174021500Y-91134428D01*
X174021500Y-91348714D01*
X173950071Y-91634428D01*
X173878642Y-91777285D01*
X173735785Y-91920142D01*
X173521500Y-91991571D01*
X173164357Y-91991571D01*
X163195071Y-90975642D02*
X164337928Y-90975642D01*
X163766500Y-91547071D02*
X163766500Y-90404214D01*
X163997000Y-126067428D02*
X164068428Y-125996000D01*
X164211285Y-125924571D01*
X164568428Y-125924571D01*
X164711285Y-125996000D01*
X164782714Y-126067428D01*
X164854142Y-126210285D01*
X164854142Y-126353142D01*
X164782714Y-126567428D01*
X163925571Y-127424571D01*
X164854142Y-127424571D01*
X165354142Y-125924571D02*
X166282714Y-125924571D01*
X165782714Y-126496000D01*
X165997000Y-126496000D01*
X166139857Y-126567428D01*
X166211285Y-126638857D01*
X166282714Y-126781714D01*
X166282714Y-127138857D01*
X166211285Y-127281714D01*
X166139857Y-127353142D01*
X165997000Y-127424571D01*
X165568428Y-127424571D01*
X165425571Y-127353142D01*
X165354142Y-127281714D01*
X167211285Y-125924571D02*
X167354142Y-125924571D01*
X167497000Y-125996000D01*
X167568428Y-126067428D01*
X167639857Y-126210285D01*
X167711285Y-126496000D01*
X167711285Y-126853142D01*
X167639857Y-127138857D01*
X167568428Y-127281714D01*
X167497000Y-127353142D01*
X167354142Y-127424571D01*
X167211285Y-127424571D01*
X167068428Y-127353142D01*
X166997000Y-127281714D01*
X166925571Y-127138857D01*
X166854142Y-126853142D01*
X166854142Y-126496000D01*
X166925571Y-126210285D01*
X166997000Y-126067428D01*
X167068428Y-125996000D01*
X167211285Y-125924571D01*
X168139857Y-125924571D02*
X168639857Y-127424571D01*
X169139857Y-125924571D01*
X167481285Y-87634071D02*
X166767000Y-87634071D01*
X166695571Y-88348357D01*
X166767000Y-88276928D01*
X166909857Y-88205500D01*
X167267000Y-88205500D01*
X167409857Y-88276928D01*
X167481285Y-88348357D01*
X167552714Y-88491214D01*
X167552714Y-88848357D01*
X167481285Y-88991214D01*
X167409857Y-89062642D01*
X167267000Y-89134071D01*
X166909857Y-89134071D01*
X166767000Y-89062642D01*
X166695571Y-88991214D01*
X167981285Y-87634071D02*
X168481285Y-89134071D01*
X168981285Y-87634071D01*
X163111571Y-111223428D02*
X161611571Y-111223428D01*
X163111571Y-109652000D02*
X162397285Y-110152000D01*
X163111571Y-110509142D02*
X161611571Y-110509142D01*
X161611571Y-109937714D01*
X161683000Y-109794857D01*
X161754428Y-109723428D01*
X161897285Y-109652000D01*
X162111571Y-109652000D01*
X162254428Y-109723428D01*
X162325857Y-109794857D01*
X162397285Y-109937714D01*
X162397285Y-110509142D01*
X163111571Y-109009142D02*
X161611571Y-109009142D01*
X162683000Y-108509142D01*
X161611571Y-108009142D01*
X163111571Y-108009142D01*
X162540142Y-107294857D02*
X162540142Y-106152000D01*
X161611571Y-105152000D02*
X161611571Y-105009142D01*
X161683000Y-104866285D01*
X161754428Y-104794857D01*
X161897285Y-104723428D01*
X162183000Y-104652000D01*
X162540142Y-104652000D01*
X162825857Y-104723428D01*
X162968714Y-104794857D01*
X163040142Y-104866285D01*
X163111571Y-105009142D01*
X163111571Y-105152000D01*
X163040142Y-105294857D01*
X162968714Y-105366285D01*
X162825857Y-105437714D01*
X162540142Y-105509142D01*
X162183000Y-105509142D01*
X161897285Y-105437714D01*
X161754428Y-105366285D01*
X161683000Y-105294857D01*
X161611571Y-105152000D01*
X161611571Y-103294857D02*
X161611571Y-104009142D01*
X162325857Y-104080571D01*
X162254428Y-104009142D01*
X162183000Y-103866285D01*
X162183000Y-103509142D01*
X162254428Y-103366285D01*
X162325857Y-103294857D01*
X162468714Y-103223428D01*
X162825857Y-103223428D01*
X162968714Y-103294857D01*
X163040142Y-103366285D01*
X163111571Y-103509142D01*
X163111571Y-103866285D01*
X163040142Y-104009142D01*
X162968714Y-104080571D01*
X162540142Y-102580571D02*
X162540142Y-101437714D01*
X161611571Y-100437714D02*
X161611571Y-100294857D01*
X161683000Y-100152000D01*
X161754428Y-100080571D01*
X161897285Y-100009142D01*
X162183000Y-99937714D01*
X162540142Y-99937714D01*
X162825857Y-100009142D01*
X162968714Y-100080571D01*
X163040142Y-100152000D01*
X163111571Y-100294857D01*
X163111571Y-100437714D01*
X163040142Y-100580571D01*
X162968714Y-100652000D01*
X162825857Y-100723428D01*
X162540142Y-100794857D01*
X162183000Y-100794857D01*
X161897285Y-100723428D01*
X161754428Y-100652000D01*
X161683000Y-100580571D01*
X161611571Y-100437714D01*
X161611571Y-98580571D02*
X161611571Y-99294857D01*
X162325857Y-99366285D01*
X162254428Y-99294857D01*
X162183000Y-99152000D01*
X162183000Y-98794857D01*
X162254428Y-98652000D01*
X162325857Y-98580571D01*
X162468714Y-98509142D01*
X162825857Y-98509142D01*
X162968714Y-98580571D01*
X163040142Y-98652000D01*
X163111571Y-98794857D01*
X163111571Y-99152000D01*
X163040142Y-99294857D01*
X162968714Y-99366285D01*
X110395142Y-101437214D02*
X110323714Y-101508642D01*
X110109428Y-101580071D01*
X109966571Y-101580071D01*
X109752285Y-101508642D01*
X109609428Y-101365785D01*
X109538000Y-101222928D01*
X109466571Y-100937214D01*
X109466571Y-100722928D01*
X109538000Y-100437214D01*
X109609428Y-100294357D01*
X109752285Y-100151500D01*
X109966571Y-100080071D01*
X110109428Y-100080071D01*
X110323714Y-100151500D01*
X110395142Y-100222928D01*
X111895142Y-101437214D02*
X111823714Y-101508642D01*
X111609428Y-101580071D01*
X111466571Y-101580071D01*
X111252285Y-101508642D01*
X111109428Y-101365785D01*
X111038000Y-101222928D01*
X110966571Y-100937214D01*
X110966571Y-100722928D01*
X111038000Y-100437214D01*
X111109428Y-100294357D01*
X111252285Y-100151500D01*
X111466571Y-100080071D01*
X111609428Y-100080071D01*
X111823714Y-100151500D01*
X111895142Y-100222928D01*
X113323714Y-101580071D02*
X112466571Y-101580071D01*
X112895142Y-101580071D02*
X112895142Y-100080071D01*
X112752285Y-100294357D01*
X112609428Y-100437214D01*
X112466571Y-100508642D01*
X114752285Y-101580071D02*
X113895142Y-101580071D01*
X114323714Y-101580071D02*
X114323714Y-100080071D01*
X114180857Y-100294357D01*
X114038000Y-100437214D01*
X113895142Y-100508642D01*
X115680857Y-100080071D02*
X115823714Y-100080071D01*
X115966571Y-100151500D01*
X116038000Y-100222928D01*
X116109428Y-100365785D01*
X116180857Y-100651500D01*
X116180857Y-101008642D01*
X116109428Y-101294357D01*
X116038000Y-101437214D01*
X115966571Y-101508642D01*
X115823714Y-101580071D01*
X115680857Y-101580071D01*
X115538000Y-101508642D01*
X115466571Y-101437214D01*
X115395142Y-101294357D01*
X115323714Y-101008642D01*
X115323714Y-100651500D01*
X115395142Y-100365785D01*
X115466571Y-100222928D01*
X115538000Y-100151500D01*
X115680857Y-100080071D01*
X117609428Y-101580071D02*
X116752285Y-101580071D01*
X117180857Y-101580071D02*
X117180857Y-100080071D01*
X117038000Y-100294357D01*
X116895142Y-100437214D01*
X116752285Y-100508642D01*
D12*
G04 #@! TO.C,J1*
X139124000Y-148732000D02*
X155744000Y-148732000D01*
X139124000Y-143032000D02*
X155744000Y-143032000D01*
X139124000Y-140232000D02*
X141694000Y-140232000D01*
X143674000Y-140232000D02*
X146694000Y-140232000D01*
X148674000Y-140232000D02*
X151694000Y-140232000D01*
X153674000Y-140232000D02*
X155744000Y-140232000D01*
X139124000Y-135672000D02*
X155744000Y-135672000D01*
X139124000Y-149792000D02*
X155744000Y-149792000D01*
X139124000Y-135672000D02*
X139124000Y-149792000D01*
X155744000Y-135672000D02*
X155744000Y-149792000D01*
X141184000Y-145132000D02*
X141694000Y-145132000D01*
X143674000Y-145132000D02*
X145184000Y-145132000D01*
X141184000Y-148432000D02*
X145184000Y-148432000D01*
X141184000Y-145132000D02*
X141184000Y-148432000D01*
X145184000Y-145132000D02*
X145184000Y-148432000D01*
X140684000Y-135732000D02*
X145684000Y-135732000D01*
X140684000Y-149732000D02*
X145684000Y-149732000D01*
X140684000Y-135732000D02*
X140684000Y-149732000D01*
X145684000Y-135732000D02*
X145684000Y-149732000D01*
X141184000Y-143032000D02*
X145184000Y-143032000D01*
X141184000Y-144031000D02*
X141694000Y-144031000D01*
X143674000Y-144031000D02*
X145184000Y-144031000D01*
X141184000Y-143032000D02*
X141184000Y-144031000D01*
X145184000Y-143032000D02*
X145184000Y-144031000D01*
X142684000Y-136082000D02*
X143684000Y-136082000D01*
X142684000Y-138582000D02*
X143684000Y-138582000D01*
X142684000Y-136082000D02*
X142684000Y-138582000D01*
X143684000Y-136082000D02*
X143684000Y-138582000D01*
X146184000Y-145132000D02*
X146694000Y-145132000D01*
X148674000Y-145132000D02*
X150184000Y-145132000D01*
X146184000Y-148432000D02*
X150184000Y-148432000D01*
X146184000Y-145132000D02*
X146184000Y-148432000D01*
X150184000Y-145132000D02*
X150184000Y-148432000D01*
X145684000Y-135732000D02*
X150684000Y-135732000D01*
X145684000Y-149732000D02*
X150684000Y-149732000D01*
X145684000Y-135732000D02*
X145684000Y-149732000D01*
X150684000Y-135732000D02*
X150684000Y-149732000D01*
X146184000Y-143032000D02*
X150184000Y-143032000D01*
X146184000Y-144031000D02*
X146694000Y-144031000D01*
X148674000Y-144031000D02*
X150184000Y-144031000D01*
X146184000Y-143032000D02*
X146184000Y-144031000D01*
X150184000Y-143032000D02*
X150184000Y-144031000D01*
X147684000Y-136082000D02*
X148684000Y-136082000D01*
X147684000Y-138582000D02*
X148684000Y-138582000D01*
X147684000Y-136082000D02*
X147684000Y-138582000D01*
X148684000Y-136082000D02*
X148684000Y-138582000D01*
X151184000Y-145132000D02*
X151694000Y-145132000D01*
X153674000Y-145132000D02*
X155184000Y-145132000D01*
X151184000Y-148432000D02*
X155184000Y-148432000D01*
X151184000Y-145132000D02*
X151184000Y-148432000D01*
X155184000Y-145132000D02*
X155184000Y-148432000D01*
X150684000Y-135732000D02*
X155684000Y-135732000D01*
X150684000Y-149732000D02*
X155684000Y-149732000D01*
X150684000Y-135732000D02*
X150684000Y-149732000D01*
X155684000Y-135732000D02*
X155684000Y-149732000D01*
X151184000Y-143032000D02*
X155184000Y-143032000D01*
X151184000Y-144031000D02*
X151694000Y-144031000D01*
X153674000Y-144031000D02*
X155184000Y-144031000D01*
X151184000Y-143032000D02*
X151184000Y-144031000D01*
X155184000Y-143032000D02*
X155184000Y-144031000D01*
X152684000Y-136082000D02*
X153684000Y-136082000D01*
X152684000Y-138582000D02*
X153684000Y-138582000D01*
X152684000Y-136082000D02*
X152684000Y-138582000D01*
X153684000Y-136082000D02*
X153684000Y-138582000D01*
X138884000Y-148792000D02*
X138884000Y-150032000D01*
X138884000Y-150032000D02*
X139884000Y-150032000D01*
G04 #@! TO.C,R1*
X107034000Y-82169000D02*
G75*
G03X107034000Y-82169000I-1370000J0D01*
G01*
X105664000Y-83539000D02*
X105664000Y-83609000D01*
G04 #@! TO.C,SW1*
X115586000Y-84924000D02*
X111086000Y-84924000D01*
X116836000Y-88924000D02*
X116836000Y-87424000D01*
X111086000Y-91424000D02*
X115586000Y-91424000D01*
X109836000Y-87424000D02*
X109836000Y-88924000D01*
G04 #@! TO.C,D1*
X108690665Y-82041108D02*
G75*
G03X111923000Y-82198016I1672335J1078608D01*
G01*
X108690665Y-79883892D02*
G75*
G02X111923000Y-79726984I1672335J-1078608D01*
G01*
X109321870Y-82042337D02*
G75*
G03X111403961Y-82042500I1041130J1079837D01*
G01*
X109321870Y-79882663D02*
G75*
G02X111403961Y-79882500I1041130J-1079837D01*
G01*
X111923000Y-82198500D02*
X111923000Y-82042500D01*
X111923000Y-79882500D02*
X111923000Y-79726500D01*
D13*
G04 #@! TO.C,U1*
X140335000Y-80010000D02*
G75*
G03X140335000Y-80010000I-635000J0D01*
G01*
X137795000Y-80010000D02*
G75*
G03X137795000Y-80010000I-635000J0D01*
G01*
X135255000Y-80010000D02*
G75*
G03X135255000Y-80010000I-635000J0D01*
G01*
X132715000Y-80010000D02*
G75*
G03X132715000Y-80010000I-635000J0D01*
G01*
X130175000Y-80010000D02*
G75*
G03X130175000Y-80010000I-635000J0D01*
G01*
X127635000Y-80010000D02*
G75*
G03X127635000Y-80010000I-635000J0D01*
G01*
X130810000Y-109220000D02*
X135890000Y-109220000D01*
X135890000Y-109220000D02*
X135890000Y-106680000D01*
X135890000Y-106680000D02*
X130810000Y-106680000D01*
X130810000Y-106680000D02*
X130810000Y-109220000D01*
X138430000Y-96520000D02*
X133350000Y-91440000D01*
X133350000Y-91440000D02*
X128270000Y-96520000D01*
X128270000Y-96520000D02*
X133350000Y-101600000D01*
X133350000Y-101600000D02*
X138430000Y-96520000D01*
X142240000Y-111760000D02*
X142240000Y-78740000D01*
X142240000Y-78740000D02*
X124460000Y-78740000D01*
X124460000Y-78740000D02*
X124460000Y-111760000D01*
X124460000Y-111760000D02*
X142240000Y-111760000D01*
D12*
G04 #@! TO.C,C1*
X107530000Y-88467500D02*
G75*
G03X107530000Y-88467500I-2120000J0D01*
G01*
X106250000Y-88467500D02*
X107490000Y-88467500D01*
X103330000Y-88467500D02*
X104570000Y-88467500D01*
X106250000Y-88427500D02*
X107490000Y-88427500D01*
X103330000Y-88427500D02*
X104570000Y-88427500D01*
X106250000Y-88387500D02*
X107489000Y-88387500D01*
X103331000Y-88387500D02*
X104570000Y-88387500D01*
X103333000Y-88347500D02*
X104570000Y-88347500D01*
X106250000Y-88347500D02*
X107487000Y-88347500D01*
X103336000Y-88307500D02*
X104570000Y-88307500D01*
X106250000Y-88307500D02*
X107484000Y-88307500D01*
X103339000Y-88267500D02*
X104570000Y-88267500D01*
X106250000Y-88267500D02*
X107481000Y-88267500D01*
X103343000Y-88227500D02*
X104570000Y-88227500D01*
X106250000Y-88227500D02*
X107477000Y-88227500D01*
X103348000Y-88187500D02*
X104570000Y-88187500D01*
X106250000Y-88187500D02*
X107472000Y-88187500D01*
X103354000Y-88147500D02*
X104570000Y-88147500D01*
X106250000Y-88147500D02*
X107466000Y-88147500D01*
X103360000Y-88107500D02*
X104570000Y-88107500D01*
X106250000Y-88107500D02*
X107460000Y-88107500D01*
X103368000Y-88067500D02*
X104570000Y-88067500D01*
X106250000Y-88067500D02*
X107452000Y-88067500D01*
X103376000Y-88027500D02*
X104570000Y-88027500D01*
X106250000Y-88027500D02*
X107444000Y-88027500D01*
X103385000Y-87987500D02*
X104570000Y-87987500D01*
X106250000Y-87987500D02*
X107435000Y-87987500D01*
X103394000Y-87947500D02*
X104570000Y-87947500D01*
X106250000Y-87947500D02*
X107426000Y-87947500D01*
X103405000Y-87907500D02*
X104570000Y-87907500D01*
X106250000Y-87907500D02*
X107415000Y-87907500D01*
X103416000Y-87867500D02*
X104570000Y-87867500D01*
X106250000Y-87867500D02*
X107404000Y-87867500D01*
X103428000Y-87827500D02*
X104570000Y-87827500D01*
X106250000Y-87827500D02*
X107392000Y-87827500D01*
X103442000Y-87787500D02*
X104570000Y-87787500D01*
X106250000Y-87787500D02*
X107378000Y-87787500D01*
X103456000Y-87746500D02*
X104570000Y-87746500D01*
X106250000Y-87746500D02*
X107364000Y-87746500D01*
X103470000Y-87706500D02*
X104570000Y-87706500D01*
X106250000Y-87706500D02*
X107350000Y-87706500D01*
X103486000Y-87666500D02*
X104570000Y-87666500D01*
X106250000Y-87666500D02*
X107334000Y-87666500D01*
X103503000Y-87626500D02*
X104570000Y-87626500D01*
X106250000Y-87626500D02*
X107317000Y-87626500D01*
X103521000Y-87586500D02*
X104570000Y-87586500D01*
X106250000Y-87586500D02*
X107299000Y-87586500D01*
X103540000Y-87546500D02*
X104570000Y-87546500D01*
X106250000Y-87546500D02*
X107280000Y-87546500D01*
X103559000Y-87506500D02*
X104570000Y-87506500D01*
X106250000Y-87506500D02*
X107261000Y-87506500D01*
X103580000Y-87466500D02*
X104570000Y-87466500D01*
X106250000Y-87466500D02*
X107240000Y-87466500D01*
X103602000Y-87426500D02*
X104570000Y-87426500D01*
X106250000Y-87426500D02*
X107218000Y-87426500D01*
X103625000Y-87386500D02*
X104570000Y-87386500D01*
X106250000Y-87386500D02*
X107195000Y-87386500D01*
X103650000Y-87346500D02*
X104570000Y-87346500D01*
X106250000Y-87346500D02*
X107170000Y-87346500D01*
X103675000Y-87306500D02*
X104570000Y-87306500D01*
X106250000Y-87306500D02*
X107145000Y-87306500D01*
X103702000Y-87266500D02*
X104570000Y-87266500D01*
X106250000Y-87266500D02*
X107118000Y-87266500D01*
X103730000Y-87226500D02*
X104570000Y-87226500D01*
X106250000Y-87226500D02*
X107090000Y-87226500D01*
X103760000Y-87186500D02*
X104570000Y-87186500D01*
X106250000Y-87186500D02*
X107060000Y-87186500D01*
X103791000Y-87146500D02*
X104570000Y-87146500D01*
X106250000Y-87146500D02*
X107029000Y-87146500D01*
X103823000Y-87106500D02*
X104570000Y-87106500D01*
X106250000Y-87106500D02*
X106997000Y-87106500D01*
X103858000Y-87066500D02*
X104570000Y-87066500D01*
X106250000Y-87066500D02*
X106962000Y-87066500D01*
X103894000Y-87026500D02*
X104570000Y-87026500D01*
X106250000Y-87026500D02*
X106926000Y-87026500D01*
X103932000Y-86986500D02*
X104570000Y-86986500D01*
X106250000Y-86986500D02*
X106888000Y-86986500D01*
X103972000Y-86946500D02*
X104570000Y-86946500D01*
X106250000Y-86946500D02*
X106848000Y-86946500D01*
X104014000Y-86906500D02*
X104570000Y-86906500D01*
X106250000Y-86906500D02*
X106806000Y-86906500D01*
X104059000Y-86866500D02*
X106761000Y-86866500D01*
X104106000Y-86826500D02*
X106714000Y-86826500D01*
X104156000Y-86786500D02*
X106664000Y-86786500D01*
X104210000Y-86746500D02*
X106610000Y-86746500D01*
X104268000Y-86706500D02*
X106552000Y-86706500D01*
X104330000Y-86666500D02*
X106490000Y-86666500D01*
X104397000Y-86626500D02*
X106423000Y-86626500D01*
X104470000Y-86586500D02*
X106350000Y-86586500D01*
X104551000Y-86546500D02*
X106269000Y-86546500D01*
X104642000Y-86506500D02*
X106178000Y-86506500D01*
X104746000Y-86466500D02*
X106074000Y-86466500D01*
X104873000Y-86426500D02*
X105947000Y-86426500D01*
X105040000Y-86386500D02*
X105780000Y-86386500D01*
X104215000Y-90737301D02*
X104215000Y-90337301D01*
X104015000Y-90537301D02*
X104415000Y-90537301D01*
D13*
G04 #@! TO.C,U2*
X122579000Y-93172000D02*
X122579000Y-93672000D01*
X122579000Y-110172000D02*
X122579000Y-109672000D01*
X104079000Y-98172000D02*
G75*
G03X104079000Y-98172000I-500000J0D01*
G01*
X104079000Y-103172000D02*
G75*
G03X104079000Y-103172000I-500000J0D01*
G01*
X104079000Y-100672000D02*
G75*
G03X104079000Y-100672000I-500000J0D01*
G01*
X122579000Y-110172000D02*
X102579000Y-110172000D01*
X102579000Y-110172000D02*
X102579000Y-93172000D01*
X102579000Y-93172000D02*
X122579000Y-93172000D01*
D12*
G04 #@! TO.C,PS1*
X158512000Y-131826000D02*
X160512000Y-131826000D01*
X148212000Y-85626000D02*
X173812000Y-85626000D01*
X148212000Y-131526000D02*
X148212000Y-85626000D01*
X173812000Y-131526000D02*
X173812000Y-85626000D01*
X148212000Y-131526000D02*
X173812000Y-131526000D01*
G04 #@! TO.C,J2*
X171402000Y-144594000D02*
X171402000Y-132974000D01*
X165702000Y-144594000D02*
X165702000Y-132974000D01*
X162902000Y-144594000D02*
X162902000Y-142024000D01*
X162902000Y-140044000D02*
X162902000Y-137024000D01*
X162902000Y-135044000D02*
X162902000Y-132974000D01*
X158342000Y-144594000D02*
X158342000Y-132974000D01*
X172462000Y-144594000D02*
X172462000Y-132974000D01*
X158342000Y-144594000D02*
X172462000Y-144594000D01*
X158342000Y-132974000D02*
X172462000Y-132974000D01*
X167802000Y-142534000D02*
X167802000Y-142024000D01*
X167802000Y-140044000D02*
X167802000Y-138534000D01*
X171102000Y-142534000D02*
X171102000Y-138534000D01*
X167802000Y-142534000D02*
X171102000Y-142534000D01*
X167802000Y-138534000D02*
X171102000Y-138534000D01*
X158402000Y-143034000D02*
X158402000Y-138034000D01*
X172402000Y-143034000D02*
X172402000Y-138034000D01*
X158402000Y-143034000D02*
X172402000Y-143034000D01*
X158402000Y-138034000D02*
X172402000Y-138034000D01*
X165702000Y-142534000D02*
X165702000Y-138534000D01*
X166701000Y-142534000D02*
X166701000Y-142024000D01*
X166701000Y-140044000D02*
X166701000Y-138534000D01*
X165702000Y-142534000D02*
X166701000Y-142534000D01*
X165702000Y-138534000D02*
X166701000Y-138534000D01*
X158752000Y-141034000D02*
X158752000Y-140034000D01*
X161252000Y-141034000D02*
X161252000Y-140034000D01*
X158752000Y-141034000D02*
X161252000Y-141034000D01*
X158752000Y-140034000D02*
X161252000Y-140034000D01*
X167802000Y-137534000D02*
X167802000Y-137024000D01*
X167802000Y-135044000D02*
X167802000Y-133534000D01*
X171102000Y-137534000D02*
X171102000Y-133534000D01*
X167802000Y-137534000D02*
X171102000Y-137534000D01*
X167802000Y-133534000D02*
X171102000Y-133534000D01*
X158402000Y-138034000D02*
X158402000Y-133034000D01*
X172402000Y-138034000D02*
X172402000Y-133034000D01*
X158402000Y-138034000D02*
X172402000Y-138034000D01*
X158402000Y-133034000D02*
X172402000Y-133034000D01*
X165702000Y-137534000D02*
X165702000Y-133534000D01*
X166701000Y-137534000D02*
X166701000Y-137024000D01*
X166701000Y-135044000D02*
X166701000Y-133534000D01*
X165702000Y-137534000D02*
X166701000Y-137534000D01*
X165702000Y-133534000D02*
X166701000Y-133534000D01*
X158752000Y-136034000D02*
X158752000Y-135034000D01*
X161252000Y-136034000D02*
X161252000Y-135034000D01*
X158752000Y-136034000D02*
X161252000Y-136034000D01*
X158752000Y-135034000D02*
X161252000Y-135034000D01*
X171462000Y-144834000D02*
X172702000Y-144834000D01*
X172702000Y-144834000D02*
X172702000Y-143834000D01*
G04 #@! TO.C,J3*
X102952000Y-111452000D02*
X102952000Y-112452000D01*
X104192000Y-111452000D02*
X102952000Y-111452000D01*
X116902000Y-121252000D02*
X114402000Y-121252000D01*
X116902000Y-120252000D02*
X114402000Y-120252000D01*
X114402000Y-120252000D02*
X114402000Y-121252000D01*
X116902000Y-120252000D02*
X116902000Y-121252000D01*
X109952000Y-122752000D02*
X108953000Y-122752000D01*
X109952000Y-118752000D02*
X108953000Y-118752000D01*
X108953000Y-121242000D02*
X108953000Y-122752000D01*
X108953000Y-118752000D02*
X108953000Y-119262000D01*
X109952000Y-118752000D02*
X109952000Y-122752000D01*
X117252000Y-123252000D02*
X103252000Y-123252000D01*
X117252000Y-118252000D02*
X103252000Y-118252000D01*
X103252000Y-118252000D02*
X103252000Y-123252000D01*
X117252000Y-118252000D02*
X117252000Y-123252000D01*
X107852000Y-122752000D02*
X104552000Y-122752000D01*
X107852000Y-118752000D02*
X104552000Y-118752000D01*
X104552000Y-118752000D02*
X104552000Y-122752000D01*
X107852000Y-121242000D02*
X107852000Y-122752000D01*
X107852000Y-118752000D02*
X107852000Y-119262000D01*
X116902000Y-116252000D02*
X114402000Y-116252000D01*
X116902000Y-115252000D02*
X114402000Y-115252000D01*
X114402000Y-115252000D02*
X114402000Y-116252000D01*
X116902000Y-115252000D02*
X116902000Y-116252000D01*
X109952000Y-117752000D02*
X108953000Y-117752000D01*
X109952000Y-113752000D02*
X108953000Y-113752000D01*
X108953000Y-116242000D02*
X108953000Y-117752000D01*
X108953000Y-113752000D02*
X108953000Y-114262000D01*
X109952000Y-113752000D02*
X109952000Y-117752000D01*
X117252000Y-118252000D02*
X103252000Y-118252000D01*
X117252000Y-113252000D02*
X103252000Y-113252000D01*
X103252000Y-113252000D02*
X103252000Y-118252000D01*
X117252000Y-113252000D02*
X117252000Y-118252000D01*
X107852000Y-117752000D02*
X104552000Y-117752000D01*
X107852000Y-113752000D02*
X104552000Y-113752000D01*
X104552000Y-113752000D02*
X104552000Y-117752000D01*
X107852000Y-116242000D02*
X107852000Y-117752000D01*
X107852000Y-113752000D02*
X107852000Y-114262000D01*
X117312000Y-123312000D02*
X103192000Y-123312000D01*
X117312000Y-111692000D02*
X103192000Y-111692000D01*
X103192000Y-111692000D02*
X103192000Y-123312000D01*
X117312000Y-111692000D02*
X117312000Y-123312000D01*
X112752000Y-121242000D02*
X112752000Y-123312000D01*
X112752000Y-116242000D02*
X112752000Y-119262000D01*
X112752000Y-111692000D02*
X112752000Y-114262000D01*
X109952000Y-111692000D02*
X109952000Y-123312000D01*
X104252000Y-111692000D02*
X104252000Y-123312000D01*
G04 #@! TO.C,C2*
X145315000Y-80227500D02*
X150555000Y-80227500D01*
X145315000Y-82967500D02*
X150555000Y-82967500D01*
X145315000Y-80227500D02*
X145315000Y-82967500D01*
X150555000Y-80227500D02*
X150555000Y-82967500D01*
G04 #@! TO.C,F2*
X115395000Y-132819000D02*
X115720558Y-132819000D01*
X115369442Y-135219000D02*
X115695000Y-135219000D01*
G04 #@! TO.C,D2*
X126660000Y-116054000D02*
X124420000Y-116054000D01*
X124420000Y-116054000D02*
X124420000Y-120294000D01*
X124420000Y-120294000D02*
X126660000Y-120294000D01*
X126660000Y-120294000D02*
X126660000Y-116054000D01*
X125540000Y-115404000D02*
X125540000Y-116054000D01*
X125540000Y-120944000D02*
X125540000Y-120294000D01*
X126660000Y-116774000D02*
X124420000Y-116774000D01*
X126660000Y-116894000D02*
X124420000Y-116894000D01*
X126660000Y-116654000D02*
X124420000Y-116654000D01*
D14*
G04 #@! TO.C,K1*
X135722000Y-118010000D02*
G75*
G02X135722000Y-118210000I0J-100000D01*
G01*
X135722000Y-118210000D02*
G75*
G02X135722000Y-118010000I0J100000D01*
G01*
X135722000Y-118210000D02*
X135722000Y-118210000D01*
X135722000Y-118010000D02*
X135722000Y-118010000D01*
D15*
X130122000Y-117410000D02*
X132582000Y-117410000D01*
X135122000Y-145410000D02*
X135122000Y-117410000D01*
X130122000Y-145410000D02*
X135122000Y-145410000D01*
X130122000Y-117410000D02*
X130122000Y-145410000D01*
D12*
G04 #@! TO.C,Q1*
X146440000Y-118513000D02*
X146440000Y-114913000D01*
X146428478Y-118551478D02*
G75*
G02X141990000Y-116713000I-1838478J1838478D01*
G01*
X146428478Y-114874522D02*
G75*
G03X141990000Y-116713000I-1838478J-1838478D01*
G01*
G04 #@! TO.C,R2*
X145960000Y-102552000D02*
G75*
G03X145960000Y-102552000I-1370000J0D01*
G01*
X144590000Y-103922000D02*
X144590000Y-103992000D01*
D13*
G04 #@! TO.C,RV1*
X141319000Y-125318000D02*
X141319000Y-134318000D01*
X147019000Y-125318000D02*
X147019000Y-134318000D01*
X147019000Y-134318000D02*
X141319000Y-134318000D01*
X147019000Y-125318000D02*
X141319000Y-125318000D01*
D12*
G04 #@! TO.C,J4*
X119701000Y-122615000D02*
X122361000Y-122615000D01*
X119701000Y-120015000D02*
X119701000Y-122615000D01*
X122361000Y-120015000D02*
X122361000Y-122615000D01*
X119701000Y-120015000D02*
X122361000Y-120015000D01*
X119701000Y-118745000D02*
X119701000Y-117415000D01*
X119701000Y-117415000D02*
X121031000Y-117415000D01*
G04 #@! TO.C,J1*
D13*
X147100666Y-134124380D02*
X147100666Y-134838666D01*
X147053047Y-134981523D01*
X146957809Y-135076761D01*
X146814952Y-135124380D01*
X146719714Y-135124380D01*
X148100666Y-135124380D02*
X147529238Y-135124380D01*
X147814952Y-135124380D02*
X147814952Y-134124380D01*
X147719714Y-134267238D01*
X147624476Y-134362476D01*
X147529238Y-134410095D01*
G04 #@! TO.C,R1*
X105989380Y-79922666D02*
X105513190Y-80256000D01*
X105989380Y-80494095D02*
X104989380Y-80494095D01*
X104989380Y-80113142D01*
X105037000Y-80017904D01*
X105084619Y-79970285D01*
X105179857Y-79922666D01*
X105322714Y-79922666D01*
X105417952Y-79970285D01*
X105465571Y-80017904D01*
X105513190Y-80113142D01*
X105513190Y-80494095D01*
X105989380Y-78970285D02*
X105989380Y-79541714D01*
X105989380Y-79256000D02*
X104989380Y-79256000D01*
X105132238Y-79351238D01*
X105227476Y-79446476D01*
X105275095Y-79541714D01*
G04 #@! TO.C,SW1*
X111950666Y-88542761D02*
X112093523Y-88590380D01*
X112331619Y-88590380D01*
X112426857Y-88542761D01*
X112474476Y-88495142D01*
X112522095Y-88399904D01*
X112522095Y-88304666D01*
X112474476Y-88209428D01*
X112426857Y-88161809D01*
X112331619Y-88114190D01*
X112141142Y-88066571D01*
X112045904Y-88018952D01*
X111998285Y-87971333D01*
X111950666Y-87876095D01*
X111950666Y-87780857D01*
X111998285Y-87685619D01*
X112045904Y-87638000D01*
X112141142Y-87590380D01*
X112379238Y-87590380D01*
X112522095Y-87638000D01*
X112855428Y-87590380D02*
X113093523Y-88590380D01*
X113284000Y-87876095D01*
X113474476Y-88590380D01*
X113712571Y-87590380D01*
X114617333Y-88590380D02*
X114045904Y-88590380D01*
X114331619Y-88590380D02*
X114331619Y-87590380D01*
X114236380Y-87733238D01*
X114141142Y-87828476D01*
X114045904Y-87876095D01*
G04 #@! TO.C,D1*
X113053904Y-84145380D02*
X113053904Y-83145380D01*
X113292000Y-83145380D01*
X113434857Y-83193000D01*
X113530095Y-83288238D01*
X113577714Y-83383476D01*
X113625333Y-83573952D01*
X113625333Y-83716809D01*
X113577714Y-83907285D01*
X113530095Y-84002523D01*
X113434857Y-84097761D01*
X113292000Y-84145380D01*
X113053904Y-84145380D01*
X114577714Y-84145380D02*
X114006285Y-84145380D01*
X114292000Y-84145380D02*
X114292000Y-83145380D01*
X114196761Y-83288238D01*
X114101523Y-83383476D01*
X114006285Y-83431095D01*
X109593142Y-84272380D02*
X109116952Y-84272380D01*
X109116952Y-83272380D01*
X109926476Y-83748571D02*
X110259809Y-83748571D01*
X110402666Y-84272380D02*
X109926476Y-84272380D01*
X109926476Y-83272380D01*
X110402666Y-83272380D01*
X110831238Y-84272380D02*
X110831238Y-83272380D01*
X111069333Y-83272380D01*
X111212190Y-83320000D01*
X111307428Y-83415238D01*
X111355047Y-83510476D01*
X111402666Y-83700952D01*
X111402666Y-83843809D01*
X111355047Y-84034285D01*
X111307428Y-84129523D01*
X111212190Y-84224761D01*
X111069333Y-84272380D01*
X110831238Y-84272380D01*
G04 #@! TO.C,U1*
X133516666Y-100607142D02*
X133516666Y-100130952D01*
X133802380Y-100702380D02*
X132802380Y-100369047D01*
X133802380Y-100035714D01*
X133802380Y-99702380D02*
X133135714Y-99702380D01*
X133326190Y-99702380D02*
X133230952Y-99654761D01*
X133183333Y-99607142D01*
X133135714Y-99511904D01*
X133135714Y-99416666D01*
X133802380Y-98654761D02*
X132802380Y-98654761D01*
X133754761Y-98654761D02*
X133802380Y-98750000D01*
X133802380Y-98940476D01*
X133754761Y-99035714D01*
X133707142Y-99083333D01*
X133611904Y-99130952D01*
X133326190Y-99130952D01*
X133230952Y-99083333D01*
X133183333Y-99035714D01*
X133135714Y-98940476D01*
X133135714Y-98750000D01*
X133183333Y-98654761D01*
X133135714Y-97750000D02*
X133802380Y-97750000D01*
X133135714Y-98178571D02*
X133659523Y-98178571D01*
X133754761Y-98130952D01*
X133802380Y-98035714D01*
X133802380Y-97892857D01*
X133754761Y-97797619D01*
X133707142Y-97750000D01*
X133802380Y-97273809D02*
X133135714Y-97273809D01*
X132802380Y-97273809D02*
X132850000Y-97321428D01*
X132897619Y-97273809D01*
X132850000Y-97226190D01*
X132802380Y-97273809D01*
X132897619Y-97273809D01*
X133135714Y-96797619D02*
X133802380Y-96797619D01*
X133230952Y-96797619D02*
X133183333Y-96750000D01*
X133135714Y-96654761D01*
X133135714Y-96511904D01*
X133183333Y-96416666D01*
X133278571Y-96369047D01*
X133802380Y-96369047D01*
X133802380Y-95750000D02*
X133754761Y-95845238D01*
X133707142Y-95892857D01*
X133611904Y-95940476D01*
X133326190Y-95940476D01*
X133230952Y-95892857D01*
X133183333Y-95845238D01*
X133135714Y-95750000D01*
X133135714Y-95607142D01*
X133183333Y-95511904D01*
X133230952Y-95464285D01*
X133326190Y-95416666D01*
X133611904Y-95416666D01*
X133707142Y-95464285D01*
X133754761Y-95511904D01*
X133802380Y-95607142D01*
X133802380Y-95750000D01*
X133802380Y-94988095D02*
X132802380Y-94988095D01*
X132802380Y-94607142D01*
X132850000Y-94511904D01*
X132897619Y-94464285D01*
X132992857Y-94416666D01*
X133135714Y-94416666D01*
X133230952Y-94464285D01*
X133278571Y-94511904D01*
X133326190Y-94607142D01*
X133326190Y-94988095D01*
X133802380Y-93988095D02*
X133135714Y-93988095D01*
X133326190Y-93988095D02*
X133230952Y-93940476D01*
X133183333Y-93892857D01*
X133135714Y-93797619D01*
X133135714Y-93702380D01*
X133802380Y-93226190D02*
X133754761Y-93321428D01*
X133707142Y-93369047D01*
X133611904Y-93416666D01*
X133326190Y-93416666D01*
X133230952Y-93369047D01*
X133183333Y-93321428D01*
X133135714Y-93226190D01*
X133135714Y-93083333D01*
X133183333Y-92988095D01*
X133230952Y-92940476D01*
X133326190Y-92892857D01*
X133611904Y-92892857D01*
X133707142Y-92940476D01*
X133754761Y-92988095D01*
X133802380Y-93083333D01*
X133802380Y-93226190D01*
X133802380Y-92464285D02*
X132802380Y-92464285D01*
X133516666Y-92130952D01*
X132802380Y-91797619D01*
X133802380Y-91797619D01*
X133802380Y-91321428D02*
X133135714Y-91321428D01*
X132802380Y-91321428D02*
X132850000Y-91369047D01*
X132897619Y-91321428D01*
X132850000Y-91273809D01*
X132802380Y-91321428D01*
X132897619Y-91321428D01*
X133135714Y-90845238D02*
X133802380Y-90845238D01*
X133230952Y-90845238D02*
X133183333Y-90797619D01*
X133135714Y-90702380D01*
X133135714Y-90559523D01*
X133183333Y-90464285D01*
X133278571Y-90416666D01*
X133802380Y-90416666D01*
X133802380Y-89940476D02*
X133135714Y-89940476D01*
X132802380Y-89940476D02*
X132850000Y-89988095D01*
X132897619Y-89940476D01*
X132850000Y-89892857D01*
X132802380Y-89940476D01*
X132897619Y-89940476D01*
X134291428Y-83350000D02*
X134891428Y-83150000D01*
X134291428Y-82950000D01*
X134834285Y-82407142D02*
X134862857Y-82435714D01*
X134891428Y-82521428D01*
X134891428Y-82578571D01*
X134862857Y-82664285D01*
X134805714Y-82721428D01*
X134748571Y-82750000D01*
X134634285Y-82778571D01*
X134548571Y-82778571D01*
X134434285Y-82750000D01*
X134377142Y-82721428D01*
X134320000Y-82664285D01*
X134291428Y-82578571D01*
X134291428Y-82521428D01*
X134320000Y-82435714D01*
X134348571Y-82407142D01*
X134834285Y-81807142D02*
X134862857Y-81835714D01*
X134891428Y-81921428D01*
X134891428Y-81978571D01*
X134862857Y-82064285D01*
X134805714Y-82121428D01*
X134748571Y-82150000D01*
X134634285Y-82178571D01*
X134548571Y-82178571D01*
X134434285Y-82150000D01*
X134377142Y-82121428D01*
X134320000Y-82064285D01*
X134291428Y-81978571D01*
X134291428Y-81921428D01*
X134320000Y-81835714D01*
X134348571Y-81807142D01*
X132351428Y-82792857D02*
X132065714Y-82992857D01*
X132351428Y-83135714D02*
X131751428Y-83135714D01*
X131751428Y-82907142D01*
X131780000Y-82850000D01*
X131808571Y-82821428D01*
X131865714Y-82792857D01*
X131951428Y-82792857D01*
X132008571Y-82821428D01*
X132037142Y-82850000D01*
X132065714Y-82907142D01*
X132065714Y-83135714D01*
X131751428Y-82592857D02*
X132351428Y-82192857D01*
X131751428Y-82192857D02*
X132351428Y-82592857D01*
X132351428Y-81964285D02*
X131751428Y-81964285D01*
X129211428Y-83307142D02*
X129211428Y-82964285D01*
X129811428Y-83135714D02*
X129211428Y-83135714D01*
X129211428Y-82821428D02*
X129811428Y-82421428D01*
X129211428Y-82421428D02*
X129811428Y-82821428D01*
X129811428Y-82192857D02*
X129211428Y-82192857D01*
X129211428Y-82050000D01*
X129240000Y-81964285D01*
X129297142Y-81907142D01*
X129354285Y-81878571D01*
X129468571Y-81850000D01*
X129554285Y-81850000D01*
X129668571Y-81878571D01*
X129725714Y-81907142D01*
X129782857Y-81964285D01*
X129811428Y-82050000D01*
X129811428Y-82192857D01*
X127906428Y-83235714D02*
X127306428Y-83235714D01*
X127306428Y-83092857D01*
X127335000Y-83007142D01*
X127392142Y-82950000D01*
X127449285Y-82921428D01*
X127563571Y-82892857D01*
X127649285Y-82892857D01*
X127763571Y-82921428D01*
X127820714Y-82950000D01*
X127877857Y-83007142D01*
X127906428Y-83092857D01*
X127906428Y-83235714D01*
X127306428Y-82721428D02*
X127306428Y-82378571D01*
X127906428Y-82550000D02*
X127306428Y-82550000D01*
X127906428Y-81835714D02*
X127620714Y-82035714D01*
X127906428Y-82178571D02*
X127306428Y-82178571D01*
X127306428Y-81950000D01*
X127335000Y-81892857D01*
X127363571Y-81864285D01*
X127420714Y-81835714D01*
X127506428Y-81835714D01*
X127563571Y-81864285D01*
X127592142Y-81892857D01*
X127620714Y-81950000D01*
X127620714Y-82178571D01*
X138765000Y-83007142D02*
X138736428Y-83064285D01*
X138736428Y-83150000D01*
X138765000Y-83235714D01*
X138822142Y-83292857D01*
X138879285Y-83321428D01*
X138993571Y-83350000D01*
X139079285Y-83350000D01*
X139193571Y-83321428D01*
X139250714Y-83292857D01*
X139307857Y-83235714D01*
X139336428Y-83150000D01*
X139336428Y-83092857D01*
X139307857Y-83007142D01*
X139279285Y-82978571D01*
X139079285Y-82978571D01*
X139079285Y-83092857D01*
X139336428Y-82721428D02*
X138736428Y-82721428D01*
X139336428Y-82378571D01*
X138736428Y-82378571D01*
X139336428Y-82092857D02*
X138736428Y-82092857D01*
X138736428Y-81950000D01*
X138765000Y-81864285D01*
X138822142Y-81807142D01*
X138879285Y-81778571D01*
X138993571Y-81750000D01*
X139079285Y-81750000D01*
X139193571Y-81778571D01*
X139250714Y-81807142D01*
X139307857Y-81864285D01*
X139336428Y-81950000D01*
X139336428Y-82092857D01*
X136860000Y-83007142D02*
X136831428Y-83064285D01*
X136831428Y-83150000D01*
X136860000Y-83235714D01*
X136917142Y-83292857D01*
X136974285Y-83321428D01*
X137088571Y-83350000D01*
X137174285Y-83350000D01*
X137288571Y-83321428D01*
X137345714Y-83292857D01*
X137402857Y-83235714D01*
X137431428Y-83150000D01*
X137431428Y-83092857D01*
X137402857Y-83007142D01*
X137374285Y-82978571D01*
X137174285Y-82978571D01*
X137174285Y-83092857D01*
X137431428Y-82721428D02*
X136831428Y-82721428D01*
X137431428Y-82378571D01*
X136831428Y-82378571D01*
X137431428Y-82092857D02*
X136831428Y-82092857D01*
X136831428Y-81950000D01*
X136860000Y-81864285D01*
X136917142Y-81807142D01*
X136974285Y-81778571D01*
X137088571Y-81750000D01*
X137174285Y-81750000D01*
X137288571Y-81778571D01*
X137345714Y-81807142D01*
X137402857Y-81864285D01*
X137431428Y-81950000D01*
X137431428Y-82092857D01*
G04 #@! TO.C,C1*
X102846142Y-91352666D02*
X102893761Y-91400285D01*
X102941380Y-91543142D01*
X102941380Y-91638380D01*
X102893761Y-91781238D01*
X102798523Y-91876476D01*
X102703285Y-91924095D01*
X102512809Y-91971714D01*
X102369952Y-91971714D01*
X102179476Y-91924095D01*
X102084238Y-91876476D01*
X101989000Y-91781238D01*
X101941380Y-91638380D01*
X101941380Y-91543142D01*
X101989000Y-91400285D01*
X102036619Y-91352666D01*
X102941380Y-90400285D02*
X102941380Y-90971714D01*
X102941380Y-90686000D02*
X101941380Y-90686000D01*
X102084238Y-90781238D01*
X102179476Y-90876476D01*
X102227095Y-90971714D01*
G04 #@! TO.C,U2*
X116817095Y-107624380D02*
X116817095Y-108433904D01*
X116864714Y-108529142D01*
X116912333Y-108576761D01*
X117007571Y-108624380D01*
X117198047Y-108624380D01*
X117293285Y-108576761D01*
X117340904Y-108529142D01*
X117388523Y-108433904D01*
X117388523Y-107624380D01*
X117817095Y-107719619D02*
X117864714Y-107672000D01*
X117959952Y-107624380D01*
X118198047Y-107624380D01*
X118293285Y-107672000D01*
X118340904Y-107719619D01*
X118388523Y-107814857D01*
X118388523Y-107910095D01*
X118340904Y-108052952D01*
X117769476Y-108624380D01*
X118388523Y-108624380D01*
G04 #@! TO.C,PS1*
X152979380Y-125166285D02*
X151979380Y-125166285D01*
X151979380Y-124785333D01*
X152027000Y-124690095D01*
X152074619Y-124642476D01*
X152169857Y-124594857D01*
X152312714Y-124594857D01*
X152407952Y-124642476D01*
X152455571Y-124690095D01*
X152503190Y-124785333D01*
X152503190Y-125166285D01*
X152931761Y-124213904D02*
X152979380Y-124071047D01*
X152979380Y-123832952D01*
X152931761Y-123737714D01*
X152884142Y-123690095D01*
X152788904Y-123642476D01*
X152693666Y-123642476D01*
X152598428Y-123690095D01*
X152550809Y-123737714D01*
X152503190Y-123832952D01*
X152455571Y-124023428D01*
X152407952Y-124118666D01*
X152360333Y-124166285D01*
X152265095Y-124213904D01*
X152169857Y-124213904D01*
X152074619Y-124166285D01*
X152027000Y-124118666D01*
X151979380Y-124023428D01*
X151979380Y-123785333D01*
X152027000Y-123642476D01*
X152979380Y-122690095D02*
X152979380Y-123261523D01*
X152979380Y-122975809D02*
X151979380Y-122975809D01*
X152122238Y-123071047D01*
X152217476Y-123166285D01*
X152265095Y-123261523D01*
G04 #@! TO.C,J2*
X156794380Y-139117333D02*
X157508666Y-139117333D01*
X157651523Y-139164952D01*
X157746761Y-139260190D01*
X157794380Y-139403047D01*
X157794380Y-139498285D01*
X156889619Y-138688761D02*
X156842000Y-138641142D01*
X156794380Y-138545904D01*
X156794380Y-138307809D01*
X156842000Y-138212571D01*
X156889619Y-138164952D01*
X156984857Y-138117333D01*
X157080095Y-138117333D01*
X157222952Y-138164952D01*
X157794380Y-138736380D01*
X157794380Y-138117333D01*
G04 #@! TO.C,J3*
X117764380Y-117835333D02*
X118478666Y-117835333D01*
X118621523Y-117882952D01*
X118716761Y-117978190D01*
X118764380Y-118121047D01*
X118764380Y-118216285D01*
X117764380Y-117454380D02*
X117764380Y-116835333D01*
X118145333Y-117168666D01*
X118145333Y-117025809D01*
X118192952Y-116930571D01*
X118240571Y-116882952D01*
X118335809Y-116835333D01*
X118573904Y-116835333D01*
X118669142Y-116882952D01*
X118716761Y-116930571D01*
X118764380Y-117025809D01*
X118764380Y-117311523D01*
X118716761Y-117406761D01*
X118669142Y-117454380D01*
G04 #@! TO.C,C2*
X147768333Y-79454642D02*
X147720714Y-79502261D01*
X147577857Y-79549880D01*
X147482619Y-79549880D01*
X147339761Y-79502261D01*
X147244523Y-79407023D01*
X147196904Y-79311785D01*
X147149285Y-79121309D01*
X147149285Y-78978452D01*
X147196904Y-78787976D01*
X147244523Y-78692738D01*
X147339761Y-78597500D01*
X147482619Y-78549880D01*
X147577857Y-78549880D01*
X147720714Y-78597500D01*
X147768333Y-78645119D01*
X148149285Y-78645119D02*
X148196904Y-78597500D01*
X148292142Y-78549880D01*
X148530238Y-78549880D01*
X148625476Y-78597500D01*
X148673095Y-78645119D01*
X148720714Y-78740357D01*
X148720714Y-78835595D01*
X148673095Y-78978452D01*
X148101666Y-79549880D01*
X148720714Y-79549880D01*
G04 #@! TO.C,F2*
X122561666Y-129447571D02*
X122228333Y-129447571D01*
X122228333Y-129971380D02*
X122228333Y-128971380D01*
X122704523Y-128971380D01*
X123037857Y-129066619D02*
X123085476Y-129019000D01*
X123180714Y-128971380D01*
X123418809Y-128971380D01*
X123514047Y-129019000D01*
X123561666Y-129066619D01*
X123609285Y-129161857D01*
X123609285Y-129257095D01*
X123561666Y-129399952D01*
X122990238Y-129971380D01*
X123609285Y-129971380D01*
G04 #@! TO.C,D2*
X124150380Y-118785095D02*
X123150380Y-118785095D01*
X123150380Y-118547000D01*
X123198000Y-118404142D01*
X123293238Y-118308904D01*
X123388476Y-118261285D01*
X123578952Y-118213666D01*
X123721809Y-118213666D01*
X123912285Y-118261285D01*
X124007523Y-118308904D01*
X124102761Y-118404142D01*
X124150380Y-118547000D01*
X124150380Y-118785095D01*
X123245619Y-117832714D02*
X123198000Y-117785095D01*
X123150380Y-117689857D01*
X123150380Y-117451761D01*
X123198000Y-117356523D01*
X123245619Y-117308904D01*
X123340857Y-117261285D01*
X123436095Y-117261285D01*
X123578952Y-117308904D01*
X124150380Y-117880333D01*
X124150380Y-117261285D01*
X128468380Y-121014857D02*
X128468380Y-121586285D01*
X128468380Y-121300571D02*
X127468380Y-121300571D01*
X127611238Y-121395809D01*
X127706476Y-121491047D01*
X127754095Y-121586285D01*
X128468380Y-120586285D02*
X127468380Y-120586285D01*
X128468380Y-120014857D01*
X127468380Y-120014857D01*
X127801714Y-119110095D02*
X128468380Y-119110095D01*
X127420761Y-119348190D02*
X128135047Y-119586285D01*
X128135047Y-118967238D01*
X128468380Y-118062476D02*
X128468380Y-118633904D01*
X128468380Y-118348190D02*
X127468380Y-118348190D01*
X127611238Y-118443428D01*
X127706476Y-118538666D01*
X127754095Y-118633904D01*
X127801714Y-117205333D02*
X128468380Y-117205333D01*
X127420761Y-117443428D02*
X128135047Y-117681523D01*
X128135047Y-117062476D01*
X127896952Y-116538666D02*
X127849333Y-116633904D01*
X127801714Y-116681523D01*
X127706476Y-116729142D01*
X127658857Y-116729142D01*
X127563619Y-116681523D01*
X127516000Y-116633904D01*
X127468380Y-116538666D01*
X127468380Y-116348190D01*
X127516000Y-116252952D01*
X127563619Y-116205333D01*
X127658857Y-116157714D01*
X127706476Y-116157714D01*
X127801714Y-116205333D01*
X127849333Y-116252952D01*
X127896952Y-116348190D01*
X127896952Y-116538666D01*
X127944571Y-116633904D01*
X127992190Y-116681523D01*
X128087428Y-116729142D01*
X128277904Y-116729142D01*
X128373142Y-116681523D01*
X128420761Y-116633904D01*
X128468380Y-116538666D01*
X128468380Y-116348190D01*
X128420761Y-116252952D01*
X128373142Y-116205333D01*
X128277904Y-116157714D01*
X128087428Y-116157714D01*
X127992190Y-116205333D01*
X127944571Y-116252952D01*
X127896952Y-116348190D01*
X127792380Y-114625904D02*
X126792380Y-114625904D01*
X127792380Y-114054476D02*
X127220952Y-114483047D01*
X126792380Y-114054476D02*
X127363809Y-114625904D01*
G04 #@! TO.C,K1*
D16*
X132718523Y-128572380D02*
X131448523Y-128572380D01*
X132718523Y-127846666D02*
X131992809Y-128390952D01*
X131448523Y-127846666D02*
X132174238Y-128572380D01*
X132718523Y-126637142D02*
X132718523Y-127362857D01*
X132718523Y-127000000D02*
X131448523Y-127000000D01*
X131629952Y-127120952D01*
X131750904Y-127241904D01*
X131811380Y-127362857D01*
X136561285Y-137193261D02*
X136561285Y-137616595D01*
X137226523Y-137616595D02*
X135956523Y-137616595D01*
X135956523Y-137011833D01*
X135956523Y-136709452D02*
X135956523Y-135983738D01*
X137226523Y-136346595D02*
X135956523Y-136346595D01*
X137226523Y-134834690D02*
X136621761Y-135258023D01*
X137226523Y-135560404D02*
X135956523Y-135560404D01*
X135956523Y-135076595D01*
X136017000Y-134955642D01*
X136077476Y-134895166D01*
X136198428Y-134834690D01*
X136379857Y-134834690D01*
X136500809Y-134895166D01*
X136561285Y-134955642D01*
X136621761Y-135076595D01*
X136621761Y-135560404D01*
X136742714Y-134290404D02*
X136742714Y-133322785D01*
X137226523Y-132113261D02*
X137226523Y-132718023D01*
X135956523Y-132718023D01*
X136621761Y-131448023D02*
X137226523Y-131448023D01*
X135956523Y-131871357D02*
X136621761Y-131448023D01*
X135956523Y-131024690D01*
X137105571Y-129875642D02*
X137166047Y-129936119D01*
X137226523Y-130117547D01*
X137226523Y-130238500D01*
X137166047Y-130419928D01*
X137045095Y-130540880D01*
X136924142Y-130601357D01*
X136682238Y-130661833D01*
X136500809Y-130661833D01*
X136258904Y-130601357D01*
X136137952Y-130540880D01*
X136017000Y-130419928D01*
X135956523Y-130238500D01*
X135956523Y-130117547D01*
X136017000Y-129936119D01*
X136077476Y-129875642D01*
X136863666Y-129391833D02*
X136863666Y-128787071D01*
X137226523Y-129512785D02*
X135956523Y-129089452D01*
X137226523Y-128666119D01*
X135956523Y-128000880D02*
X135956523Y-127879928D01*
X136017000Y-127758976D01*
X136077476Y-127698500D01*
X136198428Y-127638023D01*
X136440333Y-127577547D01*
X136742714Y-127577547D01*
X136984619Y-127638023D01*
X137105571Y-127698500D01*
X137166047Y-127758976D01*
X137226523Y-127879928D01*
X137226523Y-128000880D01*
X137166047Y-128121833D01*
X137105571Y-128182309D01*
X136984619Y-128242785D01*
X136742714Y-128303261D01*
X136440333Y-128303261D01*
X136198428Y-128242785D01*
X136077476Y-128182309D01*
X136017000Y-128121833D01*
X135956523Y-128000880D01*
X136077476Y-127093738D02*
X136017000Y-127033261D01*
X135956523Y-126912309D01*
X135956523Y-126609928D01*
X136017000Y-126488976D01*
X136077476Y-126428500D01*
X136198428Y-126368023D01*
X136319380Y-126368023D01*
X136500809Y-126428500D01*
X137226523Y-127154214D01*
X137226523Y-126368023D01*
X136379857Y-125279452D02*
X137226523Y-125279452D01*
X135896047Y-125581833D02*
X136803190Y-125884214D01*
X136803190Y-125098023D01*
X136621761Y-124372309D02*
X137226523Y-124372309D01*
X135956523Y-124795642D02*
X136621761Y-124372309D01*
X135956523Y-123948976D01*
G04 #@! TO.C,Q1*
D13*
X141577619Y-116808238D02*
X141530000Y-116903476D01*
X141434761Y-116998714D01*
X141291904Y-117141571D01*
X141244285Y-117236809D01*
X141244285Y-117332047D01*
X141482380Y-117284428D02*
X141434761Y-117379666D01*
X141339523Y-117474904D01*
X141149047Y-117522523D01*
X140815714Y-117522523D01*
X140625238Y-117474904D01*
X140530000Y-117379666D01*
X140482380Y-117284428D01*
X140482380Y-117093952D01*
X140530000Y-116998714D01*
X140625238Y-116903476D01*
X140815714Y-116855857D01*
X141149047Y-116855857D01*
X141339523Y-116903476D01*
X141434761Y-116998714D01*
X141482380Y-117093952D01*
X141482380Y-117284428D01*
X141482380Y-115903476D02*
X141482380Y-116474904D01*
X141482380Y-116189190D02*
X140482380Y-116189190D01*
X140625238Y-116284428D01*
X140720476Y-116379666D01*
X140768095Y-116474904D01*
X147308571Y-118570142D02*
X147356190Y-118427285D01*
X147403809Y-118379666D01*
X147499047Y-118332047D01*
X147641904Y-118332047D01*
X147737142Y-118379666D01*
X147784761Y-118427285D01*
X147832380Y-118522523D01*
X147832380Y-118903476D01*
X146832380Y-118903476D01*
X146832380Y-118570142D01*
X146880000Y-118474904D01*
X146927619Y-118427285D01*
X147022857Y-118379666D01*
X147118095Y-118379666D01*
X147213333Y-118427285D01*
X147260952Y-118474904D01*
X147308571Y-118570142D01*
X147308571Y-118903476D01*
X147737142Y-117332047D02*
X147784761Y-117379666D01*
X147832380Y-117522523D01*
X147832380Y-117617761D01*
X147784761Y-117760619D01*
X147689523Y-117855857D01*
X147594285Y-117903476D01*
X147403809Y-117951095D01*
X147260952Y-117951095D01*
X147070476Y-117903476D01*
X146975238Y-117855857D01*
X146880000Y-117760619D01*
X146832380Y-117617761D01*
X146832380Y-117522523D01*
X146880000Y-117379666D01*
X146927619Y-117332047D01*
X146832380Y-116427285D02*
X146832380Y-116903476D01*
X147308571Y-116951095D01*
X147260952Y-116903476D01*
X147213333Y-116808238D01*
X147213333Y-116570142D01*
X147260952Y-116474904D01*
X147308571Y-116427285D01*
X147403809Y-116379666D01*
X147641904Y-116379666D01*
X147737142Y-116427285D01*
X147784761Y-116474904D01*
X147832380Y-116570142D01*
X147832380Y-116808238D01*
X147784761Y-116903476D01*
X147737142Y-116951095D01*
X147165714Y-115522523D02*
X147832380Y-115522523D01*
X146784761Y-115760619D02*
X147499047Y-115998714D01*
X147499047Y-115379666D01*
X146832380Y-114570142D02*
X146832380Y-114760619D01*
X146880000Y-114855857D01*
X146927619Y-114903476D01*
X147070476Y-114998714D01*
X147260952Y-115046333D01*
X147641904Y-115046333D01*
X147737142Y-114998714D01*
X147784761Y-114951095D01*
X147832380Y-114855857D01*
X147832380Y-114665380D01*
X147784761Y-114570142D01*
X147737142Y-114522523D01*
X147641904Y-114474904D01*
X147403809Y-114474904D01*
X147308571Y-114522523D01*
X147260952Y-114570142D01*
X147213333Y-114665380D01*
X147213333Y-114855857D01*
X147260952Y-114951095D01*
X147308571Y-114998714D01*
X147403809Y-115046333D01*
G04 #@! TO.C,R2*
X143899380Y-100242166D02*
X143423190Y-100575500D01*
X143899380Y-100813595D02*
X142899380Y-100813595D01*
X142899380Y-100432642D01*
X142947000Y-100337404D01*
X142994619Y-100289785D01*
X143089857Y-100242166D01*
X143232714Y-100242166D01*
X143327952Y-100289785D01*
X143375571Y-100337404D01*
X143423190Y-100432642D01*
X143423190Y-100813595D01*
X142994619Y-99861214D02*
X142947000Y-99813595D01*
X142899380Y-99718357D01*
X142899380Y-99480261D01*
X142947000Y-99385023D01*
X142994619Y-99337404D01*
X143089857Y-99289785D01*
X143185095Y-99289785D01*
X143327952Y-99337404D01*
X143899380Y-99908833D01*
X143899380Y-99289785D01*
G04 #@! TO.C,RV1*
X146629380Y-123722238D02*
X146153190Y-124055571D01*
X146629380Y-124293666D02*
X145629380Y-124293666D01*
X145629380Y-123912714D01*
X145677000Y-123817476D01*
X145724619Y-123769857D01*
X145819857Y-123722238D01*
X145962714Y-123722238D01*
X146057952Y-123769857D01*
X146105571Y-123817476D01*
X146153190Y-123912714D01*
X146153190Y-124293666D01*
X145629380Y-123436523D02*
X146629380Y-123103190D01*
X145629380Y-122769857D01*
X146629380Y-121912714D02*
X146629380Y-122484142D01*
X146629380Y-122198428D02*
X145629380Y-122198428D01*
X145772238Y-122293666D01*
X145867476Y-122388904D01*
X145915095Y-122484142D01*
X139660380Y-134937380D02*
X140660380Y-134604047D01*
X139660380Y-134270714D01*
X140660380Y-133937380D02*
X139660380Y-133937380D01*
X139660380Y-133699285D01*
X139708000Y-133556428D01*
X139803238Y-133461190D01*
X139898476Y-133413571D01*
X140088952Y-133365952D01*
X140231809Y-133365952D01*
X140422285Y-133413571D01*
X140517523Y-133461190D01*
X140612761Y-133556428D01*
X140660380Y-133699285D01*
X140660380Y-133937380D01*
X140660380Y-132365952D02*
X140184190Y-132699285D01*
X140660380Y-132937380D02*
X139660380Y-132937380D01*
X139660380Y-132556428D01*
X139708000Y-132461190D01*
X139755619Y-132413571D01*
X139850857Y-132365952D01*
X139993714Y-132365952D01*
X140088952Y-132413571D01*
X140136571Y-132461190D01*
X140184190Y-132556428D01*
X140184190Y-132937380D01*
X140279428Y-131937380D02*
X140279428Y-131175476D01*
X139660380Y-130508809D02*
X139660380Y-130413571D01*
X139708000Y-130318333D01*
X139755619Y-130270714D01*
X139850857Y-130223095D01*
X140041333Y-130175476D01*
X140279428Y-130175476D01*
X140469904Y-130223095D01*
X140565142Y-130270714D01*
X140612761Y-130318333D01*
X140660380Y-130413571D01*
X140660380Y-130508809D01*
X140612761Y-130604047D01*
X140565142Y-130651666D01*
X140469904Y-130699285D01*
X140279428Y-130746904D01*
X140041333Y-130746904D01*
X139850857Y-130699285D01*
X139755619Y-130651666D01*
X139708000Y-130604047D01*
X139660380Y-130508809D01*
X140612761Y-129699285D02*
X140660380Y-129699285D01*
X140755619Y-129746904D01*
X140803238Y-129794523D01*
X139660380Y-128842142D02*
X139660380Y-129032619D01*
X139708000Y-129127857D01*
X139755619Y-129175476D01*
X139898476Y-129270714D01*
X140088952Y-129318333D01*
X140469904Y-129318333D01*
X140565142Y-129270714D01*
X140612761Y-129223095D01*
X140660380Y-129127857D01*
X140660380Y-128937380D01*
X140612761Y-128842142D01*
X140565142Y-128794523D01*
X140469904Y-128746904D01*
X140231809Y-128746904D01*
X140136571Y-128794523D01*
X140088952Y-128842142D01*
X140041333Y-128937380D01*
X140041333Y-129127857D01*
X140088952Y-129223095D01*
X140136571Y-129270714D01*
X140231809Y-129318333D01*
X139755619Y-127604047D02*
X139708000Y-127556428D01*
X139660380Y-127461190D01*
X139660380Y-127223095D01*
X139708000Y-127127857D01*
X139755619Y-127080238D01*
X139850857Y-127032619D01*
X139946095Y-127032619D01*
X140088952Y-127080238D01*
X140660380Y-127651666D01*
X140660380Y-127032619D01*
X139660380Y-126127857D02*
X139660380Y-126604047D01*
X140136571Y-126651666D01*
X140088952Y-126604047D01*
X140041333Y-126508809D01*
X140041333Y-126270714D01*
X140088952Y-126175476D01*
X140136571Y-126127857D01*
X140231809Y-126080238D01*
X140469904Y-126080238D01*
X140565142Y-126127857D01*
X140612761Y-126175476D01*
X140660380Y-126270714D01*
X140660380Y-126508809D01*
X140612761Y-126604047D01*
X140565142Y-126651666D01*
X139660380Y-125461190D02*
X139660380Y-125365952D01*
X139708000Y-125270714D01*
X139755619Y-125223095D01*
X139850857Y-125175476D01*
X140041333Y-125127857D01*
X140279428Y-125127857D01*
X140469904Y-125175476D01*
X140565142Y-125223095D01*
X140612761Y-125270714D01*
X140660380Y-125365952D01*
X140660380Y-125461190D01*
X140612761Y-125556428D01*
X140565142Y-125604047D01*
X140469904Y-125651666D01*
X140279428Y-125699285D01*
X140041333Y-125699285D01*
X139850857Y-125651666D01*
X139755619Y-125604047D01*
X139708000Y-125556428D01*
X139660380Y-125461190D01*
G04 #@! TO.C,J4*
X120697666Y-115867380D02*
X120697666Y-116581666D01*
X120650047Y-116724523D01*
X120554809Y-116819761D01*
X120411952Y-116867380D01*
X120316714Y-116867380D01*
X121602428Y-116200714D02*
X121602428Y-116867380D01*
X121364333Y-115819761D02*
X121126238Y-116534047D01*
X121745285Y-116534047D01*
X120269095Y-125118761D02*
X120411952Y-125166380D01*
X120650047Y-125166380D01*
X120745285Y-125118761D01*
X120792904Y-125071142D01*
X120840523Y-124975904D01*
X120840523Y-124880666D01*
X120792904Y-124785428D01*
X120745285Y-124737809D01*
X120650047Y-124690190D01*
X120459571Y-124642571D01*
X120364333Y-124594952D01*
X120316714Y-124547333D01*
X120269095Y-124452095D01*
X120269095Y-124356857D01*
X120316714Y-124261619D01*
X120364333Y-124214000D01*
X120459571Y-124166380D01*
X120697666Y-124166380D01*
X120840523Y-124214000D01*
X121792904Y-125166380D02*
X121221476Y-125166380D01*
X121507190Y-125166380D02*
X121507190Y-124166380D01*
X121411952Y-124309238D01*
X121316714Y-124404476D01*
X121221476Y-124452095D01*
G04 #@! TD*
%LPC*%
D17*
G04 #@! TO.C,P3*
X116000000Y-81250000D03*
D18*
X117650000Y-81250000D03*
X117166726Y-82416726D03*
X116000000Y-82900000D03*
X114833274Y-82416726D03*
X114350000Y-81250000D03*
X114833274Y-80083274D03*
X116000000Y-79600000D03*
X117166726Y-80083274D03*
G04 #@! TD*
D17*
G04 #@! TO.C,P2*
X161000000Y-81250000D03*
D18*
X162650000Y-81250000D03*
X162166726Y-82416726D03*
X161000000Y-82900000D03*
X159833274Y-82416726D03*
X159350000Y-81250000D03*
X159833274Y-80083274D03*
X161000000Y-79600000D03*
X162166726Y-80083274D03*
G04 #@! TD*
D17*
G04 #@! TO.C,P5*
X161000000Y-149750000D03*
D18*
X162650000Y-149750000D03*
X162166726Y-150916726D03*
X161000000Y-151400000D03*
X159833274Y-150916726D03*
X159350000Y-149750000D03*
X159833274Y-148583274D03*
X161000000Y-148100000D03*
X162166726Y-148583274D03*
G04 #@! TD*
D19*
G04 #@! TO.C,P1*
X103568000Y-100648000D03*
G04 #@! TD*
D17*
G04 #@! TO.C,P4*
X116000000Y-149750000D03*
D18*
X117650000Y-149750000D03*
X117166726Y-150916726D03*
X116000000Y-151400000D03*
X114833274Y-150916726D03*
X114350000Y-149750000D03*
X114833274Y-148583274D03*
X116000000Y-148100000D03*
X117166726Y-148583274D03*
G04 #@! TD*
D20*
G04 #@! TO.C,J1*
X142684000Y-145732000D03*
X142684000Y-140732000D03*
D21*
X147684000Y-145732000D03*
X147684000Y-140732000D03*
X152684000Y-145732000D03*
X152684000Y-140732000D03*
G04 #@! TD*
D22*
G04 #@! TO.C,R1*
X105664000Y-82169000D03*
D23*
X105664000Y-84709000D03*
G04 #@! TD*
D24*
G04 #@! TO.C,SW1*
X116586000Y-85924000D03*
X116586000Y-90424000D03*
X110086000Y-85924000D03*
X110086000Y-90424000D03*
G04 #@! TD*
D25*
G04 #@! TO.C,D1*
X111633000Y-80962500D03*
D26*
X109093000Y-80962500D03*
G04 #@! TD*
G04 #@! TO.C,U1*
X138430000Y-101600000D03*
X138430000Y-104140000D03*
X135890000Y-110490000D03*
X138430000Y-110490000D03*
X140970000Y-110490000D03*
X140970000Y-107950000D03*
X140970000Y-105410000D03*
X140970000Y-102870000D03*
X140970000Y-100330000D03*
X140970000Y-97790000D03*
X140970000Y-95250000D03*
X140970000Y-92710000D03*
X140970000Y-90170000D03*
X140970000Y-87630000D03*
X140970000Y-85090000D03*
X140970000Y-82550000D03*
X125730000Y-82550000D03*
X125730000Y-85090000D03*
X125730000Y-87630000D03*
X125730000Y-90170000D03*
X125730000Y-92710000D03*
X125730000Y-95250000D03*
X125730000Y-97790000D03*
X125730000Y-100330000D03*
X125730000Y-102870000D03*
X125730000Y-105410000D03*
X125730000Y-107950000D03*
X125730000Y-110490000D03*
X138430000Y-93980000D03*
X138430000Y-91440000D03*
G04 #@! TD*
D27*
G04 #@! TO.C,C1*
X105410000Y-89217500D03*
D28*
X105410000Y-87717500D03*
G04 #@! TD*
D29*
G04 #@! TO.C,U2*
X121579000Y-94672000D03*
D30*
X122579000Y-94672000D03*
D29*
X121579000Y-108672000D03*
X121579000Y-106672000D03*
X121579000Y-104672000D03*
X121579000Y-102672000D03*
X121579000Y-100672000D03*
X121579000Y-98672000D03*
X121579000Y-96672000D03*
D30*
X122579000Y-108672000D03*
X122579000Y-106672000D03*
X122579000Y-104672000D03*
X122579000Y-102672000D03*
X122579000Y-100672000D03*
X122579000Y-98672000D03*
X122579000Y-96672000D03*
G04 #@! TD*
D31*
G04 #@! TO.C,PS1*
X170262000Y-89326000D03*
X170262000Y-127826000D03*
X162262000Y-89326000D03*
D32*
X159512000Y-127826000D03*
G04 #@! TD*
D33*
G04 #@! TO.C,J2*
X168402000Y-141034000D03*
X163402000Y-141034000D03*
D34*
X168402000Y-136034000D03*
X163402000Y-136034000D03*
G04 #@! TD*
G04 #@! TO.C,J3*
X112252000Y-120252000D03*
X107252000Y-120252000D03*
D33*
X112252000Y-115252000D03*
X107252000Y-115252000D03*
G04 #@! TD*
D22*
G04 #@! TO.C,C2*
X146685000Y-81597500D03*
X149185000Y-81597500D03*
G04 #@! TD*
D15*
G04 #@! TO.C,F2*
G36*
X108051827Y-131126704D02*
X108207145Y-131149744D01*
X108359455Y-131187895D01*
X108507293Y-131240793D01*
X108649235Y-131307926D01*
X108783912Y-131388649D01*
X108910029Y-131482183D01*
X109026371Y-131587629D01*
X109131817Y-131703971D01*
X109225351Y-131830088D01*
X109306074Y-131964765D01*
X109373207Y-132106707D01*
X109426105Y-132254545D01*
X109464256Y-132406855D01*
X109487296Y-132562173D01*
X109495000Y-132719000D01*
X109495000Y-135919000D01*
X109487296Y-136075827D01*
X109464256Y-136231145D01*
X109426105Y-136383455D01*
X109373207Y-136531293D01*
X109306074Y-136673235D01*
X109225351Y-136807912D01*
X109131817Y-136934029D01*
X109026371Y-137050371D01*
X108910029Y-137155817D01*
X108783912Y-137249351D01*
X108649235Y-137330074D01*
X108507293Y-137397207D01*
X108359455Y-137450105D01*
X108207145Y-137488256D01*
X108051827Y-137511296D01*
X107895000Y-137519000D01*
X104695000Y-137519000D01*
X104538173Y-137511296D01*
X104382855Y-137488256D01*
X104230545Y-137450105D01*
X104082707Y-137397207D01*
X103940765Y-137330074D01*
X103806088Y-137249351D01*
X103679971Y-137155817D01*
X103563629Y-137050371D01*
X103458183Y-136934029D01*
X103364649Y-136807912D01*
X103283926Y-136673235D01*
X103216793Y-136531293D01*
X103163895Y-136383455D01*
X103125744Y-136231145D01*
X103102704Y-136075827D01*
X103095000Y-135919000D01*
X103095000Y-132719000D01*
X103102704Y-132562173D01*
X103125744Y-132406855D01*
X103163895Y-132254545D01*
X103216793Y-132106707D01*
X103283926Y-131964765D01*
X103364649Y-131830088D01*
X103458183Y-131703971D01*
X103563629Y-131587629D01*
X103679971Y-131482183D01*
X103806088Y-131388649D01*
X103940765Y-131307926D01*
X104082707Y-131240793D01*
X104230545Y-131187895D01*
X104382855Y-131149744D01*
X104538173Y-131126704D01*
X104695000Y-131119000D01*
X107895000Y-131119000D01*
X108051827Y-131126704D01*
X108051827Y-131126704D01*
G37*
D35*
X106295000Y-134319000D03*
D15*
G36*
X125251827Y-131126704D02*
X125407145Y-131149744D01*
X125559455Y-131187895D01*
X125707293Y-131240793D01*
X125849235Y-131307926D01*
X125983912Y-131388649D01*
X126110029Y-131482183D01*
X126226371Y-131587629D01*
X126331817Y-131703971D01*
X126425351Y-131830088D01*
X126506074Y-131964765D01*
X126573207Y-132106707D01*
X126626105Y-132254545D01*
X126664256Y-132406855D01*
X126687296Y-132562173D01*
X126695000Y-132719000D01*
X126695000Y-135919000D01*
X126687296Y-136075827D01*
X126664256Y-136231145D01*
X126626105Y-136383455D01*
X126573207Y-136531293D01*
X126506074Y-136673235D01*
X126425351Y-136807912D01*
X126331817Y-136934029D01*
X126226371Y-137050371D01*
X126110029Y-137155817D01*
X125983912Y-137249351D01*
X125849235Y-137330074D01*
X125707293Y-137397207D01*
X125559455Y-137450105D01*
X125407145Y-137488256D01*
X125251827Y-137511296D01*
X125095000Y-137519000D01*
X121895000Y-137519000D01*
X121738173Y-137511296D01*
X121582855Y-137488256D01*
X121430545Y-137450105D01*
X121282707Y-137397207D01*
X121140765Y-137330074D01*
X121006088Y-137249351D01*
X120879971Y-137155817D01*
X120763629Y-137050371D01*
X120658183Y-136934029D01*
X120564649Y-136807912D01*
X120483926Y-136673235D01*
X120416793Y-136531293D01*
X120363895Y-136383455D01*
X120325744Y-136231145D01*
X120302704Y-136075827D01*
X120295000Y-135919000D01*
X120295000Y-132719000D01*
X120302704Y-132562173D01*
X120325744Y-132406855D01*
X120363895Y-132254545D01*
X120416793Y-132106707D01*
X120483926Y-131964765D01*
X120564649Y-131830088D01*
X120658183Y-131703971D01*
X120763629Y-131587629D01*
X120879971Y-131482183D01*
X121006088Y-131388649D01*
X121140765Y-131307926D01*
X121282707Y-131240793D01*
X121430545Y-131187895D01*
X121582855Y-131149744D01*
X121738173Y-131126704D01*
X121895000Y-131119000D01*
X125095000Y-131119000D01*
X125251827Y-131126704D01*
X125251827Y-131126704D01*
G37*
D35*
X123495000Y-134319000D03*
G04 #@! TD*
D36*
G04 #@! TO.C,D2*
X125540000Y-114364000D03*
D23*
X125540000Y-121984000D03*
G04 #@! TD*
D37*
G04 #@! TO.C,K1*
X133922000Y-143710000D03*
X133922000Y-138670000D03*
X133922000Y-133630000D03*
D38*
X133922000Y-121890000D03*
X133922000Y-118110000D03*
G04 #@! TD*
D39*
G04 #@! TO.C,Q1*
X144590000Y-116713000D03*
X144590000Y-115443000D03*
D40*
X144590000Y-117983000D03*
G04 #@! TD*
D22*
G04 #@! TO.C,R2*
X144590000Y-102552000D03*
D23*
X144590000Y-105092000D03*
G04 #@! TD*
D22*
G04 #@! TO.C,RV1*
X145669000Y-127318000D03*
X142669000Y-132318000D03*
G04 #@! TD*
D41*
G04 #@! TO.C,J4*
X121031000Y-118745000D03*
D42*
X121031000Y-121285000D03*
G04 #@! TD*
M02*
