G04 #@! TF.GenerationSoftware,KiCad,Pcbnew,(5.0.2)-1*
G04 #@! TF.CreationDate,2019-10-27T17:27:48+01:00*
G04 #@! TF.ProjectId,HM-LC-Sw1-FM,484d2d4c-432d-4537-9731-2d464d2e6b69,rev?*
G04 #@! TF.SameCoordinates,Original*
G04 #@! TF.FileFunction,Legend,Bot*
G04 #@! TF.FilePolarity,Positive*
%FSLAX46Y46*%
G04 Gerber Fmt 4.6, Leading zero omitted, Abs format (unit mm)*
G04 Created by KiCad (PCBNEW (5.0.2)-1) date 27.10.2019 17:27:48*
%MOMM*%
%LPD*%
G01*
G04 APERTURE LIST*
%ADD10C,0.150000*%
%ADD11C,0.250000*%
%ADD12C,0.010000*%
%ADD13C,0.120000*%
%ADD14C,4.800000*%
%ADD15C,1.100000*%
%ADD16C,2.600000*%
%ADD17R,1.900000X3.400000*%
%ADD18O,1.900000X3.400000*%
%ADD19C,2.000000*%
%ADD20O,2.000000X2.000000*%
%ADD21C,2.400000*%
%ADD22R,2.200000X2.200000*%
%ADD23C,2.200000*%
%ADD24R,1.600000X1.600000*%
%ADD25C,1.600000*%
%ADD26C,1.750000*%
%ADD27C,3.400000*%
%ADD28R,3.400000X3.400000*%
%ADD29R,3.400000X1.900000*%
%ADD30O,3.400000X1.900000*%
%ADD31R,2.000000X2.000000*%
%ADD32C,2.350000*%
%ADD33C,1.900000*%
%ADD34O,1.900000X1.450000*%
%ADD35R,1.900000X1.450000*%
%ADD36R,2.100000X2.100000*%
%ADD37O,2.100000X2.100000*%
G04 APERTURE END LIST*
D10*
G36*
X149542500Y-119697500D02*
X157289500Y-119697500D01*
X157289500Y-84836000D01*
X149542500Y-84836000D01*
X149542500Y-119697500D01*
G37*
X149542500Y-119697500D02*
X157289500Y-119697500D01*
X157289500Y-84836000D01*
X149542500Y-84836000D01*
X149542500Y-119697500D01*
D11*
X169679880Y-95568261D02*
X168679880Y-95568261D01*
X169156071Y-95568261D02*
X169156071Y-96139690D01*
X169679880Y-96139690D02*
X168679880Y-96139690D01*
X169679880Y-96615880D02*
X168679880Y-96615880D01*
X169394166Y-96949214D01*
X168679880Y-97282547D01*
X169679880Y-97282547D01*
X169298928Y-97758738D02*
X169298928Y-98520642D01*
X169679880Y-99473023D02*
X169679880Y-98996833D01*
X168679880Y-98996833D01*
X169584642Y-100377785D02*
X169632261Y-100330166D01*
X169679880Y-100187309D01*
X169679880Y-100092071D01*
X169632261Y-99949214D01*
X169537023Y-99853976D01*
X169441785Y-99806357D01*
X169251309Y-99758738D01*
X169108452Y-99758738D01*
X168917976Y-99806357D01*
X168822738Y-99853976D01*
X168727500Y-99949214D01*
X168679880Y-100092071D01*
X168679880Y-100187309D01*
X168727500Y-100330166D01*
X168775119Y-100377785D01*
X169298928Y-100806357D02*
X169298928Y-101568261D01*
X169632261Y-101996833D02*
X169679880Y-102139690D01*
X169679880Y-102377785D01*
X169632261Y-102473023D01*
X169584642Y-102520642D01*
X169489404Y-102568261D01*
X169394166Y-102568261D01*
X169298928Y-102520642D01*
X169251309Y-102473023D01*
X169203690Y-102377785D01*
X169156071Y-102187309D01*
X169108452Y-102092071D01*
X169060833Y-102044452D01*
X168965595Y-101996833D01*
X168870357Y-101996833D01*
X168775119Y-102044452D01*
X168727500Y-102092071D01*
X168679880Y-102187309D01*
X168679880Y-102425404D01*
X168727500Y-102568261D01*
X169013214Y-102901595D02*
X169679880Y-103092071D01*
X169203690Y-103282547D01*
X169679880Y-103473023D01*
X169013214Y-103663500D01*
X169679880Y-104568261D02*
X169679880Y-103996833D01*
X169679880Y-104282547D02*
X168679880Y-104282547D01*
X168822738Y-104187309D01*
X168917976Y-104092071D01*
X168965595Y-103996833D01*
X169298928Y-104996833D02*
X169298928Y-105758738D01*
X169156071Y-106568261D02*
X169156071Y-106234928D01*
X169679880Y-106234928D02*
X168679880Y-106234928D01*
X168679880Y-106711119D01*
X169679880Y-107092071D02*
X168679880Y-107092071D01*
X169394166Y-107425404D01*
X168679880Y-107758738D01*
X169679880Y-107758738D01*
D10*
G04 #@! TO.C,U1*
X140335000Y-80010000D02*
G75*
G03X140335000Y-80010000I-635000J0D01*
G01*
X137795000Y-80010000D02*
G75*
G03X137795000Y-80010000I-635000J0D01*
G01*
X135255000Y-80010000D02*
G75*
G03X135255000Y-80010000I-635000J0D01*
G01*
X132715000Y-80010000D02*
G75*
G03X132715000Y-80010000I-635000J0D01*
G01*
X130175000Y-80010000D02*
G75*
G03X130175000Y-80010000I-635000J0D01*
G01*
X127635000Y-80010000D02*
G75*
G03X127635000Y-80010000I-635000J0D01*
G01*
D12*
G04 #@! TO.C,G\002A\002A\002A*
G36*
X147236592Y-87014837D02*
X147217157Y-86890464D01*
X147203108Y-86837656D01*
X147137894Y-86688137D01*
X147043337Y-86557043D01*
X146922752Y-86446983D01*
X146779452Y-86360563D01*
X146616751Y-86300391D01*
X146487368Y-86274503D01*
X146292843Y-86263867D01*
X146109944Y-86284829D01*
X145941625Y-86336670D01*
X145790842Y-86418673D01*
X145741076Y-86455718D01*
X145615353Y-86579395D01*
X145519060Y-86722519D01*
X145453539Y-86881560D01*
X145420135Y-87052988D01*
X145420193Y-87233272D01*
X145426088Y-87282785D01*
X145465746Y-87436037D01*
X145536336Y-87574340D01*
X145634206Y-87693739D01*
X145755708Y-87790277D01*
X145897192Y-87859996D01*
X145981964Y-87885420D01*
X146077214Y-87907942D01*
X146077214Y-87480094D01*
X145997690Y-87460069D01*
X145921330Y-87425128D01*
X145852882Y-87366233D01*
X145803950Y-87294527D01*
X145791727Y-87262275D01*
X145784176Y-87216893D01*
X145779268Y-87151899D01*
X145778163Y-87102070D01*
X145792555Y-86993439D01*
X145836515Y-86902844D01*
X145912212Y-86826768D01*
X145971728Y-86787786D01*
X146081621Y-86740257D01*
X146206095Y-86711608D01*
X146337590Y-86701267D01*
X146468548Y-86708663D01*
X146591409Y-86733224D01*
X146698615Y-86774379D01*
X146782605Y-86831554D01*
X146801071Y-86850513D01*
X146856704Y-86940017D01*
X146885649Y-87046175D01*
X146887026Y-87160130D01*
X146859952Y-87273028D01*
X146846306Y-87305038D01*
X146802752Y-87365782D01*
X146739315Y-87418853D01*
X146669871Y-87453774D01*
X146640021Y-87460820D01*
X146605698Y-87458373D01*
X146589225Y-87432404D01*
X146585592Y-87416269D01*
X146580751Y-87396516D01*
X146572484Y-87388082D01*
X146556432Y-87393834D01*
X146528238Y-87416641D01*
X146483541Y-87459369D01*
X146417984Y-87524886D01*
X146413235Y-87529662D01*
X146250328Y-87693500D01*
X146413235Y-87857380D01*
X146576143Y-88021261D01*
X146585214Y-87961702D01*
X146595331Y-87923350D01*
X146617797Y-87900036D01*
X146663233Y-87881978D01*
X146675929Y-87878161D01*
X146842808Y-87814512D01*
X146980370Y-87729887D01*
X147089410Y-87623554D01*
X147170723Y-87494781D01*
X147213945Y-87383186D01*
X147235263Y-87275179D01*
X147242719Y-87147736D01*
X147236592Y-87014837D01*
X147236592Y-87014837D01*
G37*
X147236592Y-87014837D02*
X147217157Y-86890464D01*
X147203108Y-86837656D01*
X147137894Y-86688137D01*
X147043337Y-86557043D01*
X146922752Y-86446983D01*
X146779452Y-86360563D01*
X146616751Y-86300391D01*
X146487368Y-86274503D01*
X146292843Y-86263867D01*
X146109944Y-86284829D01*
X145941625Y-86336670D01*
X145790842Y-86418673D01*
X145741076Y-86455718D01*
X145615353Y-86579395D01*
X145519060Y-86722519D01*
X145453539Y-86881560D01*
X145420135Y-87052988D01*
X145420193Y-87233272D01*
X145426088Y-87282785D01*
X145465746Y-87436037D01*
X145536336Y-87574340D01*
X145634206Y-87693739D01*
X145755708Y-87790277D01*
X145897192Y-87859996D01*
X145981964Y-87885420D01*
X146077214Y-87907942D01*
X146077214Y-87480094D01*
X145997690Y-87460069D01*
X145921330Y-87425128D01*
X145852882Y-87366233D01*
X145803950Y-87294527D01*
X145791727Y-87262275D01*
X145784176Y-87216893D01*
X145779268Y-87151899D01*
X145778163Y-87102070D01*
X145792555Y-86993439D01*
X145836515Y-86902844D01*
X145912212Y-86826768D01*
X145971728Y-86787786D01*
X146081621Y-86740257D01*
X146206095Y-86711608D01*
X146337590Y-86701267D01*
X146468548Y-86708663D01*
X146591409Y-86733224D01*
X146698615Y-86774379D01*
X146782605Y-86831554D01*
X146801071Y-86850513D01*
X146856704Y-86940017D01*
X146885649Y-87046175D01*
X146887026Y-87160130D01*
X146859952Y-87273028D01*
X146846306Y-87305038D01*
X146802752Y-87365782D01*
X146739315Y-87418853D01*
X146669871Y-87453774D01*
X146640021Y-87460820D01*
X146605698Y-87458373D01*
X146589225Y-87432404D01*
X146585592Y-87416269D01*
X146580751Y-87396516D01*
X146572484Y-87388082D01*
X146556432Y-87393834D01*
X146528238Y-87416641D01*
X146483541Y-87459369D01*
X146417984Y-87524886D01*
X146413235Y-87529662D01*
X146250328Y-87693500D01*
X146413235Y-87857380D01*
X146576143Y-88021261D01*
X146585214Y-87961702D01*
X146595331Y-87923350D01*
X146617797Y-87900036D01*
X146663233Y-87881978D01*
X146675929Y-87878161D01*
X146842808Y-87814512D01*
X146980370Y-87729887D01*
X147089410Y-87623554D01*
X147170723Y-87494781D01*
X147213945Y-87383186D01*
X147235263Y-87275179D01*
X147242719Y-87147736D01*
X147236592Y-87014837D01*
G36*
X147448706Y-94405329D02*
X147418901Y-94327566D01*
X147390528Y-94291333D01*
X147324961Y-94248985D01*
X147244487Y-94230420D01*
X147160009Y-94234925D01*
X147082433Y-94261787D01*
X147022664Y-94310294D01*
X147018561Y-94315655D01*
X146988472Y-94380956D01*
X146975023Y-94462763D01*
X146980456Y-94544274D01*
X146985425Y-94563966D01*
X147018278Y-94629836D01*
X147072063Y-94672096D01*
X147150964Y-94693164D01*
X147214985Y-94696643D01*
X147281808Y-94694825D01*
X147325118Y-94686776D01*
X147357611Y-94668601D01*
X147383561Y-94644944D01*
X147430825Y-94574779D01*
X147452610Y-94491321D01*
X147448706Y-94405329D01*
X147448706Y-94405329D01*
G37*
X147448706Y-94405329D02*
X147418901Y-94327566D01*
X147390528Y-94291333D01*
X147324961Y-94248985D01*
X147244487Y-94230420D01*
X147160009Y-94234925D01*
X147082433Y-94261787D01*
X147022664Y-94310294D01*
X147018561Y-94315655D01*
X146988472Y-94380956D01*
X146975023Y-94462763D01*
X146980456Y-94544274D01*
X146985425Y-94563966D01*
X147018278Y-94629836D01*
X147072063Y-94672096D01*
X147150964Y-94693164D01*
X147214985Y-94696643D01*
X147281808Y-94694825D01*
X147325118Y-94686776D01*
X147357611Y-94668601D01*
X147383561Y-94644944D01*
X147430825Y-94574779D01*
X147452610Y-94491321D01*
X147448706Y-94405329D01*
G36*
X146875165Y-94331275D02*
X146873958Y-94229061D01*
X146871575Y-94153967D01*
X146867711Y-94101411D01*
X146862063Y-94066815D01*
X146854326Y-94045596D01*
X146846990Y-94035725D01*
X146832206Y-94025873D01*
X146807100Y-94018520D01*
X146766896Y-94013326D01*
X146706819Y-94009949D01*
X146622093Y-94008047D01*
X146507941Y-94007280D01*
X146447847Y-94007215D01*
X146077214Y-94007215D01*
X146077214Y-94206786D01*
X145242643Y-94206786D01*
X145242643Y-94732929D01*
X146077214Y-94732929D01*
X146077214Y-94932500D01*
X146446331Y-94932500D01*
X146572194Y-94932241D01*
X146666773Y-94931188D01*
X146735066Y-94928923D01*
X146782071Y-94925033D01*
X146812789Y-94919102D01*
X146832217Y-94910713D01*
X146845356Y-94899452D01*
X146845474Y-94899322D01*
X146855429Y-94884259D01*
X146862951Y-94860854D01*
X146868368Y-94824390D01*
X146872005Y-94770152D01*
X146874188Y-94693421D01*
X146875244Y-94589483D01*
X146875500Y-94465189D01*
X146875165Y-94331275D01*
X146875165Y-94331275D01*
G37*
X146875165Y-94331275D02*
X146873958Y-94229061D01*
X146871575Y-94153967D01*
X146867711Y-94101411D01*
X146862063Y-94066815D01*
X146854326Y-94045596D01*
X146846990Y-94035725D01*
X146832206Y-94025873D01*
X146807100Y-94018520D01*
X146766896Y-94013326D01*
X146706819Y-94009949D01*
X146622093Y-94008047D01*
X146507941Y-94007280D01*
X146447847Y-94007215D01*
X146077214Y-94007215D01*
X146077214Y-94206786D01*
X145242643Y-94206786D01*
X145242643Y-94732929D01*
X146077214Y-94732929D01*
X146077214Y-94932500D01*
X146446331Y-94932500D01*
X146572194Y-94932241D01*
X146666773Y-94931188D01*
X146735066Y-94928923D01*
X146782071Y-94925033D01*
X146812789Y-94919102D01*
X146832217Y-94910713D01*
X146845356Y-94899452D01*
X146845474Y-94899322D01*
X146855429Y-94884259D01*
X146862951Y-94860854D01*
X146868368Y-94824390D01*
X146872005Y-94770152D01*
X146874188Y-94693421D01*
X146875244Y-94589483D01*
X146875500Y-94465189D01*
X146875165Y-94331275D01*
G36*
X146873296Y-97571638D02*
X146858746Y-97465050D01*
X146831493Y-97373424D01*
X146815151Y-97340169D01*
X146777323Y-97285615D01*
X146732666Y-97235488D01*
X146688593Y-97196581D01*
X146652519Y-97175684D01*
X146635563Y-97175665D01*
X146620159Y-97195631D01*
X146594830Y-97238501D01*
X146568730Y-97287858D01*
X146516771Y-97390857D01*
X146561153Y-97424276D01*
X146599866Y-97464314D01*
X146633227Y-97515836D01*
X146634721Y-97518897D01*
X146652130Y-97593999D01*
X146638787Y-97669594D01*
X146598032Y-97734366D01*
X146562744Y-97762765D01*
X146474939Y-97798704D01*
X146374948Y-97812091D01*
X146273568Y-97803794D01*
X146181598Y-97774682D01*
X146110633Y-97726425D01*
X146078531Y-97687900D01*
X146063219Y-97646468D01*
X146059087Y-97586233D01*
X146059071Y-97580360D01*
X146061936Y-97520527D01*
X146075252Y-97480013D01*
X146106100Y-97442006D01*
X146125118Y-97423566D01*
X146191165Y-97361276D01*
X146148674Y-97270554D01*
X146122604Y-97218690D01*
X146100735Y-97181768D01*
X146091376Y-97170683D01*
X146065711Y-97174281D01*
X146026245Y-97200932D01*
X145979972Y-97243953D01*
X145933884Y-97296661D01*
X145894976Y-97352372D01*
X145887386Y-97365626D01*
X145847322Y-97470546D01*
X145828262Y-97591288D01*
X145831467Y-97713230D01*
X145850007Y-97799072D01*
X145904216Y-97909040D01*
X145988570Y-98000145D01*
X146090251Y-98064878D01*
X146148583Y-98090770D01*
X146201524Y-98106045D01*
X146262697Y-98113334D01*
X146345724Y-98115272D01*
X146350966Y-98115276D01*
X146433699Y-98113755D01*
X146493679Y-98107352D01*
X146544373Y-98093306D01*
X146599253Y-98068854D01*
X146614199Y-98061307D01*
X146718281Y-97990896D01*
X146799717Y-97900368D01*
X146852424Y-97796823D01*
X146858860Y-97775630D01*
X146873786Y-97679670D01*
X146873296Y-97571638D01*
X146873296Y-97571638D01*
G37*
X146873296Y-97571638D02*
X146858746Y-97465050D01*
X146831493Y-97373424D01*
X146815151Y-97340169D01*
X146777323Y-97285615D01*
X146732666Y-97235488D01*
X146688593Y-97196581D01*
X146652519Y-97175684D01*
X146635563Y-97175665D01*
X146620159Y-97195631D01*
X146594830Y-97238501D01*
X146568730Y-97287858D01*
X146516771Y-97390857D01*
X146561153Y-97424276D01*
X146599866Y-97464314D01*
X146633227Y-97515836D01*
X146634721Y-97518897D01*
X146652130Y-97593999D01*
X146638787Y-97669594D01*
X146598032Y-97734366D01*
X146562744Y-97762765D01*
X146474939Y-97798704D01*
X146374948Y-97812091D01*
X146273568Y-97803794D01*
X146181598Y-97774682D01*
X146110633Y-97726425D01*
X146078531Y-97687900D01*
X146063219Y-97646468D01*
X146059087Y-97586233D01*
X146059071Y-97580360D01*
X146061936Y-97520527D01*
X146075252Y-97480013D01*
X146106100Y-97442006D01*
X146125118Y-97423566D01*
X146191165Y-97361276D01*
X146148674Y-97270554D01*
X146122604Y-97218690D01*
X146100735Y-97181768D01*
X146091376Y-97170683D01*
X146065711Y-97174281D01*
X146026245Y-97200932D01*
X145979972Y-97243953D01*
X145933884Y-97296661D01*
X145894976Y-97352372D01*
X145887386Y-97365626D01*
X145847322Y-97470546D01*
X145828262Y-97591288D01*
X145831467Y-97713230D01*
X145850007Y-97799072D01*
X145904216Y-97909040D01*
X145988570Y-98000145D01*
X146090251Y-98064878D01*
X146148583Y-98090770D01*
X146201524Y-98106045D01*
X146262697Y-98113334D01*
X146345724Y-98115272D01*
X146350966Y-98115276D01*
X146433699Y-98113755D01*
X146493679Y-98107352D01*
X146544373Y-98093306D01*
X146599253Y-98068854D01*
X146614199Y-98061307D01*
X146718281Y-97990896D01*
X146799717Y-97900368D01*
X146852424Y-97796823D01*
X146858860Y-97775630D01*
X146873786Y-97679670D01*
X146873296Y-97571638D01*
G36*
X146867939Y-98490453D02*
X146850339Y-98403946D01*
X146847535Y-98395531D01*
X146823467Y-98347035D01*
X146785703Y-98291331D01*
X146741443Y-98236908D01*
X146697890Y-98192251D01*
X146662246Y-98165848D01*
X146649473Y-98162144D01*
X146631826Y-98177020D01*
X146603776Y-98215801D01*
X146571588Y-98269752D01*
X146512604Y-98377145D01*
X146566597Y-98415591D01*
X146621583Y-98475335D01*
X146647739Y-98550500D01*
X146642320Y-98631281D01*
X146633861Y-98655783D01*
X146595814Y-98718588D01*
X146539777Y-98760301D01*
X146459443Y-98784560D01*
X146397335Y-98792220D01*
X146281333Y-98791608D01*
X146190418Y-98768107D01*
X146120574Y-98720501D01*
X146105022Y-98703611D01*
X146069392Y-98638122D01*
X146058139Y-98563413D01*
X146069962Y-98490084D01*
X146103558Y-98428734D01*
X146142718Y-98396713D01*
X146172828Y-98375224D01*
X146183135Y-98348387D01*
X146173258Y-98308618D01*
X146142814Y-98248333D01*
X146134485Y-98233604D01*
X146082898Y-98143280D01*
X145997655Y-98218314D01*
X145914657Y-98305471D01*
X145862272Y-98397914D01*
X145835543Y-98506062D01*
X145830212Y-98570143D01*
X145829466Y-98643305D01*
X145832835Y-98709544D01*
X145839001Y-98751572D01*
X145886482Y-98864729D01*
X145962814Y-98962683D01*
X146061454Y-99038217D01*
X146127048Y-99069188D01*
X146249574Y-99098880D01*
X146383997Y-99104553D01*
X146515047Y-99086248D01*
X146574695Y-99068055D01*
X146663542Y-99020397D01*
X146746180Y-98950431D01*
X146812862Y-98868105D01*
X146853841Y-98783367D01*
X146853932Y-98783064D01*
X146870006Y-98696351D01*
X146874585Y-98593368D01*
X146867939Y-98490453D01*
X146867939Y-98490453D01*
G37*
X146867939Y-98490453D02*
X146850339Y-98403946D01*
X146847535Y-98395531D01*
X146823467Y-98347035D01*
X146785703Y-98291331D01*
X146741443Y-98236908D01*
X146697890Y-98192251D01*
X146662246Y-98165848D01*
X146649473Y-98162144D01*
X146631826Y-98177020D01*
X146603776Y-98215801D01*
X146571588Y-98269752D01*
X146512604Y-98377145D01*
X146566597Y-98415591D01*
X146621583Y-98475335D01*
X146647739Y-98550500D01*
X146642320Y-98631281D01*
X146633861Y-98655783D01*
X146595814Y-98718588D01*
X146539777Y-98760301D01*
X146459443Y-98784560D01*
X146397335Y-98792220D01*
X146281333Y-98791608D01*
X146190418Y-98768107D01*
X146120574Y-98720501D01*
X146105022Y-98703611D01*
X146069392Y-98638122D01*
X146058139Y-98563413D01*
X146069962Y-98490084D01*
X146103558Y-98428734D01*
X146142718Y-98396713D01*
X146172828Y-98375224D01*
X146183135Y-98348387D01*
X146173258Y-98308618D01*
X146142814Y-98248333D01*
X146134485Y-98233604D01*
X146082898Y-98143280D01*
X145997655Y-98218314D01*
X145914657Y-98305471D01*
X145862272Y-98397914D01*
X145835543Y-98506062D01*
X145830212Y-98570143D01*
X145829466Y-98643305D01*
X145832835Y-98709544D01*
X145839001Y-98751572D01*
X145886482Y-98864729D01*
X145962814Y-98962683D01*
X146061454Y-99038217D01*
X146127048Y-99069188D01*
X146249574Y-99098880D01*
X146383997Y-99104553D01*
X146515047Y-99086248D01*
X146574695Y-99068055D01*
X146663542Y-99020397D01*
X146746180Y-98950431D01*
X146812862Y-98868105D01*
X146853841Y-98783367D01*
X146853932Y-98783064D01*
X146870006Y-98696351D01*
X146874585Y-98593368D01*
X146867939Y-98490453D01*
G36*
X148045435Y-86975658D02*
X148005990Y-86730511D01*
X147969409Y-86595857D01*
X147882438Y-86377238D01*
X147763184Y-86171893D01*
X147614277Y-85983204D01*
X147438344Y-85814555D01*
X147260493Y-85683617D01*
X147059095Y-85574579D01*
X146842374Y-85495731D01*
X146615083Y-85447039D01*
X146381979Y-85428471D01*
X146147818Y-85439992D01*
X145917356Y-85481569D01*
X145695347Y-85553170D01*
X145486549Y-85654760D01*
X145418802Y-85696524D01*
X145237932Y-85835335D01*
X145074191Y-86002114D01*
X144931775Y-86190929D01*
X144814885Y-86395845D01*
X144727718Y-86610927D01*
X144697747Y-86715718D01*
X144666922Y-86883346D01*
X144651776Y-87064723D01*
X144652621Y-87246239D01*
X144669767Y-87414283D01*
X144680488Y-87471160D01*
X144746289Y-87705013D01*
X144838478Y-87917412D01*
X144959856Y-88113319D01*
X145113222Y-88297694D01*
X145191446Y-88376335D01*
X145381822Y-88534765D01*
X145587069Y-88660132D01*
X145806621Y-88752209D01*
X146039911Y-88810770D01*
X146286370Y-88835589D01*
X146345260Y-88836500D01*
X146359547Y-88835665D01*
X146359547Y-88525246D01*
X146220646Y-88521742D01*
X146096829Y-88507780D01*
X146066145Y-88501841D01*
X145862850Y-88439855D01*
X145672145Y-88346587D01*
X145497300Y-88225603D01*
X145341582Y-88080467D01*
X145208259Y-87914745D01*
X145100600Y-87732002D01*
X145021874Y-87535802D01*
X144975347Y-87329711D01*
X144972628Y-87309001D01*
X144963821Y-87151150D01*
X144972281Y-86981722D01*
X144996749Y-86820297D01*
X145006749Y-86777429D01*
X145072101Y-86589622D01*
X145168518Y-86406878D01*
X145290821Y-86236065D01*
X145433835Y-86084051D01*
X145592383Y-85957706D01*
X145653761Y-85918948D01*
X145833841Y-85832938D01*
X146031851Y-85773684D01*
X146240155Y-85742189D01*
X146451119Y-85739457D01*
X146657110Y-85766493D01*
X146713244Y-85779634D01*
X146903077Y-85846607D01*
X147084908Y-85945166D01*
X147253098Y-86070684D01*
X147402007Y-86218540D01*
X147525996Y-86384108D01*
X147590527Y-86498981D01*
X147650256Y-86629215D01*
X147691760Y-86744040D01*
X147717936Y-86856057D01*
X147731683Y-86977868D01*
X147735900Y-87122076D01*
X147735913Y-87131072D01*
X147728692Y-87307705D01*
X147705077Y-87462252D01*
X147662320Y-87606249D01*
X147597673Y-87751231D01*
X147580342Y-87784215D01*
X147463921Y-87963683D01*
X147318794Y-88126451D01*
X147150438Y-88267995D01*
X146964328Y-88383792D01*
X146765941Y-88469320D01*
X146740938Y-88477535D01*
X146632274Y-88502689D01*
X146500949Y-88518744D01*
X146359547Y-88525246D01*
X146359547Y-88835665D01*
X146589932Y-88822198D01*
X146816131Y-88778245D01*
X147028366Y-88703070D01*
X147231145Y-88595104D01*
X147415304Y-88463803D01*
X147596165Y-88296717D01*
X147748234Y-88109442D01*
X147870619Y-87904988D01*
X147962425Y-87686371D01*
X148022759Y-87456601D01*
X148050727Y-87218693D01*
X148045435Y-86975658D01*
X148045435Y-86975658D01*
G37*
X148045435Y-86975658D02*
X148005990Y-86730511D01*
X147969409Y-86595857D01*
X147882438Y-86377238D01*
X147763184Y-86171893D01*
X147614277Y-85983204D01*
X147438344Y-85814555D01*
X147260493Y-85683617D01*
X147059095Y-85574579D01*
X146842374Y-85495731D01*
X146615083Y-85447039D01*
X146381979Y-85428471D01*
X146147818Y-85439992D01*
X145917356Y-85481569D01*
X145695347Y-85553170D01*
X145486549Y-85654760D01*
X145418802Y-85696524D01*
X145237932Y-85835335D01*
X145074191Y-86002114D01*
X144931775Y-86190929D01*
X144814885Y-86395845D01*
X144727718Y-86610927D01*
X144697747Y-86715718D01*
X144666922Y-86883346D01*
X144651776Y-87064723D01*
X144652621Y-87246239D01*
X144669767Y-87414283D01*
X144680488Y-87471160D01*
X144746289Y-87705013D01*
X144838478Y-87917412D01*
X144959856Y-88113319D01*
X145113222Y-88297694D01*
X145191446Y-88376335D01*
X145381822Y-88534765D01*
X145587069Y-88660132D01*
X145806621Y-88752209D01*
X146039911Y-88810770D01*
X146286370Y-88835589D01*
X146345260Y-88836500D01*
X146359547Y-88835665D01*
X146359547Y-88525246D01*
X146220646Y-88521742D01*
X146096829Y-88507780D01*
X146066145Y-88501841D01*
X145862850Y-88439855D01*
X145672145Y-88346587D01*
X145497300Y-88225603D01*
X145341582Y-88080467D01*
X145208259Y-87914745D01*
X145100600Y-87732002D01*
X145021874Y-87535802D01*
X144975347Y-87329711D01*
X144972628Y-87309001D01*
X144963821Y-87151150D01*
X144972281Y-86981722D01*
X144996749Y-86820297D01*
X145006749Y-86777429D01*
X145072101Y-86589622D01*
X145168518Y-86406878D01*
X145290821Y-86236065D01*
X145433835Y-86084051D01*
X145592383Y-85957706D01*
X145653761Y-85918948D01*
X145833841Y-85832938D01*
X146031851Y-85773684D01*
X146240155Y-85742189D01*
X146451119Y-85739457D01*
X146657110Y-85766493D01*
X146713244Y-85779634D01*
X146903077Y-85846607D01*
X147084908Y-85945166D01*
X147253098Y-86070684D01*
X147402007Y-86218540D01*
X147525996Y-86384108D01*
X147590527Y-86498981D01*
X147650256Y-86629215D01*
X147691760Y-86744040D01*
X147717936Y-86856057D01*
X147731683Y-86977868D01*
X147735900Y-87122076D01*
X147735913Y-87131072D01*
X147728692Y-87307705D01*
X147705077Y-87462252D01*
X147662320Y-87606249D01*
X147597673Y-87751231D01*
X147580342Y-87784215D01*
X147463921Y-87963683D01*
X147318794Y-88126451D01*
X147150438Y-88267995D01*
X146964328Y-88383792D01*
X146765941Y-88469320D01*
X146740938Y-88477535D01*
X146632274Y-88502689D01*
X146500949Y-88518744D01*
X146359547Y-88525246D01*
X146359547Y-88835665D01*
X146589932Y-88822198D01*
X146816131Y-88778245D01*
X147028366Y-88703070D01*
X147231145Y-88595104D01*
X147415304Y-88463803D01*
X147596165Y-88296717D01*
X147748234Y-88109442D01*
X147870619Y-87904988D01*
X147962425Y-87686371D01*
X148022759Y-87456601D01*
X148050727Y-87218693D01*
X148045435Y-86975658D01*
G36*
X148045452Y-90642003D02*
X148008343Y-90406536D01*
X147941457Y-90180259D01*
X147845488Y-89968662D01*
X147783745Y-89865374D01*
X147632697Y-89666401D01*
X147458269Y-89494023D01*
X147262826Y-89349935D01*
X147048733Y-89235830D01*
X146818355Y-89153403D01*
X146773483Y-89141598D01*
X146630319Y-89115672D01*
X146465846Y-89101649D01*
X146292858Y-89099534D01*
X146124150Y-89109330D01*
X145972516Y-89131045D01*
X145926604Y-89141272D01*
X145706486Y-89211477D01*
X145506350Y-89308782D01*
X145321198Y-89436116D01*
X145146032Y-89596404D01*
X145141548Y-89601056D01*
X144996351Y-89767322D01*
X144881249Y-89934635D01*
X144790851Y-90111617D01*
X144740624Y-90242224D01*
X144679974Y-90471489D01*
X144650244Y-90708559D01*
X144652121Y-90944762D01*
X144672500Y-91104357D01*
X144731119Y-91329669D01*
X144821950Y-91545693D01*
X144941726Y-91748676D01*
X145087179Y-91934869D01*
X145255042Y-92100520D01*
X145442047Y-92241878D01*
X145644926Y-92355192D01*
X145823214Y-92425317D01*
X145938390Y-92459042D01*
X146044170Y-92481740D01*
X146151695Y-92494727D01*
X146272110Y-92499317D01*
X146354847Y-92497891D01*
X146354847Y-92192614D01*
X146178472Y-92184068D01*
X146022089Y-92157172D01*
X145872857Y-92109022D01*
X145759714Y-92058121D01*
X145561395Y-91940753D01*
X145389755Y-91798869D01*
X145244101Y-91631774D01*
X145123739Y-91438774D01*
X145104846Y-91401515D01*
X145053581Y-91289896D01*
X145017056Y-91189875D01*
X144993310Y-91091407D01*
X144980385Y-90984448D01*
X144976318Y-90858952D01*
X144977799Y-90750572D01*
X144982038Y-90634717D01*
X144988627Y-90546079D01*
X144998706Y-90475611D01*
X145013413Y-90414264D01*
X145024603Y-90379035D01*
X145089457Y-90214048D01*
X145165899Y-90070886D01*
X145261238Y-89937826D01*
X145382783Y-89803148D01*
X145385395Y-89800495D01*
X145466832Y-89722163D01*
X145540832Y-89659039D01*
X145603285Y-89614068D01*
X145650079Y-89590193D01*
X145677104Y-89590358D01*
X145677881Y-89591069D01*
X145689768Y-89611790D01*
X145712956Y-89659043D01*
X145744488Y-89726218D01*
X145781403Y-89806708D01*
X145820742Y-89893905D01*
X145859545Y-89981200D01*
X145894854Y-90061984D01*
X145923708Y-90129651D01*
X145943148Y-90177591D01*
X145950214Y-90199153D01*
X145934969Y-90213037D01*
X145897774Y-90230042D01*
X145892865Y-90231800D01*
X145794262Y-90284631D01*
X145708883Y-90367092D01*
X145641325Y-90473569D01*
X145597725Y-90592292D01*
X145575806Y-90678000D01*
X145450046Y-90680124D01*
X145324286Y-90682247D01*
X145324286Y-90877572D01*
X145582840Y-90888142D01*
X145594911Y-90994834D01*
X145616060Y-91089825D01*
X145655686Y-91194590D01*
X145706817Y-91293039D01*
X145751903Y-91357134D01*
X145789039Y-91401269D01*
X145909659Y-91280649D01*
X146030278Y-91160029D01*
X145991133Y-91118360D01*
X145940680Y-91046656D01*
X145903238Y-90958067D01*
X145880421Y-90862203D01*
X145873843Y-90768674D01*
X145885118Y-90687092D01*
X145909871Y-90634417D01*
X145938439Y-90604728D01*
X145974733Y-90590794D01*
X146032763Y-90587286D01*
X146033780Y-90587286D01*
X146088370Y-90589391D01*
X146119987Y-90600360D01*
X146141895Y-90627177D01*
X146154398Y-90650786D01*
X146178854Y-90701645D01*
X146213595Y-90776955D01*
X146256846Y-90872627D01*
X146306830Y-90984574D01*
X146361772Y-91108707D01*
X146419897Y-91240940D01*
X146479429Y-91377185D01*
X146538593Y-91513355D01*
X146595613Y-91645360D01*
X146648713Y-91769115D01*
X146696118Y-91880531D01*
X146736052Y-91975520D01*
X146766740Y-92049995D01*
X146786406Y-92099869D01*
X146793275Y-92121054D01*
X146793200Y-92121421D01*
X146767171Y-92136906D01*
X146712814Y-92152654D01*
X146638058Y-92167377D01*
X146550825Y-92179788D01*
X146459044Y-92188601D01*
X146370639Y-92192526D01*
X146354847Y-92192614D01*
X146354847Y-92497891D01*
X146416556Y-92496827D01*
X146426132Y-92496484D01*
X146655586Y-92476455D01*
X146862486Y-92432513D01*
X147053521Y-92362231D01*
X147122298Y-92324771D01*
X147122298Y-91956870D01*
X147105569Y-91941334D01*
X147080885Y-91900778D01*
X147053568Y-91843956D01*
X147053361Y-91843478D01*
X147025702Y-91780009D01*
X146988509Y-91695371D01*
X146947048Y-91601524D01*
X146913580Y-91526126D01*
X146822724Y-91321966D01*
X146894713Y-91285240D01*
X146982762Y-91220021D01*
X147052516Y-91123712D01*
X147103722Y-90996704D01*
X147119145Y-90936536D01*
X147126745Y-90910421D01*
X147140800Y-90895503D01*
X147169953Y-90888650D01*
X147222843Y-90886731D01*
X147256846Y-90886643D01*
X147383500Y-90886643D01*
X147383500Y-90687072D01*
X147131144Y-90687072D01*
X147119992Y-90619036D01*
X147100838Y-90536386D01*
X147071476Y-90448056D01*
X147036966Y-90367186D01*
X147002367Y-90306916D01*
X146997203Y-90300115D01*
X146957143Y-90250117D01*
X146741037Y-90468879D01*
X146782783Y-90554804D01*
X146817318Y-90647487D01*
X146833489Y-90740025D01*
X146832012Y-90825578D01*
X146813604Y-90897305D01*
X146778981Y-90948366D01*
X146739296Y-90969940D01*
X146698436Y-90973580D01*
X146675527Y-90966050D01*
X146664721Y-90946280D01*
X146641233Y-90897425D01*
X146606890Y-90823597D01*
X146563524Y-90728904D01*
X146512962Y-90617454D01*
X146457036Y-90493358D01*
X146397573Y-90360725D01*
X146336404Y-90223663D01*
X146275358Y-90086282D01*
X146216264Y-89952691D01*
X146160953Y-89826999D01*
X146111252Y-89713316D01*
X146068992Y-89615750D01*
X146036002Y-89538411D01*
X146014112Y-89485409D01*
X146005151Y-89460851D01*
X146005031Y-89460008D01*
X146020317Y-89441758D01*
X146054536Y-89428671D01*
X146216765Y-89406489D01*
X146395407Y-89403973D01*
X146576912Y-89420326D01*
X146747730Y-89454747D01*
X146809431Y-89473197D01*
X146982298Y-89548159D01*
X147149710Y-89653928D01*
X147305872Y-89785027D01*
X147444988Y-89935978D01*
X147561262Y-90101305D01*
X147642807Y-90260752D01*
X147708528Y-90462708D01*
X147741600Y-90673957D01*
X147742478Y-90888937D01*
X147711619Y-91102085D01*
X147649478Y-91307839D01*
X147556511Y-91500634D01*
X147538812Y-91529899D01*
X147499524Y-91585543D01*
X147445880Y-91651506D01*
X147383230Y-91722306D01*
X147316924Y-91792456D01*
X147252313Y-91856472D01*
X147194746Y-91908869D01*
X147149575Y-91944162D01*
X147122298Y-91956870D01*
X147122298Y-92324771D01*
X147235377Y-92263181D01*
X147404198Y-92141457D01*
X147564908Y-91994761D01*
X147709116Y-91828217D01*
X147831561Y-91649182D01*
X147926983Y-91465011D01*
X147971181Y-91348654D01*
X148027564Y-91118551D01*
X148052090Y-90881171D01*
X148045452Y-90642003D01*
X148045452Y-90642003D01*
G37*
X148045452Y-90642003D02*
X148008343Y-90406536D01*
X147941457Y-90180259D01*
X147845488Y-89968662D01*
X147783745Y-89865374D01*
X147632697Y-89666401D01*
X147458269Y-89494023D01*
X147262826Y-89349935D01*
X147048733Y-89235830D01*
X146818355Y-89153403D01*
X146773483Y-89141598D01*
X146630319Y-89115672D01*
X146465846Y-89101649D01*
X146292858Y-89099534D01*
X146124150Y-89109330D01*
X145972516Y-89131045D01*
X145926604Y-89141272D01*
X145706486Y-89211477D01*
X145506350Y-89308782D01*
X145321198Y-89436116D01*
X145146032Y-89596404D01*
X145141548Y-89601056D01*
X144996351Y-89767322D01*
X144881249Y-89934635D01*
X144790851Y-90111617D01*
X144740624Y-90242224D01*
X144679974Y-90471489D01*
X144650244Y-90708559D01*
X144652121Y-90944762D01*
X144672500Y-91104357D01*
X144731119Y-91329669D01*
X144821950Y-91545693D01*
X144941726Y-91748676D01*
X145087179Y-91934869D01*
X145255042Y-92100520D01*
X145442047Y-92241878D01*
X145644926Y-92355192D01*
X145823214Y-92425317D01*
X145938390Y-92459042D01*
X146044170Y-92481740D01*
X146151695Y-92494727D01*
X146272110Y-92499317D01*
X146354847Y-92497891D01*
X146354847Y-92192614D01*
X146178472Y-92184068D01*
X146022089Y-92157172D01*
X145872857Y-92109022D01*
X145759714Y-92058121D01*
X145561395Y-91940753D01*
X145389755Y-91798869D01*
X145244101Y-91631774D01*
X145123739Y-91438774D01*
X145104846Y-91401515D01*
X145053581Y-91289896D01*
X145017056Y-91189875D01*
X144993310Y-91091407D01*
X144980385Y-90984448D01*
X144976318Y-90858952D01*
X144977799Y-90750572D01*
X144982038Y-90634717D01*
X144988627Y-90546079D01*
X144998706Y-90475611D01*
X145013413Y-90414264D01*
X145024603Y-90379035D01*
X145089457Y-90214048D01*
X145165899Y-90070886D01*
X145261238Y-89937826D01*
X145382783Y-89803148D01*
X145385395Y-89800495D01*
X145466832Y-89722163D01*
X145540832Y-89659039D01*
X145603285Y-89614068D01*
X145650079Y-89590193D01*
X145677104Y-89590358D01*
X145677881Y-89591069D01*
X145689768Y-89611790D01*
X145712956Y-89659043D01*
X145744488Y-89726218D01*
X145781403Y-89806708D01*
X145820742Y-89893905D01*
X145859545Y-89981200D01*
X145894854Y-90061984D01*
X145923708Y-90129651D01*
X145943148Y-90177591D01*
X145950214Y-90199153D01*
X145934969Y-90213037D01*
X145897774Y-90230042D01*
X145892865Y-90231800D01*
X145794262Y-90284631D01*
X145708883Y-90367092D01*
X145641325Y-90473569D01*
X145597725Y-90592292D01*
X145575806Y-90678000D01*
X145450046Y-90680124D01*
X145324286Y-90682247D01*
X145324286Y-90877572D01*
X145582840Y-90888142D01*
X145594911Y-90994834D01*
X145616060Y-91089825D01*
X145655686Y-91194590D01*
X145706817Y-91293039D01*
X145751903Y-91357134D01*
X145789039Y-91401269D01*
X145909659Y-91280649D01*
X146030278Y-91160029D01*
X145991133Y-91118360D01*
X145940680Y-91046656D01*
X145903238Y-90958067D01*
X145880421Y-90862203D01*
X145873843Y-90768674D01*
X145885118Y-90687092D01*
X145909871Y-90634417D01*
X145938439Y-90604728D01*
X145974733Y-90590794D01*
X146032763Y-90587286D01*
X146033780Y-90587286D01*
X146088370Y-90589391D01*
X146119987Y-90600360D01*
X146141895Y-90627177D01*
X146154398Y-90650786D01*
X146178854Y-90701645D01*
X146213595Y-90776955D01*
X146256846Y-90872627D01*
X146306830Y-90984574D01*
X146361772Y-91108707D01*
X146419897Y-91240940D01*
X146479429Y-91377185D01*
X146538593Y-91513355D01*
X146595613Y-91645360D01*
X146648713Y-91769115D01*
X146696118Y-91880531D01*
X146736052Y-91975520D01*
X146766740Y-92049995D01*
X146786406Y-92099869D01*
X146793275Y-92121054D01*
X146793200Y-92121421D01*
X146767171Y-92136906D01*
X146712814Y-92152654D01*
X146638058Y-92167377D01*
X146550825Y-92179788D01*
X146459044Y-92188601D01*
X146370639Y-92192526D01*
X146354847Y-92192614D01*
X146354847Y-92497891D01*
X146416556Y-92496827D01*
X146426132Y-92496484D01*
X146655586Y-92476455D01*
X146862486Y-92432513D01*
X147053521Y-92362231D01*
X147122298Y-92324771D01*
X147122298Y-91956870D01*
X147105569Y-91941334D01*
X147080885Y-91900778D01*
X147053568Y-91843956D01*
X147053361Y-91843478D01*
X147025702Y-91780009D01*
X146988509Y-91695371D01*
X146947048Y-91601524D01*
X146913580Y-91526126D01*
X146822724Y-91321966D01*
X146894713Y-91285240D01*
X146982762Y-91220021D01*
X147052516Y-91123712D01*
X147103722Y-90996704D01*
X147119145Y-90936536D01*
X147126745Y-90910421D01*
X147140800Y-90895503D01*
X147169953Y-90888650D01*
X147222843Y-90886731D01*
X147256846Y-90886643D01*
X147383500Y-90886643D01*
X147383500Y-90687072D01*
X147131144Y-90687072D01*
X147119992Y-90619036D01*
X147100838Y-90536386D01*
X147071476Y-90448056D01*
X147036966Y-90367186D01*
X147002367Y-90306916D01*
X146997203Y-90300115D01*
X146957143Y-90250117D01*
X146741037Y-90468879D01*
X146782783Y-90554804D01*
X146817318Y-90647487D01*
X146833489Y-90740025D01*
X146832012Y-90825578D01*
X146813604Y-90897305D01*
X146778981Y-90948366D01*
X146739296Y-90969940D01*
X146698436Y-90973580D01*
X146675527Y-90966050D01*
X146664721Y-90946280D01*
X146641233Y-90897425D01*
X146606890Y-90823597D01*
X146563524Y-90728904D01*
X146512962Y-90617454D01*
X146457036Y-90493358D01*
X146397573Y-90360725D01*
X146336404Y-90223663D01*
X146275358Y-90086282D01*
X146216264Y-89952691D01*
X146160953Y-89826999D01*
X146111252Y-89713316D01*
X146068992Y-89615750D01*
X146036002Y-89538411D01*
X146014112Y-89485409D01*
X146005151Y-89460851D01*
X146005031Y-89460008D01*
X146020317Y-89441758D01*
X146054536Y-89428671D01*
X146216765Y-89406489D01*
X146395407Y-89403973D01*
X146576912Y-89420326D01*
X146747730Y-89454747D01*
X146809431Y-89473197D01*
X146982298Y-89548159D01*
X147149710Y-89653928D01*
X147305872Y-89785027D01*
X147444988Y-89935978D01*
X147561262Y-90101305D01*
X147642807Y-90260752D01*
X147708528Y-90462708D01*
X147741600Y-90673957D01*
X147742478Y-90888937D01*
X147711619Y-91102085D01*
X147649478Y-91307839D01*
X147556511Y-91500634D01*
X147538812Y-91529899D01*
X147499524Y-91585543D01*
X147445880Y-91651506D01*
X147383230Y-91722306D01*
X147316924Y-91792456D01*
X147252313Y-91856472D01*
X147194746Y-91908869D01*
X147149575Y-91944162D01*
X147122298Y-91956870D01*
X147122298Y-92324771D01*
X147235377Y-92263181D01*
X147404198Y-92141457D01*
X147564908Y-91994761D01*
X147709116Y-91828217D01*
X147831561Y-91649182D01*
X147926983Y-91465011D01*
X147971181Y-91348654D01*
X148027564Y-91118551D01*
X148052090Y-90881171D01*
X148045452Y-90642003D01*
G36*
X148043760Y-94282643D02*
X148005246Y-94049579D01*
X147936314Y-93826269D01*
X147845724Y-93633333D01*
X147709941Y-93426238D01*
X147548593Y-93242870D01*
X147364587Y-93085470D01*
X147160829Y-92956274D01*
X146940227Y-92857524D01*
X146772110Y-92806412D01*
X146631819Y-92781181D01*
X146469980Y-92767353D01*
X146299290Y-92764935D01*
X146132443Y-92773932D01*
X145982138Y-92794349D01*
X145928275Y-92806015D01*
X145704980Y-92877371D01*
X145501200Y-92977240D01*
X145312795Y-93108023D01*
X145149900Y-93257280D01*
X144983194Y-93452704D01*
X144849574Y-93662284D01*
X144747958Y-93887957D01*
X144688283Y-94084222D01*
X144670298Y-94185077D01*
X144658265Y-94309280D01*
X144652503Y-94444334D01*
X144653330Y-94577741D01*
X144661064Y-94697005D01*
X144670912Y-94766185D01*
X144730172Y-94997631D01*
X144816434Y-95209254D01*
X144932251Y-95405709D01*
X145080179Y-95591647D01*
X145181736Y-95696544D01*
X145365994Y-95854786D01*
X145558578Y-95979370D01*
X145763759Y-96072697D01*
X145951211Y-96129231D01*
X146060773Y-96148417D01*
X146193619Y-96160817D01*
X146337825Y-96166254D01*
X146344893Y-96166171D01*
X146344893Y-95857667D01*
X146188845Y-95850715D01*
X146048071Y-95829628D01*
X146023087Y-95823741D01*
X145818607Y-95753704D01*
X145625770Y-95651323D01*
X145449733Y-95519954D01*
X145295654Y-95362956D01*
X145273434Y-95335746D01*
X145189702Y-95224206D01*
X145126336Y-95123087D01*
X145076058Y-95019313D01*
X145032801Y-94903432D01*
X144982527Y-94699490D01*
X144963380Y-94485185D01*
X144975645Y-94269269D01*
X145006749Y-94107143D01*
X145072704Y-93917961D01*
X145169844Y-93735539D01*
X145293329Y-93565759D01*
X145438316Y-93414503D01*
X145599964Y-93287653D01*
X145753097Y-93200437D01*
X145877546Y-93146862D01*
X145992941Y-93110082D01*
X146111430Y-93087535D01*
X146245158Y-93076659D01*
X146349357Y-93074625D01*
X146494399Y-93077993D01*
X146616406Y-93090746D01*
X146728047Y-93115801D01*
X146841991Y-93156072D01*
X146970908Y-93214475D01*
X146983147Y-93220460D01*
X147061333Y-93260833D01*
X147125567Y-93299941D01*
X147185393Y-93344948D01*
X147250357Y-93403017D01*
X147327861Y-93479154D01*
X147417532Y-93573142D01*
X147485549Y-93654190D01*
X147539051Y-93731443D01*
X147577294Y-93798750D01*
X147666360Y-94006718D01*
X147721514Y-94223131D01*
X147742456Y-94443934D01*
X147728889Y-94665077D01*
X147680513Y-94882507D01*
X147661518Y-94939845D01*
X147578050Y-95123059D01*
X147463550Y-95296253D01*
X147322886Y-95454683D01*
X147160926Y-95593602D01*
X146982539Y-95708264D01*
X146792593Y-95793924D01*
X146781289Y-95797915D01*
X146653453Y-95830847D01*
X146503875Y-95850904D01*
X146344893Y-95857667D01*
X146344893Y-96166171D01*
X146481467Y-96164552D01*
X146612620Y-96155536D01*
X146712658Y-96140489D01*
X146938779Y-96074376D01*
X147154111Y-95975681D01*
X147354854Y-95847428D01*
X147537205Y-95692642D01*
X147697363Y-95514347D01*
X147831524Y-95315569D01*
X147890535Y-95203478D01*
X147975245Y-94985879D01*
X148028915Y-94756242D01*
X148051702Y-94520014D01*
X148043760Y-94282643D01*
X148043760Y-94282643D01*
G37*
X148043760Y-94282643D02*
X148005246Y-94049579D01*
X147936314Y-93826269D01*
X147845724Y-93633333D01*
X147709941Y-93426238D01*
X147548593Y-93242870D01*
X147364587Y-93085470D01*
X147160829Y-92956274D01*
X146940227Y-92857524D01*
X146772110Y-92806412D01*
X146631819Y-92781181D01*
X146469980Y-92767353D01*
X146299290Y-92764935D01*
X146132443Y-92773932D01*
X145982138Y-92794349D01*
X145928275Y-92806015D01*
X145704980Y-92877371D01*
X145501200Y-92977240D01*
X145312795Y-93108023D01*
X145149900Y-93257280D01*
X144983194Y-93452704D01*
X144849574Y-93662284D01*
X144747958Y-93887957D01*
X144688283Y-94084222D01*
X144670298Y-94185077D01*
X144658265Y-94309280D01*
X144652503Y-94444334D01*
X144653330Y-94577741D01*
X144661064Y-94697005D01*
X144670912Y-94766185D01*
X144730172Y-94997631D01*
X144816434Y-95209254D01*
X144932251Y-95405709D01*
X145080179Y-95591647D01*
X145181736Y-95696544D01*
X145365994Y-95854786D01*
X145558578Y-95979370D01*
X145763759Y-96072697D01*
X145951211Y-96129231D01*
X146060773Y-96148417D01*
X146193619Y-96160817D01*
X146337825Y-96166254D01*
X146344893Y-96166171D01*
X146344893Y-95857667D01*
X146188845Y-95850715D01*
X146048071Y-95829628D01*
X146023087Y-95823741D01*
X145818607Y-95753704D01*
X145625770Y-95651323D01*
X145449733Y-95519954D01*
X145295654Y-95362956D01*
X145273434Y-95335746D01*
X145189702Y-95224206D01*
X145126336Y-95123087D01*
X145076058Y-95019313D01*
X145032801Y-94903432D01*
X144982527Y-94699490D01*
X144963380Y-94485185D01*
X144975645Y-94269269D01*
X145006749Y-94107143D01*
X145072704Y-93917961D01*
X145169844Y-93735539D01*
X145293329Y-93565759D01*
X145438316Y-93414503D01*
X145599964Y-93287653D01*
X145753097Y-93200437D01*
X145877546Y-93146862D01*
X145992941Y-93110082D01*
X146111430Y-93087535D01*
X146245158Y-93076659D01*
X146349357Y-93074625D01*
X146494399Y-93077993D01*
X146616406Y-93090746D01*
X146728047Y-93115801D01*
X146841991Y-93156072D01*
X146970908Y-93214475D01*
X146983147Y-93220460D01*
X147061333Y-93260833D01*
X147125567Y-93299941D01*
X147185393Y-93344948D01*
X147250357Y-93403017D01*
X147327861Y-93479154D01*
X147417532Y-93573142D01*
X147485549Y-93654190D01*
X147539051Y-93731443D01*
X147577294Y-93798750D01*
X147666360Y-94006718D01*
X147721514Y-94223131D01*
X147742456Y-94443934D01*
X147728889Y-94665077D01*
X147680513Y-94882507D01*
X147661518Y-94939845D01*
X147578050Y-95123059D01*
X147463550Y-95296253D01*
X147322886Y-95454683D01*
X147160926Y-95593602D01*
X146982539Y-95708264D01*
X146792593Y-95793924D01*
X146781289Y-95797915D01*
X146653453Y-95830847D01*
X146503875Y-95850904D01*
X146344893Y-95857667D01*
X146344893Y-96166171D01*
X146481467Y-96164552D01*
X146612620Y-96155536D01*
X146712658Y-96140489D01*
X146938779Y-96074376D01*
X147154111Y-95975681D01*
X147354854Y-95847428D01*
X147537205Y-95692642D01*
X147697363Y-95514347D01*
X147831524Y-95315569D01*
X147890535Y-95203478D01*
X147975245Y-94985879D01*
X148028915Y-94756242D01*
X148051702Y-94520014D01*
X148043760Y-94282643D01*
G36*
X148033188Y-97856048D02*
X147992038Y-97657775D01*
X147980277Y-97618553D01*
X147891012Y-97394900D01*
X147771756Y-97186151D01*
X147625824Y-96996034D01*
X147456531Y-96828276D01*
X147267192Y-96686604D01*
X147061124Y-96574745D01*
X147045706Y-96567931D01*
X146825742Y-96490610D01*
X146595825Y-96444039D01*
X146361144Y-96427801D01*
X146126889Y-96441482D01*
X145898249Y-96484668D01*
X145680414Y-96556942D01*
X145478573Y-96657890D01*
X145415000Y-96698342D01*
X145227001Y-96846018D01*
X145062452Y-97017538D01*
X144922984Y-97208985D01*
X144810227Y-97416441D01*
X144725813Y-97635992D01*
X144671372Y-97863719D01*
X144648537Y-98095707D01*
X144658937Y-98328039D01*
X144680816Y-98461286D01*
X144750186Y-98707683D01*
X144850529Y-98935250D01*
X144981429Y-99143353D01*
X145142470Y-99331353D01*
X145333236Y-99498613D01*
X145381553Y-99534283D01*
X145582993Y-99656438D01*
X145800052Y-99747944D01*
X146028117Y-99808276D01*
X146262577Y-99836909D01*
X146378907Y-99835141D01*
X146378907Y-99529072D01*
X146170962Y-99517238D01*
X145965701Y-99472592D01*
X145766371Y-99394916D01*
X145576220Y-99283996D01*
X145498590Y-99226425D01*
X145341891Y-99079803D01*
X145207058Y-98908135D01*
X145098472Y-98718170D01*
X145020519Y-98516660D01*
X145007633Y-98470357D01*
X144981528Y-98325730D01*
X144970799Y-98163496D01*
X144975436Y-97998447D01*
X144995427Y-97845376D01*
X145008171Y-97789081D01*
X145060042Y-97635949D01*
X145134664Y-97476559D01*
X145224735Y-97324985D01*
X145305903Y-97215307D01*
X145456236Y-97061684D01*
X145626802Y-96936324D01*
X145813889Y-96840225D01*
X146013784Y-96774390D01*
X146222774Y-96739817D01*
X146437147Y-96737508D01*
X146653189Y-96768461D01*
X146805752Y-96811246D01*
X146979676Y-96884473D01*
X147140071Y-96982739D01*
X147294213Y-97110767D01*
X147347214Y-97162651D01*
X147490503Y-97330896D01*
X147600695Y-97511855D01*
X147678904Y-97708037D01*
X147726243Y-97921949D01*
X147739446Y-98046947D01*
X147737382Y-98270440D01*
X147700556Y-98485653D01*
X147629950Y-98689954D01*
X147526549Y-98880708D01*
X147391334Y-99055282D01*
X147345212Y-99103606D01*
X147172566Y-99252597D01*
X146986365Y-99369855D01*
X146789856Y-99455164D01*
X146586288Y-99508309D01*
X146378907Y-99529072D01*
X146378907Y-99835141D01*
X146498823Y-99833317D01*
X146732241Y-99796976D01*
X146958221Y-99727359D01*
X146984357Y-99716852D01*
X147204912Y-99607216D01*
X147406541Y-99469352D01*
X147586227Y-99306413D01*
X147740951Y-99121554D01*
X147867696Y-98917927D01*
X147963445Y-98698687D01*
X147966186Y-98690805D01*
X148017398Y-98497116D01*
X148045729Y-98286343D01*
X148051039Y-98069113D01*
X148033188Y-97856048D01*
X148033188Y-97856048D01*
G37*
X148033188Y-97856048D02*
X147992038Y-97657775D01*
X147980277Y-97618553D01*
X147891012Y-97394900D01*
X147771756Y-97186151D01*
X147625824Y-96996034D01*
X147456531Y-96828276D01*
X147267192Y-96686604D01*
X147061124Y-96574745D01*
X147045706Y-96567931D01*
X146825742Y-96490610D01*
X146595825Y-96444039D01*
X146361144Y-96427801D01*
X146126889Y-96441482D01*
X145898249Y-96484668D01*
X145680414Y-96556942D01*
X145478573Y-96657890D01*
X145415000Y-96698342D01*
X145227001Y-96846018D01*
X145062452Y-97017538D01*
X144922984Y-97208985D01*
X144810227Y-97416441D01*
X144725813Y-97635992D01*
X144671372Y-97863719D01*
X144648537Y-98095707D01*
X144658937Y-98328039D01*
X144680816Y-98461286D01*
X144750186Y-98707683D01*
X144850529Y-98935250D01*
X144981429Y-99143353D01*
X145142470Y-99331353D01*
X145333236Y-99498613D01*
X145381553Y-99534283D01*
X145582993Y-99656438D01*
X145800052Y-99747944D01*
X146028117Y-99808276D01*
X146262577Y-99836909D01*
X146378907Y-99835141D01*
X146378907Y-99529072D01*
X146170962Y-99517238D01*
X145965701Y-99472592D01*
X145766371Y-99394916D01*
X145576220Y-99283996D01*
X145498590Y-99226425D01*
X145341891Y-99079803D01*
X145207058Y-98908135D01*
X145098472Y-98718170D01*
X145020519Y-98516660D01*
X145007633Y-98470357D01*
X144981528Y-98325730D01*
X144970799Y-98163496D01*
X144975436Y-97998447D01*
X144995427Y-97845376D01*
X145008171Y-97789081D01*
X145060042Y-97635949D01*
X145134664Y-97476559D01*
X145224735Y-97324985D01*
X145305903Y-97215307D01*
X145456236Y-97061684D01*
X145626802Y-96936324D01*
X145813889Y-96840225D01*
X146013784Y-96774390D01*
X146222774Y-96739817D01*
X146437147Y-96737508D01*
X146653189Y-96768461D01*
X146805752Y-96811246D01*
X146979676Y-96884473D01*
X147140071Y-96982739D01*
X147294213Y-97110767D01*
X147347214Y-97162651D01*
X147490503Y-97330896D01*
X147600695Y-97511855D01*
X147678904Y-97708037D01*
X147726243Y-97921949D01*
X147739446Y-98046947D01*
X147737382Y-98270440D01*
X147700556Y-98485653D01*
X147629950Y-98689954D01*
X147526549Y-98880708D01*
X147391334Y-99055282D01*
X147345212Y-99103606D01*
X147172566Y-99252597D01*
X146986365Y-99369855D01*
X146789856Y-99455164D01*
X146586288Y-99508309D01*
X146378907Y-99529072D01*
X146378907Y-99835141D01*
X146498823Y-99833317D01*
X146732241Y-99796976D01*
X146958221Y-99727359D01*
X146984357Y-99716852D01*
X147204912Y-99607216D01*
X147406541Y-99469352D01*
X147586227Y-99306413D01*
X147740951Y-99121554D01*
X147867696Y-98917927D01*
X147963445Y-98698687D01*
X147966186Y-98690805D01*
X148017398Y-98497116D01*
X148045729Y-98286343D01*
X148051039Y-98069113D01*
X148033188Y-97856048D01*
G04 #@! TO.C,U1*
D10*
X138765000Y-82092857D02*
X138736428Y-82035714D01*
X138736428Y-81950000D01*
X138765000Y-81864285D01*
X138822142Y-81807142D01*
X138879285Y-81778571D01*
X138993571Y-81750000D01*
X139079285Y-81750000D01*
X139193571Y-81778571D01*
X139250714Y-81807142D01*
X139307857Y-81864285D01*
X139336428Y-81950000D01*
X139336428Y-82007142D01*
X139307857Y-82092857D01*
X139279285Y-82121428D01*
X139079285Y-82121428D01*
X139079285Y-82007142D01*
X139336428Y-82378571D02*
X138736428Y-82378571D01*
X139336428Y-82721428D01*
X138736428Y-82721428D01*
X139336428Y-83007142D02*
X138736428Y-83007142D01*
X138736428Y-83150000D01*
X138765000Y-83235714D01*
X138822142Y-83292857D01*
X138879285Y-83321428D01*
X138993571Y-83350000D01*
X139079285Y-83350000D01*
X139193571Y-83321428D01*
X139250714Y-83292857D01*
X139307857Y-83235714D01*
X139336428Y-83150000D01*
X139336428Y-83007142D01*
X136860000Y-82092857D02*
X136831428Y-82035714D01*
X136831428Y-81950000D01*
X136860000Y-81864285D01*
X136917142Y-81807142D01*
X136974285Y-81778571D01*
X137088571Y-81750000D01*
X137174285Y-81750000D01*
X137288571Y-81778571D01*
X137345714Y-81807142D01*
X137402857Y-81864285D01*
X137431428Y-81950000D01*
X137431428Y-82007142D01*
X137402857Y-82092857D01*
X137374285Y-82121428D01*
X137174285Y-82121428D01*
X137174285Y-82007142D01*
X137431428Y-82378571D02*
X136831428Y-82378571D01*
X137431428Y-82721428D01*
X136831428Y-82721428D01*
X137431428Y-83007142D02*
X136831428Y-83007142D01*
X136831428Y-83150000D01*
X136860000Y-83235714D01*
X136917142Y-83292857D01*
X136974285Y-83321428D01*
X137088571Y-83350000D01*
X137174285Y-83350000D01*
X137288571Y-83321428D01*
X137345714Y-83292857D01*
X137402857Y-83235714D01*
X137431428Y-83150000D01*
X137431428Y-83007142D01*
X134291428Y-81750000D02*
X134891428Y-81950000D01*
X134291428Y-82150000D01*
X134834285Y-82692857D02*
X134862857Y-82664285D01*
X134891428Y-82578571D01*
X134891428Y-82521428D01*
X134862857Y-82435714D01*
X134805714Y-82378571D01*
X134748571Y-82350000D01*
X134634285Y-82321428D01*
X134548571Y-82321428D01*
X134434285Y-82350000D01*
X134377142Y-82378571D01*
X134320000Y-82435714D01*
X134291428Y-82521428D01*
X134291428Y-82578571D01*
X134320000Y-82664285D01*
X134348571Y-82692857D01*
X134834285Y-83292857D02*
X134862857Y-83264285D01*
X134891428Y-83178571D01*
X134891428Y-83121428D01*
X134862857Y-83035714D01*
X134805714Y-82978571D01*
X134748571Y-82950000D01*
X134634285Y-82921428D01*
X134548571Y-82921428D01*
X134434285Y-82950000D01*
X134377142Y-82978571D01*
X134320000Y-83035714D01*
X134291428Y-83121428D01*
X134291428Y-83178571D01*
X134320000Y-83264285D01*
X134348571Y-83292857D01*
X132351428Y-82307142D02*
X132065714Y-82107142D01*
X132351428Y-81964285D02*
X131751428Y-81964285D01*
X131751428Y-82192857D01*
X131780000Y-82250000D01*
X131808571Y-82278571D01*
X131865714Y-82307142D01*
X131951428Y-82307142D01*
X132008571Y-82278571D01*
X132037142Y-82250000D01*
X132065714Y-82192857D01*
X132065714Y-81964285D01*
X131751428Y-82507142D02*
X132351428Y-82907142D01*
X131751428Y-82907142D02*
X132351428Y-82507142D01*
X132351428Y-83135714D02*
X131751428Y-83135714D01*
X129211428Y-81792857D02*
X129211428Y-82135714D01*
X129811428Y-81964285D02*
X129211428Y-81964285D01*
X129211428Y-82278571D02*
X129811428Y-82678571D01*
X129211428Y-82678571D02*
X129811428Y-82278571D01*
X129811428Y-82907142D02*
X129211428Y-82907142D01*
X129211428Y-83050000D01*
X129240000Y-83135714D01*
X129297142Y-83192857D01*
X129354285Y-83221428D01*
X129468571Y-83250000D01*
X129554285Y-83250000D01*
X129668571Y-83221428D01*
X129725714Y-83192857D01*
X129782857Y-83135714D01*
X129811428Y-83050000D01*
X129811428Y-82907142D01*
X127906428Y-81864285D02*
X127306428Y-81864285D01*
X127306428Y-82007142D01*
X127335000Y-82092857D01*
X127392142Y-82150000D01*
X127449285Y-82178571D01*
X127563571Y-82207142D01*
X127649285Y-82207142D01*
X127763571Y-82178571D01*
X127820714Y-82150000D01*
X127877857Y-82092857D01*
X127906428Y-82007142D01*
X127906428Y-81864285D01*
X127306428Y-82378571D02*
X127306428Y-82721428D01*
X127906428Y-82550000D02*
X127306428Y-82550000D01*
X127906428Y-83264285D02*
X127620714Y-83064285D01*
X127906428Y-82921428D02*
X127306428Y-82921428D01*
X127306428Y-83150000D01*
X127335000Y-83207142D01*
X127363571Y-83235714D01*
X127420714Y-83264285D01*
X127506428Y-83264285D01*
X127563571Y-83235714D01*
X127592142Y-83207142D01*
X127620714Y-83150000D01*
X127620714Y-82921428D01*
G04 #@! TO.C,Cp1*
D13*
X172798642Y-95429500D02*
X173698642Y-95679500D01*
X172798642Y-95929500D01*
X173655785Y-96465214D02*
X173698642Y-96393785D01*
X173698642Y-96250928D01*
X173655785Y-96179500D01*
X173570071Y-96143785D01*
X173227214Y-96143785D01*
X173141500Y-96179500D01*
X173098642Y-96250928D01*
X173098642Y-96393785D01*
X173141500Y-96465214D01*
X173227214Y-96500928D01*
X173312928Y-96500928D01*
X173398642Y-96143785D01*
X173698642Y-96822357D02*
X173098642Y-96822357D01*
X173270071Y-96822357D02*
X173184357Y-96858071D01*
X173141500Y-96893785D01*
X173098642Y-96965214D01*
X173098642Y-97036642D01*
X173655785Y-97250928D02*
X173698642Y-97322357D01*
X173698642Y-97465214D01*
X173655785Y-97536642D01*
X173570071Y-97572357D01*
X173527214Y-97572357D01*
X173441500Y-97536642D01*
X173398642Y-97465214D01*
X173398642Y-97358071D01*
X173355785Y-97286642D01*
X173270071Y-97250928D01*
X173227214Y-97250928D01*
X173141500Y-97286642D01*
X173098642Y-97358071D01*
X173098642Y-97465214D01*
X173141500Y-97536642D01*
X173698642Y-97893785D02*
X173098642Y-97893785D01*
X172798642Y-97893785D02*
X172841500Y-97858071D01*
X172884357Y-97893785D01*
X172841500Y-97929500D01*
X172798642Y-97893785D01*
X172884357Y-97893785D01*
X173698642Y-98358071D02*
X173655785Y-98286642D01*
X173612928Y-98250928D01*
X173527214Y-98215214D01*
X173270071Y-98215214D01*
X173184357Y-98250928D01*
X173141500Y-98286642D01*
X173098642Y-98358071D01*
X173098642Y-98465214D01*
X173141500Y-98536642D01*
X173184357Y-98572357D01*
X173270071Y-98608071D01*
X173527214Y-98608071D01*
X173612928Y-98572357D01*
X173655785Y-98536642D01*
X173698642Y-98465214D01*
X173698642Y-98358071D01*
X173098642Y-98929500D02*
X173698642Y-98929500D01*
X173184357Y-98929500D02*
X173141500Y-98965214D01*
X173098642Y-99036642D01*
X173098642Y-99143785D01*
X173141500Y-99215214D01*
X173227214Y-99250928D01*
X173698642Y-99250928D01*
X172884357Y-100143785D02*
X172841500Y-100179500D01*
X172798642Y-100250928D01*
X172798642Y-100429500D01*
X172841500Y-100500928D01*
X172884357Y-100536642D01*
X172970071Y-100572357D01*
X173055785Y-100572357D01*
X173184357Y-100536642D01*
X173698642Y-100108071D01*
X173698642Y-100572357D01*
X173612928Y-100893785D02*
X173655785Y-100929500D01*
X173698642Y-100893785D01*
X173655785Y-100858071D01*
X173612928Y-100893785D01*
X173698642Y-100893785D01*
X172798642Y-101393785D02*
X172798642Y-101465214D01*
X172841500Y-101536642D01*
X172884357Y-101572357D01*
X172970071Y-101608071D01*
X173141500Y-101643785D01*
X173355785Y-101643785D01*
X173527214Y-101608071D01*
X173612928Y-101572357D01*
X173655785Y-101536642D01*
X173698642Y-101465214D01*
X173698642Y-101393785D01*
X173655785Y-101322357D01*
X173612928Y-101286642D01*
X173527214Y-101250928D01*
X173355785Y-101215214D01*
X173141500Y-101215214D01*
X172970071Y-101250928D01*
X172884357Y-101286642D01*
X172841500Y-101322357D01*
X172798642Y-101393785D01*
X173612928Y-101965214D02*
X173655785Y-102000928D01*
X173698642Y-101965214D01*
X173655785Y-101929500D01*
X173612928Y-101965214D01*
X173698642Y-101965214D01*
X173698642Y-102715214D02*
X173698642Y-102286642D01*
X173698642Y-102500928D02*
X172798642Y-102500928D01*
X172927214Y-102429500D01*
X173012928Y-102358071D01*
X173055785Y-102286642D01*
X173355785Y-103608071D02*
X173355785Y-104179500D01*
X173698642Y-105500928D02*
X173698642Y-105072357D01*
X173698642Y-105286642D02*
X172798642Y-105286642D01*
X172927214Y-105215214D01*
X173012928Y-105143785D01*
X173055785Y-105072357D01*
X172798642Y-105965214D02*
X172798642Y-106036642D01*
X172841500Y-106108071D01*
X172884357Y-106143785D01*
X172970071Y-106179500D01*
X173141500Y-106215214D01*
X173355785Y-106215214D01*
X173527214Y-106179500D01*
X173612928Y-106143785D01*
X173655785Y-106108071D01*
X173698642Y-106036642D01*
X173698642Y-105965214D01*
X173655785Y-105893785D01*
X173612928Y-105858071D01*
X173527214Y-105822357D01*
X173355785Y-105786642D01*
X173141500Y-105786642D01*
X172970071Y-105822357D01*
X172884357Y-105858071D01*
X172841500Y-105893785D01*
X172798642Y-105965214D01*
X172755785Y-107072357D02*
X173912928Y-106429500D01*
X172884357Y-107286642D02*
X172841500Y-107322357D01*
X172798642Y-107393785D01*
X172798642Y-107572357D01*
X172841500Y-107643785D01*
X172884357Y-107679500D01*
X172970071Y-107715214D01*
X173055785Y-107715214D01*
X173184357Y-107679500D01*
X173698642Y-107250928D01*
X173698642Y-107715214D01*
X172798642Y-108179500D02*
X172798642Y-108250928D01*
X172841500Y-108322357D01*
X172884357Y-108358071D01*
X172970071Y-108393785D01*
X173141500Y-108429500D01*
X173355785Y-108429500D01*
X173527214Y-108393785D01*
X173612928Y-108358071D01*
X173655785Y-108322357D01*
X173698642Y-108250928D01*
X173698642Y-108179500D01*
X173655785Y-108108071D01*
X173612928Y-108072357D01*
X173527214Y-108036642D01*
X173355785Y-108000928D01*
X173141500Y-108000928D01*
X172970071Y-108036642D01*
X172884357Y-108072357D01*
X172841500Y-108108071D01*
X172798642Y-108179500D01*
X173698642Y-109143785D02*
X173698642Y-108715214D01*
X173698642Y-108929500D02*
X172798642Y-108929500D01*
X172927214Y-108858071D01*
X173012928Y-108786642D01*
X173055785Y-108715214D01*
X173698642Y-109500928D02*
X173698642Y-109643785D01*
X173655785Y-109715214D01*
X173612928Y-109750928D01*
X173484357Y-109822357D01*
X173312928Y-109858071D01*
X172970071Y-109858071D01*
X172884357Y-109822357D01*
X172841500Y-109786642D01*
X172798642Y-109715214D01*
X172798642Y-109572357D01*
X172841500Y-109500928D01*
X172884357Y-109465214D01*
X172970071Y-109429500D01*
X173184357Y-109429500D01*
X173270071Y-109465214D01*
X173312928Y-109500928D01*
X173355785Y-109572357D01*
X173355785Y-109715214D01*
X173312928Y-109786642D01*
X173270071Y-109822357D01*
X173184357Y-109858071D01*
D10*
X170917428Y-96024500D02*
X170874571Y-95953071D01*
X170874571Y-95810214D01*
X170917428Y-95738785D01*
X171003142Y-95667357D01*
X171088857Y-95631642D01*
X171260285Y-95631642D01*
X171346000Y-95667357D01*
X171431714Y-95738785D01*
X171474571Y-95810214D01*
X171474571Y-95953071D01*
X171431714Y-96024500D01*
X170574571Y-95881642D02*
X170617428Y-95703071D01*
X170746000Y-95524500D01*
X170960285Y-95417357D01*
X171174571Y-95381642D01*
X171388857Y-95417357D01*
X171603142Y-95524500D01*
X171731714Y-95703071D01*
X171774571Y-95881642D01*
X171731714Y-96060214D01*
X171603142Y-96238785D01*
X171388857Y-96345928D01*
X171174571Y-96381642D01*
X170960285Y-96345928D01*
X170746000Y-96238785D01*
X170617428Y-96060214D01*
X170574571Y-95881642D01*
X171560285Y-97238785D02*
X171603142Y-97345928D01*
X171603142Y-97524500D01*
X171560285Y-97595928D01*
X171517428Y-97631642D01*
X171431714Y-97667357D01*
X171346000Y-97667357D01*
X171260285Y-97631642D01*
X171217428Y-97595928D01*
X171174571Y-97524500D01*
X171131714Y-97381642D01*
X171088857Y-97310214D01*
X171046000Y-97274500D01*
X170960285Y-97238785D01*
X170874571Y-97238785D01*
X170788857Y-97274500D01*
X170746000Y-97310214D01*
X170703142Y-97381642D01*
X170703142Y-97560214D01*
X170746000Y-97667357D01*
X171603142Y-97988785D02*
X171003142Y-97988785D01*
X170703142Y-97988785D02*
X170746000Y-97953071D01*
X170788857Y-97988785D01*
X170746000Y-98024500D01*
X170703142Y-97988785D01*
X170788857Y-97988785D01*
X171603142Y-98453071D02*
X171560285Y-98381642D01*
X171474571Y-98345928D01*
X170703142Y-98345928D01*
X171003142Y-98667357D02*
X171603142Y-98845928D01*
X171003142Y-99024500D01*
X171603142Y-99310214D02*
X171003142Y-99310214D01*
X170703142Y-99310214D02*
X170746000Y-99274500D01*
X170788857Y-99310214D01*
X170746000Y-99345928D01*
X170703142Y-99310214D01*
X170788857Y-99310214D01*
X171603142Y-99774500D02*
X171560285Y-99703071D01*
X171517428Y-99667357D01*
X171431714Y-99631642D01*
X171174571Y-99631642D01*
X171088857Y-99667357D01*
X171046000Y-99703071D01*
X171003142Y-99774500D01*
X171003142Y-99881642D01*
X171046000Y-99953071D01*
X171088857Y-99988785D01*
X171174571Y-100024500D01*
X171431714Y-100024500D01*
X171517428Y-99988785D01*
X171560285Y-99953071D01*
X171603142Y-99881642D01*
X171603142Y-99774500D01*
X171560285Y-100881642D02*
X171603142Y-100988785D01*
X171603142Y-101167357D01*
X171560285Y-101238785D01*
X171517428Y-101274500D01*
X171431714Y-101310214D01*
X171346000Y-101310214D01*
X171260285Y-101274500D01*
X171217428Y-101238785D01*
X171174571Y-101167357D01*
X171131714Y-101024500D01*
X171088857Y-100953071D01*
X171046000Y-100917357D01*
X170960285Y-100881642D01*
X170874571Y-100881642D01*
X170788857Y-100917357D01*
X170746000Y-100953071D01*
X170703142Y-101024500D01*
X170703142Y-101203071D01*
X170746000Y-101310214D01*
X171003142Y-101524500D02*
X171003142Y-101810214D01*
X170703142Y-101631642D02*
X171474571Y-101631642D01*
X171560285Y-101667357D01*
X171603142Y-101738785D01*
X171603142Y-101810214D01*
X171560285Y-102345928D02*
X171603142Y-102274500D01*
X171603142Y-102131642D01*
X171560285Y-102060214D01*
X171474571Y-102024500D01*
X171131714Y-102024500D01*
X171046000Y-102060214D01*
X171003142Y-102131642D01*
X171003142Y-102274500D01*
X171046000Y-102345928D01*
X171131714Y-102381642D01*
X171217428Y-102381642D01*
X171303142Y-102024500D01*
X171603142Y-102703071D02*
X171003142Y-102703071D01*
X171174571Y-102703071D02*
X171088857Y-102738785D01*
X171046000Y-102774500D01*
X171003142Y-102845928D01*
X171003142Y-102917357D01*
X171003142Y-103167357D02*
X171603142Y-103167357D01*
X171088857Y-103167357D02*
X171046000Y-103203071D01*
X171003142Y-103274500D01*
X171003142Y-103381642D01*
X171046000Y-103453071D01*
X171131714Y-103488785D01*
X171603142Y-103488785D01*
X171603142Y-103845928D02*
X171003142Y-103845928D01*
X170703142Y-103845928D02*
X170746000Y-103810214D01*
X170788857Y-103845928D01*
X170746000Y-103881642D01*
X170703142Y-103845928D01*
X170788857Y-103845928D01*
X171003142Y-104095928D02*
X171003142Y-104381642D01*
X170703142Y-104203071D02*
X171474571Y-104203071D01*
X171560285Y-104238785D01*
X171603142Y-104310214D01*
X171603142Y-104381642D01*
X171003142Y-104560214D02*
X171003142Y-104953071D01*
X171603142Y-104560214D01*
X171603142Y-104953071D01*
X171603142Y-105238785D02*
X170703142Y-105238785D01*
X171260285Y-105310214D02*
X171603142Y-105524500D01*
X171003142Y-105524500D02*
X171346000Y-105238785D01*
X171560285Y-106131642D02*
X171603142Y-106060214D01*
X171603142Y-105917357D01*
X171560285Y-105845928D01*
X171474571Y-105810214D01*
X171131714Y-105810214D01*
X171046000Y-105845928D01*
X171003142Y-105917357D01*
X171003142Y-106060214D01*
X171046000Y-106131642D01*
X171131714Y-106167357D01*
X171217428Y-106167357D01*
X171303142Y-105810214D01*
G04 #@! TD*
%LPC*%
D14*
G04 #@! TO.C,P3*
X116000000Y-81250000D03*
D15*
X117650000Y-81250000D03*
X117166726Y-82416726D03*
X116000000Y-82900000D03*
X114833274Y-82416726D03*
X114350000Y-81250000D03*
X114833274Y-80083274D03*
X116000000Y-79600000D03*
X117166726Y-80083274D03*
G04 #@! TD*
D14*
G04 #@! TO.C,P2*
X161000000Y-81250000D03*
D15*
X162650000Y-81250000D03*
X162166726Y-82416726D03*
X161000000Y-82900000D03*
X159833274Y-82416726D03*
X159350000Y-81250000D03*
X159833274Y-80083274D03*
X161000000Y-79600000D03*
X162166726Y-80083274D03*
G04 #@! TD*
D14*
G04 #@! TO.C,P5*
X161000000Y-149750000D03*
D15*
X162650000Y-149750000D03*
X162166726Y-150916726D03*
X161000000Y-151400000D03*
X159833274Y-150916726D03*
X159350000Y-149750000D03*
X159833274Y-148583274D03*
X161000000Y-148100000D03*
X162166726Y-148583274D03*
G04 #@! TD*
D16*
G04 #@! TO.C,P1*
X103568000Y-100648000D03*
G04 #@! TD*
D14*
G04 #@! TO.C,P4*
X116000000Y-149750000D03*
D15*
X117650000Y-149750000D03*
X117166726Y-150916726D03*
X116000000Y-151400000D03*
X114833274Y-150916726D03*
X114350000Y-149750000D03*
X114833274Y-148583274D03*
X116000000Y-148100000D03*
X117166726Y-148583274D03*
G04 #@! TD*
D17*
G04 #@! TO.C,J1*
X142684000Y-145732000D03*
X142684000Y-140732000D03*
D18*
X147684000Y-145732000D03*
X147684000Y-140732000D03*
X152684000Y-145732000D03*
X152684000Y-140732000D03*
G04 #@! TD*
D19*
G04 #@! TO.C,R1*
X105664000Y-82169000D03*
D20*
X105664000Y-84709000D03*
G04 #@! TD*
D21*
G04 #@! TO.C,SW1*
X116586000Y-85924000D03*
X116586000Y-90424000D03*
X110086000Y-85924000D03*
X110086000Y-90424000D03*
G04 #@! TD*
D22*
G04 #@! TO.C,D1*
X111633000Y-80962500D03*
D23*
X109093000Y-80962500D03*
G04 #@! TD*
G04 #@! TO.C,U1*
X138430000Y-101600000D03*
X138430000Y-104140000D03*
X135890000Y-110490000D03*
X138430000Y-110490000D03*
X140970000Y-110490000D03*
X140970000Y-107950000D03*
X140970000Y-105410000D03*
X140970000Y-102870000D03*
X140970000Y-100330000D03*
X140970000Y-97790000D03*
X140970000Y-95250000D03*
X140970000Y-92710000D03*
X140970000Y-90170000D03*
X140970000Y-87630000D03*
X140970000Y-85090000D03*
X140970000Y-82550000D03*
X125730000Y-82550000D03*
X125730000Y-85090000D03*
X125730000Y-87630000D03*
X125730000Y-90170000D03*
X125730000Y-92710000D03*
X125730000Y-95250000D03*
X125730000Y-97790000D03*
X125730000Y-100330000D03*
X125730000Y-102870000D03*
X125730000Y-105410000D03*
X125730000Y-107950000D03*
X125730000Y-110490000D03*
X138430000Y-93980000D03*
X138430000Y-91440000D03*
G04 #@! TD*
D24*
G04 #@! TO.C,C1*
X105410000Y-89217500D03*
D25*
X105410000Y-87717500D03*
G04 #@! TD*
D26*
G04 #@! TO.C,U2*
X121579000Y-94672000D03*
X121579000Y-108672000D03*
X121579000Y-106672000D03*
X121579000Y-104672000D03*
X121579000Y-102672000D03*
X121579000Y-100672000D03*
X121579000Y-98672000D03*
X121579000Y-96672000D03*
G04 #@! TD*
D27*
G04 #@! TO.C,PS1*
X170262000Y-89326000D03*
X170262000Y-127826000D03*
X162262000Y-89326000D03*
D28*
X159512000Y-127826000D03*
G04 #@! TD*
D29*
G04 #@! TO.C,J2*
X168402000Y-141034000D03*
X163402000Y-141034000D03*
D30*
X168402000Y-136034000D03*
X163402000Y-136034000D03*
G04 #@! TD*
G04 #@! TO.C,J3*
X112252000Y-120252000D03*
X107252000Y-120252000D03*
D29*
X112252000Y-115252000D03*
X107252000Y-115252000D03*
G04 #@! TD*
D19*
G04 #@! TO.C,C2*
X146685000Y-81597500D03*
X149185000Y-81597500D03*
G04 #@! TD*
D31*
G04 #@! TO.C,D2*
X125540000Y-114364000D03*
D20*
X125540000Y-121984000D03*
G04 #@! TD*
D32*
G04 #@! TO.C,K1*
X133922000Y-143710000D03*
X133922000Y-138670000D03*
X133922000Y-133630000D03*
D33*
X133922000Y-121890000D03*
X133922000Y-118110000D03*
G04 #@! TD*
D34*
G04 #@! TO.C,Q1*
X144590000Y-116713000D03*
X144590000Y-115443000D03*
D35*
X144590000Y-117983000D03*
G04 #@! TD*
D19*
G04 #@! TO.C,R2*
X144590000Y-102552000D03*
D20*
X144590000Y-105092000D03*
G04 #@! TD*
D19*
G04 #@! TO.C,RV1*
X145669000Y-127318000D03*
X142669000Y-132318000D03*
G04 #@! TD*
D36*
G04 #@! TO.C,J4*
X121031000Y-118745000D03*
D37*
X121031000Y-121285000D03*
G04 #@! TD*
M02*
