G04 #@! TF.GenerationSoftware,KiCad,Pcbnew,(5.0.2)-1*
G04 #@! TF.CreationDate,2019-10-27T17:27:48+01:00*
G04 #@! TF.ProjectId,HM-LC-Sw1-FM,484d2d4c-432d-4537-9731-2d464d2e6b69,rev?*
G04 #@! TF.SameCoordinates,Original*
G04 #@! TF.FileFunction,Soldermask,Top*
G04 #@! TF.FilePolarity,Negative*
%FSLAX46Y46*%
G04 Gerber Fmt 4.6, Leading zero omitted, Abs format (unit mm)*
G04 Created by KiCad (PCBNEW (5.0.2)-1) date 27.10.2019 17:27:48*
%MOMM*%
%LPD*%
G01*
G04 APERTURE LIST*
%ADD10C,0.100000*%
G04 APERTURE END LIST*
D10*
G36*
X161351904Y-147372979D02*
X161700054Y-147442230D01*
X162136826Y-147623147D01*
X162529911Y-147885798D01*
X162864202Y-148220089D01*
X163126853Y-148613174D01*
X163307770Y-149049946D01*
X163362041Y-149322787D01*
X163400000Y-149513619D01*
X163400000Y-149986381D01*
X163377279Y-150100604D01*
X163307770Y-150450054D01*
X163126853Y-150886826D01*
X162864202Y-151279911D01*
X162529911Y-151614202D01*
X162136826Y-151876853D01*
X161700054Y-152057770D01*
X161351904Y-152127021D01*
X161236381Y-152150000D01*
X160763619Y-152150000D01*
X160648096Y-152127021D01*
X160299946Y-152057770D01*
X159863174Y-151876853D01*
X159470089Y-151614202D01*
X159135798Y-151279911D01*
X158873147Y-150886826D01*
X158692230Y-150450054D01*
X158622721Y-150100604D01*
X158600000Y-149986381D01*
X158600000Y-149513619D01*
X158637959Y-149322787D01*
X158692230Y-149049946D01*
X158873147Y-148613174D01*
X159135798Y-148220089D01*
X159470089Y-147885798D01*
X159863174Y-147623147D01*
X160299946Y-147442230D01*
X160648096Y-147372979D01*
X160763619Y-147350000D01*
X161236381Y-147350000D01*
X161351904Y-147372979D01*
X161351904Y-147372979D01*
G37*
G36*
X116351904Y-147372979D02*
X116700054Y-147442230D01*
X117136826Y-147623147D01*
X117529911Y-147885798D01*
X117864202Y-148220089D01*
X118126853Y-148613174D01*
X118307770Y-149049946D01*
X118362041Y-149322787D01*
X118400000Y-149513619D01*
X118400000Y-149986381D01*
X118377279Y-150100604D01*
X118307770Y-150450054D01*
X118126853Y-150886826D01*
X117864202Y-151279911D01*
X117529911Y-151614202D01*
X117136826Y-151876853D01*
X116700054Y-152057770D01*
X116351904Y-152127021D01*
X116236381Y-152150000D01*
X115763619Y-152150000D01*
X115648096Y-152127021D01*
X115299946Y-152057770D01*
X114863174Y-151876853D01*
X114470089Y-151614202D01*
X114135798Y-151279911D01*
X113873147Y-150886826D01*
X113692230Y-150450054D01*
X113622721Y-150100604D01*
X113600000Y-149986381D01*
X113600000Y-149513619D01*
X113637959Y-149322787D01*
X113692230Y-149049946D01*
X113873147Y-148613174D01*
X114135798Y-148220089D01*
X114470089Y-147885798D01*
X114863174Y-147623147D01*
X115299946Y-147442230D01*
X115648096Y-147372979D01*
X115763619Y-147350000D01*
X116236381Y-147350000D01*
X116351904Y-147372979D01*
X116351904Y-147372979D01*
G37*
G36*
X152870231Y-144045746D02*
X152959769Y-144072907D01*
X153049308Y-144100068D01*
X153214347Y-144188283D01*
X153359001Y-144306999D01*
X153477717Y-144451653D01*
X153565932Y-144616691D01*
X153620254Y-144795769D01*
X153634000Y-144935334D01*
X153634000Y-146528666D01*
X153620254Y-146668231D01*
X153565932Y-146847309D01*
X153477717Y-147012347D01*
X153359001Y-147157001D01*
X153214347Y-147275717D01*
X153049309Y-147363932D01*
X152959770Y-147391093D01*
X152870232Y-147418254D01*
X152684000Y-147436596D01*
X152497769Y-147418254D01*
X152408231Y-147391093D01*
X152318692Y-147363932D01*
X152153654Y-147275717D01*
X152009000Y-147157001D01*
X151890284Y-147012347D01*
X151802068Y-146847306D01*
X151747746Y-146668234D01*
X151734000Y-146528666D01*
X151734000Y-144935335D01*
X151747746Y-144795770D01*
X151747747Y-144795768D01*
X151802068Y-144616693D01*
X151802068Y-144616692D01*
X151890283Y-144451653D01*
X152008999Y-144306999D01*
X152153653Y-144188283D01*
X152318691Y-144100068D01*
X152408230Y-144072907D01*
X152497768Y-144045746D01*
X152684000Y-144027404D01*
X152870231Y-144045746D01*
X152870231Y-144045746D01*
G37*
G36*
X147870231Y-144045746D02*
X147959769Y-144072907D01*
X148049308Y-144100068D01*
X148214347Y-144188283D01*
X148359001Y-144306999D01*
X148477717Y-144451653D01*
X148565932Y-144616691D01*
X148620254Y-144795769D01*
X148634000Y-144935334D01*
X148634000Y-146528666D01*
X148620254Y-146668231D01*
X148565932Y-146847309D01*
X148477717Y-147012347D01*
X148359001Y-147157001D01*
X148214347Y-147275717D01*
X148049309Y-147363932D01*
X147959770Y-147391093D01*
X147870232Y-147418254D01*
X147684000Y-147436596D01*
X147497769Y-147418254D01*
X147408231Y-147391093D01*
X147318692Y-147363932D01*
X147153654Y-147275717D01*
X147009000Y-147157001D01*
X146890284Y-147012347D01*
X146802068Y-146847306D01*
X146747746Y-146668234D01*
X146734000Y-146528666D01*
X146734000Y-144935335D01*
X146747746Y-144795770D01*
X146747747Y-144795768D01*
X146802068Y-144616693D01*
X146802068Y-144616692D01*
X146890283Y-144451653D01*
X147008999Y-144306999D01*
X147153653Y-144188283D01*
X147318691Y-144100068D01*
X147408230Y-144072907D01*
X147497768Y-144045746D01*
X147684000Y-144027404D01*
X147870231Y-144045746D01*
X147870231Y-144045746D01*
G37*
G36*
X143634000Y-147432000D02*
X141734000Y-147432000D01*
X141734000Y-144032000D01*
X143634000Y-144032000D01*
X143634000Y-147432000D01*
X143634000Y-147432000D01*
G37*
G36*
X134264732Y-142580154D02*
X134264734Y-142580155D01*
X134264735Y-142580155D01*
X134343725Y-142612874D01*
X134478572Y-142668729D01*
X134671022Y-142797320D01*
X134834680Y-142960978D01*
X134963271Y-143153428D01*
X135051846Y-143367268D01*
X135097000Y-143594271D01*
X135097000Y-143825729D01*
X135051846Y-144052732D01*
X134963271Y-144266572D01*
X134834680Y-144459022D01*
X134671022Y-144622680D01*
X134478572Y-144751271D01*
X134371146Y-144795768D01*
X134264735Y-144839845D01*
X134264734Y-144839845D01*
X134264732Y-144839846D01*
X134037729Y-144885000D01*
X133806271Y-144885000D01*
X133579268Y-144839846D01*
X133579266Y-144839845D01*
X133579265Y-144839845D01*
X133472854Y-144795768D01*
X133365428Y-144751271D01*
X133172978Y-144622680D01*
X133009320Y-144459022D01*
X132880729Y-144266572D01*
X132792154Y-144052732D01*
X132747000Y-143825729D01*
X132747000Y-143594271D01*
X132792154Y-143367268D01*
X132880729Y-143153428D01*
X133009320Y-142960978D01*
X133172978Y-142797320D01*
X133365428Y-142668729D01*
X133500275Y-142612874D01*
X133579265Y-142580155D01*
X133579266Y-142580155D01*
X133579268Y-142580154D01*
X133806271Y-142535000D01*
X134037729Y-142535000D01*
X134264732Y-142580154D01*
X134264732Y-142580154D01*
G37*
G36*
X152870231Y-139045746D02*
X152959769Y-139072907D01*
X153049308Y-139100068D01*
X153214347Y-139188283D01*
X153359001Y-139306999D01*
X153477717Y-139451653D01*
X153565932Y-139616691D01*
X153593093Y-139706230D01*
X153620254Y-139795768D01*
X153620656Y-139799846D01*
X153634000Y-139935334D01*
X153634000Y-141528666D01*
X153620254Y-141668231D01*
X153565932Y-141847309D01*
X153477717Y-142012347D01*
X153359001Y-142157001D01*
X153214347Y-142275717D01*
X153049309Y-142363932D01*
X152959770Y-142391093D01*
X152870232Y-142418254D01*
X152684000Y-142436596D01*
X152497769Y-142418254D01*
X152408231Y-142391093D01*
X152318692Y-142363932D01*
X152153654Y-142275717D01*
X152009000Y-142157001D01*
X151890284Y-142012347D01*
X151802068Y-141847306D01*
X151747746Y-141668234D01*
X151734000Y-141528666D01*
X151734000Y-139935335D01*
X151742897Y-139845000D01*
X151747746Y-139795769D01*
X151802068Y-139616693D01*
X151802068Y-139616692D01*
X151890283Y-139451653D01*
X152008999Y-139306999D01*
X152153653Y-139188283D01*
X152318691Y-139100068D01*
X152408230Y-139072907D01*
X152497768Y-139045746D01*
X152684000Y-139027404D01*
X152870231Y-139045746D01*
X152870231Y-139045746D01*
G37*
G36*
X147870231Y-139045746D02*
X147959769Y-139072907D01*
X148049308Y-139100068D01*
X148214347Y-139188283D01*
X148359001Y-139306999D01*
X148477717Y-139451653D01*
X148565932Y-139616691D01*
X148593093Y-139706230D01*
X148620254Y-139795768D01*
X148620656Y-139799846D01*
X148634000Y-139935334D01*
X148634000Y-141528666D01*
X148620254Y-141668231D01*
X148565932Y-141847309D01*
X148477717Y-142012347D01*
X148359001Y-142157001D01*
X148214347Y-142275717D01*
X148049309Y-142363932D01*
X147959770Y-142391093D01*
X147870232Y-142418254D01*
X147684000Y-142436596D01*
X147497769Y-142418254D01*
X147408231Y-142391093D01*
X147318692Y-142363932D01*
X147153654Y-142275717D01*
X147009000Y-142157001D01*
X146890284Y-142012347D01*
X146802068Y-141847306D01*
X146747746Y-141668234D01*
X146734000Y-141528666D01*
X146734000Y-139935335D01*
X146742897Y-139845000D01*
X146747746Y-139795769D01*
X146802068Y-139616693D01*
X146802068Y-139616692D01*
X146890283Y-139451653D01*
X147008999Y-139306999D01*
X147153653Y-139188283D01*
X147318691Y-139100068D01*
X147408230Y-139072907D01*
X147497768Y-139045746D01*
X147684000Y-139027404D01*
X147870231Y-139045746D01*
X147870231Y-139045746D01*
G37*
G36*
X143634000Y-142432000D02*
X141734000Y-142432000D01*
X141734000Y-139032000D01*
X143634000Y-139032000D01*
X143634000Y-142432000D01*
X143634000Y-142432000D01*
G37*
G36*
X165102000Y-141984000D02*
X161702000Y-141984000D01*
X161702000Y-140084000D01*
X165102000Y-140084000D01*
X165102000Y-141984000D01*
X165102000Y-141984000D01*
G37*
G36*
X170102000Y-141984000D02*
X166702000Y-141984000D01*
X166702000Y-140084000D01*
X170102000Y-140084000D01*
X170102000Y-141984000D01*
X170102000Y-141984000D01*
G37*
G36*
X134264732Y-137540154D02*
X134264734Y-137540155D01*
X134264735Y-137540155D01*
X134343725Y-137572874D01*
X134478572Y-137628729D01*
X134671022Y-137757320D01*
X134834680Y-137920978D01*
X134963271Y-138113428D01*
X135051846Y-138327268D01*
X135097000Y-138554271D01*
X135097000Y-138785729D01*
X135051846Y-139012732D01*
X134963271Y-139226572D01*
X134834680Y-139419022D01*
X134671022Y-139582680D01*
X134478572Y-139711271D01*
X134343725Y-139767126D01*
X134264735Y-139799845D01*
X134264734Y-139799845D01*
X134264732Y-139799846D01*
X134037729Y-139845000D01*
X133806271Y-139845000D01*
X133579268Y-139799846D01*
X133579266Y-139799845D01*
X133579265Y-139799845D01*
X133500275Y-139767126D01*
X133365428Y-139711271D01*
X133172978Y-139582680D01*
X133009320Y-139419022D01*
X132880729Y-139226572D01*
X132792154Y-139012732D01*
X132747000Y-138785729D01*
X132747000Y-138554271D01*
X132792154Y-138327268D01*
X132880729Y-138113428D01*
X133009320Y-137920978D01*
X133172978Y-137757320D01*
X133365428Y-137628729D01*
X133500275Y-137572874D01*
X133579265Y-137540155D01*
X133579266Y-137540155D01*
X133579268Y-137540154D01*
X133806271Y-137495000D01*
X134037729Y-137495000D01*
X134264732Y-137540154D01*
X134264732Y-137540154D01*
G37*
G36*
X125457330Y-131149135D02*
X125745646Y-131236595D01*
X126011355Y-131378620D01*
X126244249Y-131569751D01*
X126435380Y-131802645D01*
X126577405Y-132068354D01*
X126664865Y-132356670D01*
X126695000Y-132662640D01*
X126695000Y-135975360D01*
X126664865Y-136281330D01*
X126577405Y-136569646D01*
X126435380Y-136835355D01*
X126244249Y-137068249D01*
X126011355Y-137259380D01*
X125745646Y-137401405D01*
X125457330Y-137488865D01*
X125151360Y-137519000D01*
X121838640Y-137519000D01*
X121532670Y-137488865D01*
X121244354Y-137401405D01*
X120978645Y-137259380D01*
X120745751Y-137068249D01*
X120554620Y-136835355D01*
X120412595Y-136569646D01*
X120325135Y-136281330D01*
X120295000Y-135975360D01*
X120295000Y-132662640D01*
X120325135Y-132356670D01*
X120412595Y-132068354D01*
X120554620Y-131802645D01*
X120745751Y-131569751D01*
X120978645Y-131378620D01*
X121244354Y-131236595D01*
X121532670Y-131149135D01*
X121838640Y-131119000D01*
X125151360Y-131119000D01*
X125457330Y-131149135D01*
X125457330Y-131149135D01*
G37*
G36*
X108257330Y-131149135D02*
X108545646Y-131236595D01*
X108811355Y-131378620D01*
X109044249Y-131569751D01*
X109235380Y-131802645D01*
X109377405Y-132068354D01*
X109464865Y-132356670D01*
X109495000Y-132662640D01*
X109495000Y-135975360D01*
X109464865Y-136281330D01*
X109377405Y-136569646D01*
X109235380Y-136835355D01*
X109044249Y-137068249D01*
X108811355Y-137259380D01*
X108545646Y-137401405D01*
X108257330Y-137488865D01*
X107951360Y-137519000D01*
X104638640Y-137519000D01*
X104332670Y-137488865D01*
X104044354Y-137401405D01*
X103778645Y-137259380D01*
X103545751Y-137068249D01*
X103354620Y-136835355D01*
X103212595Y-136569646D01*
X103125135Y-136281330D01*
X103095000Y-135975360D01*
X103095000Y-132662640D01*
X103125135Y-132356670D01*
X103212595Y-132068354D01*
X103354620Y-131802645D01*
X103545751Y-131569751D01*
X103778645Y-131378620D01*
X104044354Y-131236595D01*
X104332670Y-131149135D01*
X104638640Y-131119000D01*
X107951360Y-131119000D01*
X108257330Y-131149135D01*
X108257330Y-131149135D01*
G37*
G36*
X169338232Y-135097746D02*
X169427770Y-135124907D01*
X169517309Y-135152068D01*
X169682347Y-135240283D01*
X169827001Y-135358999D01*
X169945717Y-135503653D01*
X170033932Y-135668691D01*
X170033932Y-135668692D01*
X170088254Y-135847768D01*
X170106596Y-136034000D01*
X170088254Y-136220232D01*
X170069720Y-136281330D01*
X170033932Y-136399309D01*
X169945717Y-136564347D01*
X169827001Y-136709001D01*
X169682347Y-136827717D01*
X169517309Y-136915932D01*
X169427770Y-136943093D01*
X169338232Y-136970254D01*
X169198666Y-136984000D01*
X167605334Y-136984000D01*
X167465768Y-136970254D01*
X167376230Y-136943093D01*
X167286691Y-136915932D01*
X167121653Y-136827717D01*
X166976999Y-136709001D01*
X166858283Y-136564347D01*
X166770068Y-136399309D01*
X166734280Y-136281330D01*
X166715746Y-136220232D01*
X166697404Y-136034000D01*
X166715746Y-135847768D01*
X166770068Y-135668692D01*
X166770068Y-135668691D01*
X166858283Y-135503653D01*
X166976999Y-135358999D01*
X167121653Y-135240283D01*
X167286691Y-135152068D01*
X167376230Y-135124907D01*
X167465768Y-135097746D01*
X167605334Y-135084000D01*
X169198666Y-135084000D01*
X169338232Y-135097746D01*
X169338232Y-135097746D01*
G37*
G36*
X164338232Y-135097746D02*
X164427770Y-135124907D01*
X164517309Y-135152068D01*
X164682347Y-135240283D01*
X164827001Y-135358999D01*
X164945717Y-135503653D01*
X165033932Y-135668691D01*
X165033932Y-135668692D01*
X165088254Y-135847768D01*
X165106596Y-136034000D01*
X165088254Y-136220232D01*
X165069720Y-136281330D01*
X165033932Y-136399309D01*
X164945717Y-136564347D01*
X164827001Y-136709001D01*
X164682347Y-136827717D01*
X164517309Y-136915932D01*
X164427770Y-136943093D01*
X164338232Y-136970254D01*
X164198666Y-136984000D01*
X162605334Y-136984000D01*
X162465768Y-136970254D01*
X162376230Y-136943093D01*
X162286691Y-136915932D01*
X162121653Y-136827717D01*
X161976999Y-136709001D01*
X161858283Y-136564347D01*
X161770068Y-136399309D01*
X161734280Y-136281330D01*
X161715746Y-136220232D01*
X161697404Y-136034000D01*
X161715746Y-135847768D01*
X161770068Y-135668692D01*
X161770068Y-135668691D01*
X161858283Y-135503653D01*
X161976999Y-135358999D01*
X162121653Y-135240283D01*
X162286691Y-135152068D01*
X162376230Y-135124907D01*
X162465768Y-135097746D01*
X162605334Y-135084000D01*
X164198666Y-135084000D01*
X164338232Y-135097746D01*
X164338232Y-135097746D01*
G37*
G36*
X134264732Y-132500154D02*
X134264734Y-132500155D01*
X134264735Y-132500155D01*
X134343725Y-132532874D01*
X134478572Y-132588729D01*
X134671022Y-132717320D01*
X134834680Y-132880978D01*
X134963271Y-133073428D01*
X135051846Y-133287268D01*
X135097000Y-133514271D01*
X135097000Y-133745729D01*
X135051846Y-133972732D01*
X134963271Y-134186572D01*
X134834680Y-134379022D01*
X134671022Y-134542680D01*
X134478572Y-134671271D01*
X134343725Y-134727126D01*
X134264735Y-134759845D01*
X134264734Y-134759845D01*
X134264732Y-134759846D01*
X134037729Y-134805000D01*
X133806271Y-134805000D01*
X133579268Y-134759846D01*
X133579266Y-134759845D01*
X133579265Y-134759845D01*
X133500275Y-134727126D01*
X133365428Y-134671271D01*
X133172978Y-134542680D01*
X133009320Y-134379022D01*
X132880729Y-134186572D01*
X132792154Y-133972732D01*
X132747000Y-133745729D01*
X132747000Y-133514271D01*
X132792154Y-133287268D01*
X132880729Y-133073428D01*
X133009320Y-132880978D01*
X133172978Y-132717320D01*
X133365428Y-132588729D01*
X133500275Y-132532874D01*
X133579265Y-132500155D01*
X133579266Y-132500155D01*
X133579268Y-132500154D01*
X133806271Y-132455000D01*
X134037729Y-132455000D01*
X134264732Y-132500154D01*
X134264732Y-132500154D01*
G37*
G36*
X142844770Y-131333372D02*
X142960689Y-131356429D01*
X143142678Y-131431811D01*
X143306463Y-131541249D01*
X143445751Y-131680537D01*
X143555189Y-131844322D01*
X143630571Y-132026311D01*
X143669000Y-132219509D01*
X143669000Y-132416491D01*
X143630571Y-132609689D01*
X143555189Y-132791678D01*
X143445751Y-132955463D01*
X143306463Y-133094751D01*
X143142678Y-133204189D01*
X142960689Y-133279571D01*
X142844770Y-133302628D01*
X142767493Y-133318000D01*
X142570507Y-133318000D01*
X142493230Y-133302628D01*
X142377311Y-133279571D01*
X142195322Y-133204189D01*
X142031537Y-133094751D01*
X141892249Y-132955463D01*
X141782811Y-132791678D01*
X141707429Y-132609689D01*
X141669000Y-132416491D01*
X141669000Y-132219509D01*
X141707429Y-132026311D01*
X141782811Y-131844322D01*
X141892249Y-131680537D01*
X142031537Y-131541249D01*
X142195322Y-131431811D01*
X142377311Y-131356429D01*
X142493230Y-131333372D01*
X142570507Y-131318000D01*
X142767493Y-131318000D01*
X142844770Y-131333372D01*
X142844770Y-131333372D01*
G37*
G36*
X170648393Y-126169553D02*
X170757872Y-126191330D01*
X171067252Y-126319479D01*
X171345687Y-126505523D01*
X171582477Y-126742313D01*
X171768521Y-127020748D01*
X171850849Y-127219507D01*
X171896670Y-127330129D01*
X171952278Y-127609686D01*
X171962000Y-127658565D01*
X171962000Y-127993435D01*
X171896670Y-128321872D01*
X171768521Y-128631252D01*
X171582477Y-128909687D01*
X171345687Y-129146477D01*
X171067252Y-129332521D01*
X170757872Y-129460670D01*
X170648393Y-129482447D01*
X170429437Y-129526000D01*
X170094563Y-129526000D01*
X169875607Y-129482447D01*
X169766128Y-129460670D01*
X169456748Y-129332521D01*
X169178313Y-129146477D01*
X168941523Y-128909687D01*
X168755479Y-128631252D01*
X168627330Y-128321872D01*
X168562000Y-127993435D01*
X168562000Y-127658565D01*
X168571723Y-127609686D01*
X168627330Y-127330129D01*
X168673151Y-127219507D01*
X168755479Y-127020748D01*
X168941523Y-126742313D01*
X169178313Y-126505523D01*
X169456748Y-126319479D01*
X169766128Y-126191330D01*
X169875607Y-126169553D01*
X170094563Y-126126000D01*
X170429437Y-126126000D01*
X170648393Y-126169553D01*
X170648393Y-126169553D01*
G37*
G36*
X161212000Y-129526000D02*
X157812000Y-129526000D01*
X157812000Y-126126000D01*
X161212000Y-126126000D01*
X161212000Y-129526000D01*
X161212000Y-129526000D01*
G37*
G36*
X145844770Y-126333372D02*
X145960689Y-126356429D01*
X146142678Y-126431811D01*
X146306463Y-126541249D01*
X146445751Y-126680537D01*
X146555189Y-126844322D01*
X146630571Y-127026311D01*
X146669000Y-127219509D01*
X146669000Y-127416491D01*
X146630571Y-127609689D01*
X146555189Y-127791678D01*
X146445751Y-127955463D01*
X146306463Y-128094751D01*
X146142678Y-128204189D01*
X145960689Y-128279571D01*
X145844770Y-128302628D01*
X145767493Y-128318000D01*
X145570507Y-128318000D01*
X145493230Y-128302628D01*
X145377311Y-128279571D01*
X145195322Y-128204189D01*
X145031537Y-128094751D01*
X144892249Y-127955463D01*
X144782811Y-127791678D01*
X144707429Y-127609689D01*
X144669000Y-127416491D01*
X144669000Y-127219509D01*
X144707429Y-127026311D01*
X144782811Y-126844322D01*
X144892249Y-126680537D01*
X145031537Y-126541249D01*
X145195322Y-126431811D01*
X145377311Y-126356429D01*
X145493230Y-126333372D01*
X145570507Y-126318000D01*
X145767493Y-126318000D01*
X145844770Y-126333372D01*
X145844770Y-126333372D01*
G37*
G36*
X125736030Y-120998469D02*
X125736033Y-120998470D01*
X125736034Y-120998470D01*
X125924535Y-121055651D01*
X125924537Y-121055652D01*
X126098260Y-121148509D01*
X126250528Y-121273472D01*
X126375491Y-121425740D01*
X126410286Y-121490836D01*
X126468349Y-121599465D01*
X126495437Y-121688762D01*
X126525531Y-121787970D01*
X126544838Y-121984000D01*
X126525531Y-122180030D01*
X126525530Y-122180033D01*
X126525530Y-122180034D01*
X126477007Y-122339994D01*
X126468348Y-122368537D01*
X126375491Y-122542260D01*
X126250528Y-122694528D01*
X126098260Y-122819491D01*
X126098258Y-122819492D01*
X125924535Y-122912349D01*
X125736034Y-122969530D01*
X125736033Y-122969530D01*
X125736030Y-122969531D01*
X125589124Y-122984000D01*
X125490876Y-122984000D01*
X125343970Y-122969531D01*
X125343967Y-122969530D01*
X125343966Y-122969530D01*
X125155465Y-122912349D01*
X124981742Y-122819492D01*
X124981740Y-122819491D01*
X124829472Y-122694528D01*
X124704509Y-122542260D01*
X124611652Y-122368537D01*
X124602994Y-122339994D01*
X124554470Y-122180034D01*
X124554470Y-122180033D01*
X124554469Y-122180030D01*
X124535162Y-121984000D01*
X124554469Y-121787970D01*
X124584563Y-121688762D01*
X124611651Y-121599465D01*
X124669714Y-121490836D01*
X124704509Y-121425740D01*
X124829472Y-121273472D01*
X124981740Y-121148509D01*
X125155463Y-121055652D01*
X125155465Y-121055651D01*
X125343966Y-120998470D01*
X125343967Y-120998470D01*
X125343970Y-120998469D01*
X125490876Y-120984000D01*
X125589124Y-120984000D01*
X125736030Y-120998469D01*
X125736030Y-120998469D01*
G37*
G36*
X134061451Y-120949127D02*
X134199105Y-120976508D01*
X134371994Y-121048121D01*
X134527590Y-121152087D01*
X134659913Y-121284410D01*
X134763879Y-121440006D01*
X134835492Y-121612895D01*
X134872000Y-121796433D01*
X134872000Y-121983567D01*
X134835492Y-122167105D01*
X134763879Y-122339994D01*
X134659913Y-122495590D01*
X134527590Y-122627913D01*
X134371994Y-122731879D01*
X134199105Y-122803492D01*
X134061452Y-122830873D01*
X134015568Y-122840000D01*
X133828432Y-122840000D01*
X133782548Y-122830873D01*
X133644895Y-122803492D01*
X133472006Y-122731879D01*
X133316410Y-122627913D01*
X133184087Y-122495590D01*
X133080121Y-122339994D01*
X133008508Y-122167105D01*
X132972000Y-121983567D01*
X132972000Y-121796433D01*
X133008508Y-121612895D01*
X133080121Y-121440006D01*
X133184087Y-121284410D01*
X133316410Y-121152087D01*
X133472006Y-121048121D01*
X133644895Y-120976508D01*
X133782549Y-120949127D01*
X133828432Y-120940000D01*
X134015568Y-120940000D01*
X134061451Y-120949127D01*
X134061451Y-120949127D01*
G37*
G36*
X121159707Y-120242596D02*
X121236836Y-120250193D01*
X121368787Y-120290220D01*
X121434763Y-120310233D01*
X121617172Y-120407733D01*
X121777054Y-120538946D01*
X121908267Y-120698828D01*
X122005767Y-120881237D01*
X122005767Y-120881238D01*
X122065807Y-121079164D01*
X122086080Y-121285000D01*
X122065807Y-121490836D01*
X122032855Y-121599463D01*
X122005767Y-121688763D01*
X121908267Y-121871172D01*
X121777054Y-122031054D01*
X121617172Y-122162267D01*
X121434763Y-122259767D01*
X121368787Y-122279780D01*
X121236836Y-122319807D01*
X121159707Y-122327403D01*
X121082580Y-122335000D01*
X120979420Y-122335000D01*
X120902293Y-122327403D01*
X120825164Y-122319807D01*
X120693213Y-122279780D01*
X120627237Y-122259767D01*
X120444828Y-122162267D01*
X120284946Y-122031054D01*
X120153733Y-121871172D01*
X120056233Y-121688763D01*
X120029145Y-121599463D01*
X119996193Y-121490836D01*
X119975920Y-121285000D01*
X119996193Y-121079164D01*
X120056233Y-120881238D01*
X120056233Y-120881237D01*
X120153733Y-120698828D01*
X120284946Y-120538946D01*
X120444828Y-120407733D01*
X120627237Y-120310233D01*
X120693213Y-120290220D01*
X120825164Y-120250193D01*
X120902293Y-120242596D01*
X120979420Y-120235000D01*
X121082580Y-120235000D01*
X121159707Y-120242596D01*
X121159707Y-120242596D01*
G37*
G36*
X113188232Y-119315746D02*
X113277770Y-119342907D01*
X113367309Y-119370068D01*
X113532347Y-119458283D01*
X113677001Y-119576999D01*
X113795717Y-119721653D01*
X113883932Y-119886691D01*
X113938254Y-120065769D01*
X113956596Y-120252000D01*
X113938254Y-120438231D01*
X113883932Y-120617309D01*
X113795717Y-120782347D01*
X113677001Y-120927001D01*
X113532347Y-121045717D01*
X113367309Y-121133932D01*
X113277770Y-121161093D01*
X113188232Y-121188254D01*
X113118448Y-121195127D01*
X113048666Y-121202000D01*
X111455334Y-121202000D01*
X111385552Y-121195127D01*
X111315768Y-121188254D01*
X111226230Y-121161093D01*
X111136691Y-121133932D01*
X110971653Y-121045717D01*
X110826999Y-120927001D01*
X110708283Y-120782347D01*
X110620068Y-120617309D01*
X110565746Y-120438231D01*
X110547404Y-120252000D01*
X110565746Y-120065769D01*
X110620068Y-119886691D01*
X110708283Y-119721653D01*
X110826999Y-119576999D01*
X110971653Y-119458283D01*
X111136691Y-119370068D01*
X111226230Y-119342907D01*
X111315768Y-119315746D01*
X111455334Y-119302000D01*
X113048666Y-119302000D01*
X113188232Y-119315746D01*
X113188232Y-119315746D01*
G37*
G36*
X108188232Y-119315746D02*
X108277770Y-119342907D01*
X108367309Y-119370068D01*
X108532347Y-119458283D01*
X108677001Y-119576999D01*
X108795717Y-119721653D01*
X108883932Y-119886691D01*
X108938254Y-120065769D01*
X108956596Y-120252000D01*
X108938254Y-120438231D01*
X108883932Y-120617309D01*
X108795717Y-120782347D01*
X108677001Y-120927001D01*
X108532347Y-121045717D01*
X108367309Y-121133932D01*
X108277770Y-121161093D01*
X108188232Y-121188254D01*
X108118448Y-121195127D01*
X108048666Y-121202000D01*
X106455334Y-121202000D01*
X106385552Y-121195127D01*
X106315768Y-121188254D01*
X106226230Y-121161093D01*
X106136691Y-121133932D01*
X105971653Y-121045717D01*
X105826999Y-120927001D01*
X105708283Y-120782347D01*
X105620068Y-120617309D01*
X105565746Y-120438231D01*
X105547404Y-120252000D01*
X105565746Y-120065769D01*
X105620068Y-119886691D01*
X105708283Y-119721653D01*
X105826999Y-119576999D01*
X105971653Y-119458283D01*
X106136691Y-119370068D01*
X106226230Y-119342907D01*
X106315768Y-119315746D01*
X106455334Y-119302000D01*
X108048666Y-119302000D01*
X108188232Y-119315746D01*
X108188232Y-119315746D01*
G37*
G36*
X122081000Y-119795000D02*
X119981000Y-119795000D01*
X119981000Y-117695000D01*
X122081000Y-117695000D01*
X122081000Y-119795000D01*
X122081000Y-119795000D01*
G37*
G36*
X134061452Y-117169127D02*
X134199105Y-117196508D01*
X134371994Y-117268121D01*
X134527590Y-117372087D01*
X134659913Y-117504410D01*
X134763879Y-117660006D01*
X134835492Y-117832895D01*
X134872000Y-118016433D01*
X134872000Y-118203567D01*
X134835492Y-118387105D01*
X134763879Y-118559994D01*
X134659913Y-118715590D01*
X134527590Y-118847913D01*
X134371994Y-118951879D01*
X134199105Y-119023492D01*
X134061451Y-119050873D01*
X134015568Y-119060000D01*
X133828432Y-119060000D01*
X133782549Y-119050873D01*
X133644895Y-119023492D01*
X133472006Y-118951879D01*
X133316410Y-118847913D01*
X133184087Y-118715590D01*
X133080121Y-118559994D01*
X133008508Y-118387105D01*
X132972000Y-118203567D01*
X132972000Y-118016433D01*
X133008508Y-117832895D01*
X133080121Y-117660006D01*
X133184087Y-117504410D01*
X133316410Y-117372087D01*
X133472006Y-117268121D01*
X133644895Y-117196508D01*
X133782548Y-117169127D01*
X133828432Y-117160000D01*
X134015568Y-117160000D01*
X134061452Y-117169127D01*
X134061452Y-117169127D01*
G37*
G36*
X144886113Y-114721497D02*
X144957125Y-114728491D01*
X145048234Y-114756128D01*
X145093789Y-114769947D01*
X145219738Y-114837269D01*
X145330132Y-114927868D01*
X145420731Y-115038262D01*
X145488053Y-115164211D01*
X145488053Y-115164212D01*
X145529509Y-115300875D01*
X145543507Y-115443000D01*
X145529509Y-115585125D01*
X145501872Y-115676234D01*
X145488053Y-115721789D01*
X145420731Y-115847738D01*
X145330132Y-115958132D01*
X145301812Y-115981374D01*
X145284485Y-115998701D01*
X145270871Y-116019075D01*
X145261493Y-116041714D01*
X145256713Y-116065748D01*
X145256713Y-116090252D01*
X145261493Y-116114286D01*
X145270871Y-116136925D01*
X145284485Y-116157299D01*
X145301812Y-116174626D01*
X145330132Y-116197868D01*
X145420731Y-116308262D01*
X145488053Y-116434211D01*
X145488053Y-116434212D01*
X145529509Y-116570875D01*
X145543507Y-116713000D01*
X145529509Y-116855125D01*
X145501872Y-116946234D01*
X145488053Y-116991789D01*
X145444069Y-117074075D01*
X145434692Y-117096713D01*
X145429911Y-117120747D01*
X145429911Y-117145251D01*
X145434691Y-117169285D01*
X145444068Y-117191924D01*
X145457682Y-117212298D01*
X145475009Y-117229626D01*
X145495384Y-117243240D01*
X145518022Y-117252617D01*
X145540000Y-117256989D01*
X145540000Y-118708000D01*
X143640000Y-118708000D01*
X143640000Y-117256591D01*
X143650077Y-117255598D01*
X143673526Y-117248485D01*
X143695137Y-117236934D01*
X143714079Y-117221388D01*
X143729625Y-117202446D01*
X143741176Y-117180835D01*
X143748289Y-117157386D01*
X143750691Y-117133000D01*
X143748289Y-117108614D01*
X143741176Y-117085165D01*
X143735931Y-117074075D01*
X143691947Y-116991789D01*
X143678128Y-116946234D01*
X143650491Y-116855125D01*
X143636493Y-116713000D01*
X143650491Y-116570875D01*
X143691947Y-116434212D01*
X143691947Y-116434211D01*
X143759269Y-116308262D01*
X143849868Y-116197868D01*
X143878188Y-116174626D01*
X143895515Y-116157299D01*
X143909129Y-116136925D01*
X143918507Y-116114286D01*
X143923287Y-116090252D01*
X143923287Y-116065748D01*
X143918507Y-116041714D01*
X143909129Y-116019075D01*
X143895515Y-115998701D01*
X143878188Y-115981374D01*
X143849868Y-115958132D01*
X143759269Y-115847738D01*
X143691947Y-115721789D01*
X143678128Y-115676234D01*
X143650491Y-115585125D01*
X143636493Y-115443000D01*
X143650491Y-115300875D01*
X143691947Y-115164212D01*
X143691947Y-115164211D01*
X143759269Y-115038262D01*
X143849868Y-114927868D01*
X143960262Y-114837269D01*
X144086211Y-114769947D01*
X144131766Y-114756128D01*
X144222875Y-114728491D01*
X144293887Y-114721497D01*
X144329392Y-114718000D01*
X144850608Y-114718000D01*
X144886113Y-114721497D01*
X144886113Y-114721497D01*
G37*
G36*
X113952000Y-116202000D02*
X110552000Y-116202000D01*
X110552000Y-114302000D01*
X113952000Y-114302000D01*
X113952000Y-116202000D01*
X113952000Y-116202000D01*
G37*
G36*
X108952000Y-116202000D02*
X105552000Y-116202000D01*
X105552000Y-114302000D01*
X108952000Y-114302000D01*
X108952000Y-116202000D01*
X108952000Y-116202000D01*
G37*
G36*
X126540000Y-115364000D02*
X124540000Y-115364000D01*
X124540000Y-113364000D01*
X126540000Y-113364000D01*
X126540000Y-115364000D01*
X126540000Y-115364000D01*
G37*
G36*
X141290857Y-109432272D02*
X141491042Y-109515191D01*
X141671213Y-109635578D01*
X141824422Y-109788787D01*
X141944809Y-109968958D01*
X142027728Y-110169143D01*
X142070000Y-110381658D01*
X142070000Y-110598342D01*
X142027728Y-110810857D01*
X141944809Y-111011042D01*
X141824422Y-111191213D01*
X141671213Y-111344422D01*
X141491042Y-111464809D01*
X141290857Y-111547728D01*
X141078342Y-111590000D01*
X140861658Y-111590000D01*
X140649143Y-111547728D01*
X140448958Y-111464809D01*
X140268787Y-111344422D01*
X140115578Y-111191213D01*
X139995191Y-111011042D01*
X139912272Y-110810857D01*
X139870000Y-110598342D01*
X139870000Y-110381658D01*
X139912272Y-110169143D01*
X139995191Y-109968958D01*
X140115578Y-109788787D01*
X140268787Y-109635578D01*
X140448958Y-109515191D01*
X140649143Y-109432272D01*
X140861658Y-109390000D01*
X141078342Y-109390000D01*
X141290857Y-109432272D01*
X141290857Y-109432272D01*
G37*
G36*
X138750857Y-109432272D02*
X138951042Y-109515191D01*
X139131213Y-109635578D01*
X139284422Y-109788787D01*
X139404809Y-109968958D01*
X139487728Y-110169143D01*
X139530000Y-110381658D01*
X139530000Y-110598342D01*
X139487728Y-110810857D01*
X139404809Y-111011042D01*
X139284422Y-111191213D01*
X139131213Y-111344422D01*
X138951042Y-111464809D01*
X138750857Y-111547728D01*
X138538342Y-111590000D01*
X138321658Y-111590000D01*
X138109143Y-111547728D01*
X137908958Y-111464809D01*
X137728787Y-111344422D01*
X137575578Y-111191213D01*
X137455191Y-111011042D01*
X137372272Y-110810857D01*
X137330000Y-110598342D01*
X137330000Y-110381658D01*
X137372272Y-110169143D01*
X137455191Y-109968958D01*
X137575578Y-109788787D01*
X137728787Y-109635578D01*
X137908958Y-109515191D01*
X138109143Y-109432272D01*
X138321658Y-109390000D01*
X138538342Y-109390000D01*
X138750857Y-109432272D01*
X138750857Y-109432272D01*
G37*
G36*
X136210857Y-109432272D02*
X136411042Y-109515191D01*
X136591213Y-109635578D01*
X136744422Y-109788787D01*
X136864809Y-109968958D01*
X136947728Y-110169143D01*
X136990000Y-110381658D01*
X136990000Y-110598342D01*
X136947728Y-110810857D01*
X136864809Y-111011042D01*
X136744422Y-111191213D01*
X136591213Y-111344422D01*
X136411042Y-111464809D01*
X136210857Y-111547728D01*
X135998342Y-111590000D01*
X135781658Y-111590000D01*
X135569143Y-111547728D01*
X135368958Y-111464809D01*
X135188787Y-111344422D01*
X135035578Y-111191213D01*
X134915191Y-111011042D01*
X134832272Y-110810857D01*
X134790000Y-110598342D01*
X134790000Y-110381658D01*
X134832272Y-110169143D01*
X134915191Y-109968958D01*
X135035578Y-109788787D01*
X135188787Y-109635578D01*
X135368958Y-109515191D01*
X135569143Y-109432272D01*
X135781658Y-109390000D01*
X135998342Y-109390000D01*
X136210857Y-109432272D01*
X136210857Y-109432272D01*
G37*
G36*
X126050857Y-109432272D02*
X126251042Y-109515191D01*
X126431213Y-109635578D01*
X126584422Y-109788787D01*
X126704809Y-109968958D01*
X126787728Y-110169143D01*
X126830000Y-110381658D01*
X126830000Y-110598342D01*
X126787728Y-110810857D01*
X126704809Y-111011042D01*
X126584422Y-111191213D01*
X126431213Y-111344422D01*
X126251042Y-111464809D01*
X126050857Y-111547728D01*
X125838342Y-111590000D01*
X125621658Y-111590000D01*
X125409143Y-111547728D01*
X125208958Y-111464809D01*
X125028787Y-111344422D01*
X124875578Y-111191213D01*
X124755191Y-111011042D01*
X124672272Y-110810857D01*
X124630000Y-110598342D01*
X124630000Y-110381658D01*
X124672272Y-110169143D01*
X124755191Y-109968958D01*
X124875578Y-109788787D01*
X125028787Y-109635578D01*
X125208958Y-109515191D01*
X125409143Y-109432272D01*
X125621658Y-109390000D01*
X125838342Y-109390000D01*
X126050857Y-109432272D01*
X126050857Y-109432272D01*
G37*
G36*
X123679000Y-109547000D02*
X121428439Y-109547000D01*
X121423446Y-109542902D01*
X121401835Y-109531351D01*
X121378386Y-109524238D01*
X121323772Y-109513375D01*
X121164533Y-109447416D01*
X121021217Y-109351655D01*
X120899345Y-109229783D01*
X120803584Y-109086467D01*
X120737625Y-108927228D01*
X120704000Y-108758181D01*
X120704000Y-108585819D01*
X120737625Y-108416772D01*
X120803584Y-108257533D01*
X120899345Y-108114217D01*
X121021217Y-107992345D01*
X121164533Y-107896584D01*
X121323772Y-107830625D01*
X121378386Y-107819762D01*
X121401835Y-107812649D01*
X121423446Y-107801098D01*
X121442388Y-107785553D01*
X121457933Y-107766611D01*
X121469485Y-107745000D01*
X121476598Y-107721551D01*
X121479000Y-107697164D01*
X121479000Y-107646836D01*
X121476598Y-107622450D01*
X121469485Y-107599001D01*
X121457934Y-107577390D01*
X121442388Y-107558448D01*
X121423446Y-107542902D01*
X121401835Y-107531351D01*
X121378386Y-107524238D01*
X121323772Y-107513375D01*
X121164533Y-107447416D01*
X121021217Y-107351655D01*
X120899345Y-107229783D01*
X120803584Y-107086467D01*
X120737625Y-106927228D01*
X120704000Y-106758181D01*
X120704000Y-106585819D01*
X120737625Y-106416772D01*
X120803584Y-106257533D01*
X120899345Y-106114217D01*
X121021217Y-105992345D01*
X121164533Y-105896584D01*
X121323772Y-105830625D01*
X121378386Y-105819762D01*
X121401835Y-105812649D01*
X121423446Y-105801098D01*
X121442388Y-105785553D01*
X121457933Y-105766611D01*
X121469485Y-105745000D01*
X121476598Y-105721551D01*
X121479000Y-105697164D01*
X121479000Y-105646836D01*
X121476598Y-105622450D01*
X121469485Y-105599001D01*
X121457934Y-105577390D01*
X121442388Y-105558448D01*
X121423446Y-105542902D01*
X121401835Y-105531351D01*
X121378386Y-105524238D01*
X121323772Y-105513375D01*
X121164533Y-105447416D01*
X121021217Y-105351655D01*
X120899345Y-105229783D01*
X120803584Y-105086467D01*
X120737625Y-104927228D01*
X120704000Y-104758181D01*
X120704000Y-104585819D01*
X120737625Y-104416772D01*
X120803584Y-104257533D01*
X120899345Y-104114217D01*
X121021217Y-103992345D01*
X121164533Y-103896584D01*
X121323772Y-103830625D01*
X121378386Y-103819762D01*
X121401835Y-103812649D01*
X121423446Y-103801098D01*
X121442388Y-103785553D01*
X121457933Y-103766611D01*
X121469485Y-103745000D01*
X121476598Y-103721551D01*
X121479000Y-103697164D01*
X121479000Y-103646836D01*
X121476598Y-103622450D01*
X121469485Y-103599001D01*
X121457934Y-103577390D01*
X121442388Y-103558448D01*
X121423446Y-103542902D01*
X121401835Y-103531351D01*
X121378386Y-103524238D01*
X121323772Y-103513375D01*
X121164533Y-103447416D01*
X121021217Y-103351655D01*
X120899345Y-103229783D01*
X120803584Y-103086467D01*
X120737625Y-102927228D01*
X120704000Y-102758181D01*
X120704000Y-102585819D01*
X120737625Y-102416772D01*
X120803584Y-102257533D01*
X120899345Y-102114217D01*
X121021217Y-101992345D01*
X121164533Y-101896584D01*
X121323772Y-101830625D01*
X121378386Y-101819762D01*
X121401835Y-101812649D01*
X121423446Y-101801098D01*
X121442388Y-101785553D01*
X121457933Y-101766611D01*
X121469485Y-101745000D01*
X121476598Y-101721551D01*
X121479000Y-101697164D01*
X121479000Y-101646836D01*
X121476598Y-101622450D01*
X121469485Y-101599001D01*
X121457934Y-101577390D01*
X121442388Y-101558448D01*
X121423446Y-101542902D01*
X121401835Y-101531351D01*
X121378386Y-101524238D01*
X121323772Y-101513375D01*
X121164533Y-101447416D01*
X121021217Y-101351655D01*
X120899345Y-101229783D01*
X120803584Y-101086467D01*
X120737625Y-100927228D01*
X120704000Y-100758181D01*
X120704000Y-100585819D01*
X120737625Y-100416772D01*
X120803584Y-100257533D01*
X120899345Y-100114217D01*
X121021217Y-99992345D01*
X121164533Y-99896584D01*
X121323772Y-99830625D01*
X121378386Y-99819762D01*
X121401835Y-99812649D01*
X121423446Y-99801098D01*
X121442388Y-99785553D01*
X121457933Y-99766611D01*
X121469485Y-99745000D01*
X121476598Y-99721551D01*
X121479000Y-99697164D01*
X121479000Y-99646836D01*
X121476598Y-99622450D01*
X121469485Y-99599001D01*
X121457934Y-99577390D01*
X121442388Y-99558448D01*
X121423446Y-99542902D01*
X121401835Y-99531351D01*
X121378386Y-99524238D01*
X121323772Y-99513375D01*
X121164533Y-99447416D01*
X121021217Y-99351655D01*
X120899345Y-99229783D01*
X120803584Y-99086467D01*
X120737625Y-98927228D01*
X120704000Y-98758181D01*
X120704000Y-98585819D01*
X120737625Y-98416772D01*
X120803584Y-98257533D01*
X120899345Y-98114217D01*
X121021217Y-97992345D01*
X121164533Y-97896584D01*
X121323772Y-97830625D01*
X121378386Y-97819762D01*
X121401835Y-97812649D01*
X121423446Y-97801098D01*
X121442388Y-97785553D01*
X121457933Y-97766611D01*
X121469485Y-97745000D01*
X121476598Y-97721551D01*
X121479000Y-97697164D01*
X121479000Y-97646836D01*
X121476598Y-97622450D01*
X121469485Y-97599001D01*
X121457934Y-97577390D01*
X121442388Y-97558448D01*
X121423446Y-97542902D01*
X121401835Y-97531351D01*
X121378386Y-97524238D01*
X121323772Y-97513375D01*
X121164533Y-97447416D01*
X121021217Y-97351655D01*
X120899345Y-97229783D01*
X120803584Y-97086467D01*
X120737625Y-96927228D01*
X120704000Y-96758181D01*
X120704000Y-96585819D01*
X120737625Y-96416772D01*
X120803584Y-96257533D01*
X120899345Y-96114217D01*
X121021217Y-95992345D01*
X121164533Y-95896584D01*
X121323772Y-95830625D01*
X121378386Y-95819762D01*
X121401835Y-95812649D01*
X121423446Y-95801098D01*
X121442388Y-95785553D01*
X121457933Y-95766611D01*
X121469485Y-95745000D01*
X121476598Y-95721551D01*
X121479000Y-95697164D01*
X121479000Y-95646836D01*
X121476598Y-95622450D01*
X121469485Y-95599001D01*
X121457934Y-95577390D01*
X121442388Y-95558448D01*
X121423446Y-95542902D01*
X121401835Y-95531351D01*
X121378386Y-95524238D01*
X121323772Y-95513375D01*
X121164533Y-95447416D01*
X121021217Y-95351655D01*
X120899345Y-95229783D01*
X120803584Y-95086467D01*
X120737625Y-94927228D01*
X120704000Y-94758181D01*
X120704000Y-94585819D01*
X120737625Y-94416772D01*
X120803584Y-94257533D01*
X120899345Y-94114217D01*
X121021217Y-93992345D01*
X121164533Y-93896584D01*
X121323772Y-93830625D01*
X121378386Y-93819762D01*
X121401835Y-93812649D01*
X121423446Y-93801098D01*
X121428440Y-93797000D01*
X123679000Y-93797000D01*
X123679000Y-109547000D01*
X123679000Y-109547000D01*
G37*
G36*
X141290857Y-106892272D02*
X141491042Y-106975191D01*
X141491045Y-106975193D01*
X141657578Y-107086467D01*
X141671213Y-107095578D01*
X141824422Y-107248787D01*
X141944809Y-107428958D01*
X142027728Y-107629143D01*
X142070000Y-107841658D01*
X142070000Y-108058342D01*
X142027728Y-108270857D01*
X141944809Y-108471042D01*
X141944807Y-108471045D01*
X141868117Y-108585820D01*
X141824422Y-108651213D01*
X141671213Y-108804422D01*
X141491042Y-108924809D01*
X141290857Y-109007728D01*
X141078342Y-109050000D01*
X140861658Y-109050000D01*
X140649143Y-109007728D01*
X140448958Y-108924809D01*
X140268787Y-108804422D01*
X140115578Y-108651213D01*
X140071884Y-108585820D01*
X139995193Y-108471045D01*
X139995191Y-108471042D01*
X139912272Y-108270857D01*
X139870000Y-108058342D01*
X139870000Y-107841658D01*
X139912272Y-107629143D01*
X139995191Y-107428958D01*
X140115578Y-107248787D01*
X140268787Y-107095578D01*
X140282423Y-107086467D01*
X140448955Y-106975193D01*
X140448958Y-106975191D01*
X140649143Y-106892272D01*
X140861658Y-106850000D01*
X141078342Y-106850000D01*
X141290857Y-106892272D01*
X141290857Y-106892272D01*
G37*
G36*
X126050857Y-106892272D02*
X126251042Y-106975191D01*
X126251045Y-106975193D01*
X126417578Y-107086467D01*
X126431213Y-107095578D01*
X126584422Y-107248787D01*
X126704809Y-107428958D01*
X126787728Y-107629143D01*
X126830000Y-107841658D01*
X126830000Y-108058342D01*
X126787728Y-108270857D01*
X126704809Y-108471042D01*
X126704807Y-108471045D01*
X126628117Y-108585820D01*
X126584422Y-108651213D01*
X126431213Y-108804422D01*
X126251042Y-108924809D01*
X126050857Y-109007728D01*
X125838342Y-109050000D01*
X125621658Y-109050000D01*
X125409143Y-109007728D01*
X125208958Y-108924809D01*
X125028787Y-108804422D01*
X124875578Y-108651213D01*
X124831884Y-108585820D01*
X124755193Y-108471045D01*
X124755191Y-108471042D01*
X124672272Y-108270857D01*
X124630000Y-108058342D01*
X124630000Y-107841658D01*
X124672272Y-107629143D01*
X124755191Y-107428958D01*
X124875578Y-107248787D01*
X125028787Y-107095578D01*
X125042423Y-107086467D01*
X125208955Y-106975193D01*
X125208958Y-106975191D01*
X125409143Y-106892272D01*
X125621658Y-106850000D01*
X125838342Y-106850000D01*
X126050857Y-106892272D01*
X126050857Y-106892272D01*
G37*
G36*
X126050857Y-104352272D02*
X126251042Y-104435191D01*
X126251045Y-104435193D01*
X126398534Y-104533742D01*
X126431213Y-104555578D01*
X126584422Y-104708787D01*
X126704809Y-104888958D01*
X126787728Y-105089143D01*
X126830000Y-105301658D01*
X126830000Y-105518342D01*
X126787728Y-105730857D01*
X126704809Y-105931042D01*
X126704807Y-105931045D01*
X126606929Y-106077530D01*
X126584422Y-106111213D01*
X126431213Y-106264422D01*
X126251042Y-106384809D01*
X126050857Y-106467728D01*
X125838342Y-106510000D01*
X125621658Y-106510000D01*
X125409143Y-106467728D01*
X125208958Y-106384809D01*
X125028787Y-106264422D01*
X124875578Y-106111213D01*
X124853072Y-106077530D01*
X124755193Y-105931045D01*
X124755191Y-105931042D01*
X124672272Y-105730857D01*
X124630000Y-105518342D01*
X124630000Y-105301658D01*
X124672272Y-105089143D01*
X124755191Y-104888958D01*
X124875578Y-104708787D01*
X125028787Y-104555578D01*
X125061467Y-104533742D01*
X125208955Y-104435193D01*
X125208958Y-104435191D01*
X125409143Y-104352272D01*
X125621658Y-104310000D01*
X125838342Y-104310000D01*
X126050857Y-104352272D01*
X126050857Y-104352272D01*
G37*
G36*
X141290857Y-104352272D02*
X141491042Y-104435191D01*
X141491045Y-104435193D01*
X141638534Y-104533742D01*
X141671213Y-104555578D01*
X141824422Y-104708787D01*
X141944809Y-104888958D01*
X142027728Y-105089143D01*
X142070000Y-105301658D01*
X142070000Y-105518342D01*
X142027728Y-105730857D01*
X141944809Y-105931042D01*
X141944807Y-105931045D01*
X141846929Y-106077530D01*
X141824422Y-106111213D01*
X141671213Y-106264422D01*
X141491042Y-106384809D01*
X141290857Y-106467728D01*
X141078342Y-106510000D01*
X140861658Y-106510000D01*
X140649143Y-106467728D01*
X140448958Y-106384809D01*
X140268787Y-106264422D01*
X140115578Y-106111213D01*
X140093072Y-106077530D01*
X139995193Y-105931045D01*
X139995191Y-105931042D01*
X139912272Y-105730857D01*
X139870000Y-105518342D01*
X139870000Y-105301658D01*
X139912272Y-105089143D01*
X139995191Y-104888958D01*
X140115578Y-104708787D01*
X140268787Y-104555578D01*
X140301467Y-104533742D01*
X140448955Y-104435193D01*
X140448958Y-104435191D01*
X140649143Y-104352272D01*
X140861658Y-104310000D01*
X141078342Y-104310000D01*
X141290857Y-104352272D01*
X141290857Y-104352272D01*
G37*
G36*
X144786030Y-104106469D02*
X144786033Y-104106470D01*
X144786034Y-104106470D01*
X144974535Y-104163651D01*
X144974537Y-104163652D01*
X145148260Y-104256509D01*
X145300528Y-104381472D01*
X145425491Y-104533740D01*
X145425492Y-104533742D01*
X145518349Y-104707465D01*
X145558921Y-104841213D01*
X145575531Y-104895970D01*
X145594838Y-105092000D01*
X145575531Y-105288030D01*
X145518348Y-105476537D01*
X145425491Y-105650260D01*
X145300528Y-105802528D01*
X145148260Y-105927491D01*
X145026927Y-105992345D01*
X144974535Y-106020349D01*
X144786034Y-106077530D01*
X144786033Y-106077530D01*
X144786030Y-106077531D01*
X144639124Y-106092000D01*
X144540876Y-106092000D01*
X144393970Y-106077531D01*
X144393967Y-106077530D01*
X144393966Y-106077530D01*
X144205465Y-106020349D01*
X144153073Y-105992345D01*
X144031740Y-105927491D01*
X143879472Y-105802528D01*
X143754509Y-105650260D01*
X143661652Y-105476537D01*
X143604469Y-105288030D01*
X143585162Y-105092000D01*
X143604469Y-104895970D01*
X143621079Y-104841213D01*
X143661651Y-104707465D01*
X143754508Y-104533742D01*
X143754509Y-104533740D01*
X143879472Y-104381472D01*
X144031740Y-104256509D01*
X144205463Y-104163652D01*
X144205465Y-104163651D01*
X144393966Y-104106470D01*
X144393967Y-104106470D01*
X144393970Y-104106469D01*
X144540876Y-104092000D01*
X144639124Y-104092000D01*
X144786030Y-104106469D01*
X144786030Y-104106469D01*
G37*
G36*
X138750857Y-103082272D02*
X138951042Y-103165191D01*
X138951045Y-103165193D01*
X139047711Y-103229783D01*
X139131213Y-103285578D01*
X139284422Y-103438787D01*
X139284424Y-103438790D01*
X139284425Y-103438791D01*
X139341519Y-103524238D01*
X139404809Y-103618958D01*
X139487728Y-103819143D01*
X139530000Y-104031658D01*
X139530000Y-104248342D01*
X139487728Y-104460857D01*
X139404809Y-104661042D01*
X139404807Y-104661045D01*
X139339903Y-104758181D01*
X139284422Y-104841213D01*
X139131213Y-104994422D01*
X138951042Y-105114809D01*
X138750857Y-105197728D01*
X138538342Y-105240000D01*
X138321658Y-105240000D01*
X138109143Y-105197728D01*
X137908958Y-105114809D01*
X137728787Y-104994422D01*
X137575578Y-104841213D01*
X137520098Y-104758181D01*
X137455193Y-104661045D01*
X137455191Y-104661042D01*
X137372272Y-104460857D01*
X137330000Y-104248342D01*
X137330000Y-104031658D01*
X137372272Y-103819143D01*
X137455191Y-103618958D01*
X137518481Y-103524238D01*
X137575575Y-103438791D01*
X137575576Y-103438790D01*
X137575578Y-103438787D01*
X137728787Y-103285578D01*
X137812290Y-103229783D01*
X137908955Y-103165193D01*
X137908958Y-103165191D01*
X138109143Y-103082272D01*
X138321658Y-103040000D01*
X138538342Y-103040000D01*
X138750857Y-103082272D01*
X138750857Y-103082272D01*
G37*
G36*
X126050857Y-101812272D02*
X126251042Y-101895191D01*
X126431213Y-102015578D01*
X126584422Y-102168787D01*
X126584424Y-102168790D01*
X126584425Y-102168791D01*
X126645577Y-102260311D01*
X126704809Y-102348958D01*
X126787728Y-102549143D01*
X126830000Y-102761658D01*
X126830000Y-102978342D01*
X126787728Y-103190857D01*
X126704809Y-103391042D01*
X126704807Y-103391045D01*
X126592952Y-103558448D01*
X126584422Y-103571213D01*
X126431213Y-103724422D01*
X126431210Y-103724424D01*
X126431209Y-103724425D01*
X126322593Y-103797000D01*
X126251042Y-103844809D01*
X126050857Y-103927728D01*
X125838342Y-103970000D01*
X125621658Y-103970000D01*
X125409143Y-103927728D01*
X125208958Y-103844809D01*
X125137407Y-103797000D01*
X125028791Y-103724425D01*
X125028790Y-103724424D01*
X125028787Y-103724422D01*
X124875578Y-103571213D01*
X124867049Y-103558448D01*
X124755193Y-103391045D01*
X124755191Y-103391042D01*
X124672272Y-103190857D01*
X124630000Y-102978342D01*
X124630000Y-102761658D01*
X124672272Y-102549143D01*
X124755191Y-102348958D01*
X124814423Y-102260311D01*
X124875575Y-102168791D01*
X124875576Y-102168790D01*
X124875578Y-102168787D01*
X125028787Y-102015578D01*
X125208958Y-101895191D01*
X125409143Y-101812272D01*
X125621658Y-101770000D01*
X125838342Y-101770000D01*
X126050857Y-101812272D01*
X126050857Y-101812272D01*
G37*
G36*
X141290857Y-101812272D02*
X141491042Y-101895191D01*
X141671213Y-102015578D01*
X141824422Y-102168787D01*
X141824424Y-102168790D01*
X141824425Y-102168791D01*
X141885577Y-102260311D01*
X141944809Y-102348958D01*
X142027728Y-102549143D01*
X142070000Y-102761658D01*
X142070000Y-102978342D01*
X142027728Y-103190857D01*
X141944809Y-103391042D01*
X141944807Y-103391045D01*
X141832952Y-103558448D01*
X141824422Y-103571213D01*
X141671213Y-103724422D01*
X141671210Y-103724424D01*
X141671209Y-103724425D01*
X141562593Y-103797000D01*
X141491042Y-103844809D01*
X141290857Y-103927728D01*
X141078342Y-103970000D01*
X140861658Y-103970000D01*
X140649143Y-103927728D01*
X140448958Y-103844809D01*
X140377407Y-103797000D01*
X140268791Y-103724425D01*
X140268790Y-103724424D01*
X140268787Y-103724422D01*
X140115578Y-103571213D01*
X140107049Y-103558448D01*
X139995193Y-103391045D01*
X139995191Y-103391042D01*
X139912272Y-103190857D01*
X139870000Y-102978342D01*
X139870000Y-102761658D01*
X139912272Y-102549143D01*
X139995191Y-102348958D01*
X140054423Y-102260311D01*
X140115575Y-102168791D01*
X140115576Y-102168790D01*
X140115578Y-102168787D01*
X140268787Y-102015578D01*
X140448958Y-101895191D01*
X140649143Y-101812272D01*
X140861658Y-101770000D01*
X141078342Y-101770000D01*
X141290857Y-101812272D01*
X141290857Y-101812272D01*
G37*
G36*
X144765770Y-101567372D02*
X144881689Y-101590429D01*
X145063678Y-101665811D01*
X145227463Y-101775249D01*
X145366751Y-101914537D01*
X145476189Y-102078322D01*
X145551571Y-102260311D01*
X145569203Y-102348955D01*
X145590000Y-102453507D01*
X145590000Y-102650493D01*
X145580152Y-102700000D01*
X145551571Y-102843689D01*
X145476189Y-103025678D01*
X145366751Y-103189463D01*
X145227463Y-103328751D01*
X145063678Y-103438189D01*
X144881689Y-103513571D01*
X144765770Y-103536628D01*
X144688493Y-103552000D01*
X144491507Y-103552000D01*
X144414230Y-103536628D01*
X144298311Y-103513571D01*
X144116322Y-103438189D01*
X143952537Y-103328751D01*
X143813249Y-103189463D01*
X143703811Y-103025678D01*
X143628429Y-102843689D01*
X143599848Y-102700000D01*
X143590000Y-102650493D01*
X143590000Y-102453507D01*
X143610797Y-102348955D01*
X143628429Y-102260311D01*
X143703811Y-102078322D01*
X143813249Y-101914537D01*
X143952537Y-101775249D01*
X144116322Y-101665811D01*
X144298311Y-101590429D01*
X144414230Y-101567372D01*
X144491507Y-101552000D01*
X144688493Y-101552000D01*
X144765770Y-101567372D01*
X144765770Y-101567372D01*
G37*
G36*
X138750857Y-100542272D02*
X138951042Y-100625191D01*
X139131213Y-100745578D01*
X139284422Y-100898787D01*
X139404809Y-101078958D01*
X139487728Y-101279143D01*
X139530000Y-101491658D01*
X139530000Y-101708342D01*
X139487728Y-101920857D01*
X139404809Y-102121042D01*
X139284422Y-102301213D01*
X139131213Y-102454422D01*
X138951042Y-102574809D01*
X138750857Y-102657728D01*
X138538342Y-102700000D01*
X138321658Y-102700000D01*
X138109143Y-102657728D01*
X137908958Y-102574809D01*
X137728787Y-102454422D01*
X137575578Y-102301213D01*
X137455191Y-102121042D01*
X137372272Y-101920857D01*
X137330000Y-101708342D01*
X137330000Y-101491658D01*
X137372272Y-101279143D01*
X137455191Y-101078958D01*
X137575578Y-100898787D01*
X137728787Y-100745578D01*
X137908958Y-100625191D01*
X138109143Y-100542272D01*
X138321658Y-100500000D01*
X138538342Y-100500000D01*
X138750857Y-100542272D01*
X138750857Y-100542272D01*
G37*
G36*
X103947196Y-99397958D02*
X104183780Y-99495954D01*
X104396705Y-99638226D01*
X104577774Y-99819295D01*
X104720046Y-100032220D01*
X104818042Y-100268804D01*
X104868000Y-100519960D01*
X104868000Y-100776040D01*
X104818042Y-101027196D01*
X104720046Y-101263780D01*
X104577774Y-101476705D01*
X104396705Y-101657774D01*
X104183780Y-101800046D01*
X103947196Y-101898042D01*
X103696040Y-101948000D01*
X103439960Y-101948000D01*
X103188804Y-101898042D01*
X102952220Y-101800046D01*
X102739295Y-101657774D01*
X102558226Y-101476705D01*
X102415954Y-101263780D01*
X102317958Y-101027196D01*
X102268000Y-100776040D01*
X102268000Y-100519960D01*
X102317958Y-100268804D01*
X102415954Y-100032220D01*
X102558226Y-99819295D01*
X102739295Y-99638226D01*
X102952220Y-99495954D01*
X103188804Y-99397958D01*
X103439960Y-99348000D01*
X103696040Y-99348000D01*
X103947196Y-99397958D01*
X103947196Y-99397958D01*
G37*
G36*
X126050857Y-99272272D02*
X126251042Y-99355191D01*
X126251045Y-99355193D01*
X126389065Y-99447415D01*
X126431213Y-99475578D01*
X126584422Y-99628787D01*
X126584424Y-99628790D01*
X126584425Y-99628791D01*
X126676514Y-99766611D01*
X126704809Y-99808958D01*
X126787728Y-100009143D01*
X126830000Y-100221658D01*
X126830000Y-100438342D01*
X126787728Y-100650857D01*
X126704809Y-100851042D01*
X126584422Y-101031213D01*
X126431213Y-101184422D01*
X126431210Y-101184424D01*
X126431209Y-101184425D01*
X126289455Y-101279142D01*
X126251042Y-101304809D01*
X126050857Y-101387728D01*
X125838342Y-101430000D01*
X125621658Y-101430000D01*
X125409143Y-101387728D01*
X125208958Y-101304809D01*
X125170545Y-101279142D01*
X125028791Y-101184425D01*
X125028790Y-101184424D01*
X125028787Y-101184422D01*
X124875578Y-101031213D01*
X124755191Y-100851042D01*
X124672272Y-100650857D01*
X124630000Y-100438342D01*
X124630000Y-100221658D01*
X124672272Y-100009143D01*
X124755191Y-99808958D01*
X124783486Y-99766611D01*
X124875575Y-99628791D01*
X124875576Y-99628790D01*
X124875578Y-99628787D01*
X125028787Y-99475578D01*
X125070936Y-99447415D01*
X125208955Y-99355193D01*
X125208958Y-99355191D01*
X125409143Y-99272272D01*
X125621658Y-99230000D01*
X125838342Y-99230000D01*
X126050857Y-99272272D01*
X126050857Y-99272272D01*
G37*
G36*
X141290857Y-99272272D02*
X141491042Y-99355191D01*
X141491045Y-99355193D01*
X141629065Y-99447415D01*
X141671213Y-99475578D01*
X141824422Y-99628787D01*
X141824424Y-99628790D01*
X141824425Y-99628791D01*
X141916514Y-99766611D01*
X141944809Y-99808958D01*
X142027728Y-100009143D01*
X142070000Y-100221658D01*
X142070000Y-100438342D01*
X142027728Y-100650857D01*
X141944809Y-100851042D01*
X141824422Y-101031213D01*
X141671213Y-101184422D01*
X141671210Y-101184424D01*
X141671209Y-101184425D01*
X141529455Y-101279142D01*
X141491042Y-101304809D01*
X141290857Y-101387728D01*
X141078342Y-101430000D01*
X140861658Y-101430000D01*
X140649143Y-101387728D01*
X140448958Y-101304809D01*
X140410545Y-101279142D01*
X140268791Y-101184425D01*
X140268790Y-101184424D01*
X140268787Y-101184422D01*
X140115578Y-101031213D01*
X139995191Y-100851042D01*
X139912272Y-100650857D01*
X139870000Y-100438342D01*
X139870000Y-100221658D01*
X139912272Y-100009143D01*
X139995191Y-99808958D01*
X140023486Y-99766611D01*
X140115575Y-99628791D01*
X140115576Y-99628790D01*
X140115578Y-99628787D01*
X140268787Y-99475578D01*
X140310936Y-99447415D01*
X140448955Y-99355193D01*
X140448958Y-99355191D01*
X140649143Y-99272272D01*
X140861658Y-99230000D01*
X141078342Y-99230000D01*
X141290857Y-99272272D01*
X141290857Y-99272272D01*
G37*
G36*
X141290857Y-96732272D02*
X141491042Y-96815191D01*
X141491045Y-96815193D01*
X141658717Y-96927228D01*
X141671213Y-96935578D01*
X141824422Y-97088787D01*
X141944809Y-97268958D01*
X142027728Y-97469143D01*
X142070000Y-97681658D01*
X142070000Y-97898342D01*
X142027728Y-98110857D01*
X141944809Y-98311042D01*
X141824422Y-98491213D01*
X141671213Y-98644422D01*
X141491042Y-98764809D01*
X141290857Y-98847728D01*
X141078342Y-98890000D01*
X140861658Y-98890000D01*
X140649143Y-98847728D01*
X140448958Y-98764809D01*
X140268787Y-98644422D01*
X140115578Y-98491213D01*
X139995191Y-98311042D01*
X139912272Y-98110857D01*
X139870000Y-97898342D01*
X139870000Y-97681658D01*
X139912272Y-97469143D01*
X139995191Y-97268958D01*
X140115578Y-97088787D01*
X140268787Y-96935578D01*
X140281284Y-96927228D01*
X140448955Y-96815193D01*
X140448958Y-96815191D01*
X140649143Y-96732272D01*
X140861658Y-96690000D01*
X141078342Y-96690000D01*
X141290857Y-96732272D01*
X141290857Y-96732272D01*
G37*
G36*
X126050857Y-96732272D02*
X126251042Y-96815191D01*
X126251045Y-96815193D01*
X126418717Y-96927228D01*
X126431213Y-96935578D01*
X126584422Y-97088787D01*
X126704809Y-97268958D01*
X126787728Y-97469143D01*
X126830000Y-97681658D01*
X126830000Y-97898342D01*
X126787728Y-98110857D01*
X126704809Y-98311042D01*
X126584422Y-98491213D01*
X126431213Y-98644422D01*
X126251042Y-98764809D01*
X126050857Y-98847728D01*
X125838342Y-98890000D01*
X125621658Y-98890000D01*
X125409143Y-98847728D01*
X125208958Y-98764809D01*
X125028787Y-98644422D01*
X124875578Y-98491213D01*
X124755191Y-98311042D01*
X124672272Y-98110857D01*
X124630000Y-97898342D01*
X124630000Y-97681658D01*
X124672272Y-97469143D01*
X124755191Y-97268958D01*
X124875578Y-97088787D01*
X125028787Y-96935578D01*
X125041284Y-96927228D01*
X125208955Y-96815193D01*
X125208958Y-96815191D01*
X125409143Y-96732272D01*
X125621658Y-96690000D01*
X125838342Y-96690000D01*
X126050857Y-96732272D01*
X126050857Y-96732272D01*
G37*
G36*
X126050857Y-94192272D02*
X126251042Y-94275191D01*
X126431213Y-94395578D01*
X126584422Y-94548787D01*
X126704809Y-94728958D01*
X126787728Y-94929143D01*
X126830000Y-95141658D01*
X126830000Y-95358342D01*
X126787728Y-95570857D01*
X126704809Y-95771042D01*
X126704807Y-95771045D01*
X126620924Y-95896585D01*
X126584422Y-95951213D01*
X126431213Y-96104422D01*
X126431210Y-96104424D01*
X126431209Y-96104425D01*
X126251045Y-96224807D01*
X126251042Y-96224809D01*
X126050857Y-96307728D01*
X125838342Y-96350000D01*
X125621658Y-96350000D01*
X125409143Y-96307728D01*
X125208958Y-96224809D01*
X125208955Y-96224807D01*
X125028791Y-96104425D01*
X125028790Y-96104424D01*
X125028787Y-96104422D01*
X124875578Y-95951213D01*
X124839077Y-95896585D01*
X124755193Y-95771045D01*
X124755191Y-95771042D01*
X124672272Y-95570857D01*
X124630000Y-95358342D01*
X124630000Y-95141658D01*
X124672272Y-94929143D01*
X124755191Y-94728958D01*
X124875578Y-94548787D01*
X125028787Y-94395578D01*
X125208958Y-94275191D01*
X125409143Y-94192272D01*
X125621658Y-94150000D01*
X125838342Y-94150000D01*
X126050857Y-94192272D01*
X126050857Y-94192272D01*
G37*
G36*
X141290857Y-94192272D02*
X141491042Y-94275191D01*
X141671213Y-94395578D01*
X141824422Y-94548787D01*
X141944809Y-94728958D01*
X142027728Y-94929143D01*
X142070000Y-95141658D01*
X142070000Y-95358342D01*
X142027728Y-95570857D01*
X141944809Y-95771042D01*
X141944807Y-95771045D01*
X141860924Y-95896585D01*
X141824422Y-95951213D01*
X141671213Y-96104422D01*
X141671210Y-96104424D01*
X141671209Y-96104425D01*
X141491045Y-96224807D01*
X141491042Y-96224809D01*
X141290857Y-96307728D01*
X141078342Y-96350000D01*
X140861658Y-96350000D01*
X140649143Y-96307728D01*
X140448958Y-96224809D01*
X140448955Y-96224807D01*
X140268791Y-96104425D01*
X140268790Y-96104424D01*
X140268787Y-96104422D01*
X140115578Y-95951213D01*
X140079077Y-95896585D01*
X139995193Y-95771045D01*
X139995191Y-95771042D01*
X139912272Y-95570857D01*
X139870000Y-95358342D01*
X139870000Y-95141658D01*
X139912272Y-94929143D01*
X139995191Y-94728958D01*
X140115578Y-94548787D01*
X140268787Y-94395578D01*
X140448958Y-94275191D01*
X140649143Y-94192272D01*
X140861658Y-94150000D01*
X141078342Y-94150000D01*
X141290857Y-94192272D01*
X141290857Y-94192272D01*
G37*
G36*
X138750857Y-92922272D02*
X138951042Y-93005191D01*
X139131213Y-93125578D01*
X139284422Y-93278787D01*
X139404809Y-93458958D01*
X139487728Y-93659143D01*
X139530000Y-93871658D01*
X139530000Y-94088342D01*
X139487728Y-94300857D01*
X139404809Y-94501042D01*
X139284422Y-94681213D01*
X139131213Y-94834422D01*
X138951042Y-94954809D01*
X138750857Y-95037728D01*
X138538342Y-95080000D01*
X138321658Y-95080000D01*
X138109143Y-95037728D01*
X137908958Y-94954809D01*
X137728787Y-94834422D01*
X137575578Y-94681213D01*
X137455191Y-94501042D01*
X137372272Y-94300857D01*
X137330000Y-94088342D01*
X137330000Y-93871658D01*
X137372272Y-93659143D01*
X137455191Y-93458958D01*
X137575578Y-93278787D01*
X137728787Y-93125578D01*
X137908958Y-93005191D01*
X138109143Y-92922272D01*
X138321658Y-92880000D01*
X138538342Y-92880000D01*
X138750857Y-92922272D01*
X138750857Y-92922272D01*
G37*
G36*
X141290857Y-91652272D02*
X141491042Y-91735191D01*
X141671213Y-91855578D01*
X141824422Y-92008787D01*
X141944809Y-92188958D01*
X142027728Y-92389143D01*
X142070000Y-92601658D01*
X142070000Y-92818342D01*
X142027728Y-93030857D01*
X141944809Y-93231042D01*
X141824422Y-93411213D01*
X141671213Y-93564422D01*
X141491042Y-93684809D01*
X141290857Y-93767728D01*
X141078342Y-93810000D01*
X140861658Y-93810000D01*
X140649143Y-93767728D01*
X140448958Y-93684809D01*
X140268787Y-93564422D01*
X140115578Y-93411213D01*
X139995191Y-93231042D01*
X139912272Y-93030857D01*
X139870000Y-92818342D01*
X139870000Y-92601658D01*
X139912272Y-92389143D01*
X139995191Y-92188958D01*
X140115578Y-92008787D01*
X140268787Y-91855578D01*
X140448958Y-91735191D01*
X140649143Y-91652272D01*
X140861658Y-91610000D01*
X141078342Y-91610000D01*
X141290857Y-91652272D01*
X141290857Y-91652272D01*
G37*
G36*
X126050857Y-91652272D02*
X126251042Y-91735191D01*
X126431213Y-91855578D01*
X126584422Y-92008787D01*
X126704809Y-92188958D01*
X126787728Y-92389143D01*
X126830000Y-92601658D01*
X126830000Y-92818342D01*
X126787728Y-93030857D01*
X126704809Y-93231042D01*
X126584422Y-93411213D01*
X126431213Y-93564422D01*
X126251042Y-93684809D01*
X126050857Y-93767728D01*
X125838342Y-93810000D01*
X125621658Y-93810000D01*
X125409143Y-93767728D01*
X125208958Y-93684809D01*
X125028787Y-93564422D01*
X124875578Y-93411213D01*
X124755191Y-93231042D01*
X124672272Y-93030857D01*
X124630000Y-92818342D01*
X124630000Y-92601658D01*
X124672272Y-92389143D01*
X124755191Y-92188958D01*
X124875578Y-92008787D01*
X125028787Y-91855578D01*
X125208958Y-91735191D01*
X125409143Y-91652272D01*
X125621658Y-91610000D01*
X125838342Y-91610000D01*
X126050857Y-91652272D01*
X126050857Y-91652272D01*
G37*
G36*
X138750857Y-90382272D02*
X138951042Y-90465191D01*
X139131213Y-90585578D01*
X139284422Y-90738787D01*
X139284424Y-90738790D01*
X139284425Y-90738791D01*
X139372904Y-90871209D01*
X139404809Y-90918958D01*
X139487728Y-91119143D01*
X139530000Y-91331658D01*
X139530000Y-91548342D01*
X139487728Y-91760857D01*
X139404809Y-91961042D01*
X139284422Y-92141213D01*
X139131213Y-92294422D01*
X138951042Y-92414809D01*
X138750857Y-92497728D01*
X138538342Y-92540000D01*
X138321658Y-92540000D01*
X138109143Y-92497728D01*
X137908958Y-92414809D01*
X137728787Y-92294422D01*
X137575578Y-92141213D01*
X137455191Y-91961042D01*
X137372272Y-91760857D01*
X137330000Y-91548342D01*
X137330000Y-91331658D01*
X137372272Y-91119143D01*
X137455191Y-90918958D01*
X137487096Y-90871209D01*
X137575575Y-90738791D01*
X137575576Y-90738790D01*
X137575578Y-90738787D01*
X137728787Y-90585578D01*
X137908958Y-90465191D01*
X138109143Y-90382272D01*
X138321658Y-90340000D01*
X138538342Y-90340000D01*
X138750857Y-90382272D01*
X138750857Y-90382272D01*
G37*
G36*
X116936026Y-89270115D02*
X117154412Y-89360573D01*
X117350958Y-89491901D01*
X117518099Y-89659042D01*
X117649427Y-89855588D01*
X117739885Y-90073974D01*
X117786000Y-90305809D01*
X117786000Y-90542191D01*
X117739885Y-90774026D01*
X117649427Y-90992412D01*
X117518099Y-91188958D01*
X117350958Y-91356099D01*
X117154412Y-91487427D01*
X116936026Y-91577885D01*
X116704191Y-91624000D01*
X116467809Y-91624000D01*
X116235974Y-91577885D01*
X116017588Y-91487427D01*
X115821042Y-91356099D01*
X115653901Y-91188958D01*
X115522573Y-90992412D01*
X115432115Y-90774026D01*
X115386000Y-90542191D01*
X115386000Y-90305809D01*
X115432115Y-90073974D01*
X115522573Y-89855588D01*
X115653901Y-89659042D01*
X115821042Y-89491901D01*
X116017588Y-89360573D01*
X116235974Y-89270115D01*
X116467809Y-89224000D01*
X116704191Y-89224000D01*
X116936026Y-89270115D01*
X116936026Y-89270115D01*
G37*
G36*
X110436026Y-89270115D02*
X110654412Y-89360573D01*
X110850958Y-89491901D01*
X111018099Y-89659042D01*
X111149427Y-89855588D01*
X111239885Y-90073974D01*
X111286000Y-90305809D01*
X111286000Y-90542191D01*
X111239885Y-90774026D01*
X111149427Y-90992412D01*
X111018099Y-91188958D01*
X110850958Y-91356099D01*
X110654412Y-91487427D01*
X110436026Y-91577885D01*
X110204191Y-91624000D01*
X109967809Y-91624000D01*
X109735974Y-91577885D01*
X109517588Y-91487427D01*
X109321042Y-91356099D01*
X109153901Y-91188958D01*
X109022573Y-90992412D01*
X108932115Y-90774026D01*
X108886000Y-90542191D01*
X108886000Y-90305809D01*
X108932115Y-90073974D01*
X109022573Y-89855588D01*
X109153901Y-89659042D01*
X109321042Y-89491901D01*
X109517588Y-89360573D01*
X109735974Y-89270115D01*
X109967809Y-89224000D01*
X110204191Y-89224000D01*
X110436026Y-89270115D01*
X110436026Y-89270115D01*
G37*
G36*
X126050857Y-89112272D02*
X126251042Y-89195191D01*
X126431213Y-89315578D01*
X126584422Y-89468787D01*
X126584424Y-89468790D01*
X126584425Y-89468791D01*
X126600893Y-89493437D01*
X126704809Y-89648958D01*
X126787728Y-89849143D01*
X126830000Y-90061658D01*
X126830000Y-90278342D01*
X126787728Y-90490857D01*
X126704809Y-90691042D01*
X126704807Y-90691045D01*
X126610276Y-90832521D01*
X126584422Y-90871213D01*
X126431213Y-91024422D01*
X126431210Y-91024424D01*
X126431209Y-91024425D01*
X126289455Y-91119142D01*
X126251042Y-91144809D01*
X126050857Y-91227728D01*
X125838342Y-91270000D01*
X125621658Y-91270000D01*
X125409143Y-91227728D01*
X125208958Y-91144809D01*
X125170545Y-91119142D01*
X125028791Y-91024425D01*
X125028790Y-91024424D01*
X125028787Y-91024422D01*
X124875578Y-90871213D01*
X124849725Y-90832521D01*
X124755193Y-90691045D01*
X124755191Y-90691042D01*
X124672272Y-90490857D01*
X124630000Y-90278342D01*
X124630000Y-90061658D01*
X124672272Y-89849143D01*
X124755191Y-89648958D01*
X124859107Y-89493437D01*
X124875575Y-89468791D01*
X124875576Y-89468790D01*
X124875578Y-89468787D01*
X125028787Y-89315578D01*
X125208958Y-89195191D01*
X125409143Y-89112272D01*
X125621658Y-89070000D01*
X125838342Y-89070000D01*
X126050857Y-89112272D01*
X126050857Y-89112272D01*
G37*
G36*
X141290857Y-89112272D02*
X141491042Y-89195191D01*
X141671213Y-89315578D01*
X141824422Y-89468787D01*
X141824424Y-89468790D01*
X141824425Y-89468791D01*
X141840893Y-89493437D01*
X141944809Y-89648958D01*
X142027728Y-89849143D01*
X142070000Y-90061658D01*
X142070000Y-90278342D01*
X142027728Y-90490857D01*
X141944809Y-90691042D01*
X141944807Y-90691045D01*
X141850276Y-90832521D01*
X141824422Y-90871213D01*
X141671213Y-91024422D01*
X141671210Y-91024424D01*
X141671209Y-91024425D01*
X141529455Y-91119142D01*
X141491042Y-91144809D01*
X141290857Y-91227728D01*
X141078342Y-91270000D01*
X140861658Y-91270000D01*
X140649143Y-91227728D01*
X140448958Y-91144809D01*
X140410545Y-91119142D01*
X140268791Y-91024425D01*
X140268790Y-91024424D01*
X140268787Y-91024422D01*
X140115578Y-90871213D01*
X140089725Y-90832521D01*
X139995193Y-90691045D01*
X139995191Y-90691042D01*
X139912272Y-90490857D01*
X139870000Y-90278342D01*
X139870000Y-90061658D01*
X139912272Y-89849143D01*
X139995191Y-89648958D01*
X140099107Y-89493437D01*
X140115575Y-89468791D01*
X140115576Y-89468790D01*
X140115578Y-89468787D01*
X140268787Y-89315578D01*
X140448958Y-89195191D01*
X140649143Y-89112272D01*
X140861658Y-89070000D01*
X141078342Y-89070000D01*
X141290857Y-89112272D01*
X141290857Y-89112272D01*
G37*
G36*
X170648393Y-87669553D02*
X170757872Y-87691330D01*
X171067252Y-87819479D01*
X171345687Y-88005523D01*
X171582477Y-88242313D01*
X171768521Y-88520748D01*
X171896670Y-88830128D01*
X171896670Y-88830129D01*
X171944384Y-89070000D01*
X171962000Y-89158565D01*
X171962000Y-89493435D01*
X171896670Y-89821872D01*
X171768521Y-90131252D01*
X171582477Y-90409687D01*
X171345687Y-90646477D01*
X171067252Y-90832521D01*
X170757872Y-90960670D01*
X170648393Y-90982447D01*
X170429437Y-91026000D01*
X170094563Y-91026000D01*
X169875607Y-90982447D01*
X169766128Y-90960670D01*
X169456748Y-90832521D01*
X169178313Y-90646477D01*
X168941523Y-90409687D01*
X168755479Y-90131252D01*
X168627330Y-89821872D01*
X168562000Y-89493435D01*
X168562000Y-89158565D01*
X168579617Y-89070000D01*
X168627330Y-88830129D01*
X168627330Y-88830128D01*
X168755479Y-88520748D01*
X168941523Y-88242313D01*
X169178313Y-88005523D01*
X169456748Y-87819479D01*
X169766128Y-87691330D01*
X169875607Y-87669553D01*
X170094563Y-87626000D01*
X170429437Y-87626000D01*
X170648393Y-87669553D01*
X170648393Y-87669553D01*
G37*
G36*
X162648393Y-87669553D02*
X162757872Y-87691330D01*
X163067252Y-87819479D01*
X163345687Y-88005523D01*
X163582477Y-88242313D01*
X163768521Y-88520748D01*
X163896670Y-88830128D01*
X163896670Y-88830129D01*
X163944384Y-89070000D01*
X163962000Y-89158565D01*
X163962000Y-89493435D01*
X163896670Y-89821872D01*
X163768521Y-90131252D01*
X163582477Y-90409687D01*
X163345687Y-90646477D01*
X163067252Y-90832521D01*
X162757872Y-90960670D01*
X162648393Y-90982447D01*
X162429437Y-91026000D01*
X162094563Y-91026000D01*
X161875607Y-90982447D01*
X161766128Y-90960670D01*
X161456748Y-90832521D01*
X161178313Y-90646477D01*
X160941523Y-90409687D01*
X160755479Y-90131252D01*
X160627330Y-89821872D01*
X160562000Y-89493435D01*
X160562000Y-89158565D01*
X160579617Y-89070000D01*
X160627330Y-88830129D01*
X160627330Y-88830128D01*
X160755479Y-88520748D01*
X160941523Y-88242313D01*
X161178313Y-88005523D01*
X161456748Y-87819479D01*
X161766128Y-87691330D01*
X161875607Y-87669553D01*
X162094563Y-87626000D01*
X162429437Y-87626000D01*
X162648393Y-87669553D01*
X162648393Y-87669553D01*
G37*
G36*
X105643352Y-86948243D02*
X105788941Y-87008548D01*
X105919973Y-87096101D01*
X106031399Y-87207527D01*
X106118952Y-87338559D01*
X106179257Y-87484148D01*
X106210000Y-87638705D01*
X106210000Y-87796295D01*
X106179257Y-87950852D01*
X106118952Y-88096441D01*
X106034352Y-88223054D01*
X106022801Y-88244665D01*
X106015688Y-88268114D01*
X106013286Y-88292500D01*
X106015688Y-88316886D01*
X106022801Y-88340335D01*
X106034352Y-88361946D01*
X106049898Y-88380888D01*
X106068840Y-88396434D01*
X106090451Y-88407985D01*
X106113900Y-88415098D01*
X106138286Y-88417500D01*
X106210000Y-88417500D01*
X106210000Y-90017500D01*
X104610000Y-90017500D01*
X104610000Y-88417500D01*
X104681714Y-88417500D01*
X104706100Y-88415098D01*
X104729549Y-88407985D01*
X104751160Y-88396434D01*
X104770102Y-88380888D01*
X104785648Y-88361946D01*
X104797199Y-88340335D01*
X104804312Y-88316886D01*
X104806714Y-88292500D01*
X104804312Y-88268114D01*
X104797199Y-88244665D01*
X104785648Y-88223054D01*
X104701048Y-88096441D01*
X104640743Y-87950852D01*
X104610000Y-87796295D01*
X104610000Y-87638705D01*
X104640743Y-87484148D01*
X104701048Y-87338559D01*
X104788601Y-87207527D01*
X104900027Y-87096101D01*
X105031059Y-87008548D01*
X105176648Y-86948243D01*
X105331205Y-86917500D01*
X105488795Y-86917500D01*
X105643352Y-86948243D01*
X105643352Y-86948243D01*
G37*
G36*
X126050857Y-86572272D02*
X126251042Y-86655191D01*
X126431213Y-86775578D01*
X126584422Y-86928787D01*
X126704809Y-87108958D01*
X126787728Y-87309143D01*
X126830000Y-87521658D01*
X126830000Y-87738342D01*
X126787728Y-87950857D01*
X126704809Y-88151042D01*
X126704807Y-88151045D01*
X126610290Y-88292500D01*
X126584422Y-88331213D01*
X126431213Y-88484422D01*
X126431210Y-88484424D01*
X126431209Y-88484425D01*
X126381709Y-88517500D01*
X126251042Y-88604809D01*
X126050857Y-88687728D01*
X125838342Y-88730000D01*
X125621658Y-88730000D01*
X125409143Y-88687728D01*
X125208958Y-88604809D01*
X125078291Y-88517500D01*
X125028791Y-88484425D01*
X125028790Y-88484424D01*
X125028787Y-88484422D01*
X124875578Y-88331213D01*
X124849711Y-88292500D01*
X124755193Y-88151045D01*
X124755191Y-88151042D01*
X124672272Y-87950857D01*
X124630000Y-87738342D01*
X124630000Y-87521658D01*
X124672272Y-87309143D01*
X124755191Y-87108958D01*
X124875578Y-86928787D01*
X125028787Y-86775578D01*
X125208958Y-86655191D01*
X125409143Y-86572272D01*
X125621658Y-86530000D01*
X125838342Y-86530000D01*
X126050857Y-86572272D01*
X126050857Y-86572272D01*
G37*
G36*
X141290857Y-86572272D02*
X141491042Y-86655191D01*
X141671213Y-86775578D01*
X141824422Y-86928787D01*
X141944809Y-87108958D01*
X142027728Y-87309143D01*
X142070000Y-87521658D01*
X142070000Y-87738342D01*
X142027728Y-87950857D01*
X141944809Y-88151042D01*
X141944807Y-88151045D01*
X141850290Y-88292500D01*
X141824422Y-88331213D01*
X141671213Y-88484422D01*
X141671210Y-88484424D01*
X141671209Y-88484425D01*
X141621709Y-88517500D01*
X141491042Y-88604809D01*
X141290857Y-88687728D01*
X141078342Y-88730000D01*
X140861658Y-88730000D01*
X140649143Y-88687728D01*
X140448958Y-88604809D01*
X140318291Y-88517500D01*
X140268791Y-88484425D01*
X140268790Y-88484424D01*
X140268787Y-88484422D01*
X140115578Y-88331213D01*
X140089711Y-88292500D01*
X139995193Y-88151045D01*
X139995191Y-88151042D01*
X139912272Y-87950857D01*
X139870000Y-87738342D01*
X139870000Y-87521658D01*
X139912272Y-87309143D01*
X139995191Y-87108958D01*
X140115578Y-86928787D01*
X140268787Y-86775578D01*
X140448958Y-86655191D01*
X140649143Y-86572272D01*
X140861658Y-86530000D01*
X141078342Y-86530000D01*
X141290857Y-86572272D01*
X141290857Y-86572272D01*
G37*
G36*
X110436026Y-84770115D02*
X110654412Y-84860573D01*
X110850958Y-84991901D01*
X111018099Y-85159042D01*
X111149427Y-85355588D01*
X111239885Y-85573974D01*
X111286000Y-85805809D01*
X111286000Y-86042191D01*
X111239885Y-86274026D01*
X111149427Y-86492412D01*
X111018099Y-86688958D01*
X110850958Y-86856099D01*
X110654412Y-86987427D01*
X110436026Y-87077885D01*
X110204191Y-87124000D01*
X109967809Y-87124000D01*
X109735974Y-87077885D01*
X109517588Y-86987427D01*
X109321042Y-86856099D01*
X109153901Y-86688958D01*
X109022573Y-86492412D01*
X108932115Y-86274026D01*
X108886000Y-86042191D01*
X108886000Y-85805809D01*
X108932115Y-85573974D01*
X109022573Y-85355588D01*
X109153901Y-85159042D01*
X109321042Y-84991901D01*
X109517588Y-84860573D01*
X109735974Y-84770115D01*
X109967809Y-84724000D01*
X110204191Y-84724000D01*
X110436026Y-84770115D01*
X110436026Y-84770115D01*
G37*
G36*
X116936026Y-84770115D02*
X117154412Y-84860573D01*
X117350958Y-84991901D01*
X117518099Y-85159042D01*
X117649427Y-85355588D01*
X117739885Y-85573974D01*
X117786000Y-85805809D01*
X117786000Y-86042191D01*
X117739885Y-86274026D01*
X117649427Y-86492412D01*
X117518099Y-86688958D01*
X117350958Y-86856099D01*
X117154412Y-86987427D01*
X116936026Y-87077885D01*
X116704191Y-87124000D01*
X116467809Y-87124000D01*
X116235974Y-87077885D01*
X116017588Y-86987427D01*
X115821042Y-86856099D01*
X115653901Y-86688958D01*
X115522573Y-86492412D01*
X115432115Y-86274026D01*
X115386000Y-86042191D01*
X115386000Y-85805809D01*
X115432115Y-85573974D01*
X115522573Y-85355588D01*
X115653901Y-85159042D01*
X115821042Y-84991901D01*
X116017588Y-84860573D01*
X116235974Y-84770115D01*
X116467809Y-84724000D01*
X116704191Y-84724000D01*
X116936026Y-84770115D01*
X116936026Y-84770115D01*
G37*
G36*
X141290857Y-84032272D02*
X141491042Y-84115191D01*
X141671213Y-84235578D01*
X141824422Y-84388787D01*
X141944809Y-84568958D01*
X142027728Y-84769143D01*
X142070000Y-84981658D01*
X142070000Y-85198342D01*
X142027728Y-85410857D01*
X141944809Y-85611042D01*
X141824422Y-85791213D01*
X141671213Y-85944422D01*
X141491042Y-86064809D01*
X141290857Y-86147728D01*
X141078342Y-86190000D01*
X140861658Y-86190000D01*
X140649143Y-86147728D01*
X140448958Y-86064809D01*
X140268787Y-85944422D01*
X140115578Y-85791213D01*
X139995191Y-85611042D01*
X139912272Y-85410857D01*
X139870000Y-85198342D01*
X139870000Y-84981658D01*
X139912272Y-84769143D01*
X139995191Y-84568958D01*
X140115578Y-84388787D01*
X140268787Y-84235578D01*
X140448958Y-84115191D01*
X140649143Y-84032272D01*
X140861658Y-83990000D01*
X141078342Y-83990000D01*
X141290857Y-84032272D01*
X141290857Y-84032272D01*
G37*
G36*
X126050857Y-84032272D02*
X126251042Y-84115191D01*
X126431213Y-84235578D01*
X126584422Y-84388787D01*
X126704809Y-84568958D01*
X126787728Y-84769143D01*
X126830000Y-84981658D01*
X126830000Y-85198342D01*
X126787728Y-85410857D01*
X126704809Y-85611042D01*
X126584422Y-85791213D01*
X126431213Y-85944422D01*
X126251042Y-86064809D01*
X126050857Y-86147728D01*
X125838342Y-86190000D01*
X125621658Y-86190000D01*
X125409143Y-86147728D01*
X125208958Y-86064809D01*
X125028787Y-85944422D01*
X124875578Y-85791213D01*
X124755191Y-85611042D01*
X124672272Y-85410857D01*
X124630000Y-85198342D01*
X124630000Y-84981658D01*
X124672272Y-84769143D01*
X124755191Y-84568958D01*
X124875578Y-84388787D01*
X125028787Y-84235578D01*
X125208958Y-84115191D01*
X125409143Y-84032272D01*
X125621658Y-83990000D01*
X125838342Y-83990000D01*
X126050857Y-84032272D01*
X126050857Y-84032272D01*
G37*
G36*
X105860030Y-83723469D02*
X105860033Y-83723470D01*
X105860034Y-83723470D01*
X106048535Y-83780651D01*
X106048537Y-83780652D01*
X106222260Y-83873509D01*
X106374528Y-83998472D01*
X106499491Y-84150740D01*
X106499492Y-84150742D01*
X106592349Y-84324465D01*
X106611862Y-84388791D01*
X106649531Y-84512970D01*
X106668838Y-84709000D01*
X106649531Y-84905030D01*
X106592348Y-85093537D01*
X106499491Y-85267260D01*
X106374528Y-85419528D01*
X106222260Y-85544491D01*
X106222258Y-85544492D01*
X106048535Y-85637349D01*
X105860034Y-85694530D01*
X105860033Y-85694530D01*
X105860030Y-85694531D01*
X105713124Y-85709000D01*
X105614876Y-85709000D01*
X105467970Y-85694531D01*
X105467967Y-85694530D01*
X105467966Y-85694530D01*
X105279465Y-85637349D01*
X105105742Y-85544492D01*
X105105740Y-85544491D01*
X104953472Y-85419528D01*
X104828509Y-85267260D01*
X104735652Y-85093537D01*
X104678469Y-84905030D01*
X104659162Y-84709000D01*
X104678469Y-84512970D01*
X104716138Y-84388791D01*
X104735651Y-84324465D01*
X104828508Y-84150742D01*
X104828509Y-84150740D01*
X104953472Y-83998472D01*
X105105740Y-83873509D01*
X105279463Y-83780652D01*
X105279465Y-83780651D01*
X105467966Y-83723470D01*
X105467967Y-83723470D01*
X105467970Y-83723469D01*
X105614876Y-83709000D01*
X105713124Y-83709000D01*
X105860030Y-83723469D01*
X105860030Y-83723469D01*
G37*
G36*
X141290857Y-81492272D02*
X141491042Y-81575191D01*
X141491045Y-81575193D01*
X141670835Y-81695325D01*
X141671213Y-81695578D01*
X141824422Y-81848787D01*
X141824424Y-81848790D01*
X141824425Y-81848791D01*
X141883571Y-81937309D01*
X141944809Y-82028958D01*
X142027728Y-82229143D01*
X142070000Y-82441658D01*
X142070000Y-82658342D01*
X142027728Y-82870857D01*
X141944809Y-83071042D01*
X141944807Y-83071045D01*
X141885020Y-83160523D01*
X141824422Y-83251213D01*
X141671213Y-83404422D01*
X141671210Y-83404424D01*
X141671209Y-83404425D01*
X141603001Y-83450000D01*
X141491042Y-83524809D01*
X141290857Y-83607728D01*
X141078342Y-83650000D01*
X140861658Y-83650000D01*
X140649143Y-83607728D01*
X140448958Y-83524809D01*
X140336999Y-83450000D01*
X140268791Y-83404425D01*
X140268790Y-83404424D01*
X140268787Y-83404422D01*
X140115578Y-83251213D01*
X140054981Y-83160523D01*
X139995193Y-83071045D01*
X139995191Y-83071042D01*
X139912272Y-82870857D01*
X139870000Y-82658342D01*
X139870000Y-82441658D01*
X139912272Y-82229143D01*
X139995191Y-82028958D01*
X140056429Y-81937309D01*
X140115575Y-81848791D01*
X140115576Y-81848790D01*
X140115578Y-81848787D01*
X140268787Y-81695578D01*
X140269166Y-81695325D01*
X140448955Y-81575193D01*
X140448958Y-81575191D01*
X140649143Y-81492272D01*
X140861658Y-81450000D01*
X141078342Y-81450000D01*
X141290857Y-81492272D01*
X141290857Y-81492272D01*
G37*
G36*
X161351904Y-78872979D02*
X161700054Y-78942230D01*
X162136826Y-79123147D01*
X162529911Y-79385798D01*
X162864202Y-79720089D01*
X163126853Y-80113174D01*
X163307770Y-80549946D01*
X163361636Y-80820753D01*
X163400000Y-81013619D01*
X163400000Y-81486381D01*
X163391018Y-81531534D01*
X163307770Y-81950054D01*
X163126853Y-82386826D01*
X162864202Y-82779911D01*
X162529911Y-83114202D01*
X162136826Y-83376853D01*
X161700054Y-83557770D01*
X161351904Y-83627021D01*
X161236381Y-83650000D01*
X160763619Y-83650000D01*
X160648096Y-83627021D01*
X160299946Y-83557770D01*
X159863174Y-83376853D01*
X159470089Y-83114202D01*
X159135798Y-82779911D01*
X158873147Y-82386826D01*
X158692230Y-81950054D01*
X158608982Y-81531534D01*
X158600000Y-81486381D01*
X158600000Y-81013619D01*
X158638364Y-80820753D01*
X158692230Y-80549946D01*
X158873147Y-80113174D01*
X159135798Y-79720089D01*
X159470089Y-79385798D01*
X159863174Y-79123147D01*
X160299946Y-78942230D01*
X160648096Y-78872979D01*
X160763619Y-78850000D01*
X161236381Y-78850000D01*
X161351904Y-78872979D01*
X161351904Y-78872979D01*
G37*
G36*
X126050857Y-81492272D02*
X126251042Y-81575191D01*
X126251045Y-81575193D01*
X126430835Y-81695325D01*
X126431213Y-81695578D01*
X126584422Y-81848787D01*
X126584424Y-81848790D01*
X126584425Y-81848791D01*
X126643571Y-81937309D01*
X126704809Y-82028958D01*
X126787728Y-82229143D01*
X126830000Y-82441658D01*
X126830000Y-82658342D01*
X126787728Y-82870857D01*
X126704809Y-83071042D01*
X126704807Y-83071045D01*
X126645020Y-83160523D01*
X126584422Y-83251213D01*
X126431213Y-83404422D01*
X126431210Y-83404424D01*
X126431209Y-83404425D01*
X126363001Y-83450000D01*
X126251042Y-83524809D01*
X126050857Y-83607728D01*
X125838342Y-83650000D01*
X125621658Y-83650000D01*
X125409143Y-83607728D01*
X125208958Y-83524809D01*
X125096999Y-83450000D01*
X125028791Y-83404425D01*
X125028790Y-83404424D01*
X125028787Y-83404422D01*
X124875578Y-83251213D01*
X124814981Y-83160523D01*
X124755193Y-83071045D01*
X124755191Y-83071042D01*
X124672272Y-82870857D01*
X124630000Y-82658342D01*
X124630000Y-82441658D01*
X124672272Y-82229143D01*
X124755191Y-82028958D01*
X124816429Y-81937309D01*
X124875575Y-81848791D01*
X124875576Y-81848790D01*
X124875578Y-81848787D01*
X125028787Y-81695578D01*
X125029166Y-81695325D01*
X125208955Y-81575193D01*
X125208958Y-81575191D01*
X125409143Y-81492272D01*
X125621658Y-81450000D01*
X125838342Y-81450000D01*
X126050857Y-81492272D01*
X126050857Y-81492272D01*
G37*
G36*
X116351904Y-78872979D02*
X116700054Y-78942230D01*
X117136826Y-79123147D01*
X117529911Y-79385798D01*
X117864202Y-79720089D01*
X118126853Y-80113174D01*
X118307770Y-80549946D01*
X118361636Y-80820753D01*
X118400000Y-81013619D01*
X118400000Y-81486381D01*
X118391018Y-81531534D01*
X118307770Y-81950054D01*
X118126853Y-82386826D01*
X117864202Y-82779911D01*
X117529911Y-83114202D01*
X117136826Y-83376853D01*
X116700054Y-83557770D01*
X116351904Y-83627021D01*
X116236381Y-83650000D01*
X115763619Y-83650000D01*
X115648096Y-83627021D01*
X115299946Y-83557770D01*
X114863174Y-83376853D01*
X114470089Y-83114202D01*
X114135798Y-82779911D01*
X113873147Y-82386826D01*
X113692230Y-81950054D01*
X113608982Y-81531534D01*
X113600000Y-81486381D01*
X113600000Y-81013619D01*
X113638364Y-80820753D01*
X113692230Y-80549946D01*
X113873147Y-80113174D01*
X114135798Y-79720089D01*
X114470089Y-79385798D01*
X114863174Y-79123147D01*
X115299946Y-78942230D01*
X115648096Y-78872979D01*
X115763619Y-78850000D01*
X116236381Y-78850000D01*
X116351904Y-78872979D01*
X116351904Y-78872979D01*
G37*
G36*
X105839770Y-81184372D02*
X105955689Y-81207429D01*
X106137678Y-81282811D01*
X106301463Y-81392249D01*
X106440751Y-81531537D01*
X106550189Y-81695322D01*
X106625571Y-81877311D01*
X106637505Y-81937307D01*
X106663128Y-82066122D01*
X106664000Y-82070509D01*
X106664000Y-82267491D01*
X106625571Y-82460689D01*
X106550189Y-82642678D01*
X106440751Y-82806463D01*
X106301463Y-82945751D01*
X106137678Y-83055189D01*
X105955689Y-83130571D01*
X105839770Y-83153628D01*
X105762493Y-83169000D01*
X105565507Y-83169000D01*
X105488230Y-83153628D01*
X105372311Y-83130571D01*
X105190322Y-83055189D01*
X105026537Y-82945751D01*
X104887249Y-82806463D01*
X104777811Y-82642678D01*
X104702429Y-82460689D01*
X104664000Y-82267491D01*
X104664000Y-82070509D01*
X104664873Y-82066122D01*
X104690495Y-81937307D01*
X104702429Y-81877311D01*
X104777811Y-81695322D01*
X104887249Y-81531537D01*
X105026537Y-81392249D01*
X105190322Y-81282811D01*
X105372311Y-81207429D01*
X105488230Y-81184372D01*
X105565507Y-81169000D01*
X105762493Y-81169000D01*
X105839770Y-81184372D01*
X105839770Y-81184372D01*
G37*
G36*
X149357082Y-80612138D02*
X149476689Y-80635929D01*
X149658678Y-80711311D01*
X149822463Y-80820749D01*
X149961751Y-80960037D01*
X150071189Y-81123822D01*
X150146571Y-81305811D01*
X150163764Y-81392249D01*
X150183661Y-81492273D01*
X150185000Y-81499009D01*
X150185000Y-81695991D01*
X150146571Y-81889189D01*
X150071189Y-82071178D01*
X149961751Y-82234963D01*
X149822463Y-82374251D01*
X149658678Y-82483689D01*
X149476689Y-82559071D01*
X149385773Y-82577155D01*
X149283493Y-82597500D01*
X149086507Y-82597500D01*
X148984227Y-82577155D01*
X148893311Y-82559071D01*
X148711322Y-82483689D01*
X148547537Y-82374251D01*
X148408249Y-82234963D01*
X148298811Y-82071178D01*
X148223429Y-81889189D01*
X148185000Y-81695991D01*
X148185000Y-81499009D01*
X148186340Y-81492273D01*
X148206236Y-81392249D01*
X148223429Y-81305811D01*
X148298811Y-81123822D01*
X148408249Y-80960037D01*
X148547537Y-80820749D01*
X148711322Y-80711311D01*
X148893311Y-80635929D01*
X149012918Y-80612138D01*
X149086507Y-80597500D01*
X149283493Y-80597500D01*
X149357082Y-80612138D01*
X149357082Y-80612138D01*
G37*
G36*
X146857082Y-80612138D02*
X146976689Y-80635929D01*
X147158678Y-80711311D01*
X147322463Y-80820749D01*
X147461751Y-80960037D01*
X147571189Y-81123822D01*
X147646571Y-81305811D01*
X147663764Y-81392249D01*
X147683661Y-81492273D01*
X147685000Y-81499009D01*
X147685000Y-81695991D01*
X147646571Y-81889189D01*
X147571189Y-82071178D01*
X147461751Y-82234963D01*
X147322463Y-82374251D01*
X147158678Y-82483689D01*
X146976689Y-82559071D01*
X146885773Y-82577155D01*
X146783493Y-82597500D01*
X146586507Y-82597500D01*
X146484227Y-82577155D01*
X146393311Y-82559071D01*
X146211322Y-82483689D01*
X146047537Y-82374251D01*
X145908249Y-82234963D01*
X145798811Y-82071178D01*
X145723429Y-81889189D01*
X145685000Y-81695991D01*
X145685000Y-81499009D01*
X145686340Y-81492273D01*
X145706236Y-81392249D01*
X145723429Y-81305811D01*
X145798811Y-81123822D01*
X145908249Y-80960037D01*
X146047537Y-80820749D01*
X146211322Y-80711311D01*
X146393311Y-80635929D01*
X146512918Y-80612138D01*
X146586507Y-80597500D01*
X146783493Y-80597500D01*
X146857082Y-80612138D01*
X146857082Y-80612138D01*
G37*
G36*
X112733000Y-82062500D02*
X110533000Y-82062500D01*
X110533000Y-79862500D01*
X112733000Y-79862500D01*
X112733000Y-82062500D01*
X112733000Y-82062500D01*
G37*
G36*
X109413857Y-79904772D02*
X109614042Y-79987691D01*
X109794213Y-80108078D01*
X109947422Y-80261287D01*
X110067809Y-80441458D01*
X110150728Y-80641643D01*
X110193000Y-80854158D01*
X110193000Y-81070842D01*
X110150728Y-81283357D01*
X110067809Y-81483542D01*
X110067807Y-81483545D01*
X109989591Y-81600604D01*
X109947422Y-81663713D01*
X109794213Y-81816922D01*
X109794210Y-81816924D01*
X109794209Y-81816925D01*
X109625994Y-81929323D01*
X109614042Y-81937309D01*
X109413857Y-82020228D01*
X109201342Y-82062500D01*
X108984658Y-82062500D01*
X108772143Y-82020228D01*
X108571958Y-81937309D01*
X108560006Y-81929323D01*
X108391791Y-81816925D01*
X108391790Y-81816924D01*
X108391787Y-81816922D01*
X108238578Y-81663713D01*
X108196410Y-81600604D01*
X108118193Y-81483545D01*
X108118191Y-81483542D01*
X108035272Y-81283357D01*
X107993000Y-81070842D01*
X107993000Y-80854158D01*
X108035272Y-80641643D01*
X108118191Y-80441458D01*
X108238578Y-80261287D01*
X108391787Y-80108078D01*
X108571958Y-79987691D01*
X108772143Y-79904772D01*
X108984658Y-79862500D01*
X109201342Y-79862500D01*
X109413857Y-79904772D01*
X109413857Y-79904772D01*
G37*
M02*
