G04 #@! TF.GenerationSoftware,KiCad,Pcbnew,(5.0.2)-1*
G04 #@! TF.CreationDate,2019-10-27T17:27:48+01:00*
G04 #@! TF.ProjectId,HM-LC-Sw1-FM,484d2d4c-432d-4537-9731-2d464d2e6b69,rev?*
G04 #@! TF.SameCoordinates,Original*
G04 #@! TF.FileFunction,Copper,L1,Top*
G04 #@! TF.FilePolarity,Positive*
%FSLAX46Y46*%
G04 Gerber Fmt 4.6, Leading zero omitted, Abs format (unit mm)*
G04 Created by KiCad (PCBNEW (5.0.2)-1) date 27.10.2019 17:27:48*
%MOMM*%
%LPD*%
G01*
G04 APERTURE LIST*
G04 #@! TA.AperFunction,ComponentPad*
%ADD10C,4.400000*%
G04 #@! TD*
G04 #@! TA.AperFunction,ComponentPad*
%ADD11C,0.700000*%
G04 #@! TD*
G04 #@! TA.AperFunction,ComponentPad*
%ADD12R,1.500000X3.000000*%
G04 #@! TD*
G04 #@! TA.AperFunction,ComponentPad*
%ADD13O,1.500000X3.000000*%
G04 #@! TD*
G04 #@! TA.AperFunction,ComponentPad*
%ADD14C,1.600000*%
G04 #@! TD*
G04 #@! TA.AperFunction,ComponentPad*
%ADD15O,1.600000X1.600000*%
G04 #@! TD*
G04 #@! TA.AperFunction,ComponentPad*
%ADD16C,2.000000*%
G04 #@! TD*
G04 #@! TA.AperFunction,ComponentPad*
%ADD17R,1.800000X1.800000*%
G04 #@! TD*
G04 #@! TA.AperFunction,ComponentPad*
%ADD18C,1.800000*%
G04 #@! TD*
G04 #@! TA.AperFunction,ComponentPad*
%ADD19R,1.200000X1.200000*%
G04 #@! TD*
G04 #@! TA.AperFunction,ComponentPad*
%ADD20C,1.200000*%
G04 #@! TD*
G04 #@! TA.AperFunction,ComponentPad*
%ADD21C,1.350000*%
G04 #@! TD*
G04 #@! TA.AperFunction,ConnectorPad*
%ADD22R,1.800000X1.350000*%
G04 #@! TD*
G04 #@! TA.AperFunction,ComponentPad*
%ADD23C,3.000000*%
G04 #@! TD*
G04 #@! TA.AperFunction,ComponentPad*
%ADD24R,3.000000X3.000000*%
G04 #@! TD*
G04 #@! TA.AperFunction,ComponentPad*
%ADD25R,3.000000X1.500000*%
G04 #@! TD*
G04 #@! TA.AperFunction,ComponentPad*
%ADD26O,3.000000X1.500000*%
G04 #@! TD*
G04 #@! TA.AperFunction,Conductor*
%ADD27C,0.100000*%
G04 #@! TD*
G04 #@! TA.AperFunction,SMDPad,CuDef*
%ADD28C,6.000000*%
G04 #@! TD*
G04 #@! TA.AperFunction,ComponentPad*
%ADD29R,1.600000X1.600000*%
G04 #@! TD*
G04 #@! TA.AperFunction,ComponentPad*
%ADD30C,1.950000*%
G04 #@! TD*
G04 #@! TA.AperFunction,ComponentPad*
%ADD31C,1.500000*%
G04 #@! TD*
G04 #@! TA.AperFunction,ComponentPad*
%ADD32O,1.500000X1.050000*%
G04 #@! TD*
G04 #@! TA.AperFunction,ComponentPad*
%ADD33R,1.500000X1.050000*%
G04 #@! TD*
G04 #@! TA.AperFunction,ComponentPad*
%ADD34R,1.700000X1.700000*%
G04 #@! TD*
G04 #@! TA.AperFunction,ComponentPad*
%ADD35O,1.700000X1.700000*%
G04 #@! TD*
G04 #@! TA.AperFunction,ViaPad*
%ADD36C,0.600000*%
G04 #@! TD*
G04 #@! TA.AperFunction,Conductor*
%ADD37C,0.350000*%
G04 #@! TD*
G04 #@! TA.AperFunction,Conductor*
%ADD38C,0.250000*%
G04 #@! TD*
G04 #@! TA.AperFunction,Conductor*
%ADD39C,3.000000*%
G04 #@! TD*
G04 #@! TA.AperFunction,Conductor*
%ADD40C,0.254000*%
G04 #@! TD*
G04 APERTURE END LIST*
D10*
G04 #@! TO.P,P3,1*
G04 #@! TO.N,N/C*
X116000000Y-81250000D03*
D11*
X117650000Y-81250000D03*
X117166726Y-82416726D03*
X116000000Y-82900000D03*
X114833274Y-82416726D03*
X114350000Y-81250000D03*
X114833274Y-80083274D03*
X116000000Y-79600000D03*
X117166726Y-80083274D03*
G04 #@! TD*
D10*
G04 #@! TO.P,P2,1*
G04 #@! TO.N,N/C*
X161000000Y-81250000D03*
D11*
X162650000Y-81250000D03*
X162166726Y-82416726D03*
X161000000Y-82900000D03*
X159833274Y-82416726D03*
X159350000Y-81250000D03*
X159833274Y-80083274D03*
X161000000Y-79600000D03*
X162166726Y-80083274D03*
G04 #@! TD*
D10*
G04 #@! TO.P,P5,1*
G04 #@! TO.N,N/C*
X161000000Y-149750000D03*
D11*
X162650000Y-149750000D03*
X162166726Y-150916726D03*
X161000000Y-151400000D03*
X159833274Y-150916726D03*
X159350000Y-149750000D03*
X159833274Y-148583274D03*
X161000000Y-148100000D03*
X162166726Y-148583274D03*
G04 #@! TD*
D10*
G04 #@! TO.P,P4,1*
G04 #@! TO.N,N/C*
X116000000Y-149750000D03*
D11*
X117650000Y-149750000D03*
X117166726Y-150916726D03*
X116000000Y-151400000D03*
X114833274Y-150916726D03*
X114350000Y-149750000D03*
X114833274Y-148583274D03*
X116000000Y-148100000D03*
X117166726Y-148583274D03*
G04 #@! TD*
D12*
G04 #@! TO.P,J1,1*
G04 #@! TO.N,Net-(J1-Pad1)*
X142684000Y-145732000D03*
X142684000Y-140732000D03*
D13*
G04 #@! TO.P,J1,2*
G04 #@! TO.N,Net-(F2-Pad1)*
X147684000Y-145732000D03*
X147684000Y-140732000D03*
G04 #@! TO.P,J1,3*
G04 #@! TO.N,GNDPWR*
X152684000Y-145732000D03*
X152684000Y-140732000D03*
G04 #@! TD*
D14*
G04 #@! TO.P,R1,1*
G04 #@! TO.N,Net-(D1-Pad2)*
X105664000Y-82169000D03*
D15*
G04 #@! TO.P,R1,2*
G04 #@! TO.N,Net-(R1-Pad2)*
X105664000Y-84709000D03*
G04 #@! TD*
D16*
G04 #@! TO.P,SW1,2*
G04 #@! TO.N,GND*
X116586000Y-85924000D03*
G04 #@! TO.P,SW1,1*
G04 #@! TO.N,Net-(SW1-Pad1)*
X116586000Y-90424000D03*
G04 #@! TO.P,SW1,2*
G04 #@! TO.N,GND*
X110086000Y-85924000D03*
G04 #@! TO.P,SW1,1*
G04 #@! TO.N,Net-(SW1-Pad1)*
X110086000Y-90424000D03*
G04 #@! TD*
D17*
G04 #@! TO.P,D1,1*
G04 #@! TO.N,GND*
X111633000Y-80962500D03*
D18*
G04 #@! TO.P,D1,2*
G04 #@! TO.N,Net-(D1-Pad2)*
X109093000Y-80962500D03*
G04 #@! TD*
G04 #@! TO.P,U1,28*
G04 #@! TO.N,Net-(U1-Pad28)*
X138430000Y-101600000D03*
G04 #@! TO.P,U1,27*
G04 #@! TO.N,Net-(U1-Pad27)*
X138430000Y-104140000D03*
X135890000Y-110490000D03*
G04 #@! TO.P,U1,28*
G04 #@! TO.N,Net-(U1-Pad28)*
X138430000Y-110490000D03*
G04 #@! TO.P,U1,1*
G04 #@! TO.N,/SS*
X140970000Y-110490000D03*
G04 #@! TO.P,U1,2*
G04 #@! TO.N,/MOSI*
X140970000Y-107950000D03*
G04 #@! TO.P,U1,3*
G04 #@! TO.N,/MISO*
X140970000Y-105410000D03*
G04 #@! TO.P,U1,4*
G04 #@! TO.N,/SCK*
X140970000Y-102870000D03*
G04 #@! TO.P,U1,5*
G04 #@! TO.N,Net-(U1-Pad5)*
X140970000Y-100330000D03*
G04 #@! TO.P,U1,6*
G04 #@! TO.N,Net-(U1-Pad6)*
X140970000Y-97790000D03*
G04 #@! TO.P,U1,7*
G04 #@! TO.N,/D16*
X140970000Y-95250000D03*
G04 #@! TO.P,U1,8*
G04 #@! TO.N,Net-(U1-Pad8)*
X140970000Y-92710000D03*
G04 #@! TO.P,U1,9*
G04 #@! TO.N,+3V3*
X140970000Y-90170000D03*
G04 #@! TO.P,U1,10*
G04 #@! TO.N,Net-(U1-Pad10)*
X140970000Y-87630000D03*
G04 #@! TO.P,U1,11*
G04 #@! TO.N,GND*
X140970000Y-85090000D03*
G04 #@! TO.P,U1,12*
G04 #@! TO.N,+5V*
X140970000Y-82550000D03*
G04 #@! TO.P,U1,13*
G04 #@! TO.N,N/C*
X125730000Y-82550000D03*
G04 #@! TO.P,U1,14*
X125730000Y-85090000D03*
G04 #@! TO.P,U1,15*
X125730000Y-87630000D03*
G04 #@! TO.P,U1,16*
G04 #@! TO.N,GND*
X125730000Y-90170000D03*
G04 #@! TO.P,U1,17*
G04 #@! TO.N,/D2*
X125730000Y-92710000D03*
G04 #@! TO.P,U1,18*
G04 #@! TO.N,/D3*
X125730000Y-95250000D03*
G04 #@! TO.P,U1,19*
G04 #@! TO.N,Net-(R1-Pad2)*
X125730000Y-97790000D03*
G04 #@! TO.P,U1,20*
G04 #@! TO.N,Net-(U1-Pad20)*
X125730000Y-100330000D03*
G04 #@! TO.P,U1,21*
G04 #@! TO.N,Net-(U1-Pad21)*
X125730000Y-102870000D03*
G04 #@! TO.P,U1,22*
G04 #@! TO.N,Net-(U1-Pad22)*
X125730000Y-105410000D03*
G04 #@! TO.P,U1,23*
G04 #@! TO.N,Net-(SW1-Pad1)*
X125730000Y-107950000D03*
G04 #@! TO.P,U1,24*
G04 #@! TO.N,Net-(U1-Pad24)*
X125730000Y-110490000D03*
G04 #@! TO.P,U1,25*
G04 #@! TO.N,Net-(U1-Pad25)*
X138430000Y-93980000D03*
G04 #@! TO.P,U1,26*
G04 #@! TO.N,Net-(U1-Pad26)*
X138430000Y-91440000D03*
G04 #@! TD*
D19*
G04 #@! TO.P,C1,1*
G04 #@! TO.N,+3V3*
X105410000Y-89217500D03*
D20*
G04 #@! TO.P,C1,2*
G04 #@! TO.N,GND*
X105410000Y-87717500D03*
G04 #@! TD*
D21*
G04 #@! TO.P,U2,8*
G04 #@! TO.N,/SS*
X121579000Y-94672000D03*
D22*
X122579000Y-94672000D03*
D21*
G04 #@! TO.P,U2,1*
G04 #@! TO.N,+3V3*
X121579000Y-108672000D03*
G04 #@! TO.P,U2,2*
G04 #@! TO.N,GND*
X121579000Y-106672000D03*
G04 #@! TO.P,U2,3*
G04 #@! TO.N,/MOSI*
X121579000Y-104672000D03*
G04 #@! TO.P,U2,4*
G04 #@! TO.N,/SCK*
X121579000Y-102672000D03*
G04 #@! TO.P,U2,5*
G04 #@! TO.N,/MISO*
X121579000Y-100672000D03*
G04 #@! TO.P,U2,6*
G04 #@! TO.N,Net-(U2-Pad6)*
X121579000Y-98672000D03*
G04 #@! TO.P,U2,7*
G04 #@! TO.N,/D2*
X121579000Y-96672000D03*
D22*
G04 #@! TO.P,U2,1*
G04 #@! TO.N,+3V3*
X122579000Y-108672000D03*
G04 #@! TO.P,U2,2*
G04 #@! TO.N,GND*
X122579000Y-106672000D03*
G04 #@! TO.P,U2,3*
G04 #@! TO.N,/MOSI*
X122579000Y-104672000D03*
G04 #@! TO.P,U2,4*
G04 #@! TO.N,/SCK*
X122579000Y-102672000D03*
G04 #@! TO.P,U2,5*
G04 #@! TO.N,/MISO*
X122579000Y-100672000D03*
G04 #@! TO.P,U2,6*
G04 #@! TO.N,Net-(U2-Pad6)*
X122579000Y-98672000D03*
G04 #@! TO.P,U2,7*
G04 #@! TO.N,/D2*
X122579000Y-96672000D03*
G04 #@! TD*
D23*
G04 #@! TO.P,PS1,3*
G04 #@! TO.N,GND*
X170262000Y-89326000D03*
G04 #@! TO.P,PS1,2*
G04 #@! TO.N,Net-(F2-Pad2)*
X170262000Y-127826000D03*
G04 #@! TO.P,PS1,4*
G04 #@! TO.N,+5V*
X162262000Y-89326000D03*
D24*
G04 #@! TO.P,PS1,1*
G04 #@! TO.N,Net-(J1-Pad1)*
X159512000Y-127826000D03*
G04 #@! TD*
D25*
G04 #@! TO.P,J2,1*
G04 #@! TO.N,Net-(J2-Pad1)*
X168402000Y-141034000D03*
X163402000Y-141034000D03*
D26*
G04 #@! TO.P,J2,2*
G04 #@! TO.N,Net-(J1-Pad1)*
X168402000Y-136034000D03*
X163402000Y-136034000D03*
G04 #@! TD*
G04 #@! TO.P,J3,2*
G04 #@! TO.N,GND*
X112252000Y-120252000D03*
X107252000Y-120252000D03*
D25*
G04 #@! TO.P,J3,1*
G04 #@! TO.N,/D3*
X112252000Y-115252000D03*
X107252000Y-115252000D03*
G04 #@! TD*
D14*
G04 #@! TO.P,C2,1*
G04 #@! TO.N,+5V*
X146685000Y-81597500D03*
G04 #@! TO.P,C2,2*
G04 #@! TO.N,GND*
X149185000Y-81597500D03*
G04 #@! TD*
D27*
G04 #@! TO.N,Net-(F2-Pad1)*
G04 #@! TO.C,F2*
G36*
X107942026Y-131326223D02*
X108087635Y-131347822D01*
X108230427Y-131383589D01*
X108369025Y-131433181D01*
X108502095Y-131496118D01*
X108628355Y-131571796D01*
X108746590Y-131659484D01*
X108855660Y-131758340D01*
X108954516Y-131867410D01*
X109042204Y-131985645D01*
X109117882Y-132111905D01*
X109180819Y-132244975D01*
X109230411Y-132383573D01*
X109266178Y-132526365D01*
X109287777Y-132671974D01*
X109295000Y-132819000D01*
X109295000Y-135819000D01*
X109287777Y-135966026D01*
X109266178Y-136111635D01*
X109230411Y-136254427D01*
X109180819Y-136393025D01*
X109117882Y-136526095D01*
X109042204Y-136652355D01*
X108954516Y-136770590D01*
X108855660Y-136879660D01*
X108746590Y-136978516D01*
X108628355Y-137066204D01*
X108502095Y-137141882D01*
X108369025Y-137204819D01*
X108230427Y-137254411D01*
X108087635Y-137290178D01*
X107942026Y-137311777D01*
X107795000Y-137319000D01*
X104795000Y-137319000D01*
X104647974Y-137311777D01*
X104502365Y-137290178D01*
X104359573Y-137254411D01*
X104220975Y-137204819D01*
X104087905Y-137141882D01*
X103961645Y-137066204D01*
X103843410Y-136978516D01*
X103734340Y-136879660D01*
X103635484Y-136770590D01*
X103547796Y-136652355D01*
X103472118Y-136526095D01*
X103409181Y-136393025D01*
X103359589Y-136254427D01*
X103323822Y-136111635D01*
X103302223Y-135966026D01*
X103295000Y-135819000D01*
X103295000Y-132819000D01*
X103302223Y-132671974D01*
X103323822Y-132526365D01*
X103359589Y-132383573D01*
X103409181Y-132244975D01*
X103472118Y-132111905D01*
X103547796Y-131985645D01*
X103635484Y-131867410D01*
X103734340Y-131758340D01*
X103843410Y-131659484D01*
X103961645Y-131571796D01*
X104087905Y-131496118D01*
X104220975Y-131433181D01*
X104359573Y-131383589D01*
X104502365Y-131347822D01*
X104647974Y-131326223D01*
X104795000Y-131319000D01*
X107795000Y-131319000D01*
X107942026Y-131326223D01*
X107942026Y-131326223D01*
G37*
D28*
G04 #@! TD*
G04 #@! TO.P,F2,1*
G04 #@! TO.N,Net-(F2-Pad1)*
X106295000Y-134319000D03*
D27*
G04 #@! TO.N,Net-(F2-Pad2)*
G04 #@! TO.C,F2*
G36*
X125142026Y-131326223D02*
X125287635Y-131347822D01*
X125430427Y-131383589D01*
X125569025Y-131433181D01*
X125702095Y-131496118D01*
X125828355Y-131571796D01*
X125946590Y-131659484D01*
X126055660Y-131758340D01*
X126154516Y-131867410D01*
X126242204Y-131985645D01*
X126317882Y-132111905D01*
X126380819Y-132244975D01*
X126430411Y-132383573D01*
X126466178Y-132526365D01*
X126487777Y-132671974D01*
X126495000Y-132819000D01*
X126495000Y-135819000D01*
X126487777Y-135966026D01*
X126466178Y-136111635D01*
X126430411Y-136254427D01*
X126380819Y-136393025D01*
X126317882Y-136526095D01*
X126242204Y-136652355D01*
X126154516Y-136770590D01*
X126055660Y-136879660D01*
X125946590Y-136978516D01*
X125828355Y-137066204D01*
X125702095Y-137141882D01*
X125569025Y-137204819D01*
X125430427Y-137254411D01*
X125287635Y-137290178D01*
X125142026Y-137311777D01*
X124995000Y-137319000D01*
X121995000Y-137319000D01*
X121847974Y-137311777D01*
X121702365Y-137290178D01*
X121559573Y-137254411D01*
X121420975Y-137204819D01*
X121287905Y-137141882D01*
X121161645Y-137066204D01*
X121043410Y-136978516D01*
X120934340Y-136879660D01*
X120835484Y-136770590D01*
X120747796Y-136652355D01*
X120672118Y-136526095D01*
X120609181Y-136393025D01*
X120559589Y-136254427D01*
X120523822Y-136111635D01*
X120502223Y-135966026D01*
X120495000Y-135819000D01*
X120495000Y-132819000D01*
X120502223Y-132671974D01*
X120523822Y-132526365D01*
X120559589Y-132383573D01*
X120609181Y-132244975D01*
X120672118Y-132111905D01*
X120747796Y-131985645D01*
X120835484Y-131867410D01*
X120934340Y-131758340D01*
X121043410Y-131659484D01*
X121161645Y-131571796D01*
X121287905Y-131496118D01*
X121420975Y-131433181D01*
X121559573Y-131383589D01*
X121702365Y-131347822D01*
X121847974Y-131326223D01*
X121995000Y-131319000D01*
X124995000Y-131319000D01*
X125142026Y-131326223D01*
X125142026Y-131326223D01*
G37*
D28*
G04 #@! TD*
G04 #@! TO.P,F2,2*
G04 #@! TO.N,Net-(F2-Pad2)*
X123495000Y-134319000D03*
D29*
G04 #@! TO.P,D2,1*
G04 #@! TO.N,+5V*
X125540000Y-114364000D03*
D15*
G04 #@! TO.P,D2,2*
G04 #@! TO.N,Net-(D2-Pad2)*
X125540000Y-121984000D03*
G04 #@! TD*
D30*
G04 #@! TO.P,K1,5*
G04 #@! TO.N,Net-(J2-Pad1)*
X133922000Y-143710000D03*
G04 #@! TO.P,K1,4*
G04 #@! TO.N,Net-(F2-Pad1)*
X133922000Y-138670000D03*
G04 #@! TO.P,K1,3*
G04 #@! TO.N,Net-(K1-Pad3)*
X133922000Y-133630000D03*
D31*
G04 #@! TO.P,K1,2*
G04 #@! TO.N,Net-(D2-Pad2)*
X133922000Y-121890000D03*
G04 #@! TO.P,K1,1*
G04 #@! TO.N,+5V*
X133922000Y-118110000D03*
G04 #@! TD*
D32*
G04 #@! TO.P,Q1,2*
G04 #@! TO.N,Net-(Q1-Pad2)*
X144590000Y-116713000D03*
G04 #@! TO.P,Q1,3*
G04 #@! TO.N,GND*
X144590000Y-115443000D03*
D33*
G04 #@! TO.P,Q1,1*
G04 #@! TO.N,Net-(D2-Pad2)*
X144590000Y-117983000D03*
G04 #@! TD*
D14*
G04 #@! TO.P,R2,1*
G04 #@! TO.N,/D16*
X144590000Y-102552000D03*
D15*
G04 #@! TO.P,R2,2*
G04 #@! TO.N,Net-(Q1-Pad2)*
X144590000Y-105092000D03*
G04 #@! TD*
D14*
G04 #@! TO.P,RV1,1*
G04 #@! TO.N,Net-(F2-Pad2)*
X145669000Y-127318000D03*
G04 #@! TO.P,RV1,2*
G04 #@! TO.N,Net-(J1-Pad1)*
X142669000Y-132318000D03*
G04 #@! TD*
D34*
G04 #@! TO.P,J4,1*
G04 #@! TO.N,/D3*
X121031000Y-118745000D03*
D35*
G04 #@! TO.P,J4,2*
G04 #@! TO.N,GND*
X121031000Y-121285000D03*
G04 #@! TD*
D36*
G04 #@! TO.N,+3V3*
X122621000Y-109934000D03*
G04 #@! TD*
D37*
G04 #@! TO.N,+3V3*
X121579000Y-108672000D02*
X122579000Y-108672000D01*
X122579000Y-108672000D02*
X122579000Y-109892000D01*
X122579000Y-109892000D02*
X122621000Y-109934000D01*
D38*
G04 #@! TO.N,GND*
X121031000Y-121285000D02*
X119855700Y-121285000D01*
X114486500Y-119973500D02*
X118544200Y-119973500D01*
X118544200Y-119973500D02*
X119855700Y-121285000D01*
X114486500Y-119973500D02*
X114208000Y-120252000D01*
X114208000Y-120252000D02*
X112252000Y-120252000D01*
X126970000Y-108502000D02*
X126252000Y-109220000D01*
X126252000Y-109220000D02*
X125240000Y-109220000D01*
X125240000Y-109220000D02*
X114486500Y-119973500D01*
X120628000Y-90170000D02*
X116586000Y-86127700D01*
X116586000Y-86127700D02*
X116586000Y-85924000D01*
X125730000Y-90170000D02*
X120628000Y-90170000D01*
X107252000Y-120252000D02*
X112252000Y-120252000D01*
X111633000Y-85924000D02*
X111633000Y-80962500D01*
X111633000Y-85924000D02*
X116586000Y-85924000D01*
X111633000Y-85924000D02*
X110086000Y-85924000D01*
X110086000Y-85924000D02*
X107204000Y-85924000D01*
X107204000Y-85924000D02*
X105410000Y-87717500D01*
X122579000Y-106672000D02*
X121579000Y-106672000D01*
X140970000Y-85090000D02*
X145692000Y-85090000D01*
X145692000Y-85090000D02*
X149185000Y-81597500D01*
X149185000Y-81597500D02*
X153647000Y-86059900D01*
X153647000Y-86059900D02*
X166996000Y-86059900D01*
X166996000Y-86059900D02*
X170262000Y-89326000D01*
X120628000Y-90170000D02*
X120568000Y-90230200D01*
X120568000Y-90230200D02*
X120568000Y-105661000D01*
X120568000Y-105661000D02*
X121579000Y-106672000D01*
X144590000Y-115443000D02*
X133910000Y-115443000D01*
X133910000Y-115443000D02*
X126970000Y-108502000D01*
X122579000Y-106672000D02*
X126212000Y-106672000D01*
X126212000Y-106672000D02*
X126970000Y-107430000D01*
X126970000Y-107430000D02*
X126970000Y-108502000D01*
G04 #@! TO.N,Net-(U2-Pad6)*
X122579000Y-98672000D02*
X121579000Y-98672000D01*
G04 #@! TO.N,Net-(SW1-Pad1)*
X110086000Y-90424000D02*
X116586000Y-90424000D01*
X116586000Y-90424000D02*
X116586000Y-105098000D01*
X116586000Y-105098000D02*
X122088000Y-110600000D01*
X122088000Y-110600000D02*
X123080000Y-110600000D01*
X123080000Y-110600000D02*
X125730000Y-107950000D01*
G04 #@! TO.N,/SS*
X122579000Y-94672000D02*
X121579000Y-94672000D01*
X122579000Y-94672000D02*
X122579000Y-93671700D01*
X122579000Y-93671700D02*
X124811000Y-91440000D01*
X124811000Y-91440000D02*
X130693000Y-91440000D01*
X130693000Y-91440000D02*
X138313000Y-99060000D01*
X138313000Y-99060000D02*
X141467000Y-99060000D01*
X141467000Y-99060000D02*
X142671000Y-100264000D01*
X142671000Y-100264000D02*
X142671000Y-108789000D01*
X142671000Y-108789000D02*
X140970000Y-110490000D01*
G04 #@! TO.N,/D2*
X121579000Y-96672000D02*
X122579000Y-96672000D01*
X122579000Y-96672000D02*
X123804000Y-96672000D01*
X123804000Y-96672000D02*
X123804000Y-94635700D01*
X123804000Y-94635700D02*
X125730000Y-92710000D01*
G04 #@! TO.N,/MOSI*
X121579000Y-104672000D02*
X122579000Y-104672000D01*
X122579000Y-104672000D02*
X123804000Y-104672000D01*
X123804000Y-104672000D02*
X124336000Y-104140000D01*
X124336000Y-104140000D02*
X130129000Y-104140000D01*
X130129000Y-104140000D02*
X133939000Y-107950000D01*
X133939000Y-107950000D02*
X140970000Y-107950000D01*
G04 #@! TO.N,/SCK*
X121579000Y-102672000D02*
X122579000Y-102672000D01*
X122579000Y-102672000D02*
X123804000Y-102672000D01*
X123804000Y-102672000D02*
X124876000Y-101600000D01*
X124876000Y-101600000D02*
X134801000Y-101600000D01*
X134801000Y-101600000D02*
X136071000Y-102870000D01*
X136071000Y-102870000D02*
X140970000Y-102870000D01*
G04 #@! TO.N,/MISO*
X121579000Y-100672000D02*
X122579000Y-100672000D01*
X122579000Y-100672000D02*
X123804000Y-100672000D01*
X123804000Y-100672000D02*
X123804000Y-100422000D01*
X123804000Y-100422000D02*
X125166000Y-99060000D01*
X125166000Y-99060000D02*
X137623000Y-99060000D01*
X137623000Y-99060000D02*
X140163000Y-101600000D01*
X140163000Y-101600000D02*
X141479000Y-101600000D01*
X141479000Y-101600000D02*
X142221000Y-102342000D01*
X142221000Y-102342000D02*
X142221000Y-104159000D01*
X142221000Y-104159000D02*
X140970000Y-105410000D01*
G04 #@! TO.N,+5V*
X133922000Y-118110000D02*
X130411000Y-118110000D01*
X130411000Y-118110000D02*
X126665000Y-114364000D01*
X126665000Y-114364000D02*
X125540000Y-114364000D01*
G04 #@! TO.N,/D3*
X107252000Y-115252000D02*
X112252000Y-115252000D01*
G04 #@! TO.N,Net-(D1-Pad2)*
X109093000Y-80962500D02*
X106870000Y-80962500D01*
X106870000Y-80962500D02*
X105664000Y-82169000D01*
D39*
G04 #@! TO.N,Net-(J2-Pad1)*
X163402000Y-141034000D02*
X168402000Y-141034000D01*
X133922000Y-143710000D02*
X139697000Y-149485000D01*
X139697000Y-149485000D02*
X153926000Y-149485000D01*
X153926000Y-149485000D02*
X159652000Y-143759000D01*
X159652000Y-143759000D02*
X159652000Y-141034000D01*
X159652000Y-141034000D02*
X163402000Y-141034000D01*
G04 #@! TO.N,Net-(F2-Pad1)*
X106295000Y-134319000D02*
X111559000Y-139583000D01*
X111559000Y-139583000D02*
X133009000Y-139583000D01*
X133009000Y-139583000D02*
X133922000Y-138670000D01*
X133922000Y-138670000D02*
X135610000Y-136982000D01*
X135610000Y-136982000D02*
X147684000Y-136982000D01*
X147684000Y-136982000D02*
X147684000Y-140732000D01*
G04 #@! TO.N,Net-(F2-Pad2)*
X170262000Y-127826000D02*
X166470000Y-131618000D01*
X166470000Y-131618000D02*
X149969000Y-131618000D01*
X149969000Y-131618000D02*
X145669000Y-127318000D01*
X123495000Y-134319000D02*
X130496000Y-127318000D01*
X130496000Y-127318000D02*
X145669000Y-127318000D01*
G04 #@! TO.N,Net-(J1-Pad1)*
X163402000Y-136034000D02*
X168402000Y-136034000D01*
D38*
G04 #@! TO.N,/D16*
X140970000Y-95250000D02*
X140970000Y-94773700D01*
G04 #@! TO.N,Net-(D2-Pad2)*
X144590000Y-117983000D02*
X137829000Y-117983000D01*
X137829000Y-117983000D02*
X133922000Y-121890000D01*
G04 #@! TD*
D40*
G04 #@! TO.N,GND*
G36*
X114394101Y-78846603D02*
X113596603Y-79644101D01*
X113165000Y-80686083D01*
X113165000Y-80835498D01*
X113009252Y-80835498D01*
X113168000Y-80676750D01*
X113168000Y-79936190D01*
X113071327Y-79702801D01*
X112892698Y-79524173D01*
X112659309Y-79427500D01*
X111918750Y-79427500D01*
X111760000Y-79586250D01*
X111760000Y-80835500D01*
X111780000Y-80835500D01*
X111780000Y-81089500D01*
X111760000Y-81089500D01*
X111760000Y-82338750D01*
X111918750Y-82497500D01*
X112659309Y-82497500D01*
X112892698Y-82400827D01*
X113071327Y-82222199D01*
X113168000Y-81988810D01*
X113168000Y-81821160D01*
X113596603Y-82855899D01*
X114394101Y-83653397D01*
X115436083Y-84085000D01*
X116563917Y-84085000D01*
X117605899Y-83653397D01*
X118403397Y-82855899D01*
X118835000Y-81813917D01*
X118835000Y-80686083D01*
X118403397Y-79644101D01*
X117605899Y-78846603D01*
X117276110Y-78710000D01*
X124191314Y-78710000D01*
X124502733Y-78761834D01*
X124728209Y-78883495D01*
X124902124Y-79071635D01*
X125011495Y-79319026D01*
X125040000Y-79544666D01*
X125040000Y-79819926D01*
X125048743Y-79863879D01*
X125092724Y-80212021D01*
X125104767Y-80252290D01*
X125108065Y-80294199D01*
X125147754Y-80410120D01*
X125346918Y-80860618D01*
X125377613Y-80907347D01*
X125399821Y-80958667D01*
X125443518Y-81015000D01*
X125424670Y-81015000D01*
X124860493Y-81248690D01*
X124428690Y-81680493D01*
X124195000Y-82244670D01*
X124195000Y-82855330D01*
X124428690Y-83419507D01*
X124829183Y-83820000D01*
X124428690Y-84220493D01*
X124195000Y-84784670D01*
X124195000Y-85395330D01*
X124428690Y-85959507D01*
X124829183Y-86360000D01*
X124428690Y-86760493D01*
X124195000Y-87324670D01*
X124195000Y-87935330D01*
X124428690Y-88499507D01*
X124860493Y-88931310D01*
X124880115Y-88939438D01*
X124829446Y-89089841D01*
X125730000Y-89990395D01*
X126630554Y-89089841D01*
X126579885Y-88939438D01*
X126599507Y-88931310D01*
X127031310Y-88499507D01*
X127265000Y-87935330D01*
X127265000Y-87324670D01*
X127031310Y-86760493D01*
X126630817Y-86360000D01*
X127031310Y-85959507D01*
X127265000Y-85395330D01*
X127265000Y-84849336D01*
X139423542Y-84849336D01*
X139449161Y-85459460D01*
X139633357Y-85904148D01*
X139889841Y-85990554D01*
X140790395Y-85090000D01*
X141149605Y-85090000D01*
X142050159Y-85990554D01*
X142306643Y-85904148D01*
X142516458Y-85330664D01*
X142490839Y-84720540D01*
X142306643Y-84275852D01*
X142050159Y-84189446D01*
X141149605Y-85090000D01*
X140790395Y-85090000D01*
X139889841Y-84189446D01*
X139633357Y-84275852D01*
X139423542Y-84849336D01*
X127265000Y-84849336D01*
X127265000Y-84784670D01*
X127031310Y-84220493D01*
X126630817Y-83820000D01*
X127031310Y-83419507D01*
X127265000Y-82855330D01*
X127265000Y-82244670D01*
X127144124Y-81952849D01*
X127180074Y-81960000D01*
X139552914Y-81960000D01*
X139435000Y-82244670D01*
X139435000Y-82855330D01*
X139668690Y-83419507D01*
X140100493Y-83851310D01*
X140120115Y-83859438D01*
X140069446Y-84009841D01*
X140970000Y-84910395D01*
X141870554Y-84009841D01*
X141819885Y-83859438D01*
X141839507Y-83851310D01*
X142271310Y-83419507D01*
X142505000Y-82855330D01*
X142505000Y-82244670D01*
X142271310Y-81680493D01*
X141902878Y-81312061D01*
X145250000Y-81312061D01*
X145250000Y-81882939D01*
X145468466Y-82410362D01*
X145872138Y-82814034D01*
X146399561Y-83032500D01*
X146970439Y-83032500D01*
X147497862Y-82814034D01*
X147706651Y-82605245D01*
X148356861Y-82605245D01*
X148430995Y-82851364D01*
X148968223Y-83044465D01*
X149538454Y-83017278D01*
X149939005Y-82851364D01*
X150013139Y-82605245D01*
X149185000Y-81777105D01*
X148356861Y-82605245D01*
X147706651Y-82605245D01*
X147901534Y-82410362D01*
X147928525Y-82345201D01*
X147931136Y-82351505D01*
X148177255Y-82425639D01*
X149005395Y-81597500D01*
X149364605Y-81597500D01*
X150192745Y-82425639D01*
X150438864Y-82351505D01*
X150631965Y-81814277D01*
X150604778Y-81244046D01*
X150438864Y-80843495D01*
X150192745Y-80769361D01*
X149364605Y-81597500D01*
X149005395Y-81597500D01*
X148177255Y-80769361D01*
X147931136Y-80843495D01*
X147928710Y-80850246D01*
X147901534Y-80784638D01*
X147706651Y-80589755D01*
X148356861Y-80589755D01*
X149185000Y-81417895D01*
X150013139Y-80589755D01*
X149939005Y-80343636D01*
X149401777Y-80150535D01*
X148831546Y-80177722D01*
X148430995Y-80343636D01*
X148356861Y-80589755D01*
X147706651Y-80589755D01*
X147497862Y-80380966D01*
X146970439Y-80162500D01*
X146399561Y-80162500D01*
X145872138Y-80380966D01*
X145468466Y-80784638D01*
X145250000Y-81312061D01*
X141902878Y-81312061D01*
X141839507Y-81248690D01*
X141298261Y-81024498D01*
X141310069Y-81006521D01*
X141310078Y-81006510D01*
X141310080Y-81006505D01*
X141543974Y-80573023D01*
X141562085Y-80520123D01*
X141589022Y-80471126D01*
X141619493Y-80352449D01*
X141698539Y-79877545D01*
X141710000Y-79819925D01*
X141710000Y-79558686D01*
X141761834Y-79247267D01*
X141883495Y-79021791D01*
X142071635Y-78847876D01*
X142319026Y-78738505D01*
X142544666Y-78710000D01*
X159723890Y-78710000D01*
X159394101Y-78846603D01*
X158596603Y-79644101D01*
X158165000Y-80686083D01*
X158165000Y-81813917D01*
X158596603Y-82855899D01*
X159394101Y-83653397D01*
X160436083Y-84085000D01*
X161563917Y-84085000D01*
X162605899Y-83653397D01*
X163403397Y-82855899D01*
X163835000Y-81813917D01*
X163835000Y-80686083D01*
X163403397Y-79644101D01*
X162605899Y-78846603D01*
X162276110Y-78710000D01*
X168973650Y-78710000D01*
X169929435Y-78781027D01*
X170838443Y-78986715D01*
X171707075Y-79324507D01*
X172516227Y-79786976D01*
X173248141Y-80363971D01*
X173886727Y-81042806D01*
X174417960Y-81808576D01*
X174830172Y-82644459D01*
X175114303Y-83532086D01*
X175265865Y-84462710D01*
X175290001Y-85015509D01*
X175290000Y-119253000D01*
X139700000Y-119253000D01*
X139651399Y-119262667D01*
X139610197Y-119290197D01*
X135202394Y-123698000D01*
X101710000Y-123698000D01*
X101710000Y-121641890D01*
X119589524Y-121641890D01*
X119759355Y-122051924D01*
X120149642Y-122480183D01*
X120674108Y-122726486D01*
X120904000Y-122605819D01*
X120904000Y-121412000D01*
X121158000Y-121412000D01*
X121158000Y-122605819D01*
X121387892Y-122726486D01*
X121912358Y-122480183D01*
X122302645Y-122051924D01*
X122330778Y-121984000D01*
X124076887Y-121984000D01*
X124188260Y-122543909D01*
X124505423Y-123018577D01*
X124980091Y-123335740D01*
X125398667Y-123419000D01*
X125681333Y-123419000D01*
X126099909Y-123335740D01*
X126574577Y-123018577D01*
X126891740Y-122543909D01*
X127003113Y-121984000D01*
X126929616Y-121614506D01*
X132537000Y-121614506D01*
X132537000Y-122165494D01*
X132747853Y-122674540D01*
X133137460Y-123064147D01*
X133646506Y-123275000D01*
X134197494Y-123275000D01*
X134706540Y-123064147D01*
X135096147Y-122674540D01*
X135307000Y-122165494D01*
X135307000Y-121614506D01*
X135296835Y-121589966D01*
X138143803Y-118743000D01*
X143239304Y-118743000D01*
X143241843Y-118755765D01*
X143382191Y-118965809D01*
X143592235Y-119106157D01*
X143840000Y-119155440D01*
X145340000Y-119155440D01*
X145587765Y-119106157D01*
X145797809Y-118965809D01*
X145938157Y-118755765D01*
X145987440Y-118508000D01*
X145987440Y-117458000D01*
X145938157Y-117210235D01*
X145907843Y-117164867D01*
X145997725Y-116713000D01*
X145907695Y-116260391D01*
X145779146Y-116068004D01*
X145925266Y-115810336D01*
X145933964Y-115748810D01*
X145808163Y-115570000D01*
X145014710Y-115570000D01*
X144929246Y-115553000D01*
X144250754Y-115553000D01*
X144165290Y-115570000D01*
X143371837Y-115570000D01*
X143246036Y-115748810D01*
X143254734Y-115810336D01*
X143400854Y-116068004D01*
X143272305Y-116260391D01*
X143182275Y-116713000D01*
X143272157Y-117164867D01*
X143241843Y-117210235D01*
X143239304Y-117223000D01*
X137903846Y-117223000D01*
X137828999Y-117208112D01*
X137754152Y-117223000D01*
X137754148Y-117223000D01*
X137532463Y-117267096D01*
X137532461Y-117267097D01*
X137532462Y-117267097D01*
X137344526Y-117392671D01*
X137344524Y-117392673D01*
X137281071Y-117435071D01*
X137238673Y-117498524D01*
X134222034Y-120515165D01*
X134197494Y-120505000D01*
X133646506Y-120505000D01*
X133137460Y-120715853D01*
X132747853Y-121105460D01*
X132537000Y-121614506D01*
X126929616Y-121614506D01*
X126891740Y-121424091D01*
X126574577Y-120949423D01*
X126099909Y-120632260D01*
X125681333Y-120549000D01*
X125398667Y-120549000D01*
X124980091Y-120632260D01*
X124505423Y-120949423D01*
X124188260Y-121424091D01*
X124076887Y-121984000D01*
X122330778Y-121984000D01*
X122472476Y-121641890D01*
X122351155Y-121412000D01*
X121158000Y-121412000D01*
X120904000Y-121412000D01*
X119710845Y-121412000D01*
X119589524Y-121641890D01*
X101710000Y-121641890D01*
X101710000Y-120593185D01*
X105159682Y-120593185D01*
X105173827Y-120664684D01*
X105432855Y-121141540D01*
X105854651Y-121482972D01*
X106375000Y-121637000D01*
X107125000Y-121637000D01*
X107125000Y-120379000D01*
X107379000Y-120379000D01*
X107379000Y-121637000D01*
X108129000Y-121637000D01*
X108649349Y-121482972D01*
X109071145Y-121141540D01*
X109330173Y-120664684D01*
X109344318Y-120593185D01*
X110159682Y-120593185D01*
X110173827Y-120664684D01*
X110432855Y-121141540D01*
X110854651Y-121482972D01*
X111375000Y-121637000D01*
X112125000Y-121637000D01*
X112125000Y-120379000D01*
X112379000Y-120379000D01*
X112379000Y-121637000D01*
X113129000Y-121637000D01*
X113649349Y-121482972D01*
X114071145Y-121141540D01*
X114330173Y-120664684D01*
X114344318Y-120593185D01*
X114221656Y-120379000D01*
X112379000Y-120379000D01*
X112125000Y-120379000D01*
X110282344Y-120379000D01*
X110159682Y-120593185D01*
X109344318Y-120593185D01*
X109221656Y-120379000D01*
X107379000Y-120379000D01*
X107125000Y-120379000D01*
X105282344Y-120379000D01*
X105159682Y-120593185D01*
X101710000Y-120593185D01*
X101710000Y-119910815D01*
X105159682Y-119910815D01*
X105282344Y-120125000D01*
X107125000Y-120125000D01*
X107125000Y-118867000D01*
X107379000Y-118867000D01*
X107379000Y-120125000D01*
X109221656Y-120125000D01*
X109344318Y-119910815D01*
X110159682Y-119910815D01*
X110282344Y-120125000D01*
X112125000Y-120125000D01*
X112125000Y-118867000D01*
X112379000Y-118867000D01*
X112379000Y-120125000D01*
X114221656Y-120125000D01*
X114344318Y-119910815D01*
X114330173Y-119839316D01*
X114071145Y-119362460D01*
X113649349Y-119021028D01*
X113129000Y-118867000D01*
X112379000Y-118867000D01*
X112125000Y-118867000D01*
X111375000Y-118867000D01*
X110854651Y-119021028D01*
X110432855Y-119362460D01*
X110173827Y-119839316D01*
X110159682Y-119910815D01*
X109344318Y-119910815D01*
X109330173Y-119839316D01*
X109071145Y-119362460D01*
X108649349Y-119021028D01*
X108129000Y-118867000D01*
X107379000Y-118867000D01*
X107125000Y-118867000D01*
X106375000Y-118867000D01*
X105854651Y-119021028D01*
X105432855Y-119362460D01*
X105173827Y-119839316D01*
X105159682Y-119910815D01*
X101710000Y-119910815D01*
X101710000Y-117895000D01*
X119533560Y-117895000D01*
X119533560Y-119595000D01*
X119582843Y-119842765D01*
X119723191Y-120052809D01*
X119933235Y-120193157D01*
X120036708Y-120213739D01*
X119759355Y-120518076D01*
X119589524Y-120928110D01*
X119710845Y-121158000D01*
X120904000Y-121158000D01*
X120904000Y-121138000D01*
X121158000Y-121138000D01*
X121158000Y-121158000D01*
X122351155Y-121158000D01*
X122472476Y-120928110D01*
X122302645Y-120518076D01*
X122025292Y-120213739D01*
X122128765Y-120193157D01*
X122338809Y-120052809D01*
X122479157Y-119842765D01*
X122528440Y-119595000D01*
X122528440Y-117895000D01*
X122479157Y-117647235D01*
X122338809Y-117437191D01*
X122128765Y-117296843D01*
X121881000Y-117247560D01*
X120181000Y-117247560D01*
X119933235Y-117296843D01*
X119723191Y-117437191D01*
X119582843Y-117647235D01*
X119533560Y-117895000D01*
X101710000Y-117895000D01*
X101710000Y-114502000D01*
X105104560Y-114502000D01*
X105104560Y-116002000D01*
X105153843Y-116249765D01*
X105294191Y-116459809D01*
X105504235Y-116600157D01*
X105752000Y-116649440D01*
X108752000Y-116649440D01*
X108999765Y-116600157D01*
X109209809Y-116459809D01*
X109350157Y-116249765D01*
X109397451Y-116012000D01*
X110106549Y-116012000D01*
X110153843Y-116249765D01*
X110294191Y-116459809D01*
X110504235Y-116600157D01*
X110752000Y-116649440D01*
X113752000Y-116649440D01*
X113999765Y-116600157D01*
X114209809Y-116459809D01*
X114350157Y-116249765D01*
X114399440Y-116002000D01*
X114399440Y-114502000D01*
X114350157Y-114254235D01*
X114209809Y-114044191D01*
X113999765Y-113903843D01*
X113752000Y-113854560D01*
X110752000Y-113854560D01*
X110504235Y-113903843D01*
X110294191Y-114044191D01*
X110153843Y-114254235D01*
X110106549Y-114492000D01*
X109397451Y-114492000D01*
X109350157Y-114254235D01*
X109209809Y-114044191D01*
X108999765Y-113903843D01*
X108752000Y-113854560D01*
X105752000Y-113854560D01*
X105504235Y-113903843D01*
X105294191Y-114044191D01*
X105153843Y-114254235D01*
X105104560Y-114502000D01*
X101710000Y-114502000D01*
X101710000Y-113564000D01*
X124092560Y-113564000D01*
X124092560Y-115164000D01*
X124141843Y-115411765D01*
X124282191Y-115621809D01*
X124492235Y-115762157D01*
X124740000Y-115811440D01*
X126340000Y-115811440D01*
X126587765Y-115762157D01*
X126797809Y-115621809D01*
X126817916Y-115591717D01*
X129820671Y-118594473D01*
X129863071Y-118657929D01*
X130114463Y-118825904D01*
X130336148Y-118870000D01*
X130336152Y-118870000D01*
X130410999Y-118884888D01*
X130485846Y-118870000D01*
X132737688Y-118870000D01*
X132747853Y-118894540D01*
X133137460Y-119284147D01*
X133646506Y-119495000D01*
X134197494Y-119495000D01*
X134706540Y-119284147D01*
X135096147Y-118894540D01*
X135307000Y-118385494D01*
X135307000Y-117834506D01*
X135096147Y-117325460D01*
X134706540Y-116935853D01*
X134197494Y-116725000D01*
X133646506Y-116725000D01*
X133137460Y-116935853D01*
X132747853Y-117325460D01*
X132737688Y-117350000D01*
X130725802Y-117350000D01*
X128512992Y-115137190D01*
X143246036Y-115137190D01*
X143371837Y-115316000D01*
X144463000Y-115316000D01*
X144463000Y-114436407D01*
X144717000Y-114436407D01*
X144717000Y-115316000D01*
X145808163Y-115316000D01*
X145933964Y-115137190D01*
X145925266Y-115075664D01*
X145700179Y-114678745D01*
X145340331Y-114398177D01*
X144900506Y-114276674D01*
X144717000Y-114436407D01*
X144463000Y-114436407D01*
X144279494Y-114276674D01*
X143839669Y-114398177D01*
X143479821Y-114678745D01*
X143254734Y-115075664D01*
X143246036Y-115137190D01*
X128512992Y-115137190D01*
X127255331Y-113879530D01*
X127212929Y-113816071D01*
X126987440Y-113665404D01*
X126987440Y-113564000D01*
X126938157Y-113316235D01*
X126797809Y-113106191D01*
X126587765Y-112965843D01*
X126340000Y-112916560D01*
X124740000Y-112916560D01*
X124492235Y-112965843D01*
X124282191Y-113106191D01*
X124141843Y-113316235D01*
X124092560Y-113564000D01*
X101710000Y-113564000D01*
X101710000Y-100302887D01*
X101833000Y-100302887D01*
X101833000Y-100993113D01*
X102097138Y-101630799D01*
X102585201Y-102118862D01*
X103222887Y-102383000D01*
X103913113Y-102383000D01*
X104550799Y-102118862D01*
X105038862Y-101630799D01*
X105303000Y-100993113D01*
X105303000Y-100302887D01*
X105038862Y-99665201D01*
X104550799Y-99177138D01*
X103913113Y-98913000D01*
X103222887Y-98913000D01*
X102585201Y-99177138D01*
X102097138Y-99665201D01*
X101833000Y-100302887D01*
X101710000Y-100302887D01*
X101710000Y-87548536D01*
X104162193Y-87548536D01*
X104192518Y-88038913D01*
X104284505Y-88260990D01*
X104211843Y-88369735D01*
X104162560Y-88617500D01*
X104162560Y-89817500D01*
X104211843Y-90065265D01*
X104352191Y-90275309D01*
X104562235Y-90415657D01*
X104810000Y-90464940D01*
X106010000Y-90464940D01*
X106257765Y-90415657D01*
X106467809Y-90275309D01*
X106585764Y-90098778D01*
X108451000Y-90098778D01*
X108451000Y-90749222D01*
X108699914Y-91350153D01*
X109159847Y-91810086D01*
X109760778Y-92059000D01*
X110411222Y-92059000D01*
X111012153Y-91810086D01*
X111472086Y-91350153D01*
X111540909Y-91184000D01*
X115131091Y-91184000D01*
X115199914Y-91350153D01*
X115659847Y-91810086D01*
X115826000Y-91878909D01*
X115826001Y-105023148D01*
X115811112Y-105098000D01*
X115870097Y-105394537D01*
X115883139Y-105414055D01*
X116038072Y-105645929D01*
X116101528Y-105688329D01*
X121497671Y-111084473D01*
X121540071Y-111147929D01*
X121791463Y-111315904D01*
X122013148Y-111360000D01*
X122013152Y-111360000D01*
X122087999Y-111374888D01*
X122162846Y-111360000D01*
X123005153Y-111360000D01*
X123080000Y-111374888D01*
X123154847Y-111360000D01*
X123154852Y-111360000D01*
X123376537Y-111315904D01*
X123627929Y-111147929D01*
X123670331Y-111084470D01*
X124195000Y-110559801D01*
X124195000Y-110795330D01*
X124428690Y-111359507D01*
X124860493Y-111791310D01*
X125424670Y-112025000D01*
X126035330Y-112025000D01*
X126599507Y-111791310D01*
X127031310Y-111359507D01*
X127265000Y-110795330D01*
X127265000Y-110184670D01*
X127031310Y-109620493D01*
X126630817Y-109220000D01*
X127031310Y-108819507D01*
X127265000Y-108255330D01*
X127265000Y-107644670D01*
X127031310Y-107080493D01*
X126630817Y-106680000D01*
X127031310Y-106279507D01*
X127265000Y-105715330D01*
X127265000Y-105104670D01*
X127180223Y-104900000D01*
X129814199Y-104900000D01*
X133348671Y-108434473D01*
X133391071Y-108497929D01*
X133454527Y-108540329D01*
X133642462Y-108665904D01*
X133690605Y-108675480D01*
X133864148Y-108710000D01*
X133864152Y-108710000D01*
X133939000Y-108724888D01*
X134013848Y-108710000D01*
X139623331Y-108710000D01*
X139668690Y-108819507D01*
X140069183Y-109220000D01*
X139700000Y-109589183D01*
X139299507Y-109188690D01*
X138735330Y-108955000D01*
X138124670Y-108955000D01*
X137560493Y-109188690D01*
X137160000Y-109589183D01*
X136759507Y-109188690D01*
X136195330Y-108955000D01*
X135584670Y-108955000D01*
X135020493Y-109188690D01*
X134588690Y-109620493D01*
X134355000Y-110184670D01*
X134355000Y-110795330D01*
X134588690Y-111359507D01*
X135020493Y-111791310D01*
X135584670Y-112025000D01*
X136195330Y-112025000D01*
X136759507Y-111791310D01*
X137160000Y-111390817D01*
X137560493Y-111791310D01*
X138124670Y-112025000D01*
X138735330Y-112025000D01*
X139299507Y-111791310D01*
X139700000Y-111390817D01*
X140100493Y-111791310D01*
X140664670Y-112025000D01*
X141275330Y-112025000D01*
X141839507Y-111791310D01*
X142271310Y-111359507D01*
X142505000Y-110795330D01*
X142505000Y-110184670D01*
X142459640Y-110075162D01*
X143155473Y-109379329D01*
X143218929Y-109336929D01*
X143386904Y-109085537D01*
X143431000Y-108863852D01*
X143431000Y-108863848D01*
X143445888Y-108789001D01*
X143431000Y-108714154D01*
X143431000Y-105940365D01*
X143555423Y-106126577D01*
X144030091Y-106443740D01*
X144448667Y-106527000D01*
X144731333Y-106527000D01*
X145149909Y-106443740D01*
X145624577Y-106126577D01*
X145941740Y-105651909D01*
X146053113Y-105092000D01*
X145941740Y-104532091D01*
X145624577Y-104057423D01*
X145272832Y-103822394D01*
X145402862Y-103768534D01*
X145806534Y-103364862D01*
X146025000Y-102837439D01*
X146025000Y-102266561D01*
X145806534Y-101739138D01*
X145402862Y-101335466D01*
X144875439Y-101117000D01*
X144304561Y-101117000D01*
X143777138Y-101335466D01*
X143431000Y-101681604D01*
X143431000Y-100338846D01*
X143445888Y-100263999D01*
X143431000Y-100189152D01*
X143431000Y-100189148D01*
X143386904Y-99967463D01*
X143218929Y-99716071D01*
X143155473Y-99673671D01*
X142206309Y-98724508D01*
X142271310Y-98659507D01*
X142505000Y-98095330D01*
X142505000Y-97484670D01*
X142271310Y-96920493D01*
X141870817Y-96520000D01*
X142271310Y-96119507D01*
X142505000Y-95555330D01*
X142505000Y-94944670D01*
X142271310Y-94380493D01*
X141870817Y-93980000D01*
X142271310Y-93579507D01*
X142505000Y-93015330D01*
X142505000Y-92404670D01*
X142271310Y-91840493D01*
X141870817Y-91440000D01*
X142271310Y-91039507D01*
X142505000Y-90475330D01*
X142505000Y-89864670D01*
X142271310Y-89300493D01*
X141872139Y-88901322D01*
X160127000Y-88901322D01*
X160127000Y-89750678D01*
X160452034Y-90535380D01*
X161052620Y-91135966D01*
X161837322Y-91461000D01*
X162686678Y-91461000D01*
X163471380Y-91135966D01*
X163767376Y-90839970D01*
X168927635Y-90839970D01*
X169087418Y-91158739D01*
X169878187Y-91468723D01*
X170727387Y-91452497D01*
X171436582Y-91158739D01*
X171596365Y-90839970D01*
X170262000Y-89505605D01*
X168927635Y-90839970D01*
X163767376Y-90839970D01*
X164071966Y-90535380D01*
X164397000Y-89750678D01*
X164397000Y-88942187D01*
X168119277Y-88942187D01*
X168135503Y-89791387D01*
X168429261Y-90500582D01*
X168748030Y-90660365D01*
X170082395Y-89326000D01*
X170441605Y-89326000D01*
X171775970Y-90660365D01*
X172094739Y-90500582D01*
X172404723Y-89709813D01*
X172388497Y-88860613D01*
X172094739Y-88151418D01*
X171775970Y-87991635D01*
X170441605Y-89326000D01*
X170082395Y-89326000D01*
X168748030Y-87991635D01*
X168429261Y-88151418D01*
X168119277Y-88942187D01*
X164397000Y-88942187D01*
X164397000Y-88901322D01*
X164071966Y-88116620D01*
X163767376Y-87812030D01*
X168927635Y-87812030D01*
X170262000Y-89146395D01*
X171596365Y-87812030D01*
X171436582Y-87493261D01*
X170645813Y-87183277D01*
X169796613Y-87199503D01*
X169087418Y-87493261D01*
X168927635Y-87812030D01*
X163767376Y-87812030D01*
X163471380Y-87516034D01*
X162686678Y-87191000D01*
X161837322Y-87191000D01*
X161052620Y-87516034D01*
X160452034Y-88116620D01*
X160127000Y-88901322D01*
X141872139Y-88901322D01*
X141870817Y-88900000D01*
X142271310Y-88499507D01*
X142505000Y-87935330D01*
X142505000Y-87324670D01*
X142271310Y-86760493D01*
X141839507Y-86328690D01*
X141819885Y-86320562D01*
X141870554Y-86170159D01*
X140970000Y-85269605D01*
X140069446Y-86170159D01*
X140120115Y-86320562D01*
X140100493Y-86328690D01*
X139668690Y-86760493D01*
X139435000Y-87324670D01*
X139435000Y-87935330D01*
X139668690Y-88499507D01*
X140069183Y-88900000D01*
X139668690Y-89300493D01*
X139435000Y-89864670D01*
X139435000Y-90274183D01*
X139299507Y-90138690D01*
X138735330Y-89905000D01*
X138124670Y-89905000D01*
X137560493Y-90138690D01*
X137128690Y-90570493D01*
X136895000Y-91134670D01*
X136895000Y-91745330D01*
X137128690Y-92309507D01*
X137529183Y-92710000D01*
X137128690Y-93110493D01*
X136895000Y-93674670D01*
X136895000Y-94285330D01*
X137128690Y-94849507D01*
X137560493Y-95281310D01*
X138124670Y-95515000D01*
X138735330Y-95515000D01*
X139299507Y-95281310D01*
X139435000Y-95145817D01*
X139435000Y-95555330D01*
X139668690Y-96119507D01*
X140069183Y-96520000D01*
X139668690Y-96920493D01*
X139435000Y-97484670D01*
X139435000Y-98095330D01*
X139519777Y-98300000D01*
X138627803Y-98300000D01*
X131283331Y-90955530D01*
X131240929Y-90892071D01*
X130989537Y-90724096D01*
X130767852Y-90680000D01*
X130767847Y-90680000D01*
X130693000Y-90665112D01*
X130618153Y-90680000D01*
X127177919Y-90680000D01*
X127276458Y-90410664D01*
X127250839Y-89800540D01*
X127066643Y-89355852D01*
X126810159Y-89269446D01*
X125909605Y-90170000D01*
X125923748Y-90184143D01*
X125744143Y-90363748D01*
X125730000Y-90349605D01*
X125715858Y-90363748D01*
X125536253Y-90184143D01*
X125550395Y-90170000D01*
X124649841Y-89269446D01*
X124393357Y-89355852D01*
X124183542Y-89929336D01*
X124209161Y-90539460D01*
X124335241Y-90843843D01*
X124326567Y-90849638D01*
X124326548Y-90849657D01*
X124263071Y-90892071D01*
X124220685Y-90955505D01*
X122094550Y-93081357D01*
X122031072Y-93123771D01*
X121947270Y-93249190D01*
X121880195Y-93349560D01*
X121679000Y-93349560D01*
X121616459Y-93362000D01*
X121318425Y-93362000D01*
X120836945Y-93561436D01*
X120468436Y-93929945D01*
X120269000Y-94411425D01*
X120269000Y-94932575D01*
X120468436Y-95414055D01*
X120726381Y-95672000D01*
X120468436Y-95929945D01*
X120269000Y-96411425D01*
X120269000Y-96932575D01*
X120468436Y-97414055D01*
X120726381Y-97672000D01*
X120468436Y-97929945D01*
X120269000Y-98411425D01*
X120269000Y-98932575D01*
X120468436Y-99414055D01*
X120726381Y-99672000D01*
X120468436Y-99929945D01*
X120269000Y-100411425D01*
X120269000Y-100932575D01*
X120468436Y-101414055D01*
X120726381Y-101672000D01*
X120468436Y-101929945D01*
X120269000Y-102411425D01*
X120269000Y-102932575D01*
X120468436Y-103414055D01*
X120726381Y-103672000D01*
X120468436Y-103929945D01*
X120269000Y-104411425D01*
X120269000Y-104932575D01*
X120468436Y-105414055D01*
X120836945Y-105782564D01*
X120891955Y-105805350D01*
X121044000Y-105957395D01*
X121044000Y-106316605D01*
X120661853Y-105934458D01*
X120428672Y-105993219D01*
X120256478Y-106485100D01*
X120285625Y-107005434D01*
X120428672Y-107350781D01*
X120661853Y-107409542D01*
X121044000Y-107027395D01*
X121044000Y-107386605D01*
X120891955Y-107538650D01*
X120836945Y-107561436D01*
X120480591Y-107917790D01*
X117346000Y-104783199D01*
X117346000Y-91878909D01*
X117512153Y-91810086D01*
X117972086Y-91350153D01*
X118221000Y-90749222D01*
X118221000Y-90098778D01*
X117972086Y-89497847D01*
X117512153Y-89037914D01*
X116911222Y-88789000D01*
X116260778Y-88789000D01*
X115659847Y-89037914D01*
X115199914Y-89497847D01*
X115131091Y-89664000D01*
X111540909Y-89664000D01*
X111472086Y-89497847D01*
X111012153Y-89037914D01*
X110411222Y-88789000D01*
X109760778Y-88789000D01*
X109159847Y-89037914D01*
X108699914Y-89497847D01*
X108451000Y-90098778D01*
X106585764Y-90098778D01*
X106608157Y-90065265D01*
X106657440Y-89817500D01*
X106657440Y-88617500D01*
X106608157Y-88369735D01*
X106531291Y-88254698D01*
X106657807Y-87886464D01*
X106627482Y-87396087D01*
X106498164Y-87083883D01*
X106464696Y-87076532D01*
X109113073Y-87076532D01*
X109211736Y-87343387D01*
X109821461Y-87569908D01*
X110471460Y-87545856D01*
X110960264Y-87343387D01*
X111058927Y-87076532D01*
X115613073Y-87076532D01*
X115711736Y-87343387D01*
X116321461Y-87569908D01*
X116971460Y-87545856D01*
X117460264Y-87343387D01*
X117558927Y-87076532D01*
X116586000Y-86103605D01*
X115613073Y-87076532D01*
X111058927Y-87076532D01*
X110086000Y-86103605D01*
X109113073Y-87076532D01*
X106464696Y-87076532D01*
X106272735Y-87034370D01*
X105589605Y-87717500D01*
X105603748Y-87731643D01*
X105424143Y-87911248D01*
X105410000Y-87897105D01*
X105395858Y-87911248D01*
X105216253Y-87731643D01*
X105230395Y-87717500D01*
X104547265Y-87034370D01*
X104321836Y-87083883D01*
X104162193Y-87548536D01*
X101710000Y-87548536D01*
X101710000Y-86854765D01*
X104726870Y-86854765D01*
X105410000Y-87537895D01*
X106093130Y-86854765D01*
X106043617Y-86629336D01*
X105578964Y-86469693D01*
X105088587Y-86500018D01*
X104776383Y-86629336D01*
X104726870Y-86854765D01*
X101710000Y-86854765D01*
X101710000Y-85026350D01*
X101733583Y-84709000D01*
X104200887Y-84709000D01*
X104312260Y-85268909D01*
X104629423Y-85743577D01*
X105104091Y-86060740D01*
X105522667Y-86144000D01*
X105805333Y-86144000D01*
X106223909Y-86060740D01*
X106698577Y-85743577D01*
X106754781Y-85659461D01*
X108440092Y-85659461D01*
X108464144Y-86309460D01*
X108666613Y-86798264D01*
X108933468Y-86896927D01*
X109906395Y-85924000D01*
X110265605Y-85924000D01*
X111238532Y-86896927D01*
X111505387Y-86798264D01*
X111731908Y-86188539D01*
X111712331Y-85659461D01*
X114940092Y-85659461D01*
X114964144Y-86309460D01*
X115166613Y-86798264D01*
X115433468Y-86896927D01*
X116406395Y-85924000D01*
X116765605Y-85924000D01*
X117738532Y-86896927D01*
X118005387Y-86798264D01*
X118231908Y-86188539D01*
X118207856Y-85538540D01*
X118005387Y-85049736D01*
X117738532Y-84951073D01*
X116765605Y-85924000D01*
X116406395Y-85924000D01*
X115433468Y-84951073D01*
X115166613Y-85049736D01*
X114940092Y-85659461D01*
X111712331Y-85659461D01*
X111707856Y-85538540D01*
X111505387Y-85049736D01*
X111238532Y-84951073D01*
X110265605Y-85924000D01*
X109906395Y-85924000D01*
X108933468Y-84951073D01*
X108666613Y-85049736D01*
X108440092Y-85659461D01*
X106754781Y-85659461D01*
X107015740Y-85268909D01*
X107114687Y-84771468D01*
X109113073Y-84771468D01*
X110086000Y-85744395D01*
X111058927Y-84771468D01*
X115613073Y-84771468D01*
X116586000Y-85744395D01*
X117558927Y-84771468D01*
X117460264Y-84504613D01*
X116850539Y-84278092D01*
X116200540Y-84302144D01*
X115711736Y-84504613D01*
X115613073Y-84771468D01*
X111058927Y-84771468D01*
X110960264Y-84504613D01*
X110350539Y-84278092D01*
X109700540Y-84302144D01*
X109211736Y-84504613D01*
X109113073Y-84771468D01*
X107114687Y-84771468D01*
X107127113Y-84709000D01*
X107015740Y-84149091D01*
X106698577Y-83674423D01*
X106346832Y-83439394D01*
X106476862Y-83385534D01*
X106880534Y-82981862D01*
X107099000Y-82454439D01*
X107099000Y-81883561D01*
X107076997Y-81830442D01*
X107184894Y-81722500D01*
X107746331Y-81722500D01*
X107791690Y-81832007D01*
X108223493Y-82263810D01*
X108787670Y-82497500D01*
X109398330Y-82497500D01*
X109962507Y-82263810D01*
X110138861Y-82087456D01*
X110194673Y-82222199D01*
X110373302Y-82400827D01*
X110606691Y-82497500D01*
X111347250Y-82497500D01*
X111506000Y-82338750D01*
X111506000Y-81089500D01*
X111486000Y-81089500D01*
X111486000Y-80835500D01*
X111506000Y-80835500D01*
X111506000Y-79586250D01*
X111347250Y-79427500D01*
X110606691Y-79427500D01*
X110373302Y-79524173D01*
X110194673Y-79702801D01*
X110138861Y-79837544D01*
X109962507Y-79661190D01*
X109398330Y-79427500D01*
X108787670Y-79427500D01*
X108223493Y-79661190D01*
X107791690Y-80092993D01*
X107746331Y-80202500D01*
X106944768Y-80202500D01*
X106869839Y-80187612D01*
X106724767Y-80216500D01*
X106573463Y-80246596D01*
X106573394Y-80246642D01*
X106573314Y-80246658D01*
X106448124Y-80330345D01*
X106322071Y-80414571D01*
X106279627Y-80478093D01*
X106002045Y-80755790D01*
X105949439Y-80734000D01*
X105378561Y-80734000D01*
X104851138Y-80952466D01*
X104447466Y-81356138D01*
X104229000Y-81883561D01*
X104229000Y-82454439D01*
X104447466Y-82981862D01*
X104851138Y-83385534D01*
X104981168Y-83439394D01*
X104629423Y-83674423D01*
X104312260Y-84149091D01*
X104200887Y-84709000D01*
X101733583Y-84709000D01*
X101781027Y-84070565D01*
X101986715Y-83161557D01*
X102324507Y-82292925D01*
X102786976Y-81483773D01*
X103363971Y-80751859D01*
X104042806Y-80113273D01*
X104808576Y-79582040D01*
X105644459Y-79169828D01*
X106532086Y-78885697D01*
X107462710Y-78734135D01*
X108015486Y-78710000D01*
X114723890Y-78710000D01*
X114394101Y-78846603D01*
X114394101Y-78846603D01*
G37*
X114394101Y-78846603D02*
X113596603Y-79644101D01*
X113165000Y-80686083D01*
X113165000Y-80835498D01*
X113009252Y-80835498D01*
X113168000Y-80676750D01*
X113168000Y-79936190D01*
X113071327Y-79702801D01*
X112892698Y-79524173D01*
X112659309Y-79427500D01*
X111918750Y-79427500D01*
X111760000Y-79586250D01*
X111760000Y-80835500D01*
X111780000Y-80835500D01*
X111780000Y-81089500D01*
X111760000Y-81089500D01*
X111760000Y-82338750D01*
X111918750Y-82497500D01*
X112659309Y-82497500D01*
X112892698Y-82400827D01*
X113071327Y-82222199D01*
X113168000Y-81988810D01*
X113168000Y-81821160D01*
X113596603Y-82855899D01*
X114394101Y-83653397D01*
X115436083Y-84085000D01*
X116563917Y-84085000D01*
X117605899Y-83653397D01*
X118403397Y-82855899D01*
X118835000Y-81813917D01*
X118835000Y-80686083D01*
X118403397Y-79644101D01*
X117605899Y-78846603D01*
X117276110Y-78710000D01*
X124191314Y-78710000D01*
X124502733Y-78761834D01*
X124728209Y-78883495D01*
X124902124Y-79071635D01*
X125011495Y-79319026D01*
X125040000Y-79544666D01*
X125040000Y-79819926D01*
X125048743Y-79863879D01*
X125092724Y-80212021D01*
X125104767Y-80252290D01*
X125108065Y-80294199D01*
X125147754Y-80410120D01*
X125346918Y-80860618D01*
X125377613Y-80907347D01*
X125399821Y-80958667D01*
X125443518Y-81015000D01*
X125424670Y-81015000D01*
X124860493Y-81248690D01*
X124428690Y-81680493D01*
X124195000Y-82244670D01*
X124195000Y-82855330D01*
X124428690Y-83419507D01*
X124829183Y-83820000D01*
X124428690Y-84220493D01*
X124195000Y-84784670D01*
X124195000Y-85395330D01*
X124428690Y-85959507D01*
X124829183Y-86360000D01*
X124428690Y-86760493D01*
X124195000Y-87324670D01*
X124195000Y-87935330D01*
X124428690Y-88499507D01*
X124860493Y-88931310D01*
X124880115Y-88939438D01*
X124829446Y-89089841D01*
X125730000Y-89990395D01*
X126630554Y-89089841D01*
X126579885Y-88939438D01*
X126599507Y-88931310D01*
X127031310Y-88499507D01*
X127265000Y-87935330D01*
X127265000Y-87324670D01*
X127031310Y-86760493D01*
X126630817Y-86360000D01*
X127031310Y-85959507D01*
X127265000Y-85395330D01*
X127265000Y-84849336D01*
X139423542Y-84849336D01*
X139449161Y-85459460D01*
X139633357Y-85904148D01*
X139889841Y-85990554D01*
X140790395Y-85090000D01*
X141149605Y-85090000D01*
X142050159Y-85990554D01*
X142306643Y-85904148D01*
X142516458Y-85330664D01*
X142490839Y-84720540D01*
X142306643Y-84275852D01*
X142050159Y-84189446D01*
X141149605Y-85090000D01*
X140790395Y-85090000D01*
X139889841Y-84189446D01*
X139633357Y-84275852D01*
X139423542Y-84849336D01*
X127265000Y-84849336D01*
X127265000Y-84784670D01*
X127031310Y-84220493D01*
X126630817Y-83820000D01*
X127031310Y-83419507D01*
X127265000Y-82855330D01*
X127265000Y-82244670D01*
X127144124Y-81952849D01*
X127180074Y-81960000D01*
X139552914Y-81960000D01*
X139435000Y-82244670D01*
X139435000Y-82855330D01*
X139668690Y-83419507D01*
X140100493Y-83851310D01*
X140120115Y-83859438D01*
X140069446Y-84009841D01*
X140970000Y-84910395D01*
X141870554Y-84009841D01*
X141819885Y-83859438D01*
X141839507Y-83851310D01*
X142271310Y-83419507D01*
X142505000Y-82855330D01*
X142505000Y-82244670D01*
X142271310Y-81680493D01*
X141902878Y-81312061D01*
X145250000Y-81312061D01*
X145250000Y-81882939D01*
X145468466Y-82410362D01*
X145872138Y-82814034D01*
X146399561Y-83032500D01*
X146970439Y-83032500D01*
X147497862Y-82814034D01*
X147706651Y-82605245D01*
X148356861Y-82605245D01*
X148430995Y-82851364D01*
X148968223Y-83044465D01*
X149538454Y-83017278D01*
X149939005Y-82851364D01*
X150013139Y-82605245D01*
X149185000Y-81777105D01*
X148356861Y-82605245D01*
X147706651Y-82605245D01*
X147901534Y-82410362D01*
X147928525Y-82345201D01*
X147931136Y-82351505D01*
X148177255Y-82425639D01*
X149005395Y-81597500D01*
X149364605Y-81597500D01*
X150192745Y-82425639D01*
X150438864Y-82351505D01*
X150631965Y-81814277D01*
X150604778Y-81244046D01*
X150438864Y-80843495D01*
X150192745Y-80769361D01*
X149364605Y-81597500D01*
X149005395Y-81597500D01*
X148177255Y-80769361D01*
X147931136Y-80843495D01*
X147928710Y-80850246D01*
X147901534Y-80784638D01*
X147706651Y-80589755D01*
X148356861Y-80589755D01*
X149185000Y-81417895D01*
X150013139Y-80589755D01*
X149939005Y-80343636D01*
X149401777Y-80150535D01*
X148831546Y-80177722D01*
X148430995Y-80343636D01*
X148356861Y-80589755D01*
X147706651Y-80589755D01*
X147497862Y-80380966D01*
X146970439Y-80162500D01*
X146399561Y-80162500D01*
X145872138Y-80380966D01*
X145468466Y-80784638D01*
X145250000Y-81312061D01*
X141902878Y-81312061D01*
X141839507Y-81248690D01*
X141298261Y-81024498D01*
X141310069Y-81006521D01*
X141310078Y-81006510D01*
X141310080Y-81006505D01*
X141543974Y-80573023D01*
X141562085Y-80520123D01*
X141589022Y-80471126D01*
X141619493Y-80352449D01*
X141698539Y-79877545D01*
X141710000Y-79819925D01*
X141710000Y-79558686D01*
X141761834Y-79247267D01*
X141883495Y-79021791D01*
X142071635Y-78847876D01*
X142319026Y-78738505D01*
X142544666Y-78710000D01*
X159723890Y-78710000D01*
X159394101Y-78846603D01*
X158596603Y-79644101D01*
X158165000Y-80686083D01*
X158165000Y-81813917D01*
X158596603Y-82855899D01*
X159394101Y-83653397D01*
X160436083Y-84085000D01*
X161563917Y-84085000D01*
X162605899Y-83653397D01*
X163403397Y-82855899D01*
X163835000Y-81813917D01*
X163835000Y-80686083D01*
X163403397Y-79644101D01*
X162605899Y-78846603D01*
X162276110Y-78710000D01*
X168973650Y-78710000D01*
X169929435Y-78781027D01*
X170838443Y-78986715D01*
X171707075Y-79324507D01*
X172516227Y-79786976D01*
X173248141Y-80363971D01*
X173886727Y-81042806D01*
X174417960Y-81808576D01*
X174830172Y-82644459D01*
X175114303Y-83532086D01*
X175265865Y-84462710D01*
X175290001Y-85015509D01*
X175290000Y-119253000D01*
X139700000Y-119253000D01*
X139651399Y-119262667D01*
X139610197Y-119290197D01*
X135202394Y-123698000D01*
X101710000Y-123698000D01*
X101710000Y-121641890D01*
X119589524Y-121641890D01*
X119759355Y-122051924D01*
X120149642Y-122480183D01*
X120674108Y-122726486D01*
X120904000Y-122605819D01*
X120904000Y-121412000D01*
X121158000Y-121412000D01*
X121158000Y-122605819D01*
X121387892Y-122726486D01*
X121912358Y-122480183D01*
X122302645Y-122051924D01*
X122330778Y-121984000D01*
X124076887Y-121984000D01*
X124188260Y-122543909D01*
X124505423Y-123018577D01*
X124980091Y-123335740D01*
X125398667Y-123419000D01*
X125681333Y-123419000D01*
X126099909Y-123335740D01*
X126574577Y-123018577D01*
X126891740Y-122543909D01*
X127003113Y-121984000D01*
X126929616Y-121614506D01*
X132537000Y-121614506D01*
X132537000Y-122165494D01*
X132747853Y-122674540D01*
X133137460Y-123064147D01*
X133646506Y-123275000D01*
X134197494Y-123275000D01*
X134706540Y-123064147D01*
X135096147Y-122674540D01*
X135307000Y-122165494D01*
X135307000Y-121614506D01*
X135296835Y-121589966D01*
X138143803Y-118743000D01*
X143239304Y-118743000D01*
X143241843Y-118755765D01*
X143382191Y-118965809D01*
X143592235Y-119106157D01*
X143840000Y-119155440D01*
X145340000Y-119155440D01*
X145587765Y-119106157D01*
X145797809Y-118965809D01*
X145938157Y-118755765D01*
X145987440Y-118508000D01*
X145987440Y-117458000D01*
X145938157Y-117210235D01*
X145907843Y-117164867D01*
X145997725Y-116713000D01*
X145907695Y-116260391D01*
X145779146Y-116068004D01*
X145925266Y-115810336D01*
X145933964Y-115748810D01*
X145808163Y-115570000D01*
X145014710Y-115570000D01*
X144929246Y-115553000D01*
X144250754Y-115553000D01*
X144165290Y-115570000D01*
X143371837Y-115570000D01*
X143246036Y-115748810D01*
X143254734Y-115810336D01*
X143400854Y-116068004D01*
X143272305Y-116260391D01*
X143182275Y-116713000D01*
X143272157Y-117164867D01*
X143241843Y-117210235D01*
X143239304Y-117223000D01*
X137903846Y-117223000D01*
X137828999Y-117208112D01*
X137754152Y-117223000D01*
X137754148Y-117223000D01*
X137532463Y-117267096D01*
X137532461Y-117267097D01*
X137532462Y-117267097D01*
X137344526Y-117392671D01*
X137344524Y-117392673D01*
X137281071Y-117435071D01*
X137238673Y-117498524D01*
X134222034Y-120515165D01*
X134197494Y-120505000D01*
X133646506Y-120505000D01*
X133137460Y-120715853D01*
X132747853Y-121105460D01*
X132537000Y-121614506D01*
X126929616Y-121614506D01*
X126891740Y-121424091D01*
X126574577Y-120949423D01*
X126099909Y-120632260D01*
X125681333Y-120549000D01*
X125398667Y-120549000D01*
X124980091Y-120632260D01*
X124505423Y-120949423D01*
X124188260Y-121424091D01*
X124076887Y-121984000D01*
X122330778Y-121984000D01*
X122472476Y-121641890D01*
X122351155Y-121412000D01*
X121158000Y-121412000D01*
X120904000Y-121412000D01*
X119710845Y-121412000D01*
X119589524Y-121641890D01*
X101710000Y-121641890D01*
X101710000Y-120593185D01*
X105159682Y-120593185D01*
X105173827Y-120664684D01*
X105432855Y-121141540D01*
X105854651Y-121482972D01*
X106375000Y-121637000D01*
X107125000Y-121637000D01*
X107125000Y-120379000D01*
X107379000Y-120379000D01*
X107379000Y-121637000D01*
X108129000Y-121637000D01*
X108649349Y-121482972D01*
X109071145Y-121141540D01*
X109330173Y-120664684D01*
X109344318Y-120593185D01*
X110159682Y-120593185D01*
X110173827Y-120664684D01*
X110432855Y-121141540D01*
X110854651Y-121482972D01*
X111375000Y-121637000D01*
X112125000Y-121637000D01*
X112125000Y-120379000D01*
X112379000Y-120379000D01*
X112379000Y-121637000D01*
X113129000Y-121637000D01*
X113649349Y-121482972D01*
X114071145Y-121141540D01*
X114330173Y-120664684D01*
X114344318Y-120593185D01*
X114221656Y-120379000D01*
X112379000Y-120379000D01*
X112125000Y-120379000D01*
X110282344Y-120379000D01*
X110159682Y-120593185D01*
X109344318Y-120593185D01*
X109221656Y-120379000D01*
X107379000Y-120379000D01*
X107125000Y-120379000D01*
X105282344Y-120379000D01*
X105159682Y-120593185D01*
X101710000Y-120593185D01*
X101710000Y-119910815D01*
X105159682Y-119910815D01*
X105282344Y-120125000D01*
X107125000Y-120125000D01*
X107125000Y-118867000D01*
X107379000Y-118867000D01*
X107379000Y-120125000D01*
X109221656Y-120125000D01*
X109344318Y-119910815D01*
X110159682Y-119910815D01*
X110282344Y-120125000D01*
X112125000Y-120125000D01*
X112125000Y-118867000D01*
X112379000Y-118867000D01*
X112379000Y-120125000D01*
X114221656Y-120125000D01*
X114344318Y-119910815D01*
X114330173Y-119839316D01*
X114071145Y-119362460D01*
X113649349Y-119021028D01*
X113129000Y-118867000D01*
X112379000Y-118867000D01*
X112125000Y-118867000D01*
X111375000Y-118867000D01*
X110854651Y-119021028D01*
X110432855Y-119362460D01*
X110173827Y-119839316D01*
X110159682Y-119910815D01*
X109344318Y-119910815D01*
X109330173Y-119839316D01*
X109071145Y-119362460D01*
X108649349Y-119021028D01*
X108129000Y-118867000D01*
X107379000Y-118867000D01*
X107125000Y-118867000D01*
X106375000Y-118867000D01*
X105854651Y-119021028D01*
X105432855Y-119362460D01*
X105173827Y-119839316D01*
X105159682Y-119910815D01*
X101710000Y-119910815D01*
X101710000Y-117895000D01*
X119533560Y-117895000D01*
X119533560Y-119595000D01*
X119582843Y-119842765D01*
X119723191Y-120052809D01*
X119933235Y-120193157D01*
X120036708Y-120213739D01*
X119759355Y-120518076D01*
X119589524Y-120928110D01*
X119710845Y-121158000D01*
X120904000Y-121158000D01*
X120904000Y-121138000D01*
X121158000Y-121138000D01*
X121158000Y-121158000D01*
X122351155Y-121158000D01*
X122472476Y-120928110D01*
X122302645Y-120518076D01*
X122025292Y-120213739D01*
X122128765Y-120193157D01*
X122338809Y-120052809D01*
X122479157Y-119842765D01*
X122528440Y-119595000D01*
X122528440Y-117895000D01*
X122479157Y-117647235D01*
X122338809Y-117437191D01*
X122128765Y-117296843D01*
X121881000Y-117247560D01*
X120181000Y-117247560D01*
X119933235Y-117296843D01*
X119723191Y-117437191D01*
X119582843Y-117647235D01*
X119533560Y-117895000D01*
X101710000Y-117895000D01*
X101710000Y-114502000D01*
X105104560Y-114502000D01*
X105104560Y-116002000D01*
X105153843Y-116249765D01*
X105294191Y-116459809D01*
X105504235Y-116600157D01*
X105752000Y-116649440D01*
X108752000Y-116649440D01*
X108999765Y-116600157D01*
X109209809Y-116459809D01*
X109350157Y-116249765D01*
X109397451Y-116012000D01*
X110106549Y-116012000D01*
X110153843Y-116249765D01*
X110294191Y-116459809D01*
X110504235Y-116600157D01*
X110752000Y-116649440D01*
X113752000Y-116649440D01*
X113999765Y-116600157D01*
X114209809Y-116459809D01*
X114350157Y-116249765D01*
X114399440Y-116002000D01*
X114399440Y-114502000D01*
X114350157Y-114254235D01*
X114209809Y-114044191D01*
X113999765Y-113903843D01*
X113752000Y-113854560D01*
X110752000Y-113854560D01*
X110504235Y-113903843D01*
X110294191Y-114044191D01*
X110153843Y-114254235D01*
X110106549Y-114492000D01*
X109397451Y-114492000D01*
X109350157Y-114254235D01*
X109209809Y-114044191D01*
X108999765Y-113903843D01*
X108752000Y-113854560D01*
X105752000Y-113854560D01*
X105504235Y-113903843D01*
X105294191Y-114044191D01*
X105153843Y-114254235D01*
X105104560Y-114502000D01*
X101710000Y-114502000D01*
X101710000Y-113564000D01*
X124092560Y-113564000D01*
X124092560Y-115164000D01*
X124141843Y-115411765D01*
X124282191Y-115621809D01*
X124492235Y-115762157D01*
X124740000Y-115811440D01*
X126340000Y-115811440D01*
X126587765Y-115762157D01*
X126797809Y-115621809D01*
X126817916Y-115591717D01*
X129820671Y-118594473D01*
X129863071Y-118657929D01*
X130114463Y-118825904D01*
X130336148Y-118870000D01*
X130336152Y-118870000D01*
X130410999Y-118884888D01*
X130485846Y-118870000D01*
X132737688Y-118870000D01*
X132747853Y-118894540D01*
X133137460Y-119284147D01*
X133646506Y-119495000D01*
X134197494Y-119495000D01*
X134706540Y-119284147D01*
X135096147Y-118894540D01*
X135307000Y-118385494D01*
X135307000Y-117834506D01*
X135096147Y-117325460D01*
X134706540Y-116935853D01*
X134197494Y-116725000D01*
X133646506Y-116725000D01*
X133137460Y-116935853D01*
X132747853Y-117325460D01*
X132737688Y-117350000D01*
X130725802Y-117350000D01*
X128512992Y-115137190D01*
X143246036Y-115137190D01*
X143371837Y-115316000D01*
X144463000Y-115316000D01*
X144463000Y-114436407D01*
X144717000Y-114436407D01*
X144717000Y-115316000D01*
X145808163Y-115316000D01*
X145933964Y-115137190D01*
X145925266Y-115075664D01*
X145700179Y-114678745D01*
X145340331Y-114398177D01*
X144900506Y-114276674D01*
X144717000Y-114436407D01*
X144463000Y-114436407D01*
X144279494Y-114276674D01*
X143839669Y-114398177D01*
X143479821Y-114678745D01*
X143254734Y-115075664D01*
X143246036Y-115137190D01*
X128512992Y-115137190D01*
X127255331Y-113879530D01*
X127212929Y-113816071D01*
X126987440Y-113665404D01*
X126987440Y-113564000D01*
X126938157Y-113316235D01*
X126797809Y-113106191D01*
X126587765Y-112965843D01*
X126340000Y-112916560D01*
X124740000Y-112916560D01*
X124492235Y-112965843D01*
X124282191Y-113106191D01*
X124141843Y-113316235D01*
X124092560Y-113564000D01*
X101710000Y-113564000D01*
X101710000Y-100302887D01*
X101833000Y-100302887D01*
X101833000Y-100993113D01*
X102097138Y-101630799D01*
X102585201Y-102118862D01*
X103222887Y-102383000D01*
X103913113Y-102383000D01*
X104550799Y-102118862D01*
X105038862Y-101630799D01*
X105303000Y-100993113D01*
X105303000Y-100302887D01*
X105038862Y-99665201D01*
X104550799Y-99177138D01*
X103913113Y-98913000D01*
X103222887Y-98913000D01*
X102585201Y-99177138D01*
X102097138Y-99665201D01*
X101833000Y-100302887D01*
X101710000Y-100302887D01*
X101710000Y-87548536D01*
X104162193Y-87548536D01*
X104192518Y-88038913D01*
X104284505Y-88260990D01*
X104211843Y-88369735D01*
X104162560Y-88617500D01*
X104162560Y-89817500D01*
X104211843Y-90065265D01*
X104352191Y-90275309D01*
X104562235Y-90415657D01*
X104810000Y-90464940D01*
X106010000Y-90464940D01*
X106257765Y-90415657D01*
X106467809Y-90275309D01*
X106585764Y-90098778D01*
X108451000Y-90098778D01*
X108451000Y-90749222D01*
X108699914Y-91350153D01*
X109159847Y-91810086D01*
X109760778Y-92059000D01*
X110411222Y-92059000D01*
X111012153Y-91810086D01*
X111472086Y-91350153D01*
X111540909Y-91184000D01*
X115131091Y-91184000D01*
X115199914Y-91350153D01*
X115659847Y-91810086D01*
X115826000Y-91878909D01*
X115826001Y-105023148D01*
X115811112Y-105098000D01*
X115870097Y-105394537D01*
X115883139Y-105414055D01*
X116038072Y-105645929D01*
X116101528Y-105688329D01*
X121497671Y-111084473D01*
X121540071Y-111147929D01*
X121791463Y-111315904D01*
X122013148Y-111360000D01*
X122013152Y-111360000D01*
X122087999Y-111374888D01*
X122162846Y-111360000D01*
X123005153Y-111360000D01*
X123080000Y-111374888D01*
X123154847Y-111360000D01*
X123154852Y-111360000D01*
X123376537Y-111315904D01*
X123627929Y-111147929D01*
X123670331Y-111084470D01*
X124195000Y-110559801D01*
X124195000Y-110795330D01*
X124428690Y-111359507D01*
X124860493Y-111791310D01*
X125424670Y-112025000D01*
X126035330Y-112025000D01*
X126599507Y-111791310D01*
X127031310Y-111359507D01*
X127265000Y-110795330D01*
X127265000Y-110184670D01*
X127031310Y-109620493D01*
X126630817Y-109220000D01*
X127031310Y-108819507D01*
X127265000Y-108255330D01*
X127265000Y-107644670D01*
X127031310Y-107080493D01*
X126630817Y-106680000D01*
X127031310Y-106279507D01*
X127265000Y-105715330D01*
X127265000Y-105104670D01*
X127180223Y-104900000D01*
X129814199Y-104900000D01*
X133348671Y-108434473D01*
X133391071Y-108497929D01*
X133454527Y-108540329D01*
X133642462Y-108665904D01*
X133690605Y-108675480D01*
X133864148Y-108710000D01*
X133864152Y-108710000D01*
X133939000Y-108724888D01*
X134013848Y-108710000D01*
X139623331Y-108710000D01*
X139668690Y-108819507D01*
X140069183Y-109220000D01*
X139700000Y-109589183D01*
X139299507Y-109188690D01*
X138735330Y-108955000D01*
X138124670Y-108955000D01*
X137560493Y-109188690D01*
X137160000Y-109589183D01*
X136759507Y-109188690D01*
X136195330Y-108955000D01*
X135584670Y-108955000D01*
X135020493Y-109188690D01*
X134588690Y-109620493D01*
X134355000Y-110184670D01*
X134355000Y-110795330D01*
X134588690Y-111359507D01*
X135020493Y-111791310D01*
X135584670Y-112025000D01*
X136195330Y-112025000D01*
X136759507Y-111791310D01*
X137160000Y-111390817D01*
X137560493Y-111791310D01*
X138124670Y-112025000D01*
X138735330Y-112025000D01*
X139299507Y-111791310D01*
X139700000Y-111390817D01*
X140100493Y-111791310D01*
X140664670Y-112025000D01*
X141275330Y-112025000D01*
X141839507Y-111791310D01*
X142271310Y-111359507D01*
X142505000Y-110795330D01*
X142505000Y-110184670D01*
X142459640Y-110075162D01*
X143155473Y-109379329D01*
X143218929Y-109336929D01*
X143386904Y-109085537D01*
X143431000Y-108863852D01*
X143431000Y-108863848D01*
X143445888Y-108789001D01*
X143431000Y-108714154D01*
X143431000Y-105940365D01*
X143555423Y-106126577D01*
X144030091Y-106443740D01*
X144448667Y-106527000D01*
X144731333Y-106527000D01*
X145149909Y-106443740D01*
X145624577Y-106126577D01*
X145941740Y-105651909D01*
X146053113Y-105092000D01*
X145941740Y-104532091D01*
X145624577Y-104057423D01*
X145272832Y-103822394D01*
X145402862Y-103768534D01*
X145806534Y-103364862D01*
X146025000Y-102837439D01*
X146025000Y-102266561D01*
X145806534Y-101739138D01*
X145402862Y-101335466D01*
X144875439Y-101117000D01*
X144304561Y-101117000D01*
X143777138Y-101335466D01*
X143431000Y-101681604D01*
X143431000Y-100338846D01*
X143445888Y-100263999D01*
X143431000Y-100189152D01*
X143431000Y-100189148D01*
X143386904Y-99967463D01*
X143218929Y-99716071D01*
X143155473Y-99673671D01*
X142206309Y-98724508D01*
X142271310Y-98659507D01*
X142505000Y-98095330D01*
X142505000Y-97484670D01*
X142271310Y-96920493D01*
X141870817Y-96520000D01*
X142271310Y-96119507D01*
X142505000Y-95555330D01*
X142505000Y-94944670D01*
X142271310Y-94380493D01*
X141870817Y-93980000D01*
X142271310Y-93579507D01*
X142505000Y-93015330D01*
X142505000Y-92404670D01*
X142271310Y-91840493D01*
X141870817Y-91440000D01*
X142271310Y-91039507D01*
X142505000Y-90475330D01*
X142505000Y-89864670D01*
X142271310Y-89300493D01*
X141872139Y-88901322D01*
X160127000Y-88901322D01*
X160127000Y-89750678D01*
X160452034Y-90535380D01*
X161052620Y-91135966D01*
X161837322Y-91461000D01*
X162686678Y-91461000D01*
X163471380Y-91135966D01*
X163767376Y-90839970D01*
X168927635Y-90839970D01*
X169087418Y-91158739D01*
X169878187Y-91468723D01*
X170727387Y-91452497D01*
X171436582Y-91158739D01*
X171596365Y-90839970D01*
X170262000Y-89505605D01*
X168927635Y-90839970D01*
X163767376Y-90839970D01*
X164071966Y-90535380D01*
X164397000Y-89750678D01*
X164397000Y-88942187D01*
X168119277Y-88942187D01*
X168135503Y-89791387D01*
X168429261Y-90500582D01*
X168748030Y-90660365D01*
X170082395Y-89326000D01*
X170441605Y-89326000D01*
X171775970Y-90660365D01*
X172094739Y-90500582D01*
X172404723Y-89709813D01*
X172388497Y-88860613D01*
X172094739Y-88151418D01*
X171775970Y-87991635D01*
X170441605Y-89326000D01*
X170082395Y-89326000D01*
X168748030Y-87991635D01*
X168429261Y-88151418D01*
X168119277Y-88942187D01*
X164397000Y-88942187D01*
X164397000Y-88901322D01*
X164071966Y-88116620D01*
X163767376Y-87812030D01*
X168927635Y-87812030D01*
X170262000Y-89146395D01*
X171596365Y-87812030D01*
X171436582Y-87493261D01*
X170645813Y-87183277D01*
X169796613Y-87199503D01*
X169087418Y-87493261D01*
X168927635Y-87812030D01*
X163767376Y-87812030D01*
X163471380Y-87516034D01*
X162686678Y-87191000D01*
X161837322Y-87191000D01*
X161052620Y-87516034D01*
X160452034Y-88116620D01*
X160127000Y-88901322D01*
X141872139Y-88901322D01*
X141870817Y-88900000D01*
X142271310Y-88499507D01*
X142505000Y-87935330D01*
X142505000Y-87324670D01*
X142271310Y-86760493D01*
X141839507Y-86328690D01*
X141819885Y-86320562D01*
X141870554Y-86170159D01*
X140970000Y-85269605D01*
X140069446Y-86170159D01*
X140120115Y-86320562D01*
X140100493Y-86328690D01*
X139668690Y-86760493D01*
X139435000Y-87324670D01*
X139435000Y-87935330D01*
X139668690Y-88499507D01*
X140069183Y-88900000D01*
X139668690Y-89300493D01*
X139435000Y-89864670D01*
X139435000Y-90274183D01*
X139299507Y-90138690D01*
X138735330Y-89905000D01*
X138124670Y-89905000D01*
X137560493Y-90138690D01*
X137128690Y-90570493D01*
X136895000Y-91134670D01*
X136895000Y-91745330D01*
X137128690Y-92309507D01*
X137529183Y-92710000D01*
X137128690Y-93110493D01*
X136895000Y-93674670D01*
X136895000Y-94285330D01*
X137128690Y-94849507D01*
X137560493Y-95281310D01*
X138124670Y-95515000D01*
X138735330Y-95515000D01*
X139299507Y-95281310D01*
X139435000Y-95145817D01*
X139435000Y-95555330D01*
X139668690Y-96119507D01*
X140069183Y-96520000D01*
X139668690Y-96920493D01*
X139435000Y-97484670D01*
X139435000Y-98095330D01*
X139519777Y-98300000D01*
X138627803Y-98300000D01*
X131283331Y-90955530D01*
X131240929Y-90892071D01*
X130989537Y-90724096D01*
X130767852Y-90680000D01*
X130767847Y-90680000D01*
X130693000Y-90665112D01*
X130618153Y-90680000D01*
X127177919Y-90680000D01*
X127276458Y-90410664D01*
X127250839Y-89800540D01*
X127066643Y-89355852D01*
X126810159Y-89269446D01*
X125909605Y-90170000D01*
X125923748Y-90184143D01*
X125744143Y-90363748D01*
X125730000Y-90349605D01*
X125715858Y-90363748D01*
X125536253Y-90184143D01*
X125550395Y-90170000D01*
X124649841Y-89269446D01*
X124393357Y-89355852D01*
X124183542Y-89929336D01*
X124209161Y-90539460D01*
X124335241Y-90843843D01*
X124326567Y-90849638D01*
X124326548Y-90849657D01*
X124263071Y-90892071D01*
X124220685Y-90955505D01*
X122094550Y-93081357D01*
X122031072Y-93123771D01*
X121947270Y-93249190D01*
X121880195Y-93349560D01*
X121679000Y-93349560D01*
X121616459Y-93362000D01*
X121318425Y-93362000D01*
X120836945Y-93561436D01*
X120468436Y-93929945D01*
X120269000Y-94411425D01*
X120269000Y-94932575D01*
X120468436Y-95414055D01*
X120726381Y-95672000D01*
X120468436Y-95929945D01*
X120269000Y-96411425D01*
X120269000Y-96932575D01*
X120468436Y-97414055D01*
X120726381Y-97672000D01*
X120468436Y-97929945D01*
X120269000Y-98411425D01*
X120269000Y-98932575D01*
X120468436Y-99414055D01*
X120726381Y-99672000D01*
X120468436Y-99929945D01*
X120269000Y-100411425D01*
X120269000Y-100932575D01*
X120468436Y-101414055D01*
X120726381Y-101672000D01*
X120468436Y-101929945D01*
X120269000Y-102411425D01*
X120269000Y-102932575D01*
X120468436Y-103414055D01*
X120726381Y-103672000D01*
X120468436Y-103929945D01*
X120269000Y-104411425D01*
X120269000Y-104932575D01*
X120468436Y-105414055D01*
X120836945Y-105782564D01*
X120891955Y-105805350D01*
X121044000Y-105957395D01*
X121044000Y-106316605D01*
X120661853Y-105934458D01*
X120428672Y-105993219D01*
X120256478Y-106485100D01*
X120285625Y-107005434D01*
X120428672Y-107350781D01*
X120661853Y-107409542D01*
X121044000Y-107027395D01*
X121044000Y-107386605D01*
X120891955Y-107538650D01*
X120836945Y-107561436D01*
X120480591Y-107917790D01*
X117346000Y-104783199D01*
X117346000Y-91878909D01*
X117512153Y-91810086D01*
X117972086Y-91350153D01*
X118221000Y-90749222D01*
X118221000Y-90098778D01*
X117972086Y-89497847D01*
X117512153Y-89037914D01*
X116911222Y-88789000D01*
X116260778Y-88789000D01*
X115659847Y-89037914D01*
X115199914Y-89497847D01*
X115131091Y-89664000D01*
X111540909Y-89664000D01*
X111472086Y-89497847D01*
X111012153Y-89037914D01*
X110411222Y-88789000D01*
X109760778Y-88789000D01*
X109159847Y-89037914D01*
X108699914Y-89497847D01*
X108451000Y-90098778D01*
X106585764Y-90098778D01*
X106608157Y-90065265D01*
X106657440Y-89817500D01*
X106657440Y-88617500D01*
X106608157Y-88369735D01*
X106531291Y-88254698D01*
X106657807Y-87886464D01*
X106627482Y-87396087D01*
X106498164Y-87083883D01*
X106464696Y-87076532D01*
X109113073Y-87076532D01*
X109211736Y-87343387D01*
X109821461Y-87569908D01*
X110471460Y-87545856D01*
X110960264Y-87343387D01*
X111058927Y-87076532D01*
X115613073Y-87076532D01*
X115711736Y-87343387D01*
X116321461Y-87569908D01*
X116971460Y-87545856D01*
X117460264Y-87343387D01*
X117558927Y-87076532D01*
X116586000Y-86103605D01*
X115613073Y-87076532D01*
X111058927Y-87076532D01*
X110086000Y-86103605D01*
X109113073Y-87076532D01*
X106464696Y-87076532D01*
X106272735Y-87034370D01*
X105589605Y-87717500D01*
X105603748Y-87731643D01*
X105424143Y-87911248D01*
X105410000Y-87897105D01*
X105395858Y-87911248D01*
X105216253Y-87731643D01*
X105230395Y-87717500D01*
X104547265Y-87034370D01*
X104321836Y-87083883D01*
X104162193Y-87548536D01*
X101710000Y-87548536D01*
X101710000Y-86854765D01*
X104726870Y-86854765D01*
X105410000Y-87537895D01*
X106093130Y-86854765D01*
X106043617Y-86629336D01*
X105578964Y-86469693D01*
X105088587Y-86500018D01*
X104776383Y-86629336D01*
X104726870Y-86854765D01*
X101710000Y-86854765D01*
X101710000Y-85026350D01*
X101733583Y-84709000D01*
X104200887Y-84709000D01*
X104312260Y-85268909D01*
X104629423Y-85743577D01*
X105104091Y-86060740D01*
X105522667Y-86144000D01*
X105805333Y-86144000D01*
X106223909Y-86060740D01*
X106698577Y-85743577D01*
X106754781Y-85659461D01*
X108440092Y-85659461D01*
X108464144Y-86309460D01*
X108666613Y-86798264D01*
X108933468Y-86896927D01*
X109906395Y-85924000D01*
X110265605Y-85924000D01*
X111238532Y-86896927D01*
X111505387Y-86798264D01*
X111731908Y-86188539D01*
X111712331Y-85659461D01*
X114940092Y-85659461D01*
X114964144Y-86309460D01*
X115166613Y-86798264D01*
X115433468Y-86896927D01*
X116406395Y-85924000D01*
X116765605Y-85924000D01*
X117738532Y-86896927D01*
X118005387Y-86798264D01*
X118231908Y-86188539D01*
X118207856Y-85538540D01*
X118005387Y-85049736D01*
X117738532Y-84951073D01*
X116765605Y-85924000D01*
X116406395Y-85924000D01*
X115433468Y-84951073D01*
X115166613Y-85049736D01*
X114940092Y-85659461D01*
X111712331Y-85659461D01*
X111707856Y-85538540D01*
X111505387Y-85049736D01*
X111238532Y-84951073D01*
X110265605Y-85924000D01*
X109906395Y-85924000D01*
X108933468Y-84951073D01*
X108666613Y-85049736D01*
X108440092Y-85659461D01*
X106754781Y-85659461D01*
X107015740Y-85268909D01*
X107114687Y-84771468D01*
X109113073Y-84771468D01*
X110086000Y-85744395D01*
X111058927Y-84771468D01*
X115613073Y-84771468D01*
X116586000Y-85744395D01*
X117558927Y-84771468D01*
X117460264Y-84504613D01*
X116850539Y-84278092D01*
X116200540Y-84302144D01*
X115711736Y-84504613D01*
X115613073Y-84771468D01*
X111058927Y-84771468D01*
X110960264Y-84504613D01*
X110350539Y-84278092D01*
X109700540Y-84302144D01*
X109211736Y-84504613D01*
X109113073Y-84771468D01*
X107114687Y-84771468D01*
X107127113Y-84709000D01*
X107015740Y-84149091D01*
X106698577Y-83674423D01*
X106346832Y-83439394D01*
X106476862Y-83385534D01*
X106880534Y-82981862D01*
X107099000Y-82454439D01*
X107099000Y-81883561D01*
X107076997Y-81830442D01*
X107184894Y-81722500D01*
X107746331Y-81722500D01*
X107791690Y-81832007D01*
X108223493Y-82263810D01*
X108787670Y-82497500D01*
X109398330Y-82497500D01*
X109962507Y-82263810D01*
X110138861Y-82087456D01*
X110194673Y-82222199D01*
X110373302Y-82400827D01*
X110606691Y-82497500D01*
X111347250Y-82497500D01*
X111506000Y-82338750D01*
X111506000Y-81089500D01*
X111486000Y-81089500D01*
X111486000Y-80835500D01*
X111506000Y-80835500D01*
X111506000Y-79586250D01*
X111347250Y-79427500D01*
X110606691Y-79427500D01*
X110373302Y-79524173D01*
X110194673Y-79702801D01*
X110138861Y-79837544D01*
X109962507Y-79661190D01*
X109398330Y-79427500D01*
X108787670Y-79427500D01*
X108223493Y-79661190D01*
X107791690Y-80092993D01*
X107746331Y-80202500D01*
X106944768Y-80202500D01*
X106869839Y-80187612D01*
X106724767Y-80216500D01*
X106573463Y-80246596D01*
X106573394Y-80246642D01*
X106573314Y-80246658D01*
X106448124Y-80330345D01*
X106322071Y-80414571D01*
X106279627Y-80478093D01*
X106002045Y-80755790D01*
X105949439Y-80734000D01*
X105378561Y-80734000D01*
X104851138Y-80952466D01*
X104447466Y-81356138D01*
X104229000Y-81883561D01*
X104229000Y-82454439D01*
X104447466Y-82981862D01*
X104851138Y-83385534D01*
X104981168Y-83439394D01*
X104629423Y-83674423D01*
X104312260Y-84149091D01*
X104200887Y-84709000D01*
X101733583Y-84709000D01*
X101781027Y-84070565D01*
X101986715Y-83161557D01*
X102324507Y-82292925D01*
X102786976Y-81483773D01*
X103363971Y-80751859D01*
X104042806Y-80113273D01*
X104808576Y-79582040D01*
X105644459Y-79169828D01*
X106532086Y-78885697D01*
X107462710Y-78734135D01*
X108015486Y-78710000D01*
X114723890Y-78710000D01*
X114394101Y-78846603D01*
G04 #@! TD*
M02*
