G04 #@! TF.GenerationSoftware,KiCad,Pcbnew,(5.0.2)-1*
G04 #@! TF.CreationDate,2019-10-27T17:27:48+01:00*
G04 #@! TF.ProjectId,HM-LC-Sw1-FM,484d2d4c-432d-4537-9731-2d464d2e6b69,rev?*
G04 #@! TF.SameCoordinates,Original*
G04 #@! TF.FileFunction,Copper,L2,Bot*
G04 #@! TF.FilePolarity,Positive*
%FSLAX46Y46*%
G04 Gerber Fmt 4.6, Leading zero omitted, Abs format (unit mm)*
G04 Created by KiCad (PCBNEW (5.0.2)-1) date 27.10.2019 17:27:48*
%MOMM*%
%LPD*%
G01*
G04 APERTURE LIST*
G04 #@! TA.AperFunction,ComponentPad*
%ADD10C,4.400000*%
G04 #@! TD*
G04 #@! TA.AperFunction,ComponentPad*
%ADD11C,0.700000*%
G04 #@! TD*
G04 #@! TA.AperFunction,ComponentPad*
%ADD12R,1.500000X3.000000*%
G04 #@! TD*
G04 #@! TA.AperFunction,ComponentPad*
%ADD13O,1.500000X3.000000*%
G04 #@! TD*
G04 #@! TA.AperFunction,ComponentPad*
%ADD14C,1.600000*%
G04 #@! TD*
G04 #@! TA.AperFunction,ComponentPad*
%ADD15O,1.600000X1.600000*%
G04 #@! TD*
G04 #@! TA.AperFunction,ComponentPad*
%ADD16C,2.000000*%
G04 #@! TD*
G04 #@! TA.AperFunction,ComponentPad*
%ADD17R,1.800000X1.800000*%
G04 #@! TD*
G04 #@! TA.AperFunction,ComponentPad*
%ADD18C,1.800000*%
G04 #@! TD*
G04 #@! TA.AperFunction,ComponentPad*
%ADD19R,1.200000X1.200000*%
G04 #@! TD*
G04 #@! TA.AperFunction,ComponentPad*
%ADD20C,1.200000*%
G04 #@! TD*
G04 #@! TA.AperFunction,ComponentPad*
%ADD21C,1.350000*%
G04 #@! TD*
G04 #@! TA.AperFunction,ComponentPad*
%ADD22C,3.000000*%
G04 #@! TD*
G04 #@! TA.AperFunction,ComponentPad*
%ADD23R,3.000000X3.000000*%
G04 #@! TD*
G04 #@! TA.AperFunction,ComponentPad*
%ADD24R,3.000000X1.500000*%
G04 #@! TD*
G04 #@! TA.AperFunction,ComponentPad*
%ADD25O,3.000000X1.500000*%
G04 #@! TD*
G04 #@! TA.AperFunction,ComponentPad*
%ADD26R,1.600000X1.600000*%
G04 #@! TD*
G04 #@! TA.AperFunction,ComponentPad*
%ADD27C,1.950000*%
G04 #@! TD*
G04 #@! TA.AperFunction,ComponentPad*
%ADD28C,1.500000*%
G04 #@! TD*
G04 #@! TA.AperFunction,ComponentPad*
%ADD29O,1.500000X1.050000*%
G04 #@! TD*
G04 #@! TA.AperFunction,ComponentPad*
%ADD30R,1.500000X1.050000*%
G04 #@! TD*
G04 #@! TA.AperFunction,ComponentPad*
%ADD31R,1.700000X1.700000*%
G04 #@! TD*
G04 #@! TA.AperFunction,ComponentPad*
%ADD32O,1.700000X1.700000*%
G04 #@! TD*
G04 #@! TA.AperFunction,ViaPad*
%ADD33C,0.600000*%
G04 #@! TD*
G04 #@! TA.AperFunction,Conductor*
%ADD34C,0.350000*%
G04 #@! TD*
G04 #@! TA.AperFunction,Conductor*
%ADD35C,0.250000*%
G04 #@! TD*
G04 #@! TA.AperFunction,Conductor*
%ADD36C,3.000000*%
G04 #@! TD*
G04 #@! TA.AperFunction,Conductor*
%ADD37C,0.254000*%
G04 #@! TD*
G04 APERTURE END LIST*
D10*
G04 #@! TO.P,P3,1*
G04 #@! TO.N,N/C*
X116000000Y-81250000D03*
D11*
X117650000Y-81250000D03*
X117166726Y-82416726D03*
X116000000Y-82900000D03*
X114833274Y-82416726D03*
X114350000Y-81250000D03*
X114833274Y-80083274D03*
X116000000Y-79600000D03*
X117166726Y-80083274D03*
G04 #@! TD*
D10*
G04 #@! TO.P,P2,1*
G04 #@! TO.N,N/C*
X161000000Y-81250000D03*
D11*
X162650000Y-81250000D03*
X162166726Y-82416726D03*
X161000000Y-82900000D03*
X159833274Y-82416726D03*
X159350000Y-81250000D03*
X159833274Y-80083274D03*
X161000000Y-79600000D03*
X162166726Y-80083274D03*
G04 #@! TD*
D10*
G04 #@! TO.P,P5,1*
G04 #@! TO.N,N/C*
X161000000Y-149750000D03*
D11*
X162650000Y-149750000D03*
X162166726Y-150916726D03*
X161000000Y-151400000D03*
X159833274Y-150916726D03*
X159350000Y-149750000D03*
X159833274Y-148583274D03*
X161000000Y-148100000D03*
X162166726Y-148583274D03*
G04 #@! TD*
D10*
G04 #@! TO.P,P4,1*
G04 #@! TO.N,N/C*
X116000000Y-149750000D03*
D11*
X117650000Y-149750000D03*
X117166726Y-150916726D03*
X116000000Y-151400000D03*
X114833274Y-150916726D03*
X114350000Y-149750000D03*
X114833274Y-148583274D03*
X116000000Y-148100000D03*
X117166726Y-148583274D03*
G04 #@! TD*
D12*
G04 #@! TO.P,J1,1*
G04 #@! TO.N,Net-(J1-Pad1)*
X142684000Y-145732000D03*
X142684000Y-140732000D03*
D13*
G04 #@! TO.P,J1,2*
G04 #@! TO.N,Net-(F2-Pad1)*
X147684000Y-145732000D03*
X147684000Y-140732000D03*
G04 #@! TO.P,J1,3*
G04 #@! TO.N,GNDPWR*
X152684000Y-145732000D03*
X152684000Y-140732000D03*
G04 #@! TD*
D14*
G04 #@! TO.P,R1,1*
G04 #@! TO.N,Net-(D1-Pad2)*
X105664000Y-82169000D03*
D15*
G04 #@! TO.P,R1,2*
G04 #@! TO.N,Net-(R1-Pad2)*
X105664000Y-84709000D03*
G04 #@! TD*
D16*
G04 #@! TO.P,SW1,2*
G04 #@! TO.N,GND*
X116586000Y-85924000D03*
G04 #@! TO.P,SW1,1*
G04 #@! TO.N,Net-(SW1-Pad1)*
X116586000Y-90424000D03*
G04 #@! TO.P,SW1,2*
G04 #@! TO.N,GND*
X110086000Y-85924000D03*
G04 #@! TO.P,SW1,1*
G04 #@! TO.N,Net-(SW1-Pad1)*
X110086000Y-90424000D03*
G04 #@! TD*
D17*
G04 #@! TO.P,D1,1*
G04 #@! TO.N,GND*
X111633000Y-80962500D03*
D18*
G04 #@! TO.P,D1,2*
G04 #@! TO.N,Net-(D1-Pad2)*
X109093000Y-80962500D03*
G04 #@! TD*
G04 #@! TO.P,U1,28*
G04 #@! TO.N,Net-(U1-Pad28)*
X138430000Y-101600000D03*
G04 #@! TO.P,U1,27*
G04 #@! TO.N,Net-(U1-Pad27)*
X138430000Y-104140000D03*
X135890000Y-110490000D03*
G04 #@! TO.P,U1,28*
G04 #@! TO.N,Net-(U1-Pad28)*
X138430000Y-110490000D03*
G04 #@! TO.P,U1,1*
G04 #@! TO.N,/SS*
X140970000Y-110490000D03*
G04 #@! TO.P,U1,2*
G04 #@! TO.N,/MOSI*
X140970000Y-107950000D03*
G04 #@! TO.P,U1,3*
G04 #@! TO.N,/MISO*
X140970000Y-105410000D03*
G04 #@! TO.P,U1,4*
G04 #@! TO.N,/SCK*
X140970000Y-102870000D03*
G04 #@! TO.P,U1,5*
G04 #@! TO.N,Net-(U1-Pad5)*
X140970000Y-100330000D03*
G04 #@! TO.P,U1,6*
G04 #@! TO.N,Net-(U1-Pad6)*
X140970000Y-97790000D03*
G04 #@! TO.P,U1,7*
G04 #@! TO.N,/D16*
X140970000Y-95250000D03*
G04 #@! TO.P,U1,8*
G04 #@! TO.N,Net-(U1-Pad8)*
X140970000Y-92710000D03*
G04 #@! TO.P,U1,9*
G04 #@! TO.N,+3V3*
X140970000Y-90170000D03*
G04 #@! TO.P,U1,10*
G04 #@! TO.N,Net-(U1-Pad10)*
X140970000Y-87630000D03*
G04 #@! TO.P,U1,11*
G04 #@! TO.N,GND*
X140970000Y-85090000D03*
G04 #@! TO.P,U1,12*
G04 #@! TO.N,+5V*
X140970000Y-82550000D03*
G04 #@! TO.P,U1,13*
G04 #@! TO.N,N/C*
X125730000Y-82550000D03*
G04 #@! TO.P,U1,14*
X125730000Y-85090000D03*
G04 #@! TO.P,U1,15*
X125730000Y-87630000D03*
G04 #@! TO.P,U1,16*
G04 #@! TO.N,GND*
X125730000Y-90170000D03*
G04 #@! TO.P,U1,17*
G04 #@! TO.N,/D2*
X125730000Y-92710000D03*
G04 #@! TO.P,U1,18*
G04 #@! TO.N,/D3*
X125730000Y-95250000D03*
G04 #@! TO.P,U1,19*
G04 #@! TO.N,Net-(R1-Pad2)*
X125730000Y-97790000D03*
G04 #@! TO.P,U1,20*
G04 #@! TO.N,Net-(U1-Pad20)*
X125730000Y-100330000D03*
G04 #@! TO.P,U1,21*
G04 #@! TO.N,Net-(U1-Pad21)*
X125730000Y-102870000D03*
G04 #@! TO.P,U1,22*
G04 #@! TO.N,Net-(U1-Pad22)*
X125730000Y-105410000D03*
G04 #@! TO.P,U1,23*
G04 #@! TO.N,Net-(SW1-Pad1)*
X125730000Y-107950000D03*
G04 #@! TO.P,U1,24*
G04 #@! TO.N,Net-(U1-Pad24)*
X125730000Y-110490000D03*
G04 #@! TO.P,U1,25*
G04 #@! TO.N,Net-(U1-Pad25)*
X138430000Y-93980000D03*
G04 #@! TO.P,U1,26*
G04 #@! TO.N,Net-(U1-Pad26)*
X138430000Y-91440000D03*
G04 #@! TD*
D19*
G04 #@! TO.P,C1,1*
G04 #@! TO.N,+3V3*
X105410000Y-89217500D03*
D20*
G04 #@! TO.P,C1,2*
G04 #@! TO.N,GND*
X105410000Y-87717500D03*
G04 #@! TD*
D21*
G04 #@! TO.P,U2,8*
G04 #@! TO.N,/SS*
X121579000Y-94672000D03*
G04 #@! TO.P,U2,1*
G04 #@! TO.N,+3V3*
X121579000Y-108672000D03*
G04 #@! TO.P,U2,2*
G04 #@! TO.N,GND*
X121579000Y-106672000D03*
G04 #@! TO.P,U2,3*
G04 #@! TO.N,/MOSI*
X121579000Y-104672000D03*
G04 #@! TO.P,U2,4*
G04 #@! TO.N,/SCK*
X121579000Y-102672000D03*
G04 #@! TO.P,U2,5*
G04 #@! TO.N,/MISO*
X121579000Y-100672000D03*
G04 #@! TO.P,U2,6*
G04 #@! TO.N,Net-(U2-Pad6)*
X121579000Y-98672000D03*
G04 #@! TO.P,U2,7*
G04 #@! TO.N,/D2*
X121579000Y-96672000D03*
G04 #@! TD*
D22*
G04 #@! TO.P,PS1,3*
G04 #@! TO.N,GND*
X170262000Y-89326000D03*
G04 #@! TO.P,PS1,2*
G04 #@! TO.N,Net-(F2-Pad2)*
X170262000Y-127826000D03*
G04 #@! TO.P,PS1,4*
G04 #@! TO.N,+5V*
X162262000Y-89326000D03*
D23*
G04 #@! TO.P,PS1,1*
G04 #@! TO.N,Net-(J1-Pad1)*
X159512000Y-127826000D03*
G04 #@! TD*
D24*
G04 #@! TO.P,J2,1*
G04 #@! TO.N,Net-(J2-Pad1)*
X168402000Y-141034000D03*
X163402000Y-141034000D03*
D25*
G04 #@! TO.P,J2,2*
G04 #@! TO.N,Net-(J1-Pad1)*
X168402000Y-136034000D03*
X163402000Y-136034000D03*
G04 #@! TD*
G04 #@! TO.P,J3,2*
G04 #@! TO.N,GND*
X112252000Y-120252000D03*
X107252000Y-120252000D03*
D24*
G04 #@! TO.P,J3,1*
G04 #@! TO.N,/D3*
X112252000Y-115252000D03*
X107252000Y-115252000D03*
G04 #@! TD*
D14*
G04 #@! TO.P,C2,1*
G04 #@! TO.N,+5V*
X146685000Y-81597500D03*
G04 #@! TO.P,C2,2*
G04 #@! TO.N,GND*
X149185000Y-81597500D03*
G04 #@! TD*
D26*
G04 #@! TO.P,D2,1*
G04 #@! TO.N,+5V*
X125540000Y-114364000D03*
D15*
G04 #@! TO.P,D2,2*
G04 #@! TO.N,Net-(D2-Pad2)*
X125540000Y-121984000D03*
G04 #@! TD*
D27*
G04 #@! TO.P,K1,5*
G04 #@! TO.N,Net-(J2-Pad1)*
X133922000Y-143710000D03*
G04 #@! TO.P,K1,4*
G04 #@! TO.N,Net-(F2-Pad1)*
X133922000Y-138670000D03*
G04 #@! TO.P,K1,3*
G04 #@! TO.N,Net-(K1-Pad3)*
X133922000Y-133630000D03*
D28*
G04 #@! TO.P,K1,2*
G04 #@! TO.N,Net-(D2-Pad2)*
X133922000Y-121890000D03*
G04 #@! TO.P,K1,1*
G04 #@! TO.N,+5V*
X133922000Y-118110000D03*
G04 #@! TD*
D29*
G04 #@! TO.P,Q1,2*
G04 #@! TO.N,Net-(Q1-Pad2)*
X144590000Y-116713000D03*
G04 #@! TO.P,Q1,3*
G04 #@! TO.N,GND*
X144590000Y-115443000D03*
D30*
G04 #@! TO.P,Q1,1*
G04 #@! TO.N,Net-(D2-Pad2)*
X144590000Y-117983000D03*
G04 #@! TD*
D14*
G04 #@! TO.P,R2,1*
G04 #@! TO.N,/D16*
X144590000Y-102552000D03*
D15*
G04 #@! TO.P,R2,2*
G04 #@! TO.N,Net-(Q1-Pad2)*
X144590000Y-105092000D03*
G04 #@! TD*
D14*
G04 #@! TO.P,RV1,1*
G04 #@! TO.N,Net-(F2-Pad2)*
X145669000Y-127318000D03*
G04 #@! TO.P,RV1,2*
G04 #@! TO.N,Net-(J1-Pad1)*
X142669000Y-132318000D03*
G04 #@! TD*
D31*
G04 #@! TO.P,J4,1*
G04 #@! TO.N,/D3*
X121031000Y-118745000D03*
D32*
G04 #@! TO.P,J4,2*
G04 #@! TO.N,GND*
X121031000Y-121285000D03*
G04 #@! TD*
D33*
G04 #@! TO.N,+3V3*
X122621000Y-109934000D03*
G04 #@! TD*
D34*
G04 #@! TO.N,+3V3*
X121579000Y-108672000D02*
X105410000Y-92503000D01*
X105410000Y-92503000D02*
X105410000Y-89217500D01*
X140970000Y-90170000D02*
X140970000Y-90906400D01*
X140970000Y-90906400D02*
X139669000Y-92207100D01*
X139669000Y-92207100D02*
X139669000Y-93415600D01*
X139669000Y-93415600D02*
X139761000Y-93507600D01*
X139761000Y-93507600D02*
X139761000Y-94655100D01*
X139761000Y-94655100D02*
X134615000Y-99801700D01*
X134615000Y-99801700D02*
X134615000Y-107470000D01*
X134615000Y-107470000D02*
X126519000Y-115565000D01*
X126519000Y-115565000D02*
X124556000Y-115565000D01*
X124556000Y-115565000D02*
X122621000Y-113630000D01*
X122621000Y-113630000D02*
X122621000Y-109934000D01*
D35*
G04 #@! TO.N,GND*
X140970000Y-85090000D02*
X130810000Y-85090000D01*
X130810000Y-85090000D02*
X125730000Y-90170000D01*
G04 #@! TO.N,Net-(R1-Pad2)*
X125730000Y-97790000D02*
X125730000Y-97354100D01*
X125730000Y-97354100D02*
X117474000Y-89098600D01*
X117474000Y-89098600D02*
X111179000Y-89098600D01*
X111179000Y-89098600D02*
X106789000Y-84709000D01*
X106789000Y-84709000D02*
X105664000Y-84709000D01*
D36*
G04 #@! TO.N,GNDPWR*
X152684000Y-140732000D02*
X152684000Y-145732000D01*
D35*
G04 #@! TO.N,+5V*
X142195000Y-83775400D02*
X144507000Y-83775400D01*
X144507000Y-83775400D02*
X146685000Y-81597500D01*
X125540000Y-114364000D02*
X125540000Y-113239000D01*
X125540000Y-113239000D02*
X133995000Y-104784000D01*
X133995000Y-104784000D02*
X133995000Y-92857500D01*
X133995000Y-92857500D02*
X140492000Y-86360000D01*
X140492000Y-86360000D02*
X141450000Y-86360000D01*
X141450000Y-86360000D02*
X142195000Y-85614900D01*
X142195000Y-85614900D02*
X142195000Y-83775400D01*
X146685000Y-81597500D02*
X154414000Y-89326000D01*
X154414000Y-89326000D02*
X162262000Y-89326000D01*
X142195000Y-83775400D02*
X140970000Y-82550000D01*
G04 #@! TO.N,/D3*
X118275500Y-113392500D02*
X121031000Y-116148000D01*
X121031000Y-116148000D02*
X121031000Y-118745000D01*
X118275500Y-113392500D02*
X123441000Y-108227000D01*
X123441000Y-108227000D02*
X123441000Y-103412000D01*
X123441000Y-103412000D02*
X125253000Y-101600000D01*
X125253000Y-101600000D02*
X126234000Y-101600000D01*
X126234000Y-101600000D02*
X126994000Y-100840000D01*
X126994000Y-100840000D02*
X126994000Y-96513900D01*
X126994000Y-96513900D02*
X125730000Y-95250000D01*
X112252000Y-115252000D02*
X116416000Y-115252000D01*
X116416000Y-115252000D02*
X118275500Y-113392500D01*
G04 #@! TO.N,Net-(U1-Pad28)*
X138430000Y-110490000D02*
X139662000Y-109258000D01*
X139662000Y-109258000D02*
X139662000Y-102832000D01*
X139662000Y-102832000D02*
X138430000Y-101600000D01*
G04 #@! TO.N,Net-(U1-Pad27)*
X135890000Y-110490000D02*
X138430000Y-107950000D01*
X138430000Y-107950000D02*
X138430000Y-104140000D01*
D36*
G04 #@! TO.N,Net-(F2-Pad1)*
X147684000Y-140732000D02*
X147684000Y-145732000D01*
G04 #@! TO.N,Net-(J1-Pad1)*
X142684000Y-133196000D02*
X157289000Y-133196000D01*
X142669000Y-132318000D02*
X142684000Y-132333000D01*
X142684000Y-132333000D02*
X142684000Y-133196000D01*
X159512000Y-127826000D02*
X159512000Y-130972000D01*
X159512000Y-130972000D02*
X157289000Y-133196000D01*
X142684000Y-140732000D02*
X142684000Y-145732000D01*
X163402000Y-136034000D02*
X159652000Y-136034000D01*
X159652000Y-136034000D02*
X159652000Y-135558000D01*
X159652000Y-135558000D02*
X157289000Y-133196000D01*
X142684000Y-133196000D02*
X142684000Y-140732000D01*
D35*
G04 #@! TO.N,/D16*
X140970000Y-95250000D02*
X144590000Y-98870000D01*
X144590000Y-98870000D02*
X144590000Y-102552000D01*
G04 #@! TO.N,Net-(D2-Pad2)*
X133922000Y-121890000D02*
X126759000Y-121890000D01*
X126759000Y-121890000D02*
X126665000Y-121984000D01*
X126665000Y-121984000D02*
X125540000Y-121984000D01*
G04 #@! TO.N,Net-(Q1-Pad2)*
X144590000Y-116713000D02*
X143515000Y-116713000D01*
X143515000Y-116713000D02*
X143515000Y-107293000D01*
X143515000Y-107293000D02*
X144590000Y-106217000D01*
X144590000Y-106217000D02*
X144590000Y-105092000D01*
G04 #@! TD*
D37*
G04 #@! TO.N,GND*
G36*
X114394101Y-78846603D02*
X113596603Y-79644101D01*
X113165000Y-80686083D01*
X113165000Y-80835498D01*
X113009252Y-80835498D01*
X113168000Y-80676750D01*
X113168000Y-79936190D01*
X113071327Y-79702801D01*
X112892698Y-79524173D01*
X112659309Y-79427500D01*
X111918750Y-79427500D01*
X111760000Y-79586250D01*
X111760000Y-80835500D01*
X111780000Y-80835500D01*
X111780000Y-81089500D01*
X111760000Y-81089500D01*
X111760000Y-82338750D01*
X111918750Y-82497500D01*
X112659309Y-82497500D01*
X112892698Y-82400827D01*
X113071327Y-82222199D01*
X113168000Y-81988810D01*
X113168000Y-81821160D01*
X113596603Y-82855899D01*
X114394101Y-83653397D01*
X115436083Y-84085000D01*
X116563917Y-84085000D01*
X117605899Y-83653397D01*
X118403397Y-82855899D01*
X118835000Y-81813917D01*
X118835000Y-80686083D01*
X118403397Y-79644101D01*
X117605899Y-78846603D01*
X117276110Y-78710000D01*
X124191314Y-78710000D01*
X124502733Y-78761834D01*
X124728209Y-78883495D01*
X124902124Y-79071635D01*
X125011495Y-79319026D01*
X125040000Y-79544666D01*
X125040000Y-79819926D01*
X125048743Y-79863879D01*
X125092724Y-80212021D01*
X125104767Y-80252290D01*
X125108065Y-80294199D01*
X125147754Y-80410120D01*
X125346918Y-80860618D01*
X125377613Y-80907347D01*
X125399821Y-80958667D01*
X125443518Y-81015000D01*
X125424670Y-81015000D01*
X124860493Y-81248690D01*
X124428690Y-81680493D01*
X124195000Y-82244670D01*
X124195000Y-82855330D01*
X124428690Y-83419507D01*
X124829183Y-83820000D01*
X124428690Y-84220493D01*
X124195000Y-84784670D01*
X124195000Y-85395330D01*
X124428690Y-85959507D01*
X124829183Y-86360000D01*
X124428690Y-86760493D01*
X124195000Y-87324670D01*
X124195000Y-87935330D01*
X124428690Y-88499507D01*
X124860493Y-88931310D01*
X124880115Y-88939438D01*
X124829446Y-89089841D01*
X125730000Y-89990395D01*
X126630554Y-89089841D01*
X126579885Y-88939438D01*
X126599507Y-88931310D01*
X127031310Y-88499507D01*
X127265000Y-87935330D01*
X127265000Y-87324670D01*
X127031310Y-86760493D01*
X126630817Y-86360000D01*
X127031310Y-85959507D01*
X127265000Y-85395330D01*
X127265000Y-84784670D01*
X127031310Y-84220493D01*
X126630817Y-83820000D01*
X127031310Y-83419507D01*
X127265000Y-82855330D01*
X127265000Y-82244670D01*
X127144124Y-81952849D01*
X127180074Y-81960000D01*
X139552914Y-81960000D01*
X139435000Y-82244670D01*
X139435000Y-82855330D01*
X139668690Y-83419507D01*
X140100493Y-83851310D01*
X140120115Y-83859438D01*
X140069446Y-84009841D01*
X140970000Y-84910395D01*
X140984143Y-84896253D01*
X141163748Y-85075858D01*
X141149605Y-85090000D01*
X141163748Y-85104143D01*
X140984143Y-85283748D01*
X140970000Y-85269605D01*
X140955858Y-85283748D01*
X140776253Y-85104143D01*
X140790395Y-85090000D01*
X139889841Y-84189446D01*
X139633357Y-84275852D01*
X139423542Y-84849336D01*
X139449161Y-85459460D01*
X139633357Y-85904148D01*
X139812657Y-85964552D01*
X133510513Y-92267181D01*
X133447072Y-92309571D01*
X133404666Y-92373036D01*
X133404652Y-92373050D01*
X133356581Y-92445000D01*
X133279097Y-92560963D01*
X133279094Y-92560977D01*
X133279085Y-92560991D01*
X133248065Y-92716970D01*
X133235001Y-92782648D01*
X133235001Y-92782662D01*
X133220112Y-92857529D01*
X133235001Y-92932366D01*
X133235000Y-104469198D01*
X127265000Y-110439199D01*
X127265000Y-110184670D01*
X127031310Y-109620493D01*
X126630817Y-109220000D01*
X127031310Y-108819507D01*
X127265000Y-108255330D01*
X127265000Y-107644670D01*
X127031310Y-107080493D01*
X126630817Y-106680000D01*
X127031310Y-106279507D01*
X127265000Y-105715330D01*
X127265000Y-105104670D01*
X127031310Y-104540493D01*
X126630817Y-104140000D01*
X127031310Y-103739507D01*
X127265000Y-103175330D01*
X127265000Y-102564670D01*
X127031310Y-102000493D01*
X126969809Y-101938992D01*
X127478476Y-101430327D01*
X127541929Y-101387929D01*
X127584327Y-101324476D01*
X127584329Y-101324474D01*
X127709903Y-101136538D01*
X127709904Y-101136537D01*
X127754000Y-100914852D01*
X127754000Y-100914848D01*
X127768888Y-100840001D01*
X127754000Y-100765154D01*
X127754000Y-96588732D01*
X127768888Y-96513869D01*
X127742221Y-96379833D01*
X127709904Y-96217363D01*
X127709895Y-96217350D01*
X127709892Y-96217334D01*
X127620329Y-96083305D01*
X127541929Y-95965971D01*
X127478462Y-95923564D01*
X127219662Y-95664785D01*
X127265000Y-95555330D01*
X127265000Y-94944670D01*
X127031310Y-94380493D01*
X126630817Y-93980000D01*
X127031310Y-93579507D01*
X127265000Y-93015330D01*
X127265000Y-92404670D01*
X127031310Y-91840493D01*
X126599507Y-91408690D01*
X126579885Y-91400562D01*
X126630554Y-91250159D01*
X125730000Y-90349605D01*
X124829446Y-91250159D01*
X124880115Y-91400562D01*
X124860493Y-91408690D01*
X124428690Y-91840493D01*
X124195000Y-92404670D01*
X124195000Y-93015330D01*
X124428690Y-93579507D01*
X124829183Y-93980000D01*
X124428690Y-94380493D01*
X124253652Y-94803072D01*
X119379620Y-89929336D01*
X124183542Y-89929336D01*
X124209161Y-90539460D01*
X124393357Y-90984148D01*
X124649841Y-91070554D01*
X125550395Y-90170000D01*
X125909605Y-90170000D01*
X126810159Y-91070554D01*
X127066643Y-90984148D01*
X127276458Y-90410664D01*
X127250839Y-89800540D01*
X127066643Y-89355852D01*
X126810159Y-89269446D01*
X125909605Y-90170000D01*
X125550395Y-90170000D01*
X124649841Y-89269446D01*
X124393357Y-89355852D01*
X124183542Y-89929336D01*
X119379620Y-89929336D01*
X118064324Y-88614120D01*
X118021929Y-88550671D01*
X117958461Y-88508263D01*
X117958454Y-88508256D01*
X117910403Y-88476152D01*
X117770537Y-88382696D01*
X117770523Y-88382693D01*
X117770515Y-88382688D01*
X117654027Y-88359521D01*
X117548852Y-88338600D01*
X117548836Y-88338600D01*
X117473977Y-88323712D01*
X117399142Y-88338600D01*
X111493782Y-88338600D01*
X110633740Y-87478637D01*
X110960264Y-87343387D01*
X111058927Y-87076532D01*
X115613073Y-87076532D01*
X115711736Y-87343387D01*
X116321461Y-87569908D01*
X116971460Y-87545856D01*
X117460264Y-87343387D01*
X117558927Y-87076532D01*
X116586000Y-86103605D01*
X115613073Y-87076532D01*
X111058927Y-87076532D01*
X110086000Y-86103605D01*
X110071858Y-86117748D01*
X109892253Y-85938143D01*
X109906395Y-85924000D01*
X110265605Y-85924000D01*
X111238532Y-86896927D01*
X111505387Y-86798264D01*
X111731908Y-86188539D01*
X111712331Y-85659461D01*
X114940092Y-85659461D01*
X114964144Y-86309460D01*
X115166613Y-86798264D01*
X115433468Y-86896927D01*
X116406395Y-85924000D01*
X116765605Y-85924000D01*
X117738532Y-86896927D01*
X118005387Y-86798264D01*
X118231908Y-86188539D01*
X118207856Y-85538540D01*
X118005387Y-85049736D01*
X117738532Y-84951073D01*
X116765605Y-85924000D01*
X116406395Y-85924000D01*
X115433468Y-84951073D01*
X115166613Y-85049736D01*
X114940092Y-85659461D01*
X111712331Y-85659461D01*
X111707856Y-85538540D01*
X111505387Y-85049736D01*
X111238532Y-84951073D01*
X110265605Y-85924000D01*
X109906395Y-85924000D01*
X108933468Y-84951073D01*
X108666613Y-85049736D01*
X108541477Y-85386565D01*
X107926324Y-84771468D01*
X109113073Y-84771468D01*
X110086000Y-85744395D01*
X111058927Y-84771468D01*
X115613073Y-84771468D01*
X116586000Y-85744395D01*
X117558927Y-84771468D01*
X117460264Y-84504613D01*
X116850539Y-84278092D01*
X116200540Y-84302144D01*
X115711736Y-84504613D01*
X115613073Y-84771468D01*
X111058927Y-84771468D01*
X110960264Y-84504613D01*
X110350539Y-84278092D01*
X109700540Y-84302144D01*
X109211736Y-84504613D01*
X109113073Y-84771468D01*
X107926324Y-84771468D01*
X107379322Y-84224516D01*
X107336929Y-84161071D01*
X107273455Y-84118659D01*
X107273445Y-84118649D01*
X107223081Y-84085000D01*
X107085537Y-83993096D01*
X107085518Y-83993092D01*
X107085504Y-83993083D01*
X106953192Y-83966771D01*
X106884832Y-83953173D01*
X106698577Y-83674423D01*
X106346832Y-83439394D01*
X106476862Y-83385534D01*
X106880534Y-82981862D01*
X107099000Y-82454439D01*
X107099000Y-81883561D01*
X106880534Y-81356138D01*
X106476862Y-80952466D01*
X105949439Y-80734000D01*
X105378561Y-80734000D01*
X104851138Y-80952466D01*
X104447466Y-81356138D01*
X104229000Y-81883561D01*
X104229000Y-82454439D01*
X104447466Y-82981862D01*
X104851138Y-83385534D01*
X104981168Y-83439394D01*
X104629423Y-83674423D01*
X104312260Y-84149091D01*
X104200887Y-84709000D01*
X104312260Y-85268909D01*
X104629423Y-85743577D01*
X105104091Y-86060740D01*
X105522667Y-86144000D01*
X105805333Y-86144000D01*
X106223909Y-86060740D01*
X106698577Y-85743577D01*
X106718701Y-85713460D01*
X109794521Y-88789000D01*
X109760778Y-88789000D01*
X109159847Y-89037914D01*
X108699914Y-89497847D01*
X108451000Y-90098778D01*
X108451000Y-90749222D01*
X108699914Y-91350153D01*
X109159847Y-91810086D01*
X109760778Y-92059000D01*
X110411222Y-92059000D01*
X111012153Y-91810086D01*
X111472086Y-91350153D01*
X111721000Y-90749222D01*
X111721000Y-90098778D01*
X111621515Y-89858600D01*
X115050485Y-89858600D01*
X114951000Y-90098778D01*
X114951000Y-90749222D01*
X115199914Y-91350153D01*
X115659847Y-91810086D01*
X116260778Y-92059000D01*
X116911222Y-92059000D01*
X117512153Y-91810086D01*
X117972086Y-91350153D01*
X118170885Y-90870211D01*
X120854854Y-93554018D01*
X120836945Y-93561436D01*
X120468436Y-93929945D01*
X120269000Y-94411425D01*
X120269000Y-94932575D01*
X120468436Y-95414055D01*
X120726381Y-95672000D01*
X120468436Y-95929945D01*
X120269000Y-96411425D01*
X120269000Y-96932575D01*
X120468436Y-97414055D01*
X120726381Y-97672000D01*
X120468436Y-97929945D01*
X120269000Y-98411425D01*
X120269000Y-98932575D01*
X120468436Y-99414055D01*
X120726381Y-99672000D01*
X120468436Y-99929945D01*
X120269000Y-100411425D01*
X120269000Y-100932575D01*
X120468436Y-101414055D01*
X120726381Y-101672000D01*
X120468436Y-101929945D01*
X120269000Y-102411425D01*
X120269000Y-102932575D01*
X120468436Y-103414055D01*
X120726381Y-103672000D01*
X120468436Y-103929945D01*
X120269000Y-104411425D01*
X120269000Y-104932575D01*
X120468436Y-105414055D01*
X120836945Y-105782564D01*
X120891955Y-105805350D01*
X121579000Y-106492395D01*
X122266045Y-105805350D01*
X122321055Y-105782564D01*
X122681001Y-105422618D01*
X122681000Y-105981041D01*
X122496147Y-105934458D01*
X121758605Y-106672000D01*
X122496147Y-107409542D01*
X122681000Y-107362959D01*
X122681000Y-107912198D01*
X122676409Y-107916790D01*
X122321055Y-107561436D01*
X122266045Y-107538650D01*
X121579000Y-106851605D01*
X121564858Y-106865748D01*
X121385253Y-106686143D01*
X121399395Y-106672000D01*
X120661853Y-105934458D01*
X120428672Y-105993219D01*
X120329376Y-106276863D01*
X106220000Y-92167488D01*
X106220000Y-90423169D01*
X106257765Y-90415657D01*
X106467809Y-90275309D01*
X106608157Y-90065265D01*
X106657440Y-89817500D01*
X106657440Y-88617500D01*
X106608157Y-88369735D01*
X106531291Y-88254698D01*
X106657807Y-87886464D01*
X106627482Y-87396087D01*
X106498164Y-87083883D01*
X106272735Y-87034370D01*
X105589605Y-87717500D01*
X105603748Y-87731643D01*
X105424143Y-87911248D01*
X105410000Y-87897105D01*
X105395858Y-87911248D01*
X105216253Y-87731643D01*
X105230395Y-87717500D01*
X104547265Y-87034370D01*
X104321836Y-87083883D01*
X104162193Y-87548536D01*
X104192518Y-88038913D01*
X104284505Y-88260990D01*
X104211843Y-88369735D01*
X104162560Y-88617500D01*
X104162560Y-89817500D01*
X104211843Y-90065265D01*
X104352191Y-90275309D01*
X104562235Y-90415657D01*
X104600001Y-90423169D01*
X104600000Y-92423227D01*
X104584132Y-92503000D01*
X104600000Y-92582773D01*
X104646997Y-92819045D01*
X104826023Y-93086977D01*
X104893656Y-93132168D01*
X120269000Y-108507513D01*
X120269000Y-108932575D01*
X120468436Y-109414055D01*
X120823790Y-109769409D01*
X117791029Y-112802170D01*
X117727571Y-112844571D01*
X117685172Y-112908026D01*
X116101199Y-114492000D01*
X114397451Y-114492000D01*
X114350157Y-114254235D01*
X114209809Y-114044191D01*
X113999765Y-113903843D01*
X113752000Y-113854560D01*
X110752000Y-113854560D01*
X110504235Y-113903843D01*
X110294191Y-114044191D01*
X110153843Y-114254235D01*
X110104560Y-114502000D01*
X110104560Y-116002000D01*
X110153843Y-116249765D01*
X110294191Y-116459809D01*
X110504235Y-116600157D01*
X110752000Y-116649440D01*
X113752000Y-116649440D01*
X113999765Y-116600157D01*
X114209809Y-116459809D01*
X114350157Y-116249765D01*
X114397451Y-116012000D01*
X116341153Y-116012000D01*
X116416000Y-116026888D01*
X116490847Y-116012000D01*
X116490852Y-116012000D01*
X116712537Y-115967904D01*
X116963929Y-115799929D01*
X117006331Y-115736470D01*
X118275500Y-114467302D01*
X120271000Y-116462803D01*
X120271000Y-117247560D01*
X120181000Y-117247560D01*
X119933235Y-117296843D01*
X119723191Y-117437191D01*
X119582843Y-117647235D01*
X119533560Y-117895000D01*
X119533560Y-119595000D01*
X119582843Y-119842765D01*
X119723191Y-120052809D01*
X119933235Y-120193157D01*
X120036708Y-120213739D01*
X119759355Y-120518076D01*
X119589524Y-120928110D01*
X119710845Y-121158000D01*
X120904000Y-121158000D01*
X120904000Y-121138000D01*
X121158000Y-121138000D01*
X121158000Y-121158000D01*
X122351155Y-121158000D01*
X122472476Y-120928110D01*
X122302645Y-120518076D01*
X122025292Y-120213739D01*
X122128765Y-120193157D01*
X122338809Y-120052809D01*
X122479157Y-119842765D01*
X122528440Y-119595000D01*
X122528440Y-117895000D01*
X122516408Y-117834506D01*
X132537000Y-117834506D01*
X132537000Y-118385494D01*
X132747853Y-118894540D01*
X133137460Y-119284147D01*
X133646506Y-119495000D01*
X134197494Y-119495000D01*
X134706540Y-119284147D01*
X135096147Y-118894540D01*
X135307000Y-118385494D01*
X135307000Y-117834506D01*
X135096147Y-117325460D01*
X134706540Y-116935853D01*
X134197494Y-116725000D01*
X133646506Y-116725000D01*
X133137460Y-116935853D01*
X132747853Y-117325460D01*
X132537000Y-117834506D01*
X122516408Y-117834506D01*
X122479157Y-117647235D01*
X122338809Y-117437191D01*
X122128765Y-117296843D01*
X121881000Y-117247560D01*
X121791000Y-117247560D01*
X121791000Y-116222846D01*
X121805888Y-116147999D01*
X121791000Y-116073152D01*
X121791000Y-116073148D01*
X121746904Y-115851463D01*
X121687232Y-115762157D01*
X121621329Y-115663526D01*
X121621327Y-115663524D01*
X121578929Y-115600071D01*
X121515476Y-115557673D01*
X119350301Y-113392500D01*
X121811001Y-110931801D01*
X121811000Y-113550227D01*
X121795132Y-113630000D01*
X121811000Y-113709773D01*
X121857997Y-113946045D01*
X122037023Y-114213977D01*
X122104656Y-114259168D01*
X123926834Y-116081347D01*
X123972023Y-116148977D01*
X124239954Y-116328003D01*
X124476226Y-116375000D01*
X124555999Y-116390868D01*
X124635772Y-116375000D01*
X126439201Y-116375000D01*
X126518949Y-116390868D01*
X126598749Y-116375000D01*
X126598774Y-116375000D01*
X126680069Y-116358829D01*
X126834999Y-116328022D01*
X126835020Y-116328008D01*
X126835046Y-116328003D01*
X126978076Y-116232433D01*
X127035308Y-116194197D01*
X127035323Y-116194182D01*
X127102977Y-116148977D01*
X127148154Y-116081365D01*
X135131326Y-108099180D01*
X135198977Y-108053977D01*
X135289800Y-107918051D01*
X135377983Y-107786094D01*
X135377988Y-107786068D01*
X135378003Y-107786046D01*
X135409730Y-107626544D01*
X135440868Y-107470051D01*
X135425000Y-107390251D01*
X135425000Y-100137185D01*
X139602350Y-95959349D01*
X139668690Y-96119507D01*
X140069183Y-96520000D01*
X139668690Y-96920493D01*
X139435000Y-97484670D01*
X139435000Y-98095330D01*
X139668690Y-98659507D01*
X140069183Y-99060000D01*
X139668690Y-99460493D01*
X139435000Y-100024670D01*
X139435000Y-100434183D01*
X139299507Y-100298690D01*
X138735330Y-100065000D01*
X138124670Y-100065000D01*
X137560493Y-100298690D01*
X137128690Y-100730493D01*
X136895000Y-101294670D01*
X136895000Y-101905330D01*
X137128690Y-102469507D01*
X137529183Y-102870000D01*
X137128690Y-103270493D01*
X136895000Y-103834670D01*
X136895000Y-104445330D01*
X137128690Y-105009507D01*
X137560493Y-105441310D01*
X137670001Y-105486670D01*
X137670000Y-107635197D01*
X136304838Y-109000360D01*
X136195330Y-108955000D01*
X135584670Y-108955000D01*
X135020493Y-109188690D01*
X134588690Y-109620493D01*
X134355000Y-110184670D01*
X134355000Y-110795330D01*
X134588690Y-111359507D01*
X135020493Y-111791310D01*
X135584670Y-112025000D01*
X136195330Y-112025000D01*
X136759507Y-111791310D01*
X137160000Y-111390817D01*
X137560493Y-111791310D01*
X138124670Y-112025000D01*
X138735330Y-112025000D01*
X139299507Y-111791310D01*
X139700000Y-111390817D01*
X140100493Y-111791310D01*
X140664670Y-112025000D01*
X141275330Y-112025000D01*
X141839507Y-111791310D01*
X142271310Y-111359507D01*
X142505000Y-110795330D01*
X142505000Y-110184670D01*
X142271310Y-109620493D01*
X141870817Y-109220000D01*
X142271310Y-108819507D01*
X142505000Y-108255330D01*
X142505000Y-107644670D01*
X142271310Y-107080493D01*
X141870817Y-106680000D01*
X142271310Y-106279507D01*
X142505000Y-105715330D01*
X142505000Y-105104670D01*
X142271310Y-104540493D01*
X141870817Y-104140000D01*
X142271310Y-103739507D01*
X142505000Y-103175330D01*
X142505000Y-102564670D01*
X142271310Y-102000493D01*
X141870817Y-101600000D01*
X142271310Y-101199507D01*
X142505000Y-100635330D01*
X142505000Y-100024670D01*
X142271310Y-99460493D01*
X141870817Y-99060000D01*
X142271310Y-98659507D01*
X142505000Y-98095330D01*
X142505000Y-97859802D01*
X143830000Y-99184802D01*
X143830001Y-101313570D01*
X143777138Y-101335466D01*
X143373466Y-101739138D01*
X143155000Y-102266561D01*
X143155000Y-102837439D01*
X143373466Y-103364862D01*
X143777138Y-103768534D01*
X143907168Y-103822394D01*
X143555423Y-104057423D01*
X143238260Y-104532091D01*
X143126887Y-105092000D01*
X143238260Y-105651909D01*
X143555423Y-106126577D01*
X143585775Y-106146857D01*
X143030378Y-106702771D01*
X142967072Y-106745071D01*
X142924574Y-106808674D01*
X142924446Y-106808802D01*
X142882620Y-106871462D01*
X142799097Y-106996463D01*
X142799061Y-106996643D01*
X142798959Y-106996796D01*
X142769509Y-107145209D01*
X142755001Y-107218148D01*
X142755001Y-107218326D01*
X142740112Y-107293360D01*
X142755001Y-107368030D01*
X142755000Y-116638148D01*
X142740111Y-116713000D01*
X142799096Y-117009537D01*
X142903380Y-117165609D01*
X142967071Y-117260929D01*
X143200707Y-117417040D01*
X143192560Y-117458000D01*
X143192560Y-118508000D01*
X143241843Y-118755765D01*
X143382191Y-118965809D01*
X143592235Y-119106157D01*
X143840000Y-119155440D01*
X145340000Y-119155440D01*
X145587765Y-119106157D01*
X145797809Y-118965809D01*
X145938157Y-118755765D01*
X145987440Y-118508000D01*
X145987440Y-117458000D01*
X145938157Y-117210235D01*
X145907843Y-117164867D01*
X145997725Y-116713000D01*
X145907695Y-116260391D01*
X145779146Y-116068004D01*
X145925266Y-115810336D01*
X145933964Y-115748810D01*
X145808163Y-115570000D01*
X145014710Y-115570000D01*
X144929246Y-115553000D01*
X144443000Y-115553000D01*
X144443000Y-115316000D01*
X144463000Y-115316000D01*
X144463000Y-114436407D01*
X144717000Y-114436407D01*
X144717000Y-115316000D01*
X145808163Y-115316000D01*
X145933964Y-115137190D01*
X145925266Y-115075664D01*
X145700179Y-114678745D01*
X145340331Y-114398177D01*
X144900506Y-114276674D01*
X144717000Y-114436407D01*
X144463000Y-114436407D01*
X144279494Y-114276674D01*
X144275000Y-114277915D01*
X144275000Y-107607595D01*
X145074623Y-106807229D01*
X145137929Y-106764929D01*
X145180427Y-106701326D01*
X145180554Y-106701199D01*
X145222052Y-106639031D01*
X145305904Y-106513537D01*
X145305940Y-106513356D01*
X145306041Y-106513205D01*
X145335121Y-106366651D01*
X145345827Y-106312832D01*
X145624577Y-106126577D01*
X145941740Y-105651909D01*
X146053113Y-105092000D01*
X145941740Y-104532091D01*
X145624577Y-104057423D01*
X145272832Y-103822394D01*
X145402862Y-103768534D01*
X145806534Y-103364862D01*
X146025000Y-102837439D01*
X146025000Y-102266561D01*
X145806534Y-101739138D01*
X145402862Y-101335466D01*
X145350000Y-101313570D01*
X145350000Y-98944846D01*
X145364888Y-98869999D01*
X145350000Y-98795152D01*
X145350000Y-98795148D01*
X145305904Y-98573463D01*
X145137929Y-98322071D01*
X145074473Y-98279671D01*
X142459640Y-95664839D01*
X142505000Y-95555330D01*
X142505000Y-94944670D01*
X142271310Y-94380493D01*
X141870817Y-93980000D01*
X142271310Y-93579507D01*
X142505000Y-93015330D01*
X142505000Y-92404670D01*
X142271310Y-91840493D01*
X141870817Y-91440000D01*
X142271310Y-91039507D01*
X142505000Y-90475330D01*
X142505000Y-89864670D01*
X142271310Y-89300493D01*
X141870817Y-88900000D01*
X142271310Y-88499507D01*
X142505000Y-87935330D01*
X142505000Y-87324670D01*
X142271310Y-86760493D01*
X142197795Y-86686978D01*
X142679497Y-86205213D01*
X142742929Y-86162829D01*
X142785341Y-86099355D01*
X142785362Y-86099334D01*
X142830399Y-86031921D01*
X142910904Y-85911437D01*
X142910909Y-85911411D01*
X142910923Y-85911390D01*
X142939099Y-85769690D01*
X142955000Y-85689752D01*
X142955000Y-85689722D01*
X142969888Y-85614848D01*
X142955000Y-85540026D01*
X142955000Y-84535400D01*
X144432144Y-84535400D01*
X144506983Y-84550288D01*
X144581839Y-84535400D01*
X144581852Y-84535400D01*
X144693010Y-84513289D01*
X144803520Y-84491310D01*
X144803526Y-84491306D01*
X144803537Y-84491304D01*
X144947374Y-84395195D01*
X144991459Y-84365740D01*
X144991464Y-84365735D01*
X145054929Y-84323329D01*
X145097325Y-84259879D01*
X146346670Y-83010592D01*
X146399561Y-83032500D01*
X146970439Y-83032500D01*
X147023342Y-83010587D01*
X153823679Y-89810485D01*
X153866071Y-89873929D01*
X153929536Y-89916335D01*
X153929546Y-89916345D01*
X153998476Y-89962399D01*
X154117463Y-90041904D01*
X154117475Y-90041906D01*
X154117485Y-90041913D01*
X154246561Y-90067583D01*
X154339148Y-90086000D01*
X154339165Y-90086000D01*
X154414025Y-90100888D01*
X154488860Y-90086000D01*
X160265895Y-90086000D01*
X160452034Y-90535380D01*
X161052620Y-91135966D01*
X161837322Y-91461000D01*
X162686678Y-91461000D01*
X163471380Y-91135966D01*
X163767376Y-90839970D01*
X168927635Y-90839970D01*
X169087418Y-91158739D01*
X169878187Y-91468723D01*
X170727387Y-91452497D01*
X171436582Y-91158739D01*
X171596365Y-90839970D01*
X170262000Y-89505605D01*
X168927635Y-90839970D01*
X163767376Y-90839970D01*
X164071966Y-90535380D01*
X164397000Y-89750678D01*
X164397000Y-88942187D01*
X168119277Y-88942187D01*
X168135503Y-89791387D01*
X168429261Y-90500582D01*
X168748030Y-90660365D01*
X170082395Y-89326000D01*
X170441605Y-89326000D01*
X171775970Y-90660365D01*
X172094739Y-90500582D01*
X172404723Y-89709813D01*
X172388497Y-88860613D01*
X172094739Y-88151418D01*
X171775970Y-87991635D01*
X170441605Y-89326000D01*
X170082395Y-89326000D01*
X168748030Y-87991635D01*
X168429261Y-88151418D01*
X168119277Y-88942187D01*
X164397000Y-88942187D01*
X164397000Y-88901322D01*
X164071966Y-88116620D01*
X163767376Y-87812030D01*
X168927635Y-87812030D01*
X170262000Y-89146395D01*
X171596365Y-87812030D01*
X171436582Y-87493261D01*
X170645813Y-87183277D01*
X169796613Y-87199503D01*
X169087418Y-87493261D01*
X168927635Y-87812030D01*
X163767376Y-87812030D01*
X163471380Y-87516034D01*
X162686678Y-87191000D01*
X161837322Y-87191000D01*
X161052620Y-87516034D01*
X160452034Y-88116620D01*
X160265895Y-88566000D01*
X154728787Y-88566000D01*
X149196033Y-83033604D01*
X149538454Y-83017278D01*
X149939005Y-82851364D01*
X150013139Y-82605245D01*
X149185000Y-81777105D01*
X149170858Y-81791248D01*
X148991252Y-81611642D01*
X149005395Y-81597500D01*
X149364605Y-81597500D01*
X150192745Y-82425639D01*
X150438864Y-82351505D01*
X150631965Y-81814277D01*
X150604778Y-81244046D01*
X150438864Y-80843495D01*
X150192745Y-80769361D01*
X149364605Y-81597500D01*
X149005395Y-81597500D01*
X148177255Y-80769361D01*
X147931136Y-80843495D01*
X147928710Y-80850246D01*
X147901534Y-80784638D01*
X147706651Y-80589755D01*
X148356861Y-80589755D01*
X149185000Y-81417895D01*
X150013139Y-80589755D01*
X149939005Y-80343636D01*
X149401777Y-80150535D01*
X148831546Y-80177722D01*
X148430995Y-80343636D01*
X148356861Y-80589755D01*
X147706651Y-80589755D01*
X147497862Y-80380966D01*
X146970439Y-80162500D01*
X146399561Y-80162500D01*
X145872138Y-80380966D01*
X145468466Y-80784638D01*
X145250000Y-81312061D01*
X145250000Y-81882939D01*
X145271885Y-81935773D01*
X144192209Y-83015400D01*
X142509875Y-83015400D01*
X142459549Y-82965058D01*
X142505000Y-82855330D01*
X142505000Y-82244670D01*
X142271310Y-81680493D01*
X141839507Y-81248690D01*
X141298261Y-81024498D01*
X141310069Y-81006521D01*
X141310078Y-81006510D01*
X141310080Y-81006505D01*
X141543974Y-80573023D01*
X141562085Y-80520123D01*
X141589022Y-80471126D01*
X141619493Y-80352449D01*
X141698539Y-79877545D01*
X141710000Y-79819925D01*
X141710000Y-79558686D01*
X141761834Y-79247267D01*
X141883495Y-79021791D01*
X142071635Y-78847876D01*
X142319026Y-78738505D01*
X142544666Y-78710000D01*
X159723890Y-78710000D01*
X159394101Y-78846603D01*
X158596603Y-79644101D01*
X158165000Y-80686083D01*
X158165000Y-81813917D01*
X158596603Y-82855899D01*
X159394101Y-83653397D01*
X160436083Y-84085000D01*
X161563917Y-84085000D01*
X162605899Y-83653397D01*
X163403397Y-82855899D01*
X163835000Y-81813917D01*
X163835000Y-80686083D01*
X163403397Y-79644101D01*
X162605899Y-78846603D01*
X162276110Y-78710000D01*
X168973650Y-78710000D01*
X169929435Y-78781027D01*
X170838443Y-78986715D01*
X171707075Y-79324507D01*
X172516227Y-79786976D01*
X173248141Y-80363971D01*
X173886727Y-81042806D01*
X174417960Y-81808576D01*
X174830172Y-82644459D01*
X175114303Y-83532086D01*
X175265865Y-84462710D01*
X175290001Y-85015509D01*
X175290000Y-119253000D01*
X139700000Y-119253000D01*
X139651399Y-119262667D01*
X139610197Y-119290197D01*
X135202394Y-123698000D01*
X101710000Y-123698000D01*
X101710000Y-121641890D01*
X119589524Y-121641890D01*
X119759355Y-122051924D01*
X120149642Y-122480183D01*
X120674108Y-122726486D01*
X120904000Y-122605819D01*
X120904000Y-121412000D01*
X121158000Y-121412000D01*
X121158000Y-122605819D01*
X121387892Y-122726486D01*
X121912358Y-122480183D01*
X122302645Y-122051924D01*
X122330778Y-121984000D01*
X124076887Y-121984000D01*
X124188260Y-122543909D01*
X124505423Y-123018577D01*
X124980091Y-123335740D01*
X125398667Y-123419000D01*
X125681333Y-123419000D01*
X126099909Y-123335740D01*
X126574577Y-123018577D01*
X126760832Y-122739827D01*
X126961537Y-122699904D01*
X127036224Y-122650000D01*
X132737688Y-122650000D01*
X132747853Y-122674540D01*
X133137460Y-123064147D01*
X133646506Y-123275000D01*
X134197494Y-123275000D01*
X134706540Y-123064147D01*
X135096147Y-122674540D01*
X135307000Y-122165494D01*
X135307000Y-121614506D01*
X135096147Y-121105460D01*
X134706540Y-120715853D01*
X134197494Y-120505000D01*
X133646506Y-120505000D01*
X133137460Y-120715853D01*
X132747853Y-121105460D01*
X132737688Y-121130000D01*
X126833846Y-121130000D01*
X126758999Y-121115112D01*
X126693935Y-121128054D01*
X126574577Y-120949423D01*
X126099909Y-120632260D01*
X125681333Y-120549000D01*
X125398667Y-120549000D01*
X124980091Y-120632260D01*
X124505423Y-120949423D01*
X124188260Y-121424091D01*
X124076887Y-121984000D01*
X122330778Y-121984000D01*
X122472476Y-121641890D01*
X122351155Y-121412000D01*
X121158000Y-121412000D01*
X120904000Y-121412000D01*
X119710845Y-121412000D01*
X119589524Y-121641890D01*
X101710000Y-121641890D01*
X101710000Y-120593185D01*
X105159682Y-120593185D01*
X105173827Y-120664684D01*
X105432855Y-121141540D01*
X105854651Y-121482972D01*
X106375000Y-121637000D01*
X107125000Y-121637000D01*
X107125000Y-120379000D01*
X107379000Y-120379000D01*
X107379000Y-121637000D01*
X108129000Y-121637000D01*
X108649349Y-121482972D01*
X109071145Y-121141540D01*
X109330173Y-120664684D01*
X109344318Y-120593185D01*
X110159682Y-120593185D01*
X110173827Y-120664684D01*
X110432855Y-121141540D01*
X110854651Y-121482972D01*
X111375000Y-121637000D01*
X112125000Y-121637000D01*
X112125000Y-120379000D01*
X112379000Y-120379000D01*
X112379000Y-121637000D01*
X113129000Y-121637000D01*
X113649349Y-121482972D01*
X114071145Y-121141540D01*
X114330173Y-120664684D01*
X114344318Y-120593185D01*
X114221656Y-120379000D01*
X112379000Y-120379000D01*
X112125000Y-120379000D01*
X110282344Y-120379000D01*
X110159682Y-120593185D01*
X109344318Y-120593185D01*
X109221656Y-120379000D01*
X107379000Y-120379000D01*
X107125000Y-120379000D01*
X105282344Y-120379000D01*
X105159682Y-120593185D01*
X101710000Y-120593185D01*
X101710000Y-119910815D01*
X105159682Y-119910815D01*
X105282344Y-120125000D01*
X107125000Y-120125000D01*
X107125000Y-118867000D01*
X107379000Y-118867000D01*
X107379000Y-120125000D01*
X109221656Y-120125000D01*
X109344318Y-119910815D01*
X110159682Y-119910815D01*
X110282344Y-120125000D01*
X112125000Y-120125000D01*
X112125000Y-118867000D01*
X112379000Y-118867000D01*
X112379000Y-120125000D01*
X114221656Y-120125000D01*
X114344318Y-119910815D01*
X114330173Y-119839316D01*
X114071145Y-119362460D01*
X113649349Y-119021028D01*
X113129000Y-118867000D01*
X112379000Y-118867000D01*
X112125000Y-118867000D01*
X111375000Y-118867000D01*
X110854651Y-119021028D01*
X110432855Y-119362460D01*
X110173827Y-119839316D01*
X110159682Y-119910815D01*
X109344318Y-119910815D01*
X109330173Y-119839316D01*
X109071145Y-119362460D01*
X108649349Y-119021028D01*
X108129000Y-118867000D01*
X107379000Y-118867000D01*
X107125000Y-118867000D01*
X106375000Y-118867000D01*
X105854651Y-119021028D01*
X105432855Y-119362460D01*
X105173827Y-119839316D01*
X105159682Y-119910815D01*
X101710000Y-119910815D01*
X101710000Y-114502000D01*
X105104560Y-114502000D01*
X105104560Y-116002000D01*
X105153843Y-116249765D01*
X105294191Y-116459809D01*
X105504235Y-116600157D01*
X105752000Y-116649440D01*
X108752000Y-116649440D01*
X108999765Y-116600157D01*
X109209809Y-116459809D01*
X109350157Y-116249765D01*
X109399440Y-116002000D01*
X109399440Y-114502000D01*
X109350157Y-114254235D01*
X109209809Y-114044191D01*
X108999765Y-113903843D01*
X108752000Y-113854560D01*
X105752000Y-113854560D01*
X105504235Y-113903843D01*
X105294191Y-114044191D01*
X105153843Y-114254235D01*
X105104560Y-114502000D01*
X101710000Y-114502000D01*
X101710000Y-100302887D01*
X101833000Y-100302887D01*
X101833000Y-100993113D01*
X102097138Y-101630799D01*
X102585201Y-102118862D01*
X103222887Y-102383000D01*
X103913113Y-102383000D01*
X104550799Y-102118862D01*
X105038862Y-101630799D01*
X105303000Y-100993113D01*
X105303000Y-100302887D01*
X105038862Y-99665201D01*
X104550799Y-99177138D01*
X103913113Y-98913000D01*
X103222887Y-98913000D01*
X102585201Y-99177138D01*
X102097138Y-99665201D01*
X101833000Y-100302887D01*
X101710000Y-100302887D01*
X101710000Y-86854765D01*
X104726870Y-86854765D01*
X105410000Y-87537895D01*
X106093130Y-86854765D01*
X106043617Y-86629336D01*
X105578964Y-86469693D01*
X105088587Y-86500018D01*
X104776383Y-86629336D01*
X104726870Y-86854765D01*
X101710000Y-86854765D01*
X101710000Y-85026350D01*
X101781027Y-84070565D01*
X101986715Y-83161557D01*
X102324507Y-82292925D01*
X102786976Y-81483773D01*
X103363971Y-80751859D01*
X103464628Y-80657170D01*
X107558000Y-80657170D01*
X107558000Y-81267830D01*
X107791690Y-81832007D01*
X108223493Y-82263810D01*
X108787670Y-82497500D01*
X109398330Y-82497500D01*
X109962507Y-82263810D01*
X110138861Y-82087456D01*
X110194673Y-82222199D01*
X110373302Y-82400827D01*
X110606691Y-82497500D01*
X111347250Y-82497500D01*
X111506000Y-82338750D01*
X111506000Y-81089500D01*
X111486000Y-81089500D01*
X111486000Y-80835500D01*
X111506000Y-80835500D01*
X111506000Y-79586250D01*
X111347250Y-79427500D01*
X110606691Y-79427500D01*
X110373302Y-79524173D01*
X110194673Y-79702801D01*
X110138861Y-79837544D01*
X109962507Y-79661190D01*
X109398330Y-79427500D01*
X108787670Y-79427500D01*
X108223493Y-79661190D01*
X107791690Y-80092993D01*
X107558000Y-80657170D01*
X103464628Y-80657170D01*
X104042806Y-80113273D01*
X104808576Y-79582040D01*
X105644459Y-79169828D01*
X106532086Y-78885697D01*
X107462710Y-78734135D01*
X108015486Y-78710000D01*
X114723890Y-78710000D01*
X114394101Y-78846603D01*
X114394101Y-78846603D01*
G37*
X114394101Y-78846603D02*
X113596603Y-79644101D01*
X113165000Y-80686083D01*
X113165000Y-80835498D01*
X113009252Y-80835498D01*
X113168000Y-80676750D01*
X113168000Y-79936190D01*
X113071327Y-79702801D01*
X112892698Y-79524173D01*
X112659309Y-79427500D01*
X111918750Y-79427500D01*
X111760000Y-79586250D01*
X111760000Y-80835500D01*
X111780000Y-80835500D01*
X111780000Y-81089500D01*
X111760000Y-81089500D01*
X111760000Y-82338750D01*
X111918750Y-82497500D01*
X112659309Y-82497500D01*
X112892698Y-82400827D01*
X113071327Y-82222199D01*
X113168000Y-81988810D01*
X113168000Y-81821160D01*
X113596603Y-82855899D01*
X114394101Y-83653397D01*
X115436083Y-84085000D01*
X116563917Y-84085000D01*
X117605899Y-83653397D01*
X118403397Y-82855899D01*
X118835000Y-81813917D01*
X118835000Y-80686083D01*
X118403397Y-79644101D01*
X117605899Y-78846603D01*
X117276110Y-78710000D01*
X124191314Y-78710000D01*
X124502733Y-78761834D01*
X124728209Y-78883495D01*
X124902124Y-79071635D01*
X125011495Y-79319026D01*
X125040000Y-79544666D01*
X125040000Y-79819926D01*
X125048743Y-79863879D01*
X125092724Y-80212021D01*
X125104767Y-80252290D01*
X125108065Y-80294199D01*
X125147754Y-80410120D01*
X125346918Y-80860618D01*
X125377613Y-80907347D01*
X125399821Y-80958667D01*
X125443518Y-81015000D01*
X125424670Y-81015000D01*
X124860493Y-81248690D01*
X124428690Y-81680493D01*
X124195000Y-82244670D01*
X124195000Y-82855330D01*
X124428690Y-83419507D01*
X124829183Y-83820000D01*
X124428690Y-84220493D01*
X124195000Y-84784670D01*
X124195000Y-85395330D01*
X124428690Y-85959507D01*
X124829183Y-86360000D01*
X124428690Y-86760493D01*
X124195000Y-87324670D01*
X124195000Y-87935330D01*
X124428690Y-88499507D01*
X124860493Y-88931310D01*
X124880115Y-88939438D01*
X124829446Y-89089841D01*
X125730000Y-89990395D01*
X126630554Y-89089841D01*
X126579885Y-88939438D01*
X126599507Y-88931310D01*
X127031310Y-88499507D01*
X127265000Y-87935330D01*
X127265000Y-87324670D01*
X127031310Y-86760493D01*
X126630817Y-86360000D01*
X127031310Y-85959507D01*
X127265000Y-85395330D01*
X127265000Y-84784670D01*
X127031310Y-84220493D01*
X126630817Y-83820000D01*
X127031310Y-83419507D01*
X127265000Y-82855330D01*
X127265000Y-82244670D01*
X127144124Y-81952849D01*
X127180074Y-81960000D01*
X139552914Y-81960000D01*
X139435000Y-82244670D01*
X139435000Y-82855330D01*
X139668690Y-83419507D01*
X140100493Y-83851310D01*
X140120115Y-83859438D01*
X140069446Y-84009841D01*
X140970000Y-84910395D01*
X140984143Y-84896253D01*
X141163748Y-85075858D01*
X141149605Y-85090000D01*
X141163748Y-85104143D01*
X140984143Y-85283748D01*
X140970000Y-85269605D01*
X140955858Y-85283748D01*
X140776253Y-85104143D01*
X140790395Y-85090000D01*
X139889841Y-84189446D01*
X139633357Y-84275852D01*
X139423542Y-84849336D01*
X139449161Y-85459460D01*
X139633357Y-85904148D01*
X139812657Y-85964552D01*
X133510513Y-92267181D01*
X133447072Y-92309571D01*
X133404666Y-92373036D01*
X133404652Y-92373050D01*
X133356581Y-92445000D01*
X133279097Y-92560963D01*
X133279094Y-92560977D01*
X133279085Y-92560991D01*
X133248065Y-92716970D01*
X133235001Y-92782648D01*
X133235001Y-92782662D01*
X133220112Y-92857529D01*
X133235001Y-92932366D01*
X133235000Y-104469198D01*
X127265000Y-110439199D01*
X127265000Y-110184670D01*
X127031310Y-109620493D01*
X126630817Y-109220000D01*
X127031310Y-108819507D01*
X127265000Y-108255330D01*
X127265000Y-107644670D01*
X127031310Y-107080493D01*
X126630817Y-106680000D01*
X127031310Y-106279507D01*
X127265000Y-105715330D01*
X127265000Y-105104670D01*
X127031310Y-104540493D01*
X126630817Y-104140000D01*
X127031310Y-103739507D01*
X127265000Y-103175330D01*
X127265000Y-102564670D01*
X127031310Y-102000493D01*
X126969809Y-101938992D01*
X127478476Y-101430327D01*
X127541929Y-101387929D01*
X127584327Y-101324476D01*
X127584329Y-101324474D01*
X127709903Y-101136538D01*
X127709904Y-101136537D01*
X127754000Y-100914852D01*
X127754000Y-100914848D01*
X127768888Y-100840001D01*
X127754000Y-100765154D01*
X127754000Y-96588732D01*
X127768888Y-96513869D01*
X127742221Y-96379833D01*
X127709904Y-96217363D01*
X127709895Y-96217350D01*
X127709892Y-96217334D01*
X127620329Y-96083305D01*
X127541929Y-95965971D01*
X127478462Y-95923564D01*
X127219662Y-95664785D01*
X127265000Y-95555330D01*
X127265000Y-94944670D01*
X127031310Y-94380493D01*
X126630817Y-93980000D01*
X127031310Y-93579507D01*
X127265000Y-93015330D01*
X127265000Y-92404670D01*
X127031310Y-91840493D01*
X126599507Y-91408690D01*
X126579885Y-91400562D01*
X126630554Y-91250159D01*
X125730000Y-90349605D01*
X124829446Y-91250159D01*
X124880115Y-91400562D01*
X124860493Y-91408690D01*
X124428690Y-91840493D01*
X124195000Y-92404670D01*
X124195000Y-93015330D01*
X124428690Y-93579507D01*
X124829183Y-93980000D01*
X124428690Y-94380493D01*
X124253652Y-94803072D01*
X119379620Y-89929336D01*
X124183542Y-89929336D01*
X124209161Y-90539460D01*
X124393357Y-90984148D01*
X124649841Y-91070554D01*
X125550395Y-90170000D01*
X125909605Y-90170000D01*
X126810159Y-91070554D01*
X127066643Y-90984148D01*
X127276458Y-90410664D01*
X127250839Y-89800540D01*
X127066643Y-89355852D01*
X126810159Y-89269446D01*
X125909605Y-90170000D01*
X125550395Y-90170000D01*
X124649841Y-89269446D01*
X124393357Y-89355852D01*
X124183542Y-89929336D01*
X119379620Y-89929336D01*
X118064324Y-88614120D01*
X118021929Y-88550671D01*
X117958461Y-88508263D01*
X117958454Y-88508256D01*
X117910403Y-88476152D01*
X117770537Y-88382696D01*
X117770523Y-88382693D01*
X117770515Y-88382688D01*
X117654027Y-88359521D01*
X117548852Y-88338600D01*
X117548836Y-88338600D01*
X117473977Y-88323712D01*
X117399142Y-88338600D01*
X111493782Y-88338600D01*
X110633740Y-87478637D01*
X110960264Y-87343387D01*
X111058927Y-87076532D01*
X115613073Y-87076532D01*
X115711736Y-87343387D01*
X116321461Y-87569908D01*
X116971460Y-87545856D01*
X117460264Y-87343387D01*
X117558927Y-87076532D01*
X116586000Y-86103605D01*
X115613073Y-87076532D01*
X111058927Y-87076532D01*
X110086000Y-86103605D01*
X110071858Y-86117748D01*
X109892253Y-85938143D01*
X109906395Y-85924000D01*
X110265605Y-85924000D01*
X111238532Y-86896927D01*
X111505387Y-86798264D01*
X111731908Y-86188539D01*
X111712331Y-85659461D01*
X114940092Y-85659461D01*
X114964144Y-86309460D01*
X115166613Y-86798264D01*
X115433468Y-86896927D01*
X116406395Y-85924000D01*
X116765605Y-85924000D01*
X117738532Y-86896927D01*
X118005387Y-86798264D01*
X118231908Y-86188539D01*
X118207856Y-85538540D01*
X118005387Y-85049736D01*
X117738532Y-84951073D01*
X116765605Y-85924000D01*
X116406395Y-85924000D01*
X115433468Y-84951073D01*
X115166613Y-85049736D01*
X114940092Y-85659461D01*
X111712331Y-85659461D01*
X111707856Y-85538540D01*
X111505387Y-85049736D01*
X111238532Y-84951073D01*
X110265605Y-85924000D01*
X109906395Y-85924000D01*
X108933468Y-84951073D01*
X108666613Y-85049736D01*
X108541477Y-85386565D01*
X107926324Y-84771468D01*
X109113073Y-84771468D01*
X110086000Y-85744395D01*
X111058927Y-84771468D01*
X115613073Y-84771468D01*
X116586000Y-85744395D01*
X117558927Y-84771468D01*
X117460264Y-84504613D01*
X116850539Y-84278092D01*
X116200540Y-84302144D01*
X115711736Y-84504613D01*
X115613073Y-84771468D01*
X111058927Y-84771468D01*
X110960264Y-84504613D01*
X110350539Y-84278092D01*
X109700540Y-84302144D01*
X109211736Y-84504613D01*
X109113073Y-84771468D01*
X107926324Y-84771468D01*
X107379322Y-84224516D01*
X107336929Y-84161071D01*
X107273455Y-84118659D01*
X107273445Y-84118649D01*
X107223081Y-84085000D01*
X107085537Y-83993096D01*
X107085518Y-83993092D01*
X107085504Y-83993083D01*
X106953192Y-83966771D01*
X106884832Y-83953173D01*
X106698577Y-83674423D01*
X106346832Y-83439394D01*
X106476862Y-83385534D01*
X106880534Y-82981862D01*
X107099000Y-82454439D01*
X107099000Y-81883561D01*
X106880534Y-81356138D01*
X106476862Y-80952466D01*
X105949439Y-80734000D01*
X105378561Y-80734000D01*
X104851138Y-80952466D01*
X104447466Y-81356138D01*
X104229000Y-81883561D01*
X104229000Y-82454439D01*
X104447466Y-82981862D01*
X104851138Y-83385534D01*
X104981168Y-83439394D01*
X104629423Y-83674423D01*
X104312260Y-84149091D01*
X104200887Y-84709000D01*
X104312260Y-85268909D01*
X104629423Y-85743577D01*
X105104091Y-86060740D01*
X105522667Y-86144000D01*
X105805333Y-86144000D01*
X106223909Y-86060740D01*
X106698577Y-85743577D01*
X106718701Y-85713460D01*
X109794521Y-88789000D01*
X109760778Y-88789000D01*
X109159847Y-89037914D01*
X108699914Y-89497847D01*
X108451000Y-90098778D01*
X108451000Y-90749222D01*
X108699914Y-91350153D01*
X109159847Y-91810086D01*
X109760778Y-92059000D01*
X110411222Y-92059000D01*
X111012153Y-91810086D01*
X111472086Y-91350153D01*
X111721000Y-90749222D01*
X111721000Y-90098778D01*
X111621515Y-89858600D01*
X115050485Y-89858600D01*
X114951000Y-90098778D01*
X114951000Y-90749222D01*
X115199914Y-91350153D01*
X115659847Y-91810086D01*
X116260778Y-92059000D01*
X116911222Y-92059000D01*
X117512153Y-91810086D01*
X117972086Y-91350153D01*
X118170885Y-90870211D01*
X120854854Y-93554018D01*
X120836945Y-93561436D01*
X120468436Y-93929945D01*
X120269000Y-94411425D01*
X120269000Y-94932575D01*
X120468436Y-95414055D01*
X120726381Y-95672000D01*
X120468436Y-95929945D01*
X120269000Y-96411425D01*
X120269000Y-96932575D01*
X120468436Y-97414055D01*
X120726381Y-97672000D01*
X120468436Y-97929945D01*
X120269000Y-98411425D01*
X120269000Y-98932575D01*
X120468436Y-99414055D01*
X120726381Y-99672000D01*
X120468436Y-99929945D01*
X120269000Y-100411425D01*
X120269000Y-100932575D01*
X120468436Y-101414055D01*
X120726381Y-101672000D01*
X120468436Y-101929945D01*
X120269000Y-102411425D01*
X120269000Y-102932575D01*
X120468436Y-103414055D01*
X120726381Y-103672000D01*
X120468436Y-103929945D01*
X120269000Y-104411425D01*
X120269000Y-104932575D01*
X120468436Y-105414055D01*
X120836945Y-105782564D01*
X120891955Y-105805350D01*
X121579000Y-106492395D01*
X122266045Y-105805350D01*
X122321055Y-105782564D01*
X122681001Y-105422618D01*
X122681000Y-105981041D01*
X122496147Y-105934458D01*
X121758605Y-106672000D01*
X122496147Y-107409542D01*
X122681000Y-107362959D01*
X122681000Y-107912198D01*
X122676409Y-107916790D01*
X122321055Y-107561436D01*
X122266045Y-107538650D01*
X121579000Y-106851605D01*
X121564858Y-106865748D01*
X121385253Y-106686143D01*
X121399395Y-106672000D01*
X120661853Y-105934458D01*
X120428672Y-105993219D01*
X120329376Y-106276863D01*
X106220000Y-92167488D01*
X106220000Y-90423169D01*
X106257765Y-90415657D01*
X106467809Y-90275309D01*
X106608157Y-90065265D01*
X106657440Y-89817500D01*
X106657440Y-88617500D01*
X106608157Y-88369735D01*
X106531291Y-88254698D01*
X106657807Y-87886464D01*
X106627482Y-87396087D01*
X106498164Y-87083883D01*
X106272735Y-87034370D01*
X105589605Y-87717500D01*
X105603748Y-87731643D01*
X105424143Y-87911248D01*
X105410000Y-87897105D01*
X105395858Y-87911248D01*
X105216253Y-87731643D01*
X105230395Y-87717500D01*
X104547265Y-87034370D01*
X104321836Y-87083883D01*
X104162193Y-87548536D01*
X104192518Y-88038913D01*
X104284505Y-88260990D01*
X104211843Y-88369735D01*
X104162560Y-88617500D01*
X104162560Y-89817500D01*
X104211843Y-90065265D01*
X104352191Y-90275309D01*
X104562235Y-90415657D01*
X104600001Y-90423169D01*
X104600000Y-92423227D01*
X104584132Y-92503000D01*
X104600000Y-92582773D01*
X104646997Y-92819045D01*
X104826023Y-93086977D01*
X104893656Y-93132168D01*
X120269000Y-108507513D01*
X120269000Y-108932575D01*
X120468436Y-109414055D01*
X120823790Y-109769409D01*
X117791029Y-112802170D01*
X117727571Y-112844571D01*
X117685172Y-112908026D01*
X116101199Y-114492000D01*
X114397451Y-114492000D01*
X114350157Y-114254235D01*
X114209809Y-114044191D01*
X113999765Y-113903843D01*
X113752000Y-113854560D01*
X110752000Y-113854560D01*
X110504235Y-113903843D01*
X110294191Y-114044191D01*
X110153843Y-114254235D01*
X110104560Y-114502000D01*
X110104560Y-116002000D01*
X110153843Y-116249765D01*
X110294191Y-116459809D01*
X110504235Y-116600157D01*
X110752000Y-116649440D01*
X113752000Y-116649440D01*
X113999765Y-116600157D01*
X114209809Y-116459809D01*
X114350157Y-116249765D01*
X114397451Y-116012000D01*
X116341153Y-116012000D01*
X116416000Y-116026888D01*
X116490847Y-116012000D01*
X116490852Y-116012000D01*
X116712537Y-115967904D01*
X116963929Y-115799929D01*
X117006331Y-115736470D01*
X118275500Y-114467302D01*
X120271000Y-116462803D01*
X120271000Y-117247560D01*
X120181000Y-117247560D01*
X119933235Y-117296843D01*
X119723191Y-117437191D01*
X119582843Y-117647235D01*
X119533560Y-117895000D01*
X119533560Y-119595000D01*
X119582843Y-119842765D01*
X119723191Y-120052809D01*
X119933235Y-120193157D01*
X120036708Y-120213739D01*
X119759355Y-120518076D01*
X119589524Y-120928110D01*
X119710845Y-121158000D01*
X120904000Y-121158000D01*
X120904000Y-121138000D01*
X121158000Y-121138000D01*
X121158000Y-121158000D01*
X122351155Y-121158000D01*
X122472476Y-120928110D01*
X122302645Y-120518076D01*
X122025292Y-120213739D01*
X122128765Y-120193157D01*
X122338809Y-120052809D01*
X122479157Y-119842765D01*
X122528440Y-119595000D01*
X122528440Y-117895000D01*
X122516408Y-117834506D01*
X132537000Y-117834506D01*
X132537000Y-118385494D01*
X132747853Y-118894540D01*
X133137460Y-119284147D01*
X133646506Y-119495000D01*
X134197494Y-119495000D01*
X134706540Y-119284147D01*
X135096147Y-118894540D01*
X135307000Y-118385494D01*
X135307000Y-117834506D01*
X135096147Y-117325460D01*
X134706540Y-116935853D01*
X134197494Y-116725000D01*
X133646506Y-116725000D01*
X133137460Y-116935853D01*
X132747853Y-117325460D01*
X132537000Y-117834506D01*
X122516408Y-117834506D01*
X122479157Y-117647235D01*
X122338809Y-117437191D01*
X122128765Y-117296843D01*
X121881000Y-117247560D01*
X121791000Y-117247560D01*
X121791000Y-116222846D01*
X121805888Y-116147999D01*
X121791000Y-116073152D01*
X121791000Y-116073148D01*
X121746904Y-115851463D01*
X121687232Y-115762157D01*
X121621329Y-115663526D01*
X121621327Y-115663524D01*
X121578929Y-115600071D01*
X121515476Y-115557673D01*
X119350301Y-113392500D01*
X121811001Y-110931801D01*
X121811000Y-113550227D01*
X121795132Y-113630000D01*
X121811000Y-113709773D01*
X121857997Y-113946045D01*
X122037023Y-114213977D01*
X122104656Y-114259168D01*
X123926834Y-116081347D01*
X123972023Y-116148977D01*
X124239954Y-116328003D01*
X124476226Y-116375000D01*
X124555999Y-116390868D01*
X124635772Y-116375000D01*
X126439201Y-116375000D01*
X126518949Y-116390868D01*
X126598749Y-116375000D01*
X126598774Y-116375000D01*
X126680069Y-116358829D01*
X126834999Y-116328022D01*
X126835020Y-116328008D01*
X126835046Y-116328003D01*
X126978076Y-116232433D01*
X127035308Y-116194197D01*
X127035323Y-116194182D01*
X127102977Y-116148977D01*
X127148154Y-116081365D01*
X135131326Y-108099180D01*
X135198977Y-108053977D01*
X135289800Y-107918051D01*
X135377983Y-107786094D01*
X135377988Y-107786068D01*
X135378003Y-107786046D01*
X135409730Y-107626544D01*
X135440868Y-107470051D01*
X135425000Y-107390251D01*
X135425000Y-100137185D01*
X139602350Y-95959349D01*
X139668690Y-96119507D01*
X140069183Y-96520000D01*
X139668690Y-96920493D01*
X139435000Y-97484670D01*
X139435000Y-98095330D01*
X139668690Y-98659507D01*
X140069183Y-99060000D01*
X139668690Y-99460493D01*
X139435000Y-100024670D01*
X139435000Y-100434183D01*
X139299507Y-100298690D01*
X138735330Y-100065000D01*
X138124670Y-100065000D01*
X137560493Y-100298690D01*
X137128690Y-100730493D01*
X136895000Y-101294670D01*
X136895000Y-101905330D01*
X137128690Y-102469507D01*
X137529183Y-102870000D01*
X137128690Y-103270493D01*
X136895000Y-103834670D01*
X136895000Y-104445330D01*
X137128690Y-105009507D01*
X137560493Y-105441310D01*
X137670001Y-105486670D01*
X137670000Y-107635197D01*
X136304838Y-109000360D01*
X136195330Y-108955000D01*
X135584670Y-108955000D01*
X135020493Y-109188690D01*
X134588690Y-109620493D01*
X134355000Y-110184670D01*
X134355000Y-110795330D01*
X134588690Y-111359507D01*
X135020493Y-111791310D01*
X135584670Y-112025000D01*
X136195330Y-112025000D01*
X136759507Y-111791310D01*
X137160000Y-111390817D01*
X137560493Y-111791310D01*
X138124670Y-112025000D01*
X138735330Y-112025000D01*
X139299507Y-111791310D01*
X139700000Y-111390817D01*
X140100493Y-111791310D01*
X140664670Y-112025000D01*
X141275330Y-112025000D01*
X141839507Y-111791310D01*
X142271310Y-111359507D01*
X142505000Y-110795330D01*
X142505000Y-110184670D01*
X142271310Y-109620493D01*
X141870817Y-109220000D01*
X142271310Y-108819507D01*
X142505000Y-108255330D01*
X142505000Y-107644670D01*
X142271310Y-107080493D01*
X141870817Y-106680000D01*
X142271310Y-106279507D01*
X142505000Y-105715330D01*
X142505000Y-105104670D01*
X142271310Y-104540493D01*
X141870817Y-104140000D01*
X142271310Y-103739507D01*
X142505000Y-103175330D01*
X142505000Y-102564670D01*
X142271310Y-102000493D01*
X141870817Y-101600000D01*
X142271310Y-101199507D01*
X142505000Y-100635330D01*
X142505000Y-100024670D01*
X142271310Y-99460493D01*
X141870817Y-99060000D01*
X142271310Y-98659507D01*
X142505000Y-98095330D01*
X142505000Y-97859802D01*
X143830000Y-99184802D01*
X143830001Y-101313570D01*
X143777138Y-101335466D01*
X143373466Y-101739138D01*
X143155000Y-102266561D01*
X143155000Y-102837439D01*
X143373466Y-103364862D01*
X143777138Y-103768534D01*
X143907168Y-103822394D01*
X143555423Y-104057423D01*
X143238260Y-104532091D01*
X143126887Y-105092000D01*
X143238260Y-105651909D01*
X143555423Y-106126577D01*
X143585775Y-106146857D01*
X143030378Y-106702771D01*
X142967072Y-106745071D01*
X142924574Y-106808674D01*
X142924446Y-106808802D01*
X142882620Y-106871462D01*
X142799097Y-106996463D01*
X142799061Y-106996643D01*
X142798959Y-106996796D01*
X142769509Y-107145209D01*
X142755001Y-107218148D01*
X142755001Y-107218326D01*
X142740112Y-107293360D01*
X142755001Y-107368030D01*
X142755000Y-116638148D01*
X142740111Y-116713000D01*
X142799096Y-117009537D01*
X142903380Y-117165609D01*
X142967071Y-117260929D01*
X143200707Y-117417040D01*
X143192560Y-117458000D01*
X143192560Y-118508000D01*
X143241843Y-118755765D01*
X143382191Y-118965809D01*
X143592235Y-119106157D01*
X143840000Y-119155440D01*
X145340000Y-119155440D01*
X145587765Y-119106157D01*
X145797809Y-118965809D01*
X145938157Y-118755765D01*
X145987440Y-118508000D01*
X145987440Y-117458000D01*
X145938157Y-117210235D01*
X145907843Y-117164867D01*
X145997725Y-116713000D01*
X145907695Y-116260391D01*
X145779146Y-116068004D01*
X145925266Y-115810336D01*
X145933964Y-115748810D01*
X145808163Y-115570000D01*
X145014710Y-115570000D01*
X144929246Y-115553000D01*
X144443000Y-115553000D01*
X144443000Y-115316000D01*
X144463000Y-115316000D01*
X144463000Y-114436407D01*
X144717000Y-114436407D01*
X144717000Y-115316000D01*
X145808163Y-115316000D01*
X145933964Y-115137190D01*
X145925266Y-115075664D01*
X145700179Y-114678745D01*
X145340331Y-114398177D01*
X144900506Y-114276674D01*
X144717000Y-114436407D01*
X144463000Y-114436407D01*
X144279494Y-114276674D01*
X144275000Y-114277915D01*
X144275000Y-107607595D01*
X145074623Y-106807229D01*
X145137929Y-106764929D01*
X145180427Y-106701326D01*
X145180554Y-106701199D01*
X145222052Y-106639031D01*
X145305904Y-106513537D01*
X145305940Y-106513356D01*
X145306041Y-106513205D01*
X145335121Y-106366651D01*
X145345827Y-106312832D01*
X145624577Y-106126577D01*
X145941740Y-105651909D01*
X146053113Y-105092000D01*
X145941740Y-104532091D01*
X145624577Y-104057423D01*
X145272832Y-103822394D01*
X145402862Y-103768534D01*
X145806534Y-103364862D01*
X146025000Y-102837439D01*
X146025000Y-102266561D01*
X145806534Y-101739138D01*
X145402862Y-101335466D01*
X145350000Y-101313570D01*
X145350000Y-98944846D01*
X145364888Y-98869999D01*
X145350000Y-98795152D01*
X145350000Y-98795148D01*
X145305904Y-98573463D01*
X145137929Y-98322071D01*
X145074473Y-98279671D01*
X142459640Y-95664839D01*
X142505000Y-95555330D01*
X142505000Y-94944670D01*
X142271310Y-94380493D01*
X141870817Y-93980000D01*
X142271310Y-93579507D01*
X142505000Y-93015330D01*
X142505000Y-92404670D01*
X142271310Y-91840493D01*
X141870817Y-91440000D01*
X142271310Y-91039507D01*
X142505000Y-90475330D01*
X142505000Y-89864670D01*
X142271310Y-89300493D01*
X141870817Y-88900000D01*
X142271310Y-88499507D01*
X142505000Y-87935330D01*
X142505000Y-87324670D01*
X142271310Y-86760493D01*
X142197795Y-86686978D01*
X142679497Y-86205213D01*
X142742929Y-86162829D01*
X142785341Y-86099355D01*
X142785362Y-86099334D01*
X142830399Y-86031921D01*
X142910904Y-85911437D01*
X142910909Y-85911411D01*
X142910923Y-85911390D01*
X142939099Y-85769690D01*
X142955000Y-85689752D01*
X142955000Y-85689722D01*
X142969888Y-85614848D01*
X142955000Y-85540026D01*
X142955000Y-84535400D01*
X144432144Y-84535400D01*
X144506983Y-84550288D01*
X144581839Y-84535400D01*
X144581852Y-84535400D01*
X144693010Y-84513289D01*
X144803520Y-84491310D01*
X144803526Y-84491306D01*
X144803537Y-84491304D01*
X144947374Y-84395195D01*
X144991459Y-84365740D01*
X144991464Y-84365735D01*
X145054929Y-84323329D01*
X145097325Y-84259879D01*
X146346670Y-83010592D01*
X146399561Y-83032500D01*
X146970439Y-83032500D01*
X147023342Y-83010587D01*
X153823679Y-89810485D01*
X153866071Y-89873929D01*
X153929536Y-89916335D01*
X153929546Y-89916345D01*
X153998476Y-89962399D01*
X154117463Y-90041904D01*
X154117475Y-90041906D01*
X154117485Y-90041913D01*
X154246561Y-90067583D01*
X154339148Y-90086000D01*
X154339165Y-90086000D01*
X154414025Y-90100888D01*
X154488860Y-90086000D01*
X160265895Y-90086000D01*
X160452034Y-90535380D01*
X161052620Y-91135966D01*
X161837322Y-91461000D01*
X162686678Y-91461000D01*
X163471380Y-91135966D01*
X163767376Y-90839970D01*
X168927635Y-90839970D01*
X169087418Y-91158739D01*
X169878187Y-91468723D01*
X170727387Y-91452497D01*
X171436582Y-91158739D01*
X171596365Y-90839970D01*
X170262000Y-89505605D01*
X168927635Y-90839970D01*
X163767376Y-90839970D01*
X164071966Y-90535380D01*
X164397000Y-89750678D01*
X164397000Y-88942187D01*
X168119277Y-88942187D01*
X168135503Y-89791387D01*
X168429261Y-90500582D01*
X168748030Y-90660365D01*
X170082395Y-89326000D01*
X170441605Y-89326000D01*
X171775970Y-90660365D01*
X172094739Y-90500582D01*
X172404723Y-89709813D01*
X172388497Y-88860613D01*
X172094739Y-88151418D01*
X171775970Y-87991635D01*
X170441605Y-89326000D01*
X170082395Y-89326000D01*
X168748030Y-87991635D01*
X168429261Y-88151418D01*
X168119277Y-88942187D01*
X164397000Y-88942187D01*
X164397000Y-88901322D01*
X164071966Y-88116620D01*
X163767376Y-87812030D01*
X168927635Y-87812030D01*
X170262000Y-89146395D01*
X171596365Y-87812030D01*
X171436582Y-87493261D01*
X170645813Y-87183277D01*
X169796613Y-87199503D01*
X169087418Y-87493261D01*
X168927635Y-87812030D01*
X163767376Y-87812030D01*
X163471380Y-87516034D01*
X162686678Y-87191000D01*
X161837322Y-87191000D01*
X161052620Y-87516034D01*
X160452034Y-88116620D01*
X160265895Y-88566000D01*
X154728787Y-88566000D01*
X149196033Y-83033604D01*
X149538454Y-83017278D01*
X149939005Y-82851364D01*
X150013139Y-82605245D01*
X149185000Y-81777105D01*
X149170858Y-81791248D01*
X148991252Y-81611642D01*
X149005395Y-81597500D01*
X149364605Y-81597500D01*
X150192745Y-82425639D01*
X150438864Y-82351505D01*
X150631965Y-81814277D01*
X150604778Y-81244046D01*
X150438864Y-80843495D01*
X150192745Y-80769361D01*
X149364605Y-81597500D01*
X149005395Y-81597500D01*
X148177255Y-80769361D01*
X147931136Y-80843495D01*
X147928710Y-80850246D01*
X147901534Y-80784638D01*
X147706651Y-80589755D01*
X148356861Y-80589755D01*
X149185000Y-81417895D01*
X150013139Y-80589755D01*
X149939005Y-80343636D01*
X149401777Y-80150535D01*
X148831546Y-80177722D01*
X148430995Y-80343636D01*
X148356861Y-80589755D01*
X147706651Y-80589755D01*
X147497862Y-80380966D01*
X146970439Y-80162500D01*
X146399561Y-80162500D01*
X145872138Y-80380966D01*
X145468466Y-80784638D01*
X145250000Y-81312061D01*
X145250000Y-81882939D01*
X145271885Y-81935773D01*
X144192209Y-83015400D01*
X142509875Y-83015400D01*
X142459549Y-82965058D01*
X142505000Y-82855330D01*
X142505000Y-82244670D01*
X142271310Y-81680493D01*
X141839507Y-81248690D01*
X141298261Y-81024498D01*
X141310069Y-81006521D01*
X141310078Y-81006510D01*
X141310080Y-81006505D01*
X141543974Y-80573023D01*
X141562085Y-80520123D01*
X141589022Y-80471126D01*
X141619493Y-80352449D01*
X141698539Y-79877545D01*
X141710000Y-79819925D01*
X141710000Y-79558686D01*
X141761834Y-79247267D01*
X141883495Y-79021791D01*
X142071635Y-78847876D01*
X142319026Y-78738505D01*
X142544666Y-78710000D01*
X159723890Y-78710000D01*
X159394101Y-78846603D01*
X158596603Y-79644101D01*
X158165000Y-80686083D01*
X158165000Y-81813917D01*
X158596603Y-82855899D01*
X159394101Y-83653397D01*
X160436083Y-84085000D01*
X161563917Y-84085000D01*
X162605899Y-83653397D01*
X163403397Y-82855899D01*
X163835000Y-81813917D01*
X163835000Y-80686083D01*
X163403397Y-79644101D01*
X162605899Y-78846603D01*
X162276110Y-78710000D01*
X168973650Y-78710000D01*
X169929435Y-78781027D01*
X170838443Y-78986715D01*
X171707075Y-79324507D01*
X172516227Y-79786976D01*
X173248141Y-80363971D01*
X173886727Y-81042806D01*
X174417960Y-81808576D01*
X174830172Y-82644459D01*
X175114303Y-83532086D01*
X175265865Y-84462710D01*
X175290001Y-85015509D01*
X175290000Y-119253000D01*
X139700000Y-119253000D01*
X139651399Y-119262667D01*
X139610197Y-119290197D01*
X135202394Y-123698000D01*
X101710000Y-123698000D01*
X101710000Y-121641890D01*
X119589524Y-121641890D01*
X119759355Y-122051924D01*
X120149642Y-122480183D01*
X120674108Y-122726486D01*
X120904000Y-122605819D01*
X120904000Y-121412000D01*
X121158000Y-121412000D01*
X121158000Y-122605819D01*
X121387892Y-122726486D01*
X121912358Y-122480183D01*
X122302645Y-122051924D01*
X122330778Y-121984000D01*
X124076887Y-121984000D01*
X124188260Y-122543909D01*
X124505423Y-123018577D01*
X124980091Y-123335740D01*
X125398667Y-123419000D01*
X125681333Y-123419000D01*
X126099909Y-123335740D01*
X126574577Y-123018577D01*
X126760832Y-122739827D01*
X126961537Y-122699904D01*
X127036224Y-122650000D01*
X132737688Y-122650000D01*
X132747853Y-122674540D01*
X133137460Y-123064147D01*
X133646506Y-123275000D01*
X134197494Y-123275000D01*
X134706540Y-123064147D01*
X135096147Y-122674540D01*
X135307000Y-122165494D01*
X135307000Y-121614506D01*
X135096147Y-121105460D01*
X134706540Y-120715853D01*
X134197494Y-120505000D01*
X133646506Y-120505000D01*
X133137460Y-120715853D01*
X132747853Y-121105460D01*
X132737688Y-121130000D01*
X126833846Y-121130000D01*
X126758999Y-121115112D01*
X126693935Y-121128054D01*
X126574577Y-120949423D01*
X126099909Y-120632260D01*
X125681333Y-120549000D01*
X125398667Y-120549000D01*
X124980091Y-120632260D01*
X124505423Y-120949423D01*
X124188260Y-121424091D01*
X124076887Y-121984000D01*
X122330778Y-121984000D01*
X122472476Y-121641890D01*
X122351155Y-121412000D01*
X121158000Y-121412000D01*
X120904000Y-121412000D01*
X119710845Y-121412000D01*
X119589524Y-121641890D01*
X101710000Y-121641890D01*
X101710000Y-120593185D01*
X105159682Y-120593185D01*
X105173827Y-120664684D01*
X105432855Y-121141540D01*
X105854651Y-121482972D01*
X106375000Y-121637000D01*
X107125000Y-121637000D01*
X107125000Y-120379000D01*
X107379000Y-120379000D01*
X107379000Y-121637000D01*
X108129000Y-121637000D01*
X108649349Y-121482972D01*
X109071145Y-121141540D01*
X109330173Y-120664684D01*
X109344318Y-120593185D01*
X110159682Y-120593185D01*
X110173827Y-120664684D01*
X110432855Y-121141540D01*
X110854651Y-121482972D01*
X111375000Y-121637000D01*
X112125000Y-121637000D01*
X112125000Y-120379000D01*
X112379000Y-120379000D01*
X112379000Y-121637000D01*
X113129000Y-121637000D01*
X113649349Y-121482972D01*
X114071145Y-121141540D01*
X114330173Y-120664684D01*
X114344318Y-120593185D01*
X114221656Y-120379000D01*
X112379000Y-120379000D01*
X112125000Y-120379000D01*
X110282344Y-120379000D01*
X110159682Y-120593185D01*
X109344318Y-120593185D01*
X109221656Y-120379000D01*
X107379000Y-120379000D01*
X107125000Y-120379000D01*
X105282344Y-120379000D01*
X105159682Y-120593185D01*
X101710000Y-120593185D01*
X101710000Y-119910815D01*
X105159682Y-119910815D01*
X105282344Y-120125000D01*
X107125000Y-120125000D01*
X107125000Y-118867000D01*
X107379000Y-118867000D01*
X107379000Y-120125000D01*
X109221656Y-120125000D01*
X109344318Y-119910815D01*
X110159682Y-119910815D01*
X110282344Y-120125000D01*
X112125000Y-120125000D01*
X112125000Y-118867000D01*
X112379000Y-118867000D01*
X112379000Y-120125000D01*
X114221656Y-120125000D01*
X114344318Y-119910815D01*
X114330173Y-119839316D01*
X114071145Y-119362460D01*
X113649349Y-119021028D01*
X113129000Y-118867000D01*
X112379000Y-118867000D01*
X112125000Y-118867000D01*
X111375000Y-118867000D01*
X110854651Y-119021028D01*
X110432855Y-119362460D01*
X110173827Y-119839316D01*
X110159682Y-119910815D01*
X109344318Y-119910815D01*
X109330173Y-119839316D01*
X109071145Y-119362460D01*
X108649349Y-119021028D01*
X108129000Y-118867000D01*
X107379000Y-118867000D01*
X107125000Y-118867000D01*
X106375000Y-118867000D01*
X105854651Y-119021028D01*
X105432855Y-119362460D01*
X105173827Y-119839316D01*
X105159682Y-119910815D01*
X101710000Y-119910815D01*
X101710000Y-114502000D01*
X105104560Y-114502000D01*
X105104560Y-116002000D01*
X105153843Y-116249765D01*
X105294191Y-116459809D01*
X105504235Y-116600157D01*
X105752000Y-116649440D01*
X108752000Y-116649440D01*
X108999765Y-116600157D01*
X109209809Y-116459809D01*
X109350157Y-116249765D01*
X109399440Y-116002000D01*
X109399440Y-114502000D01*
X109350157Y-114254235D01*
X109209809Y-114044191D01*
X108999765Y-113903843D01*
X108752000Y-113854560D01*
X105752000Y-113854560D01*
X105504235Y-113903843D01*
X105294191Y-114044191D01*
X105153843Y-114254235D01*
X105104560Y-114502000D01*
X101710000Y-114502000D01*
X101710000Y-100302887D01*
X101833000Y-100302887D01*
X101833000Y-100993113D01*
X102097138Y-101630799D01*
X102585201Y-102118862D01*
X103222887Y-102383000D01*
X103913113Y-102383000D01*
X104550799Y-102118862D01*
X105038862Y-101630799D01*
X105303000Y-100993113D01*
X105303000Y-100302887D01*
X105038862Y-99665201D01*
X104550799Y-99177138D01*
X103913113Y-98913000D01*
X103222887Y-98913000D01*
X102585201Y-99177138D01*
X102097138Y-99665201D01*
X101833000Y-100302887D01*
X101710000Y-100302887D01*
X101710000Y-86854765D01*
X104726870Y-86854765D01*
X105410000Y-87537895D01*
X106093130Y-86854765D01*
X106043617Y-86629336D01*
X105578964Y-86469693D01*
X105088587Y-86500018D01*
X104776383Y-86629336D01*
X104726870Y-86854765D01*
X101710000Y-86854765D01*
X101710000Y-85026350D01*
X101781027Y-84070565D01*
X101986715Y-83161557D01*
X102324507Y-82292925D01*
X102786976Y-81483773D01*
X103363971Y-80751859D01*
X103464628Y-80657170D01*
X107558000Y-80657170D01*
X107558000Y-81267830D01*
X107791690Y-81832007D01*
X108223493Y-82263810D01*
X108787670Y-82497500D01*
X109398330Y-82497500D01*
X109962507Y-82263810D01*
X110138861Y-82087456D01*
X110194673Y-82222199D01*
X110373302Y-82400827D01*
X110606691Y-82497500D01*
X111347250Y-82497500D01*
X111506000Y-82338750D01*
X111506000Y-81089500D01*
X111486000Y-81089500D01*
X111486000Y-80835500D01*
X111506000Y-80835500D01*
X111506000Y-79586250D01*
X111347250Y-79427500D01*
X110606691Y-79427500D01*
X110373302Y-79524173D01*
X110194673Y-79702801D01*
X110138861Y-79837544D01*
X109962507Y-79661190D01*
X109398330Y-79427500D01*
X108787670Y-79427500D01*
X108223493Y-79661190D01*
X107791690Y-80092993D01*
X107558000Y-80657170D01*
X103464628Y-80657170D01*
X104042806Y-80113273D01*
X104808576Y-79582040D01*
X105644459Y-79169828D01*
X106532086Y-78885697D01*
X107462710Y-78734135D01*
X108015486Y-78710000D01*
X114723890Y-78710000D01*
X114394101Y-78846603D01*
G04 #@! TD*
M02*
