M48
;DRILL file {KiCad (5.0.2)-1} date 27.10.2019 17:27:42
;FORMAT={-:-/ absolute / inch / decimal}
FMAT,2
INCH,TZ
T1C0.0157
T2C0.0236
T3C0.0295
T4C0.0315
T5C0.0354
T6C0.0394
T7C0.0433
T8C0.0512
T9C0.0591
T10C0.1260
%
G90
G05
T1
X4.8276Y-4.3281
X4.502Y-3.1988
X4.521Y-3.1529
X4.521Y-3.2448
X4.5669Y-3.1339
X4.5669Y-3.2638
X4.6129Y-3.1529
X4.6129Y-3.2448
X4.6319Y-3.1988
X4.502Y-5.8957
X4.521Y-5.8497
X4.521Y-5.9416
X4.5669Y-5.8307
X4.5669Y-5.9606
X4.6129Y-5.8497
X4.6129Y-5.9416
X4.6319Y-5.8957
X6.2736Y-5.8957
X6.2926Y-5.8497
X6.2926Y-5.9416
X6.3386Y-5.8307
X6.3386Y-5.9606
X6.3845Y-5.8497
X6.3845Y-5.9416
X6.4035Y-5.8957
X6.2736Y-3.1988
X6.2926Y-3.1529
X6.2926Y-3.2448
X6.3386Y-3.1339
X6.3386Y-3.2638
X6.3845Y-3.1529
X6.3845Y-3.2448
X6.4035Y-3.1988
T2
X4.15Y-3.4534
X4.15Y-3.5125
T3
X5.6925Y-4.545
X5.6925Y-4.595
X5.6925Y-4.645
T4
X5.775Y-3.2125
X5.8734Y-3.2125
X5.6169Y-5.2094
X5.735Y-5.0125
X5.6925Y-4.0375
X5.6925Y-4.1375
X4.16Y-3.235
X4.16Y-3.335
X4.7866Y-3.7272
X4.7866Y-3.806
X4.7866Y-3.8847
X4.7866Y-3.9635
X4.7866Y-4.0422
X4.7866Y-4.1209
X4.7866Y-4.1997
X4.7866Y-4.2784
X4.9425Y-4.5025
X4.9425Y-4.8025
T5
X4.295Y-3.1875
X4.395Y-3.1875
T6
X5.2725Y-4.65
X5.2725Y-4.7988
X4.765Y-4.675
X4.765Y-4.775
X5.6175Y-5.5406
X5.6175Y-5.7375
X5.8143Y-5.5406
X5.8143Y-5.7375
X6.0112Y-5.5406
X6.0112Y-5.7375
X4.95Y-3.25
X4.95Y-3.35
X4.95Y-3.45
X4.95Y-3.55
X4.95Y-3.65
X4.95Y-3.75
X4.95Y-3.85
X4.95Y-3.95
X4.95Y-4.05
X4.95Y-4.15
X4.95Y-4.25
X4.95Y-4.35
X5.35Y-4.35
X5.45Y-3.6
X5.45Y-3.7
X5.45Y-4.
X5.45Y-4.1
X5.45Y-4.35
X5.55Y-3.25
X5.55Y-3.35
X5.55Y-3.45
X5.55Y-3.55
X5.55Y-3.65
X5.55Y-3.75
X5.55Y-3.85
X5.55Y-3.95
X5.55Y-4.05
X5.55Y-4.15
X5.55Y-4.25
X5.55Y-4.35
X4.2225Y-4.5375
X4.2225Y-4.7343
X4.4194Y-4.5375
X4.4194Y-4.7343
X6.4331Y-5.3557
X6.4331Y-5.5525
X6.63Y-5.3557
X6.63Y-5.5525
T7
X4.3341Y-3.3828
X4.3341Y-3.56
X4.59Y-3.3828
X4.59Y-3.56
T8
X5.2725Y-5.261
X5.2725Y-5.4594
X5.2725Y-5.6579
T9
X6.28Y-5.0325
X6.3883Y-3.5168
X6.7032Y-3.5168
X6.7032Y-5.0325
T10
X4.5669Y-5.8957
X6.3386Y-5.8957
X6.3386Y-3.1988
X4.5669Y-3.1988
T0
M30
