%FSLAX45Y45*%
G04 Gerber Fmt 4.5, Leading zero omitted, Abs format (unit mm)*
G04 Created by KiCad (PCBNEW (5.0.2)-1) date 27.10.2019 17:27:43*
%MOMM*%
%LPD*%
G01*
G04 APERTURE LIST*
%ADD10C,0.150000*%
%ADD11C,0.200000*%
%ADD12C,0.300000*%
G04 APERTURE END LIST*
D10*
X12400000Y-7800000D02*
X12425000Y-7800000D01*
X14100000Y-7950000D02*
X14100000Y-7975000D01*
X12575000Y-7950000D02*
X12575000Y-7975000D01*
X12725000Y-8125000D02*
X13950000Y-8125000D01*
X13950000Y-8125000D02*
G75*
G03X14100000Y-7975000I0J150000D01*
G01*
X14250000Y-7800000D02*
G75*
G03X14100000Y-7950000I0J-150000D01*
G01*
X12575000Y-7975000D02*
G75*
G03X12725000Y-8125000I150000J0D01*
G01*
X12575000Y-7950000D02*
G75*
G03X12425000Y-7800000I-150000J0D01*
G01*
X10800000Y-7800000D02*
X12400000Y-7800000D01*
X14250000Y-7800000D02*
X16900000Y-7800000D01*
X10800000Y-15300000D02*
X16900000Y-15300000D01*
X10100000Y-8500000D02*
X10100000Y-14600000D01*
X17600000Y-14600000D02*
X17600000Y-8500000D01*
X17600000Y-8500000D02*
G75*
G03X16900000Y-7800000I-700000J0D01*
G01*
X10100000Y-14600000D02*
G75*
G03X10800000Y-15300000I700000J0D01*
G01*
X16900000Y-15300000D02*
G75*
G03X17600000Y-14600000I0J700000D01*
G01*
X10800000Y-7800000D02*
G75*
G03X10100000Y-8500000I0J-700000D01*
G01*
D11*
X12242100Y-10973400D02*
X12282100Y-11013400D01*
X12282100Y-10973400D02*
X12242100Y-11013400D01*
X11415000Y-8105000D02*
X11455000Y-8145000D01*
X11455000Y-8105000D02*
X11415000Y-8145000D01*
X11463327Y-7988327D02*
X11503327Y-8028327D01*
X11503327Y-7988327D02*
X11463327Y-8028327D01*
X11463327Y-8221673D02*
X11503327Y-8261673D01*
X11503327Y-8221673D02*
X11463327Y-8261673D01*
X11580000Y-7940000D02*
X11620000Y-7980000D01*
X11620000Y-7940000D02*
X11580000Y-7980000D01*
X11580000Y-8270000D02*
X11620000Y-8310000D01*
X11620000Y-8270000D02*
X11580000Y-8310000D01*
X11696673Y-7988327D02*
X11736673Y-8028327D01*
X11736673Y-7988327D02*
X11696673Y-8028327D01*
X11696673Y-8221673D02*
X11736673Y-8261673D01*
X11736673Y-8221673D02*
X11696673Y-8261673D01*
X11745000Y-8105000D02*
X11785000Y-8145000D01*
X11785000Y-8105000D02*
X11745000Y-8145000D01*
X11415000Y-14955000D02*
X11455000Y-14995000D01*
X11455000Y-14955000D02*
X11415000Y-14995000D01*
X11463327Y-14838327D02*
X11503327Y-14878327D01*
X11503327Y-14838327D02*
X11463327Y-14878327D01*
X11463327Y-15071673D02*
X11503327Y-15111673D01*
X11503327Y-15071673D02*
X11463327Y-15111673D01*
X11580000Y-14790000D02*
X11620000Y-14830000D01*
X11620000Y-14790000D02*
X11580000Y-14830000D01*
X11580000Y-15120000D02*
X11620000Y-15160000D01*
X11620000Y-15120000D02*
X11580000Y-15160000D01*
X11696673Y-14838327D02*
X11736673Y-14878327D01*
X11736673Y-14838327D02*
X11696673Y-14878327D01*
X11696673Y-15071673D02*
X11736673Y-15111673D01*
X11736673Y-15071673D02*
X11696673Y-15111673D01*
X11745000Y-14955000D02*
X11785000Y-14995000D01*
X11785000Y-14955000D02*
X11745000Y-14995000D01*
X15915000Y-14955000D02*
X15955000Y-14995000D01*
X15955000Y-14955000D02*
X15915000Y-14995000D01*
X15963327Y-14838327D02*
X16003327Y-14878327D01*
X16003327Y-14838327D02*
X15963327Y-14878327D01*
X15963327Y-15071673D02*
X16003327Y-15111673D01*
X16003327Y-15071673D02*
X15963327Y-15111673D01*
X16080000Y-14790000D02*
X16120000Y-14830000D01*
X16120000Y-14790000D02*
X16080000Y-14830000D01*
X16080000Y-15120000D02*
X16120000Y-15160000D01*
X16120000Y-15120000D02*
X16080000Y-15160000D01*
X16196673Y-14838327D02*
X16236673Y-14878327D01*
X16236673Y-14838327D02*
X16196673Y-14878327D01*
X16196673Y-15071673D02*
X16236673Y-15111673D01*
X16236673Y-15071673D02*
X16196673Y-15111673D01*
X16245000Y-14955000D02*
X16285000Y-14995000D01*
X16285000Y-14955000D02*
X16245000Y-14995000D01*
X15915000Y-8105000D02*
X15955000Y-8145000D01*
X15955000Y-8105000D02*
X15915000Y-8145000D01*
X15963327Y-7988327D02*
X16003327Y-8028327D01*
X16003327Y-7988327D02*
X15963327Y-8028327D01*
X15963327Y-8221673D02*
X16003327Y-8261673D01*
X16003327Y-8221673D02*
X15963327Y-8261673D01*
X16080000Y-7940000D02*
X16120000Y-7980000D01*
X16120000Y-7940000D02*
X16080000Y-7980000D01*
X16080000Y-8270000D02*
X16120000Y-8310000D01*
X16120000Y-8270000D02*
X16080000Y-8310000D01*
X16196673Y-7988327D02*
X16236673Y-8028327D01*
X16236673Y-7988327D02*
X16196673Y-8028327D01*
X16196673Y-8221673D02*
X16236673Y-8261673D01*
X16236673Y-8221673D02*
X16196673Y-8261673D01*
X16245000Y-8105000D02*
X16285000Y-8145000D01*
X16285000Y-8105000D02*
X16245000Y-8145000D01*
X10571000Y-8771750D02*
G75*
G03X10571000Y-8771750I-30000J0D01*
G01*
X10571000Y-8921750D02*
G75*
G03X10571000Y-8921750I-30000J0D01*
G01*
X14459000Y-11506800D02*
X14459000Y-11581800D01*
X14421500Y-11544300D02*
X14496500Y-11544300D01*
X14459000Y-11633800D02*
X14459000Y-11708800D01*
X14421500Y-11671300D02*
X14496500Y-11671300D01*
X14459000Y-11760800D02*
X14459000Y-11835800D01*
X14421500Y-11798300D02*
X14496500Y-11798300D01*
X14696784Y-8188034D02*
X14696784Y-8131465D01*
X14640215Y-8131465D01*
X14640215Y-8188034D01*
X14696784Y-8188034D01*
X14946784Y-8188034D02*
X14946784Y-8131465D01*
X14890215Y-8131465D01*
X14890215Y-8188034D01*
X14946784Y-8188034D01*
X14295184Y-13260084D02*
X14295184Y-13203515D01*
X14238615Y-13203515D01*
X14238615Y-13260084D01*
X14295184Y-13260084D01*
X14595184Y-12760084D02*
X14595184Y-12703515D01*
X14538615Y-12703515D01*
X14538615Y-12760084D01*
X14595184Y-12760084D01*
X14487284Y-10283485D02*
X14487284Y-10226916D01*
X14430715Y-10226916D01*
X14430715Y-10283485D01*
X14487284Y-10283485D01*
X14487284Y-10537485D02*
X14487284Y-10480916D01*
X14430715Y-10480916D01*
X14430715Y-10537485D01*
X14487284Y-10537485D01*
X10594685Y-8245184D02*
X10594685Y-8188615D01*
X10538116Y-8188615D01*
X10538116Y-8245184D01*
X10594685Y-8245184D01*
X10594685Y-8499185D02*
X10594685Y-8442616D01*
X10538116Y-8442616D01*
X10538116Y-8499185D01*
X10594685Y-8499185D01*
X12186184Y-9495485D02*
X12186184Y-9438916D01*
X12129615Y-9438916D01*
X12129615Y-9495485D01*
X12186184Y-9495485D01*
X12186184Y-9695485D02*
X12186184Y-9638916D01*
X12129615Y-9638916D01*
X12129615Y-9695485D01*
X12186184Y-9695485D01*
X12186184Y-9895485D02*
X12186184Y-9838916D01*
X12129615Y-9838916D01*
X12129615Y-9895485D01*
X12186184Y-9895485D01*
X12186184Y-10095485D02*
X12186184Y-10038916D01*
X12129615Y-10038916D01*
X12129615Y-10095485D01*
X12186184Y-10095485D01*
X12186184Y-10295485D02*
X12186184Y-10238916D01*
X12129615Y-10238916D01*
X12129615Y-10295485D01*
X12186184Y-10295485D01*
X12186184Y-10495485D02*
X12186184Y-10438916D01*
X12129615Y-10438916D01*
X12129615Y-10495485D01*
X12186184Y-10495485D01*
X12186184Y-10695485D02*
X12186184Y-10638916D01*
X12129615Y-10638916D01*
X12129615Y-10695485D01*
X12186184Y-10695485D01*
X12186184Y-10895485D02*
X12186184Y-10838916D01*
X12129615Y-10838916D01*
X12129615Y-10895485D01*
X12186184Y-10895485D01*
X12582284Y-11464684D02*
X12582284Y-11408115D01*
X12525715Y-11408115D01*
X12525715Y-11464684D01*
X12582284Y-11464684D01*
X12582284Y-12226684D02*
X12582284Y-12170115D01*
X12525715Y-12170115D01*
X12525715Y-12226684D01*
X12582284Y-12226684D01*
X10909300Y-8141250D02*
X10954300Y-8096250D01*
X10909300Y-8051250D01*
X10864300Y-8096250D01*
X10909300Y-8141250D01*
X11163300Y-8141250D02*
X11208300Y-8096250D01*
X11163300Y-8051250D01*
X11118300Y-8096250D01*
X11163300Y-8141250D01*
X13342200Y-11761000D02*
X13442200Y-11861000D01*
X13442200Y-11761000D02*
X13342200Y-11861000D01*
X13442200Y-11811000D02*
G75*
G03X13442200Y-11811000I-50000J0D01*
G01*
X13342200Y-12139000D02*
X13442200Y-12239000D01*
X13442200Y-12139000D02*
X13342200Y-12239000D01*
X13442200Y-12189000D02*
G75*
G03X13442200Y-12189000I-50000J0D01*
G01*
X12053100Y-11824500D02*
X12153100Y-11924500D01*
X12153100Y-11824500D02*
X12053100Y-11924500D01*
X12153100Y-11874500D02*
G75*
G03X12153100Y-11874500I-50000J0D01*
G01*
X12053100Y-12078500D02*
X12153100Y-12178500D01*
X12153100Y-12078500D02*
X12053100Y-12178500D01*
X12153100Y-12128500D02*
G75*
G03X12153100Y-12128500I-50000J0D01*
G01*
X14218400Y-14023200D02*
X14318400Y-14123200D01*
X14318400Y-14023200D02*
X14218400Y-14123200D01*
X14318400Y-14073200D02*
G75*
G03X14318400Y-14073200I-50000J0D01*
G01*
X14218400Y-14523200D02*
X14318400Y-14623200D01*
X14318400Y-14523200D02*
X14218400Y-14623200D01*
X14318400Y-14573200D02*
G75*
G03X14318400Y-14573200I-50000J0D01*
G01*
X14718400Y-14023200D02*
X14818400Y-14123200D01*
X14818400Y-14023200D02*
X14718400Y-14123200D01*
X14818400Y-14073200D02*
G75*
G03X14818400Y-14073200I-50000J0D01*
G01*
X14718400Y-14523200D02*
X14818400Y-14623200D01*
X14818400Y-14523200D02*
X14718400Y-14623200D01*
X14818400Y-14573200D02*
G75*
G03X14818400Y-14573200I-50000J0D01*
G01*
X15218400Y-14023200D02*
X15318400Y-14123200D01*
X15318400Y-14023200D02*
X15218400Y-14123200D01*
X15318400Y-14073200D02*
G75*
G03X15318400Y-14073200I-50000J0D01*
G01*
X15218400Y-14523200D02*
X15318400Y-14623200D01*
X15318400Y-14523200D02*
X15218400Y-14623200D01*
X15318400Y-14573200D02*
G75*
G03X15318400Y-14573200I-50000J0D01*
G01*
X12523000Y-8205000D02*
X12623000Y-8305000D01*
X12623000Y-8205000D02*
X12523000Y-8305000D01*
X12623000Y-8255000D02*
G75*
G03X12623000Y-8255000I-50000J0D01*
G01*
X12523000Y-8459000D02*
X12623000Y-8559000D01*
X12623000Y-8459000D02*
X12523000Y-8559000D01*
X12623000Y-8509000D02*
G75*
G03X12623000Y-8509000I-50000J0D01*
G01*
X12523000Y-8713000D02*
X12623000Y-8813000D01*
X12623000Y-8713000D02*
X12523000Y-8813000D01*
X12623000Y-8763000D02*
G75*
G03X12623000Y-8763000I-50000J0D01*
G01*
X12523000Y-8967000D02*
X12623000Y-9067000D01*
X12623000Y-8967000D02*
X12523000Y-9067000D01*
X12623000Y-9017000D02*
G75*
G03X12623000Y-9017000I-50000J0D01*
G01*
X12523000Y-9221000D02*
X12623000Y-9321000D01*
X12623000Y-9221000D02*
X12523000Y-9321000D01*
X12623000Y-9271000D02*
G75*
G03X12623000Y-9271000I-50000J0D01*
G01*
X12523000Y-9475000D02*
X12623000Y-9575000D01*
X12623000Y-9475000D02*
X12523000Y-9575000D01*
X12623000Y-9525000D02*
G75*
G03X12623000Y-9525000I-50000J0D01*
G01*
X12523000Y-9729000D02*
X12623000Y-9829000D01*
X12623000Y-9729000D02*
X12523000Y-9829000D01*
X12623000Y-9779000D02*
G75*
G03X12623000Y-9779000I-50000J0D01*
G01*
X12523000Y-9983000D02*
X12623000Y-10083000D01*
X12623000Y-9983000D02*
X12523000Y-10083000D01*
X12623000Y-10033000D02*
G75*
G03X12623000Y-10033000I-50000J0D01*
G01*
X12523000Y-10237000D02*
X12623000Y-10337000D01*
X12623000Y-10237000D02*
X12523000Y-10337000D01*
X12623000Y-10287000D02*
G75*
G03X12623000Y-10287000I-50000J0D01*
G01*
X12523000Y-10491000D02*
X12623000Y-10591000D01*
X12623000Y-10491000D02*
X12523000Y-10591000D01*
X12623000Y-10541000D02*
G75*
G03X12623000Y-10541000I-50000J0D01*
G01*
X12523000Y-10745000D02*
X12623000Y-10845000D01*
X12623000Y-10745000D02*
X12523000Y-10845000D01*
X12623000Y-10795000D02*
G75*
G03X12623000Y-10795000I-50000J0D01*
G01*
X12523000Y-10999000D02*
X12623000Y-11099000D01*
X12623000Y-10999000D02*
X12523000Y-11099000D01*
X12623000Y-11049000D02*
G75*
G03X12623000Y-11049000I-50000J0D01*
G01*
X13539000Y-10999000D02*
X13639000Y-11099000D01*
X13639000Y-10999000D02*
X13539000Y-11099000D01*
X13639000Y-11049000D02*
G75*
G03X13639000Y-11049000I-50000J0D01*
G01*
X13793000Y-9094000D02*
X13893000Y-9194000D01*
X13893000Y-9094000D02*
X13793000Y-9194000D01*
X13893000Y-9144000D02*
G75*
G03X13893000Y-9144000I-50000J0D01*
G01*
X13793000Y-9348000D02*
X13893000Y-9448000D01*
X13893000Y-9348000D02*
X13793000Y-9448000D01*
X13893000Y-9398000D02*
G75*
G03X13893000Y-9398000I-50000J0D01*
G01*
X13793000Y-10110000D02*
X13893000Y-10210000D01*
X13893000Y-10110000D02*
X13793000Y-10210000D01*
X13893000Y-10160000D02*
G75*
G03X13893000Y-10160000I-50000J0D01*
G01*
X13793000Y-10364000D02*
X13893000Y-10464000D01*
X13893000Y-10364000D02*
X13793000Y-10464000D01*
X13893000Y-10414000D02*
G75*
G03X13893000Y-10414000I-50000J0D01*
G01*
X13793000Y-10999000D02*
X13893000Y-11099000D01*
X13893000Y-10999000D02*
X13793000Y-11099000D01*
X13893000Y-11049000D02*
G75*
G03X13893000Y-11049000I-50000J0D01*
G01*
X14047000Y-8205000D02*
X14147000Y-8305000D01*
X14147000Y-8205000D02*
X14047000Y-8305000D01*
X14147000Y-8255000D02*
G75*
G03X14147000Y-8255000I-50000J0D01*
G01*
X14047000Y-8459000D02*
X14147000Y-8559000D01*
X14147000Y-8459000D02*
X14047000Y-8559000D01*
X14147000Y-8509000D02*
G75*
G03X14147000Y-8509000I-50000J0D01*
G01*
X14047000Y-8713000D02*
X14147000Y-8813000D01*
X14147000Y-8713000D02*
X14047000Y-8813000D01*
X14147000Y-8763000D02*
G75*
G03X14147000Y-8763000I-50000J0D01*
G01*
X14047000Y-8967000D02*
X14147000Y-9067000D01*
X14147000Y-8967000D02*
X14047000Y-9067000D01*
X14147000Y-9017000D02*
G75*
G03X14147000Y-9017000I-50000J0D01*
G01*
X14047000Y-9221000D02*
X14147000Y-9321000D01*
X14147000Y-9221000D02*
X14047000Y-9321000D01*
X14147000Y-9271000D02*
G75*
G03X14147000Y-9271000I-50000J0D01*
G01*
X14047000Y-9475000D02*
X14147000Y-9575000D01*
X14147000Y-9475000D02*
X14047000Y-9575000D01*
X14147000Y-9525000D02*
G75*
G03X14147000Y-9525000I-50000J0D01*
G01*
X14047000Y-9729000D02*
X14147000Y-9829000D01*
X14147000Y-9729000D02*
X14047000Y-9829000D01*
X14147000Y-9779000D02*
G75*
G03X14147000Y-9779000I-50000J0D01*
G01*
X14047000Y-9983000D02*
X14147000Y-10083000D01*
X14147000Y-9983000D02*
X14047000Y-10083000D01*
X14147000Y-10033000D02*
G75*
G03X14147000Y-10033000I-50000J0D01*
G01*
X14047000Y-10237000D02*
X14147000Y-10337000D01*
X14147000Y-10237000D02*
X14047000Y-10337000D01*
X14147000Y-10287000D02*
G75*
G03X14147000Y-10287000I-50000J0D01*
G01*
X14047000Y-10491000D02*
X14147000Y-10591000D01*
X14147000Y-10491000D02*
X14047000Y-10591000D01*
X14147000Y-10541000D02*
G75*
G03X14147000Y-10541000I-50000J0D01*
G01*
X14047000Y-10745000D02*
X14147000Y-10845000D01*
X14147000Y-10745000D02*
X14047000Y-10845000D01*
X14147000Y-10795000D02*
G75*
G03X14147000Y-10795000I-50000J0D01*
G01*
X14047000Y-10999000D02*
X14147000Y-11099000D01*
X14147000Y-10999000D02*
X14047000Y-11099000D01*
X14147000Y-11049000D02*
G75*
G03X14147000Y-11049000I-50000J0D01*
G01*
X10675200Y-11475200D02*
X10775200Y-11575200D01*
X10775200Y-11475200D02*
X10675200Y-11575200D01*
X10775200Y-11525200D02*
G75*
G03X10775200Y-11525200I-50000J0D01*
G01*
X10675200Y-11975200D02*
X10775200Y-12075200D01*
X10775200Y-11975200D02*
X10675200Y-12075200D01*
X10775200Y-12025200D02*
G75*
G03X10775200Y-12025200I-50000J0D01*
G01*
X11175200Y-11475200D02*
X11275200Y-11575200D01*
X11275200Y-11475200D02*
X11175200Y-11575200D01*
X11275200Y-11525200D02*
G75*
G03X11275200Y-11525200I-50000J0D01*
G01*
X11175200Y-11975200D02*
X11275200Y-12075200D01*
X11275200Y-11975200D02*
X11175200Y-12075200D01*
X11275200Y-12025200D02*
G75*
G03X11275200Y-12025200I-50000J0D01*
G01*
X16290200Y-13553400D02*
X16390200Y-13653400D01*
X16390200Y-13553400D02*
X16290200Y-13653400D01*
X16390200Y-13603400D02*
G75*
G03X16390200Y-13603400I-50000J0D01*
G01*
X16290200Y-14053400D02*
X16390200Y-14153400D01*
X16390200Y-14053400D02*
X16290200Y-14153400D01*
X16390200Y-14103400D02*
G75*
G03X16390200Y-14103400I-50000J0D01*
G01*
X16790200Y-13553400D02*
X16890200Y-13653400D01*
X16890200Y-13553400D02*
X16790200Y-13653400D01*
X16890200Y-13603400D02*
G75*
G03X16890200Y-13603400I-50000J0D01*
G01*
X16790200Y-14053400D02*
X16890200Y-14153400D01*
X16890200Y-14053400D02*
X16790200Y-14153400D01*
X16890200Y-14103400D02*
G75*
G03X16890200Y-14103400I-50000J0D01*
G01*
X10953600Y-8537400D02*
X11063600Y-8647400D01*
X11063600Y-8537400D02*
X10953600Y-8647400D01*
X11008600Y-8537400D02*
X11008600Y-8647400D01*
X10953600Y-8592400D02*
X11063600Y-8592400D01*
X10953600Y-8987400D02*
X11063600Y-9097400D01*
X11063600Y-8987400D02*
X10953600Y-9097400D01*
X11008600Y-8987400D02*
X11008600Y-9097400D01*
X10953600Y-9042400D02*
X11063600Y-9042400D01*
X11603600Y-8537400D02*
X11713600Y-8647400D01*
X11713600Y-8537400D02*
X11603600Y-8647400D01*
X11658600Y-8537400D02*
X11658600Y-8647400D01*
X11603600Y-8592400D02*
X11713600Y-8592400D01*
X11603600Y-8987400D02*
X11713600Y-9097400D01*
X11713600Y-8987400D02*
X11603600Y-9097400D01*
X11658600Y-8987400D02*
X11658600Y-9097400D01*
X11603600Y-9042400D02*
X11713600Y-9042400D01*
X13327200Y-13298000D02*
X13457200Y-13428000D01*
X13457200Y-13298000D02*
X13327200Y-13428000D01*
X13438162Y-13408962D02*
X13438162Y-13317038D01*
X13346238Y-13317038D01*
X13346238Y-13408962D01*
X13438162Y-13408962D01*
X13327200Y-13802000D02*
X13457200Y-13932000D01*
X13457200Y-13802000D02*
X13327200Y-13932000D01*
X13438162Y-13912962D02*
X13438162Y-13821038D01*
X13346238Y-13821038D01*
X13346238Y-13912962D01*
X13438162Y-13912962D01*
X13327200Y-14306000D02*
X13457200Y-14436000D01*
X13457200Y-14306000D02*
X13327200Y-14436000D01*
X13438162Y-14416962D02*
X13438162Y-14325038D01*
X13346238Y-14325038D01*
X13346238Y-14416962D01*
X13438162Y-14416962D01*
X15876200Y-12707600D02*
X16026200Y-12857600D01*
X16026200Y-12707600D02*
X15876200Y-12857600D01*
X15951200Y-12857600D02*
X16026200Y-12782600D01*
X15951200Y-12707600D01*
X15876200Y-12782600D01*
X15951200Y-12857600D01*
X16151200Y-8857600D02*
X16301200Y-9007600D01*
X16301200Y-8857600D02*
X16151200Y-9007600D01*
X16226200Y-9007600D02*
X16301200Y-8932600D01*
X16226200Y-8857600D01*
X16151200Y-8932600D01*
X16226200Y-9007600D01*
X16951200Y-8857600D02*
X17101200Y-9007600D01*
X17101200Y-8857600D02*
X16951200Y-9007600D01*
X17026200Y-9007600D02*
X17101200Y-8932600D01*
X17026200Y-8857600D01*
X16951200Y-8932600D01*
X17026200Y-9007600D01*
X16951200Y-12707600D02*
X17101200Y-12857600D01*
X17101200Y-12707600D02*
X16951200Y-12857600D01*
X17026200Y-12857600D02*
X17101200Y-12782600D01*
X17026200Y-12707600D01*
X16951200Y-12782600D01*
X17026200Y-12857600D01*
X11600000Y-14815000D02*
X11600000Y-15135000D01*
X11440000Y-14975000D02*
X11760000Y-14975000D01*
X11760000Y-14975000D02*
G75*
G03X11760000Y-14975000I-160000J0D01*
G01*
X16100000Y-14815000D02*
X16100000Y-15135000D01*
X15940000Y-14975000D02*
X16260000Y-14975000D01*
X16260000Y-14975000D02*
G75*
G03X16260000Y-14975000I-160000J0D01*
G01*
X16100000Y-7965000D02*
X16100000Y-8285000D01*
X15940000Y-8125000D02*
X16260000Y-8125000D01*
X16260000Y-8125000D02*
G75*
G03X16260000Y-8125000I-160000J0D01*
G01*
X11600000Y-7965000D02*
X11600000Y-8285000D01*
X11440000Y-8125000D02*
X11760000Y-8125000D01*
X11760000Y-8125000D02*
G75*
G03X11760000Y-8125000I-160000J0D01*
G01*
D12*
X10378928Y-15773214D02*
X10378928Y-15473214D01*
X10450357Y-15473214D01*
X10493214Y-15487500D01*
X10521786Y-15516071D01*
X10536071Y-15544643D01*
X10550357Y-15601786D01*
X10550357Y-15644643D01*
X10536071Y-15701786D01*
X10521786Y-15730357D01*
X10493214Y-15758929D01*
X10450357Y-15773214D01*
X10378928Y-15773214D01*
X10678928Y-15773214D02*
X10678928Y-15573214D01*
X10678928Y-15630357D02*
X10693214Y-15601786D01*
X10707500Y-15587500D01*
X10736071Y-15573214D01*
X10764643Y-15573214D01*
X10864643Y-15773214D02*
X10864643Y-15573214D01*
X10864643Y-15473214D02*
X10850357Y-15487500D01*
X10864643Y-15501786D01*
X10878928Y-15487500D01*
X10864643Y-15473214D01*
X10864643Y-15501786D01*
X11050357Y-15773214D02*
X11021786Y-15758929D01*
X11007500Y-15730357D01*
X11007500Y-15473214D01*
X11207500Y-15773214D02*
X11178928Y-15758929D01*
X11164643Y-15730357D01*
X11164643Y-15473214D01*
X11550357Y-15773214D02*
X11550357Y-15473214D01*
X11650357Y-15687500D01*
X11750357Y-15473214D01*
X11750357Y-15773214D01*
X12021786Y-15773214D02*
X12021786Y-15616071D01*
X12007500Y-15587500D01*
X11978928Y-15573214D01*
X11921786Y-15573214D01*
X11893214Y-15587500D01*
X12021786Y-15758929D02*
X11993214Y-15773214D01*
X11921786Y-15773214D01*
X11893214Y-15758929D01*
X11878928Y-15730357D01*
X11878928Y-15701786D01*
X11893214Y-15673214D01*
X11921786Y-15658929D01*
X11993214Y-15658929D01*
X12021786Y-15644643D01*
X12164643Y-15573214D02*
X12164643Y-15873214D01*
X12164643Y-15587500D02*
X12193214Y-15573214D01*
X12250357Y-15573214D01*
X12278928Y-15587500D01*
X12293214Y-15601786D01*
X12307500Y-15630357D01*
X12307500Y-15716071D01*
X12293214Y-15744643D01*
X12278928Y-15758929D01*
X12250357Y-15773214D01*
X12193214Y-15773214D01*
X12164643Y-15758929D01*
X12436071Y-15744643D02*
X12450357Y-15758929D01*
X12436071Y-15773214D01*
X12421786Y-15758929D01*
X12436071Y-15744643D01*
X12436071Y-15773214D01*
X12436071Y-15587500D02*
X12450357Y-15601786D01*
X12436071Y-15616071D01*
X12421786Y-15601786D01*
X12436071Y-15587500D01*
X12436071Y-15616071D01*
X10052500Y-16247500D02*
X10092500Y-16287500D01*
X10092500Y-16247500D02*
X10052500Y-16287500D01*
X10436071Y-16103214D02*
X10464643Y-16103214D01*
X10493214Y-16117500D01*
X10507500Y-16131786D01*
X10521786Y-16160357D01*
X10536071Y-16217500D01*
X10536071Y-16288929D01*
X10521786Y-16346071D01*
X10507500Y-16374643D01*
X10493214Y-16388929D01*
X10464643Y-16403214D01*
X10436071Y-16403214D01*
X10407500Y-16388929D01*
X10393214Y-16374643D01*
X10378928Y-16346071D01*
X10364643Y-16288929D01*
X10364643Y-16217500D01*
X10378928Y-16160357D01*
X10393214Y-16131786D01*
X10407500Y-16117500D01*
X10436071Y-16103214D01*
X10664643Y-16374643D02*
X10678928Y-16388929D01*
X10664643Y-16403214D01*
X10650357Y-16388929D01*
X10664643Y-16374643D01*
X10664643Y-16403214D01*
X10936071Y-16203214D02*
X10936071Y-16403214D01*
X10864643Y-16088929D02*
X10793214Y-16303214D01*
X10978928Y-16303214D01*
X11150357Y-16103214D02*
X11178928Y-16103214D01*
X11207500Y-16117500D01*
X11221786Y-16131786D01*
X11236071Y-16160357D01*
X11250357Y-16217500D01*
X11250357Y-16288929D01*
X11236071Y-16346071D01*
X11221786Y-16374643D01*
X11207500Y-16388929D01*
X11178928Y-16403214D01*
X11150357Y-16403214D01*
X11121786Y-16388929D01*
X11107500Y-16374643D01*
X11093214Y-16346071D01*
X11078928Y-16288929D01*
X11078928Y-16217500D01*
X11093214Y-16160357D01*
X11107500Y-16131786D01*
X11121786Y-16117500D01*
X11150357Y-16103214D01*
X11378928Y-16403214D02*
X11378928Y-16203214D01*
X11378928Y-16231786D02*
X11393214Y-16217500D01*
X11421786Y-16203214D01*
X11464643Y-16203214D01*
X11493214Y-16217500D01*
X11507500Y-16246071D01*
X11507500Y-16403214D01*
X11507500Y-16246071D02*
X11521786Y-16217500D01*
X11550357Y-16203214D01*
X11593214Y-16203214D01*
X11621786Y-16217500D01*
X11636071Y-16246071D01*
X11636071Y-16403214D01*
X11778928Y-16403214D02*
X11778928Y-16203214D01*
X11778928Y-16231786D02*
X11793214Y-16217500D01*
X11821786Y-16203214D01*
X11864643Y-16203214D01*
X11893214Y-16217500D01*
X11907500Y-16246071D01*
X11907500Y-16403214D01*
X11907500Y-16246071D02*
X11921786Y-16217500D01*
X11950357Y-16203214D01*
X11993214Y-16203214D01*
X12021786Y-16217500D01*
X12036071Y-16246071D01*
X12036071Y-16403214D01*
X12621786Y-16088929D02*
X12364643Y-16474643D01*
X13007500Y-16103214D02*
X13036071Y-16103214D01*
X13064643Y-16117500D01*
X13078928Y-16131786D01*
X13093214Y-16160357D01*
X13107500Y-16217500D01*
X13107500Y-16288929D01*
X13093214Y-16346071D01*
X13078928Y-16374643D01*
X13064643Y-16388929D01*
X13036071Y-16403214D01*
X13007500Y-16403214D01*
X12978928Y-16388929D01*
X12964643Y-16374643D01*
X12950357Y-16346071D01*
X12936071Y-16288929D01*
X12936071Y-16217500D01*
X12950357Y-16160357D01*
X12964643Y-16131786D01*
X12978928Y-16117500D01*
X13007500Y-16103214D01*
X13236071Y-16374643D02*
X13250357Y-16388929D01*
X13236071Y-16403214D01*
X13221786Y-16388929D01*
X13236071Y-16374643D01*
X13236071Y-16403214D01*
X13436071Y-16103214D02*
X13464643Y-16103214D01*
X13493214Y-16117500D01*
X13507500Y-16131786D01*
X13521786Y-16160357D01*
X13536071Y-16217500D01*
X13536071Y-16288929D01*
X13521786Y-16346071D01*
X13507500Y-16374643D01*
X13493214Y-16388929D01*
X13464643Y-16403214D01*
X13436071Y-16403214D01*
X13407500Y-16388929D01*
X13393214Y-16374643D01*
X13378928Y-16346071D01*
X13364643Y-16288929D01*
X13364643Y-16217500D01*
X13378928Y-16160357D01*
X13393214Y-16131786D01*
X13407500Y-16117500D01*
X13436071Y-16103214D01*
X13821786Y-16403214D02*
X13650357Y-16403214D01*
X13736071Y-16403214D02*
X13736071Y-16103214D01*
X13707500Y-16146071D01*
X13678928Y-16174643D01*
X13650357Y-16188929D01*
X14078928Y-16103214D02*
X14021786Y-16103214D01*
X13993214Y-16117500D01*
X13978928Y-16131786D01*
X13950357Y-16174643D01*
X13936071Y-16231786D01*
X13936071Y-16346071D01*
X13950357Y-16374643D01*
X13964643Y-16388929D01*
X13993214Y-16403214D01*
X14050357Y-16403214D01*
X14078928Y-16388929D01*
X14093214Y-16374643D01*
X14107500Y-16346071D01*
X14107500Y-16274643D01*
X14093214Y-16246071D01*
X14078928Y-16231786D01*
X14050357Y-16217500D01*
X13993214Y-16217500D01*
X13964643Y-16231786D01*
X13950357Y-16246071D01*
X13936071Y-16274643D01*
X14221786Y-16103214D02*
X14221786Y-16160357D01*
X14336071Y-16103214D02*
X14336071Y-16160357D01*
X14778928Y-16517500D02*
X14764643Y-16503214D01*
X14736071Y-16460357D01*
X14721786Y-16431786D01*
X14707500Y-16388929D01*
X14693214Y-16317500D01*
X14693214Y-16260357D01*
X14707500Y-16188929D01*
X14721786Y-16146071D01*
X14736071Y-16117500D01*
X14764643Y-16074643D01*
X14778928Y-16060357D01*
X14864643Y-16103214D02*
X15050357Y-16103214D01*
X14950357Y-16217500D01*
X14993214Y-16217500D01*
X15021786Y-16231786D01*
X15036071Y-16246071D01*
X15050357Y-16274643D01*
X15050357Y-16346071D01*
X15036071Y-16374643D01*
X15021786Y-16388929D01*
X14993214Y-16403214D01*
X14907500Y-16403214D01*
X14878928Y-16388929D01*
X14864643Y-16374643D01*
X15150357Y-16103214D02*
X15336071Y-16103214D01*
X15236071Y-16217500D01*
X15278928Y-16217500D01*
X15307500Y-16231786D01*
X15321786Y-16246071D01*
X15336071Y-16274643D01*
X15336071Y-16346071D01*
X15321786Y-16374643D01*
X15307500Y-16388929D01*
X15278928Y-16403214D01*
X15193214Y-16403214D01*
X15164643Y-16388929D01*
X15150357Y-16374643D01*
X15693214Y-16403214D02*
X15693214Y-16103214D01*
X15821786Y-16403214D02*
X15821786Y-16246071D01*
X15807500Y-16217500D01*
X15778928Y-16203214D01*
X15736071Y-16203214D01*
X15707500Y-16217500D01*
X15693214Y-16231786D01*
X16007500Y-16403214D02*
X15978928Y-16388929D01*
X15964643Y-16374643D01*
X15950357Y-16346071D01*
X15950357Y-16260357D01*
X15964643Y-16231786D01*
X15978928Y-16217500D01*
X16007500Y-16203214D01*
X16050357Y-16203214D01*
X16078928Y-16217500D01*
X16093214Y-16231786D01*
X16107500Y-16260357D01*
X16107500Y-16346071D01*
X16093214Y-16374643D01*
X16078928Y-16388929D01*
X16050357Y-16403214D01*
X16007500Y-16403214D01*
X16278928Y-16403214D02*
X16250357Y-16388929D01*
X16236071Y-16360357D01*
X16236071Y-16103214D01*
X16507500Y-16388929D02*
X16478928Y-16403214D01*
X16421786Y-16403214D01*
X16393214Y-16388929D01*
X16378928Y-16360357D01*
X16378928Y-16246071D01*
X16393214Y-16217500D01*
X16421786Y-16203214D01*
X16478928Y-16203214D01*
X16507500Y-16217500D01*
X16521786Y-16246071D01*
X16521786Y-16274643D01*
X16378928Y-16303214D01*
X16636071Y-16388929D02*
X16664643Y-16403214D01*
X16721786Y-16403214D01*
X16750357Y-16388929D01*
X16764643Y-16360357D01*
X16764643Y-16346071D01*
X16750357Y-16317500D01*
X16721786Y-16303214D01*
X16678928Y-16303214D01*
X16650357Y-16288929D01*
X16636071Y-16260357D01*
X16636071Y-16246071D01*
X16650357Y-16217500D01*
X16678928Y-16203214D01*
X16721786Y-16203214D01*
X16750357Y-16217500D01*
X16864643Y-16517500D02*
X16878928Y-16503214D01*
X16907500Y-16460357D01*
X16921786Y-16431786D01*
X16936071Y-16388929D01*
X16950357Y-16317500D01*
X16950357Y-16260357D01*
X16936071Y-16188929D01*
X16921786Y-16146071D01*
X16907500Y-16117500D01*
X16878928Y-16074643D01*
X16864643Y-16060357D01*
X10092500Y-16663500D02*
G75*
G03X10092500Y-16663500I-30000J0D01*
G01*
X10436071Y-16499214D02*
X10464643Y-16499214D01*
X10493214Y-16513500D01*
X10507500Y-16527786D01*
X10521786Y-16556357D01*
X10536071Y-16613500D01*
X10536071Y-16684929D01*
X10521786Y-16742071D01*
X10507500Y-16770643D01*
X10493214Y-16784929D01*
X10464643Y-16799214D01*
X10436071Y-16799214D01*
X10407500Y-16784929D01*
X10393214Y-16770643D01*
X10378928Y-16742071D01*
X10364643Y-16684929D01*
X10364643Y-16613500D01*
X10378928Y-16556357D01*
X10393214Y-16527786D01*
X10407500Y-16513500D01*
X10436071Y-16499214D01*
X10664643Y-16770643D02*
X10678928Y-16784929D01*
X10664643Y-16799214D01*
X10650357Y-16784929D01*
X10664643Y-16770643D01*
X10664643Y-16799214D01*
X10936071Y-16499214D02*
X10878928Y-16499214D01*
X10850357Y-16513500D01*
X10836071Y-16527786D01*
X10807500Y-16570643D01*
X10793214Y-16627786D01*
X10793214Y-16742071D01*
X10807500Y-16770643D01*
X10821786Y-16784929D01*
X10850357Y-16799214D01*
X10907500Y-16799214D01*
X10936071Y-16784929D01*
X10950357Y-16770643D01*
X10964643Y-16742071D01*
X10964643Y-16670643D01*
X10950357Y-16642071D01*
X10936071Y-16627786D01*
X10907500Y-16613500D01*
X10850357Y-16613500D01*
X10821786Y-16627786D01*
X10807500Y-16642071D01*
X10793214Y-16670643D01*
X11150357Y-16499214D02*
X11178928Y-16499214D01*
X11207500Y-16513500D01*
X11221786Y-16527786D01*
X11236071Y-16556357D01*
X11250357Y-16613500D01*
X11250357Y-16684929D01*
X11236071Y-16742071D01*
X11221786Y-16770643D01*
X11207500Y-16784929D01*
X11178928Y-16799214D01*
X11150357Y-16799214D01*
X11121786Y-16784929D01*
X11107500Y-16770643D01*
X11093214Y-16742071D01*
X11078928Y-16684929D01*
X11078928Y-16613500D01*
X11093214Y-16556357D01*
X11107500Y-16527786D01*
X11121786Y-16513500D01*
X11150357Y-16499214D01*
X11378928Y-16799214D02*
X11378928Y-16599214D01*
X11378928Y-16627786D02*
X11393214Y-16613500D01*
X11421786Y-16599214D01*
X11464643Y-16599214D01*
X11493214Y-16613500D01*
X11507500Y-16642071D01*
X11507500Y-16799214D01*
X11507500Y-16642071D02*
X11521786Y-16613500D01*
X11550357Y-16599214D01*
X11593214Y-16599214D01*
X11621786Y-16613500D01*
X11636071Y-16642071D01*
X11636071Y-16799214D01*
X11778928Y-16799214D02*
X11778928Y-16599214D01*
X11778928Y-16627786D02*
X11793214Y-16613500D01*
X11821786Y-16599214D01*
X11864643Y-16599214D01*
X11893214Y-16613500D01*
X11907500Y-16642071D01*
X11907500Y-16799214D01*
X11907500Y-16642071D02*
X11921786Y-16613500D01*
X11950357Y-16599214D01*
X11993214Y-16599214D01*
X12021786Y-16613500D01*
X12036071Y-16642071D01*
X12036071Y-16799214D01*
X12621786Y-16484929D02*
X12364643Y-16870643D01*
X13007500Y-16499214D02*
X13036071Y-16499214D01*
X13064643Y-16513500D01*
X13078928Y-16527786D01*
X13093214Y-16556357D01*
X13107500Y-16613500D01*
X13107500Y-16684929D01*
X13093214Y-16742071D01*
X13078928Y-16770643D01*
X13064643Y-16784929D01*
X13036071Y-16799214D01*
X13007500Y-16799214D01*
X12978928Y-16784929D01*
X12964643Y-16770643D01*
X12950357Y-16742071D01*
X12936071Y-16684929D01*
X12936071Y-16613500D01*
X12950357Y-16556357D01*
X12964643Y-16527786D01*
X12978928Y-16513500D01*
X13007500Y-16499214D01*
X13236071Y-16770643D02*
X13250357Y-16784929D01*
X13236071Y-16799214D01*
X13221786Y-16784929D01*
X13236071Y-16770643D01*
X13236071Y-16799214D01*
X13436071Y-16499214D02*
X13464643Y-16499214D01*
X13493214Y-16513500D01*
X13507500Y-16527786D01*
X13521786Y-16556357D01*
X13536071Y-16613500D01*
X13536071Y-16684929D01*
X13521786Y-16742071D01*
X13507500Y-16770643D01*
X13493214Y-16784929D01*
X13464643Y-16799214D01*
X13436071Y-16799214D01*
X13407500Y-16784929D01*
X13393214Y-16770643D01*
X13378928Y-16742071D01*
X13364643Y-16684929D01*
X13364643Y-16613500D01*
X13378928Y-16556357D01*
X13393214Y-16527786D01*
X13407500Y-16513500D01*
X13436071Y-16499214D01*
X13650357Y-16527786D02*
X13664643Y-16513500D01*
X13693214Y-16499214D01*
X13764643Y-16499214D01*
X13793214Y-16513500D01*
X13807500Y-16527786D01*
X13821786Y-16556357D01*
X13821786Y-16584929D01*
X13807500Y-16627786D01*
X13636071Y-16799214D01*
X13821786Y-16799214D01*
X14078928Y-16599214D02*
X14078928Y-16799214D01*
X14007500Y-16484929D02*
X13936071Y-16699214D01*
X14121786Y-16699214D01*
X14221786Y-16499214D02*
X14221786Y-16556357D01*
X14336071Y-16499214D02*
X14336071Y-16556357D01*
X14778928Y-16913500D02*
X14764643Y-16899214D01*
X14736071Y-16856357D01*
X14721786Y-16827786D01*
X14707500Y-16784929D01*
X14693214Y-16713500D01*
X14693214Y-16656357D01*
X14707500Y-16584929D01*
X14721786Y-16542071D01*
X14736071Y-16513500D01*
X14764643Y-16470643D01*
X14778928Y-16456357D01*
X14878928Y-16527786D02*
X14893214Y-16513500D01*
X14921786Y-16499214D01*
X14993214Y-16499214D01*
X15021786Y-16513500D01*
X15036071Y-16527786D01*
X15050357Y-16556357D01*
X15050357Y-16584929D01*
X15036071Y-16627786D01*
X14864643Y-16799214D01*
X15050357Y-16799214D01*
X15407500Y-16799214D02*
X15407500Y-16499214D01*
X15536071Y-16799214D02*
X15536071Y-16642071D01*
X15521786Y-16613500D01*
X15493214Y-16599214D01*
X15450357Y-16599214D01*
X15421786Y-16613500D01*
X15407500Y-16627786D01*
X15721786Y-16799214D02*
X15693214Y-16784929D01*
X15678928Y-16770643D01*
X15664643Y-16742071D01*
X15664643Y-16656357D01*
X15678928Y-16627786D01*
X15693214Y-16613500D01*
X15721786Y-16599214D01*
X15764643Y-16599214D01*
X15793214Y-16613500D01*
X15807500Y-16627786D01*
X15821786Y-16656357D01*
X15821786Y-16742071D01*
X15807500Y-16770643D01*
X15793214Y-16784929D01*
X15764643Y-16799214D01*
X15721786Y-16799214D01*
X15993214Y-16799214D02*
X15964643Y-16784929D01*
X15950357Y-16756357D01*
X15950357Y-16499214D01*
X16221786Y-16784929D02*
X16193214Y-16799214D01*
X16136071Y-16799214D01*
X16107500Y-16784929D01*
X16093214Y-16756357D01*
X16093214Y-16642071D01*
X16107500Y-16613500D01*
X16136071Y-16599214D01*
X16193214Y-16599214D01*
X16221786Y-16613500D01*
X16236071Y-16642071D01*
X16236071Y-16670643D01*
X16093214Y-16699214D01*
X16350357Y-16784929D02*
X16378928Y-16799214D01*
X16436071Y-16799214D01*
X16464643Y-16784929D01*
X16478928Y-16756357D01*
X16478928Y-16742071D01*
X16464643Y-16713500D01*
X16436071Y-16699214D01*
X16393214Y-16699214D01*
X16364643Y-16684929D01*
X16350357Y-16656357D01*
X16350357Y-16642071D01*
X16364643Y-16613500D01*
X16393214Y-16599214D01*
X16436071Y-16599214D01*
X16464643Y-16613500D01*
X16578928Y-16913500D02*
X16593214Y-16899214D01*
X16621786Y-16856357D01*
X16636071Y-16827786D01*
X16650357Y-16784929D01*
X16664643Y-16713500D01*
X16664643Y-16656357D01*
X16650357Y-16584929D01*
X16636071Y-16542071D01*
X16621786Y-16513500D01*
X16593214Y-16470643D01*
X16578928Y-16456357D01*
X10055000Y-17022000D02*
X10055000Y-17097000D01*
X10017500Y-17059500D02*
X10092500Y-17059500D01*
X10436071Y-16895214D02*
X10464643Y-16895214D01*
X10493214Y-16909500D01*
X10507500Y-16923786D01*
X10521786Y-16952357D01*
X10536071Y-17009500D01*
X10536071Y-17080929D01*
X10521786Y-17138072D01*
X10507500Y-17166643D01*
X10493214Y-17180929D01*
X10464643Y-17195214D01*
X10436071Y-17195214D01*
X10407500Y-17180929D01*
X10393214Y-17166643D01*
X10378928Y-17138072D01*
X10364643Y-17080929D01*
X10364643Y-17009500D01*
X10378928Y-16952357D01*
X10393214Y-16923786D01*
X10407500Y-16909500D01*
X10436071Y-16895214D01*
X10664643Y-17166643D02*
X10678928Y-17180929D01*
X10664643Y-17195214D01*
X10650357Y-17180929D01*
X10664643Y-17166643D01*
X10664643Y-17195214D01*
X10778928Y-16895214D02*
X10978928Y-16895214D01*
X10850357Y-17195214D01*
X11236071Y-16895214D02*
X11093214Y-16895214D01*
X11078928Y-17038072D01*
X11093214Y-17023786D01*
X11121786Y-17009500D01*
X11193214Y-17009500D01*
X11221786Y-17023786D01*
X11236071Y-17038072D01*
X11250357Y-17066643D01*
X11250357Y-17138072D01*
X11236071Y-17166643D01*
X11221786Y-17180929D01*
X11193214Y-17195214D01*
X11121786Y-17195214D01*
X11093214Y-17180929D01*
X11078928Y-17166643D01*
X11378928Y-17195214D02*
X11378928Y-16995214D01*
X11378928Y-17023786D02*
X11393214Y-17009500D01*
X11421786Y-16995214D01*
X11464643Y-16995214D01*
X11493214Y-17009500D01*
X11507500Y-17038072D01*
X11507500Y-17195214D01*
X11507500Y-17038072D02*
X11521786Y-17009500D01*
X11550357Y-16995214D01*
X11593214Y-16995214D01*
X11621786Y-17009500D01*
X11636071Y-17038072D01*
X11636071Y-17195214D01*
X11778928Y-17195214D02*
X11778928Y-16995214D01*
X11778928Y-17023786D02*
X11793214Y-17009500D01*
X11821786Y-16995214D01*
X11864643Y-16995214D01*
X11893214Y-17009500D01*
X11907500Y-17038072D01*
X11907500Y-17195214D01*
X11907500Y-17038072D02*
X11921786Y-17009500D01*
X11950357Y-16995214D01*
X11993214Y-16995214D01*
X12021786Y-17009500D01*
X12036071Y-17038072D01*
X12036071Y-17195214D01*
X12621786Y-16880929D02*
X12364643Y-17266643D01*
X13007500Y-16895214D02*
X13036071Y-16895214D01*
X13064643Y-16909500D01*
X13078928Y-16923786D01*
X13093214Y-16952357D01*
X13107500Y-17009500D01*
X13107500Y-17080929D01*
X13093214Y-17138072D01*
X13078928Y-17166643D01*
X13064643Y-17180929D01*
X13036071Y-17195214D01*
X13007500Y-17195214D01*
X12978928Y-17180929D01*
X12964643Y-17166643D01*
X12950357Y-17138072D01*
X12936071Y-17080929D01*
X12936071Y-17009500D01*
X12950357Y-16952357D01*
X12964643Y-16923786D01*
X12978928Y-16909500D01*
X13007500Y-16895214D01*
X13236071Y-17166643D02*
X13250357Y-17180929D01*
X13236071Y-17195214D01*
X13221786Y-17180929D01*
X13236071Y-17166643D01*
X13236071Y-17195214D01*
X13436071Y-16895214D02*
X13464643Y-16895214D01*
X13493214Y-16909500D01*
X13507500Y-16923786D01*
X13521786Y-16952357D01*
X13536071Y-17009500D01*
X13536071Y-17080929D01*
X13521786Y-17138072D01*
X13507500Y-17166643D01*
X13493214Y-17180929D01*
X13464643Y-17195214D01*
X13436071Y-17195214D01*
X13407500Y-17180929D01*
X13393214Y-17166643D01*
X13378928Y-17138072D01*
X13364643Y-17080929D01*
X13364643Y-17009500D01*
X13378928Y-16952357D01*
X13393214Y-16923786D01*
X13407500Y-16909500D01*
X13436071Y-16895214D01*
X13636071Y-16895214D02*
X13821786Y-16895214D01*
X13721786Y-17009500D01*
X13764643Y-17009500D01*
X13793214Y-17023786D01*
X13807500Y-17038072D01*
X13821786Y-17066643D01*
X13821786Y-17138072D01*
X13807500Y-17166643D01*
X13793214Y-17180929D01*
X13764643Y-17195214D01*
X13678928Y-17195214D01*
X13650357Y-17180929D01*
X13636071Y-17166643D01*
X14007500Y-16895214D02*
X14036071Y-16895214D01*
X14064643Y-16909500D01*
X14078928Y-16923786D01*
X14093214Y-16952357D01*
X14107500Y-17009500D01*
X14107500Y-17080929D01*
X14093214Y-17138072D01*
X14078928Y-17166643D01*
X14064643Y-17180929D01*
X14036071Y-17195214D01*
X14007500Y-17195214D01*
X13978928Y-17180929D01*
X13964643Y-17166643D01*
X13950357Y-17138072D01*
X13936071Y-17080929D01*
X13936071Y-17009500D01*
X13950357Y-16952357D01*
X13964643Y-16923786D01*
X13978928Y-16909500D01*
X14007500Y-16895214D01*
X14221786Y-16895214D02*
X14221786Y-16952357D01*
X14336071Y-16895214D02*
X14336071Y-16952357D01*
X14778928Y-17309500D02*
X14764643Y-17295214D01*
X14736071Y-17252357D01*
X14721786Y-17223786D01*
X14707500Y-17180929D01*
X14693214Y-17109500D01*
X14693214Y-17052357D01*
X14707500Y-16980929D01*
X14721786Y-16938072D01*
X14736071Y-16909500D01*
X14764643Y-16866643D01*
X14778928Y-16852357D01*
X14864643Y-16895214D02*
X15050357Y-16895214D01*
X14950357Y-17009500D01*
X14993214Y-17009500D01*
X15021786Y-17023786D01*
X15036071Y-17038072D01*
X15050357Y-17066643D01*
X15050357Y-17138072D01*
X15036071Y-17166643D01*
X15021786Y-17180929D01*
X14993214Y-17195214D01*
X14907500Y-17195214D01*
X14878928Y-17180929D01*
X14864643Y-17166643D01*
X15407500Y-17195214D02*
X15407500Y-16895214D01*
X15536071Y-17195214D02*
X15536071Y-17038072D01*
X15521786Y-17009500D01*
X15493214Y-16995214D01*
X15450357Y-16995214D01*
X15421786Y-17009500D01*
X15407500Y-17023786D01*
X15721786Y-17195214D02*
X15693214Y-17180929D01*
X15678928Y-17166643D01*
X15664643Y-17138072D01*
X15664643Y-17052357D01*
X15678928Y-17023786D01*
X15693214Y-17009500D01*
X15721786Y-16995214D01*
X15764643Y-16995214D01*
X15793214Y-17009500D01*
X15807500Y-17023786D01*
X15821786Y-17052357D01*
X15821786Y-17138072D01*
X15807500Y-17166643D01*
X15793214Y-17180929D01*
X15764643Y-17195214D01*
X15721786Y-17195214D01*
X15993214Y-17195214D02*
X15964643Y-17180929D01*
X15950357Y-17152357D01*
X15950357Y-16895214D01*
X16221786Y-17180929D02*
X16193214Y-17195214D01*
X16136071Y-17195214D01*
X16107500Y-17180929D01*
X16093214Y-17152357D01*
X16093214Y-17038072D01*
X16107500Y-17009500D01*
X16136071Y-16995214D01*
X16193214Y-16995214D01*
X16221786Y-17009500D01*
X16236071Y-17038072D01*
X16236071Y-17066643D01*
X16093214Y-17095214D01*
X16350357Y-17180929D02*
X16378928Y-17195214D01*
X16436071Y-17195214D01*
X16464643Y-17180929D01*
X16478928Y-17152357D01*
X16478928Y-17138072D01*
X16464643Y-17109500D01*
X16436071Y-17095214D01*
X16393214Y-17095214D01*
X16364643Y-17080929D01*
X16350357Y-17052357D01*
X16350357Y-17038072D01*
X16364643Y-17009500D01*
X16393214Y-16995214D01*
X16436071Y-16995214D01*
X16464643Y-17009500D01*
X16578928Y-17309500D02*
X16593214Y-17295214D01*
X16621786Y-17252357D01*
X16636071Y-17223786D01*
X16650357Y-17180929D01*
X16664643Y-17109500D01*
X16664643Y-17052357D01*
X16650357Y-16980929D01*
X16636071Y-16938072D01*
X16621786Y-16909500D01*
X16593214Y-16866643D01*
X16578928Y-16852357D01*
X10080784Y-17483785D02*
X10080784Y-17427216D01*
X10024215Y-17427216D01*
X10024215Y-17483785D01*
X10080784Y-17483785D01*
X10436071Y-17291214D02*
X10464643Y-17291214D01*
X10493214Y-17305500D01*
X10507500Y-17319786D01*
X10521786Y-17348357D01*
X10536071Y-17405500D01*
X10536071Y-17476929D01*
X10521786Y-17534072D01*
X10507500Y-17562643D01*
X10493214Y-17576929D01*
X10464643Y-17591214D01*
X10436071Y-17591214D01*
X10407500Y-17576929D01*
X10393214Y-17562643D01*
X10378928Y-17534072D01*
X10364643Y-17476929D01*
X10364643Y-17405500D01*
X10378928Y-17348357D01*
X10393214Y-17319786D01*
X10407500Y-17305500D01*
X10436071Y-17291214D01*
X10664643Y-17562643D02*
X10678928Y-17576929D01*
X10664643Y-17591214D01*
X10650357Y-17576929D01*
X10664643Y-17562643D01*
X10664643Y-17591214D01*
X10850357Y-17419786D02*
X10821786Y-17405500D01*
X10807500Y-17391214D01*
X10793214Y-17362643D01*
X10793214Y-17348357D01*
X10807500Y-17319786D01*
X10821786Y-17305500D01*
X10850357Y-17291214D01*
X10907500Y-17291214D01*
X10936071Y-17305500D01*
X10950357Y-17319786D01*
X10964643Y-17348357D01*
X10964643Y-17362643D01*
X10950357Y-17391214D01*
X10936071Y-17405500D01*
X10907500Y-17419786D01*
X10850357Y-17419786D01*
X10821786Y-17434072D01*
X10807500Y-17448357D01*
X10793214Y-17476929D01*
X10793214Y-17534072D01*
X10807500Y-17562643D01*
X10821786Y-17576929D01*
X10850357Y-17591214D01*
X10907500Y-17591214D01*
X10936071Y-17576929D01*
X10950357Y-17562643D01*
X10964643Y-17534072D01*
X10964643Y-17476929D01*
X10950357Y-17448357D01*
X10936071Y-17434072D01*
X10907500Y-17419786D01*
X11150357Y-17291214D02*
X11178928Y-17291214D01*
X11207500Y-17305500D01*
X11221786Y-17319786D01*
X11236071Y-17348357D01*
X11250357Y-17405500D01*
X11250357Y-17476929D01*
X11236071Y-17534072D01*
X11221786Y-17562643D01*
X11207500Y-17576929D01*
X11178928Y-17591214D01*
X11150357Y-17591214D01*
X11121786Y-17576929D01*
X11107500Y-17562643D01*
X11093214Y-17534072D01*
X11078928Y-17476929D01*
X11078928Y-17405500D01*
X11093214Y-17348357D01*
X11107500Y-17319786D01*
X11121786Y-17305500D01*
X11150357Y-17291214D01*
X11378928Y-17591214D02*
X11378928Y-17391214D01*
X11378928Y-17419786D02*
X11393214Y-17405500D01*
X11421786Y-17391214D01*
X11464643Y-17391214D01*
X11493214Y-17405500D01*
X11507500Y-17434072D01*
X11507500Y-17591214D01*
X11507500Y-17434072D02*
X11521786Y-17405500D01*
X11550357Y-17391214D01*
X11593214Y-17391214D01*
X11621786Y-17405500D01*
X11636071Y-17434072D01*
X11636071Y-17591214D01*
X11778928Y-17591214D02*
X11778928Y-17391214D01*
X11778928Y-17419786D02*
X11793214Y-17405500D01*
X11821786Y-17391214D01*
X11864643Y-17391214D01*
X11893214Y-17405500D01*
X11907500Y-17434072D01*
X11907500Y-17591214D01*
X11907500Y-17434072D02*
X11921786Y-17405500D01*
X11950357Y-17391214D01*
X11993214Y-17391214D01*
X12021786Y-17405500D01*
X12036071Y-17434072D01*
X12036071Y-17591214D01*
X12621786Y-17276929D02*
X12364643Y-17662643D01*
X13007500Y-17291214D02*
X13036071Y-17291214D01*
X13064643Y-17305500D01*
X13078928Y-17319786D01*
X13093214Y-17348357D01*
X13107500Y-17405500D01*
X13107500Y-17476929D01*
X13093214Y-17534072D01*
X13078928Y-17562643D01*
X13064643Y-17576929D01*
X13036071Y-17591214D01*
X13007500Y-17591214D01*
X12978928Y-17576929D01*
X12964643Y-17562643D01*
X12950357Y-17534072D01*
X12936071Y-17476929D01*
X12936071Y-17405500D01*
X12950357Y-17348357D01*
X12964643Y-17319786D01*
X12978928Y-17305500D01*
X13007500Y-17291214D01*
X13236071Y-17562643D02*
X13250357Y-17576929D01*
X13236071Y-17591214D01*
X13221786Y-17576929D01*
X13236071Y-17562643D01*
X13236071Y-17591214D01*
X13436071Y-17291214D02*
X13464643Y-17291214D01*
X13493214Y-17305500D01*
X13507500Y-17319786D01*
X13521786Y-17348357D01*
X13536071Y-17405500D01*
X13536071Y-17476929D01*
X13521786Y-17534072D01*
X13507500Y-17562643D01*
X13493214Y-17576929D01*
X13464643Y-17591214D01*
X13436071Y-17591214D01*
X13407500Y-17576929D01*
X13393214Y-17562643D01*
X13378928Y-17534072D01*
X13364643Y-17476929D01*
X13364643Y-17405500D01*
X13378928Y-17348357D01*
X13393214Y-17319786D01*
X13407500Y-17305500D01*
X13436071Y-17291214D01*
X13636071Y-17291214D02*
X13821786Y-17291214D01*
X13721786Y-17405500D01*
X13764643Y-17405500D01*
X13793214Y-17419786D01*
X13807500Y-17434072D01*
X13821786Y-17462643D01*
X13821786Y-17534072D01*
X13807500Y-17562643D01*
X13793214Y-17576929D01*
X13764643Y-17591214D01*
X13678928Y-17591214D01*
X13650357Y-17576929D01*
X13636071Y-17562643D01*
X14107500Y-17591214D02*
X13936071Y-17591214D01*
X14021786Y-17591214D02*
X14021786Y-17291214D01*
X13993214Y-17334072D01*
X13964643Y-17362643D01*
X13936071Y-17376929D01*
X14221786Y-17291214D02*
X14221786Y-17348357D01*
X14336071Y-17291214D02*
X14336071Y-17348357D01*
X14778928Y-17705500D02*
X14764643Y-17691214D01*
X14736071Y-17648357D01*
X14721786Y-17619786D01*
X14707500Y-17576929D01*
X14693214Y-17505500D01*
X14693214Y-17448357D01*
X14707500Y-17376929D01*
X14721786Y-17334072D01*
X14736071Y-17305500D01*
X14764643Y-17262643D01*
X14778928Y-17248357D01*
X15050357Y-17591214D02*
X14878928Y-17591214D01*
X14964643Y-17591214D02*
X14964643Y-17291214D01*
X14936071Y-17334072D01*
X14907500Y-17362643D01*
X14878928Y-17376929D01*
X15221786Y-17419786D02*
X15193214Y-17405500D01*
X15178928Y-17391214D01*
X15164643Y-17362643D01*
X15164643Y-17348357D01*
X15178928Y-17319786D01*
X15193214Y-17305500D01*
X15221786Y-17291214D01*
X15278928Y-17291214D01*
X15307500Y-17305500D01*
X15321786Y-17319786D01*
X15336071Y-17348357D01*
X15336071Y-17362643D01*
X15321786Y-17391214D01*
X15307500Y-17405500D01*
X15278928Y-17419786D01*
X15221786Y-17419786D01*
X15193214Y-17434072D01*
X15178928Y-17448357D01*
X15164643Y-17476929D01*
X15164643Y-17534072D01*
X15178928Y-17562643D01*
X15193214Y-17576929D01*
X15221786Y-17591214D01*
X15278928Y-17591214D01*
X15307500Y-17576929D01*
X15321786Y-17562643D01*
X15336071Y-17534072D01*
X15336071Y-17476929D01*
X15321786Y-17448357D01*
X15307500Y-17434072D01*
X15278928Y-17419786D01*
X15693214Y-17591214D02*
X15693214Y-17291214D01*
X15821786Y-17591214D02*
X15821786Y-17434072D01*
X15807500Y-17405500D01*
X15778928Y-17391214D01*
X15736071Y-17391214D01*
X15707500Y-17405500D01*
X15693214Y-17419786D01*
X16007500Y-17591214D02*
X15978928Y-17576929D01*
X15964643Y-17562643D01*
X15950357Y-17534072D01*
X15950357Y-17448357D01*
X15964643Y-17419786D01*
X15978928Y-17405500D01*
X16007500Y-17391214D01*
X16050357Y-17391214D01*
X16078928Y-17405500D01*
X16093214Y-17419786D01*
X16107500Y-17448357D01*
X16107500Y-17534072D01*
X16093214Y-17562643D01*
X16078928Y-17576929D01*
X16050357Y-17591214D01*
X16007500Y-17591214D01*
X16278928Y-17591214D02*
X16250357Y-17576929D01*
X16236071Y-17548357D01*
X16236071Y-17291214D01*
X16507500Y-17576929D02*
X16478928Y-17591214D01*
X16421786Y-17591214D01*
X16393214Y-17576929D01*
X16378928Y-17548357D01*
X16378928Y-17434072D01*
X16393214Y-17405500D01*
X16421786Y-17391214D01*
X16478928Y-17391214D01*
X16507500Y-17405500D01*
X16521786Y-17434072D01*
X16521786Y-17462643D01*
X16378928Y-17491214D01*
X16636071Y-17576929D02*
X16664643Y-17591214D01*
X16721786Y-17591214D01*
X16750357Y-17576929D01*
X16764643Y-17548357D01*
X16764643Y-17534072D01*
X16750357Y-17505500D01*
X16721786Y-17491214D01*
X16678928Y-17491214D01*
X16650357Y-17476929D01*
X16636071Y-17448357D01*
X16636071Y-17434072D01*
X16650357Y-17405500D01*
X16678928Y-17391214D01*
X16721786Y-17391214D01*
X16750357Y-17405500D01*
X16864643Y-17705500D02*
X16878928Y-17691214D01*
X16907500Y-17648357D01*
X16921786Y-17619786D01*
X16936071Y-17576929D01*
X16950357Y-17505500D01*
X16950357Y-17448357D01*
X16936071Y-17376929D01*
X16921786Y-17334072D01*
X16907500Y-17305500D01*
X16878928Y-17262643D01*
X16864643Y-17248357D01*
X10047500Y-17896500D02*
X10092500Y-17851500D01*
X10047500Y-17806500D01*
X10002500Y-17851500D01*
X10047500Y-17896500D01*
X10436071Y-17687214D02*
X10464643Y-17687214D01*
X10493214Y-17701500D01*
X10507500Y-17715786D01*
X10521786Y-17744357D01*
X10536071Y-17801500D01*
X10536071Y-17872929D01*
X10521786Y-17930072D01*
X10507500Y-17958643D01*
X10493214Y-17972929D01*
X10464643Y-17987214D01*
X10436071Y-17987214D01*
X10407500Y-17972929D01*
X10393214Y-17958643D01*
X10378928Y-17930072D01*
X10364643Y-17872929D01*
X10364643Y-17801500D01*
X10378928Y-17744357D01*
X10393214Y-17715786D01*
X10407500Y-17701500D01*
X10436071Y-17687214D01*
X10664643Y-17958643D02*
X10678928Y-17972929D01*
X10664643Y-17987214D01*
X10650357Y-17972929D01*
X10664643Y-17958643D01*
X10664643Y-17987214D01*
X10821786Y-17987214D02*
X10878928Y-17987214D01*
X10907500Y-17972929D01*
X10921786Y-17958643D01*
X10950357Y-17915786D01*
X10964643Y-17858643D01*
X10964643Y-17744357D01*
X10950357Y-17715786D01*
X10936071Y-17701500D01*
X10907500Y-17687214D01*
X10850357Y-17687214D01*
X10821786Y-17701500D01*
X10807500Y-17715786D01*
X10793214Y-17744357D01*
X10793214Y-17815786D01*
X10807500Y-17844357D01*
X10821786Y-17858643D01*
X10850357Y-17872929D01*
X10907500Y-17872929D01*
X10936071Y-17858643D01*
X10950357Y-17844357D01*
X10964643Y-17815786D01*
X11150357Y-17687214D02*
X11178928Y-17687214D01*
X11207500Y-17701500D01*
X11221786Y-17715786D01*
X11236071Y-17744357D01*
X11250357Y-17801500D01*
X11250357Y-17872929D01*
X11236071Y-17930072D01*
X11221786Y-17958643D01*
X11207500Y-17972929D01*
X11178928Y-17987214D01*
X11150357Y-17987214D01*
X11121786Y-17972929D01*
X11107500Y-17958643D01*
X11093214Y-17930072D01*
X11078928Y-17872929D01*
X11078928Y-17801500D01*
X11093214Y-17744357D01*
X11107500Y-17715786D01*
X11121786Y-17701500D01*
X11150357Y-17687214D01*
X11378928Y-17987214D02*
X11378928Y-17787214D01*
X11378928Y-17815786D02*
X11393214Y-17801500D01*
X11421786Y-17787214D01*
X11464643Y-17787214D01*
X11493214Y-17801500D01*
X11507500Y-17830072D01*
X11507500Y-17987214D01*
X11507500Y-17830072D02*
X11521786Y-17801500D01*
X11550357Y-17787214D01*
X11593214Y-17787214D01*
X11621786Y-17801500D01*
X11636071Y-17830072D01*
X11636071Y-17987214D01*
X11778928Y-17987214D02*
X11778928Y-17787214D01*
X11778928Y-17815786D02*
X11793214Y-17801500D01*
X11821786Y-17787214D01*
X11864643Y-17787214D01*
X11893214Y-17801500D01*
X11907500Y-17830072D01*
X11907500Y-17987214D01*
X11907500Y-17830072D02*
X11921786Y-17801500D01*
X11950357Y-17787214D01*
X11993214Y-17787214D01*
X12021786Y-17801500D01*
X12036071Y-17830072D01*
X12036071Y-17987214D01*
X12621786Y-17672929D02*
X12364643Y-18058643D01*
X13007500Y-17687214D02*
X13036071Y-17687214D01*
X13064643Y-17701500D01*
X13078928Y-17715786D01*
X13093214Y-17744357D01*
X13107500Y-17801500D01*
X13107500Y-17872929D01*
X13093214Y-17930072D01*
X13078928Y-17958643D01*
X13064643Y-17972929D01*
X13036071Y-17987214D01*
X13007500Y-17987214D01*
X12978928Y-17972929D01*
X12964643Y-17958643D01*
X12950357Y-17930072D01*
X12936071Y-17872929D01*
X12936071Y-17801500D01*
X12950357Y-17744357D01*
X12964643Y-17715786D01*
X12978928Y-17701500D01*
X13007500Y-17687214D01*
X13236071Y-17958643D02*
X13250357Y-17972929D01*
X13236071Y-17987214D01*
X13221786Y-17972929D01*
X13236071Y-17958643D01*
X13236071Y-17987214D01*
X13436071Y-17687214D02*
X13464643Y-17687214D01*
X13493214Y-17701500D01*
X13507500Y-17715786D01*
X13521786Y-17744357D01*
X13536071Y-17801500D01*
X13536071Y-17872929D01*
X13521786Y-17930072D01*
X13507500Y-17958643D01*
X13493214Y-17972929D01*
X13464643Y-17987214D01*
X13436071Y-17987214D01*
X13407500Y-17972929D01*
X13393214Y-17958643D01*
X13378928Y-17930072D01*
X13364643Y-17872929D01*
X13364643Y-17801500D01*
X13378928Y-17744357D01*
X13393214Y-17715786D01*
X13407500Y-17701500D01*
X13436071Y-17687214D01*
X13636071Y-17687214D02*
X13821786Y-17687214D01*
X13721786Y-17801500D01*
X13764643Y-17801500D01*
X13793214Y-17815786D01*
X13807500Y-17830072D01*
X13821786Y-17858643D01*
X13821786Y-17930072D01*
X13807500Y-17958643D01*
X13793214Y-17972929D01*
X13764643Y-17987214D01*
X13678928Y-17987214D01*
X13650357Y-17972929D01*
X13636071Y-17958643D01*
X14093214Y-17687214D02*
X13950357Y-17687214D01*
X13936071Y-17830072D01*
X13950357Y-17815786D01*
X13978928Y-17801500D01*
X14050357Y-17801500D01*
X14078928Y-17815786D01*
X14093214Y-17830072D01*
X14107500Y-17858643D01*
X14107500Y-17930072D01*
X14093214Y-17958643D01*
X14078928Y-17972929D01*
X14050357Y-17987214D01*
X13978928Y-17987214D01*
X13950357Y-17972929D01*
X13936071Y-17958643D01*
X14221786Y-17687214D02*
X14221786Y-17744357D01*
X14336071Y-17687214D02*
X14336071Y-17744357D01*
X14778928Y-18101500D02*
X14764643Y-18087214D01*
X14736071Y-18044357D01*
X14721786Y-18015786D01*
X14707500Y-17972929D01*
X14693214Y-17901500D01*
X14693214Y-17844357D01*
X14707500Y-17772929D01*
X14721786Y-17730072D01*
X14736071Y-17701500D01*
X14764643Y-17658643D01*
X14778928Y-17644357D01*
X14878928Y-17715786D02*
X14893214Y-17701500D01*
X14921786Y-17687214D01*
X14993214Y-17687214D01*
X15021786Y-17701500D01*
X15036071Y-17715786D01*
X15050357Y-17744357D01*
X15050357Y-17772929D01*
X15036071Y-17815786D01*
X14864643Y-17987214D01*
X15050357Y-17987214D01*
X15407500Y-17987214D02*
X15407500Y-17687214D01*
X15536071Y-17987214D02*
X15536071Y-17830072D01*
X15521786Y-17801500D01*
X15493214Y-17787214D01*
X15450357Y-17787214D01*
X15421786Y-17801500D01*
X15407500Y-17815786D01*
X15721786Y-17987214D02*
X15693214Y-17972929D01*
X15678928Y-17958643D01*
X15664643Y-17930072D01*
X15664643Y-17844357D01*
X15678928Y-17815786D01*
X15693214Y-17801500D01*
X15721786Y-17787214D01*
X15764643Y-17787214D01*
X15793214Y-17801500D01*
X15807500Y-17815786D01*
X15821786Y-17844357D01*
X15821786Y-17930072D01*
X15807500Y-17958643D01*
X15793214Y-17972929D01*
X15764643Y-17987214D01*
X15721786Y-17987214D01*
X15993214Y-17987214D02*
X15964643Y-17972929D01*
X15950357Y-17944357D01*
X15950357Y-17687214D01*
X16221786Y-17972929D02*
X16193214Y-17987214D01*
X16136071Y-17987214D01*
X16107500Y-17972929D01*
X16093214Y-17944357D01*
X16093214Y-17830072D01*
X16107500Y-17801500D01*
X16136071Y-17787214D01*
X16193214Y-17787214D01*
X16221786Y-17801500D01*
X16236071Y-17830072D01*
X16236071Y-17858643D01*
X16093214Y-17887214D01*
X16350357Y-17972929D02*
X16378928Y-17987214D01*
X16436071Y-17987214D01*
X16464643Y-17972929D01*
X16478928Y-17944357D01*
X16478928Y-17930072D01*
X16464643Y-17901500D01*
X16436071Y-17887214D01*
X16393214Y-17887214D01*
X16364643Y-17872929D01*
X16350357Y-17844357D01*
X16350357Y-17830072D01*
X16364643Y-17801500D01*
X16393214Y-17787214D01*
X16436071Y-17787214D01*
X16464643Y-17801500D01*
X16578928Y-18101500D02*
X16593214Y-18087214D01*
X16621786Y-18044357D01*
X16636071Y-18015786D01*
X16650357Y-17972929D01*
X16664643Y-17901500D01*
X16664643Y-17844357D01*
X16650357Y-17772929D01*
X16636071Y-17730072D01*
X16621786Y-17701500D01*
X16593214Y-17658643D01*
X16578928Y-17644357D01*
X9992500Y-18197500D02*
X10092500Y-18297500D01*
X10092500Y-18197500D02*
X9992500Y-18297500D01*
X10092500Y-18247500D02*
G75*
G03X10092500Y-18247500I-50000J0D01*
G01*
X10536071Y-18383214D02*
X10364643Y-18383214D01*
X10450357Y-18383214D02*
X10450357Y-18083214D01*
X10421786Y-18126072D01*
X10393214Y-18154643D01*
X10364643Y-18168929D01*
X10664643Y-18354643D02*
X10678928Y-18368929D01*
X10664643Y-18383214D01*
X10650357Y-18368929D01*
X10664643Y-18354643D01*
X10664643Y-18383214D01*
X10864643Y-18083214D02*
X10893214Y-18083214D01*
X10921786Y-18097500D01*
X10936071Y-18111786D01*
X10950357Y-18140357D01*
X10964643Y-18197500D01*
X10964643Y-18268929D01*
X10950357Y-18326072D01*
X10936071Y-18354643D01*
X10921786Y-18368929D01*
X10893214Y-18383214D01*
X10864643Y-18383214D01*
X10836071Y-18368929D01*
X10821786Y-18354643D01*
X10807500Y-18326072D01*
X10793214Y-18268929D01*
X10793214Y-18197500D01*
X10807500Y-18140357D01*
X10821786Y-18111786D01*
X10836071Y-18097500D01*
X10864643Y-18083214D01*
X11150357Y-18083214D02*
X11178928Y-18083214D01*
X11207500Y-18097500D01*
X11221786Y-18111786D01*
X11236071Y-18140357D01*
X11250357Y-18197500D01*
X11250357Y-18268929D01*
X11236071Y-18326072D01*
X11221786Y-18354643D01*
X11207500Y-18368929D01*
X11178928Y-18383214D01*
X11150357Y-18383214D01*
X11121786Y-18368929D01*
X11107500Y-18354643D01*
X11093214Y-18326072D01*
X11078928Y-18268929D01*
X11078928Y-18197500D01*
X11093214Y-18140357D01*
X11107500Y-18111786D01*
X11121786Y-18097500D01*
X11150357Y-18083214D01*
X11378928Y-18383214D02*
X11378928Y-18183214D01*
X11378928Y-18211786D02*
X11393214Y-18197500D01*
X11421786Y-18183214D01*
X11464643Y-18183214D01*
X11493214Y-18197500D01*
X11507500Y-18226072D01*
X11507500Y-18383214D01*
X11507500Y-18226072D02*
X11521786Y-18197500D01*
X11550357Y-18183214D01*
X11593214Y-18183214D01*
X11621786Y-18197500D01*
X11636071Y-18226072D01*
X11636071Y-18383214D01*
X11778928Y-18383214D02*
X11778928Y-18183214D01*
X11778928Y-18211786D02*
X11793214Y-18197500D01*
X11821786Y-18183214D01*
X11864643Y-18183214D01*
X11893214Y-18197500D01*
X11907500Y-18226072D01*
X11907500Y-18383214D01*
X11907500Y-18226072D02*
X11921786Y-18197500D01*
X11950357Y-18183214D01*
X11993214Y-18183214D01*
X12021786Y-18197500D01*
X12036071Y-18226072D01*
X12036071Y-18383214D01*
X12621786Y-18068929D02*
X12364643Y-18454643D01*
X13007500Y-18083214D02*
X13036071Y-18083214D01*
X13064643Y-18097500D01*
X13078928Y-18111786D01*
X13093214Y-18140357D01*
X13107500Y-18197500D01*
X13107500Y-18268929D01*
X13093214Y-18326072D01*
X13078928Y-18354643D01*
X13064643Y-18368929D01*
X13036071Y-18383214D01*
X13007500Y-18383214D01*
X12978928Y-18368929D01*
X12964643Y-18354643D01*
X12950357Y-18326072D01*
X12936071Y-18268929D01*
X12936071Y-18197500D01*
X12950357Y-18140357D01*
X12964643Y-18111786D01*
X12978928Y-18097500D01*
X13007500Y-18083214D01*
X13236071Y-18354643D02*
X13250357Y-18368929D01*
X13236071Y-18383214D01*
X13221786Y-18368929D01*
X13236071Y-18354643D01*
X13236071Y-18383214D01*
X13436071Y-18083214D02*
X13464643Y-18083214D01*
X13493214Y-18097500D01*
X13507500Y-18111786D01*
X13521786Y-18140357D01*
X13536071Y-18197500D01*
X13536071Y-18268929D01*
X13521786Y-18326072D01*
X13507500Y-18354643D01*
X13493214Y-18368929D01*
X13464643Y-18383214D01*
X13436071Y-18383214D01*
X13407500Y-18368929D01*
X13393214Y-18354643D01*
X13378928Y-18326072D01*
X13364643Y-18268929D01*
X13364643Y-18197500D01*
X13378928Y-18140357D01*
X13393214Y-18111786D01*
X13407500Y-18097500D01*
X13436071Y-18083214D01*
X13636071Y-18083214D02*
X13821786Y-18083214D01*
X13721786Y-18197500D01*
X13764643Y-18197500D01*
X13793214Y-18211786D01*
X13807500Y-18226072D01*
X13821786Y-18254643D01*
X13821786Y-18326072D01*
X13807500Y-18354643D01*
X13793214Y-18368929D01*
X13764643Y-18383214D01*
X13678928Y-18383214D01*
X13650357Y-18368929D01*
X13636071Y-18354643D01*
X13964643Y-18383214D02*
X14021786Y-18383214D01*
X14050357Y-18368929D01*
X14064643Y-18354643D01*
X14093214Y-18311786D01*
X14107500Y-18254643D01*
X14107500Y-18140357D01*
X14093214Y-18111786D01*
X14078928Y-18097500D01*
X14050357Y-18083214D01*
X13993214Y-18083214D01*
X13964643Y-18097500D01*
X13950357Y-18111786D01*
X13936071Y-18140357D01*
X13936071Y-18211786D01*
X13950357Y-18240357D01*
X13964643Y-18254643D01*
X13993214Y-18268929D01*
X14050357Y-18268929D01*
X14078928Y-18254643D01*
X14093214Y-18240357D01*
X14107500Y-18211786D01*
X14221786Y-18083214D02*
X14221786Y-18140357D01*
X14336071Y-18083214D02*
X14336071Y-18140357D01*
X14778928Y-18497500D02*
X14764643Y-18483214D01*
X14736071Y-18440357D01*
X14721786Y-18411786D01*
X14707500Y-18368929D01*
X14693214Y-18297500D01*
X14693214Y-18240357D01*
X14707500Y-18168929D01*
X14721786Y-18126072D01*
X14736071Y-18097500D01*
X14764643Y-18054643D01*
X14778928Y-18040357D01*
X15021786Y-18183214D02*
X15021786Y-18383214D01*
X14950357Y-18068929D02*
X14878928Y-18283214D01*
X15064643Y-18283214D01*
X15221786Y-18211786D02*
X15193214Y-18197500D01*
X15178928Y-18183214D01*
X15164643Y-18154643D01*
X15164643Y-18140357D01*
X15178928Y-18111786D01*
X15193214Y-18097500D01*
X15221786Y-18083214D01*
X15278928Y-18083214D01*
X15307500Y-18097500D01*
X15321786Y-18111786D01*
X15336071Y-18140357D01*
X15336071Y-18154643D01*
X15321786Y-18183214D01*
X15307500Y-18197500D01*
X15278928Y-18211786D01*
X15221786Y-18211786D01*
X15193214Y-18226072D01*
X15178928Y-18240357D01*
X15164643Y-18268929D01*
X15164643Y-18326072D01*
X15178928Y-18354643D01*
X15193214Y-18368929D01*
X15221786Y-18383214D01*
X15278928Y-18383214D01*
X15307500Y-18368929D01*
X15321786Y-18354643D01*
X15336071Y-18326072D01*
X15336071Y-18268929D01*
X15321786Y-18240357D01*
X15307500Y-18226072D01*
X15278928Y-18211786D01*
X15693214Y-18383214D02*
X15693214Y-18083214D01*
X15821786Y-18383214D02*
X15821786Y-18226072D01*
X15807500Y-18197500D01*
X15778928Y-18183214D01*
X15736071Y-18183214D01*
X15707500Y-18197500D01*
X15693214Y-18211786D01*
X16007500Y-18383214D02*
X15978928Y-18368929D01*
X15964643Y-18354643D01*
X15950357Y-18326072D01*
X15950357Y-18240357D01*
X15964643Y-18211786D01*
X15978928Y-18197500D01*
X16007500Y-18183214D01*
X16050357Y-18183214D01*
X16078928Y-18197500D01*
X16093214Y-18211786D01*
X16107500Y-18240357D01*
X16107500Y-18326072D01*
X16093214Y-18354643D01*
X16078928Y-18368929D01*
X16050357Y-18383214D01*
X16007500Y-18383214D01*
X16278928Y-18383214D02*
X16250357Y-18368929D01*
X16236071Y-18340357D01*
X16236071Y-18083214D01*
X16507500Y-18368929D02*
X16478928Y-18383214D01*
X16421786Y-18383214D01*
X16393214Y-18368929D01*
X16378928Y-18340357D01*
X16378928Y-18226072D01*
X16393214Y-18197500D01*
X16421786Y-18183214D01*
X16478928Y-18183214D01*
X16507500Y-18197500D01*
X16521786Y-18226072D01*
X16521786Y-18254643D01*
X16378928Y-18283214D01*
X16636071Y-18368929D02*
X16664643Y-18383214D01*
X16721786Y-18383214D01*
X16750357Y-18368929D01*
X16764643Y-18340357D01*
X16764643Y-18326072D01*
X16750357Y-18297500D01*
X16721786Y-18283214D01*
X16678928Y-18283214D01*
X16650357Y-18268929D01*
X16636071Y-18240357D01*
X16636071Y-18226072D01*
X16650357Y-18197500D01*
X16678928Y-18183214D01*
X16721786Y-18183214D01*
X16750357Y-18197500D01*
X16864643Y-18497500D02*
X16878928Y-18483214D01*
X16907500Y-18440357D01*
X16921786Y-18411786D01*
X16936071Y-18368929D01*
X16950357Y-18297500D01*
X16950357Y-18240357D01*
X16936071Y-18168929D01*
X16921786Y-18126072D01*
X16907500Y-18097500D01*
X16878928Y-18054643D01*
X16864643Y-18040357D01*
X9982500Y-18588500D02*
X10092500Y-18698500D01*
X10092500Y-18588500D02*
X9982500Y-18698500D01*
X10037500Y-18588500D02*
X10037500Y-18698500D01*
X9982500Y-18643500D02*
X10092500Y-18643500D01*
X10536071Y-18779214D02*
X10364643Y-18779214D01*
X10450357Y-18779214D02*
X10450357Y-18479214D01*
X10421786Y-18522072D01*
X10393214Y-18550643D01*
X10364643Y-18564929D01*
X10664643Y-18750643D02*
X10678928Y-18764929D01*
X10664643Y-18779214D01*
X10650357Y-18764929D01*
X10664643Y-18750643D01*
X10664643Y-18779214D01*
X10964643Y-18779214D02*
X10793214Y-18779214D01*
X10878928Y-18779214D02*
X10878928Y-18479214D01*
X10850357Y-18522072D01*
X10821786Y-18550643D01*
X10793214Y-18564929D01*
X11150357Y-18479214D02*
X11178928Y-18479214D01*
X11207500Y-18493500D01*
X11221786Y-18507786D01*
X11236071Y-18536357D01*
X11250357Y-18593500D01*
X11250357Y-18664929D01*
X11236071Y-18722072D01*
X11221786Y-18750643D01*
X11207500Y-18764929D01*
X11178928Y-18779214D01*
X11150357Y-18779214D01*
X11121786Y-18764929D01*
X11107500Y-18750643D01*
X11093214Y-18722072D01*
X11078928Y-18664929D01*
X11078928Y-18593500D01*
X11093214Y-18536357D01*
X11107500Y-18507786D01*
X11121786Y-18493500D01*
X11150357Y-18479214D01*
X11378928Y-18779214D02*
X11378928Y-18579214D01*
X11378928Y-18607786D02*
X11393214Y-18593500D01*
X11421786Y-18579214D01*
X11464643Y-18579214D01*
X11493214Y-18593500D01*
X11507500Y-18622072D01*
X11507500Y-18779214D01*
X11507500Y-18622072D02*
X11521786Y-18593500D01*
X11550357Y-18579214D01*
X11593214Y-18579214D01*
X11621786Y-18593500D01*
X11636071Y-18622072D01*
X11636071Y-18779214D01*
X11778928Y-18779214D02*
X11778928Y-18579214D01*
X11778928Y-18607786D02*
X11793214Y-18593500D01*
X11821786Y-18579214D01*
X11864643Y-18579214D01*
X11893214Y-18593500D01*
X11907500Y-18622072D01*
X11907500Y-18779214D01*
X11907500Y-18622072D02*
X11921786Y-18593500D01*
X11950357Y-18579214D01*
X11993214Y-18579214D01*
X12021786Y-18593500D01*
X12036071Y-18622072D01*
X12036071Y-18779214D01*
X12621786Y-18464929D02*
X12364643Y-18850643D01*
X13007500Y-18479214D02*
X13036071Y-18479214D01*
X13064643Y-18493500D01*
X13078928Y-18507786D01*
X13093214Y-18536357D01*
X13107500Y-18593500D01*
X13107500Y-18664929D01*
X13093214Y-18722072D01*
X13078928Y-18750643D01*
X13064643Y-18764929D01*
X13036071Y-18779214D01*
X13007500Y-18779214D01*
X12978928Y-18764929D01*
X12964643Y-18750643D01*
X12950357Y-18722072D01*
X12936071Y-18664929D01*
X12936071Y-18593500D01*
X12950357Y-18536357D01*
X12964643Y-18507786D01*
X12978928Y-18493500D01*
X13007500Y-18479214D01*
X13236071Y-18750643D02*
X13250357Y-18764929D01*
X13236071Y-18779214D01*
X13221786Y-18764929D01*
X13236071Y-18750643D01*
X13236071Y-18779214D01*
X13436071Y-18479214D02*
X13464643Y-18479214D01*
X13493214Y-18493500D01*
X13507500Y-18507786D01*
X13521786Y-18536357D01*
X13536071Y-18593500D01*
X13536071Y-18664929D01*
X13521786Y-18722072D01*
X13507500Y-18750643D01*
X13493214Y-18764929D01*
X13464643Y-18779214D01*
X13436071Y-18779214D01*
X13407500Y-18764929D01*
X13393214Y-18750643D01*
X13378928Y-18722072D01*
X13364643Y-18664929D01*
X13364643Y-18593500D01*
X13378928Y-18536357D01*
X13393214Y-18507786D01*
X13407500Y-18493500D01*
X13436071Y-18479214D01*
X13793214Y-18579214D02*
X13793214Y-18779214D01*
X13721786Y-18464929D02*
X13650357Y-18679214D01*
X13836071Y-18679214D01*
X13921786Y-18479214D02*
X14107500Y-18479214D01*
X14007500Y-18593500D01*
X14050357Y-18593500D01*
X14078928Y-18607786D01*
X14093214Y-18622072D01*
X14107500Y-18650643D01*
X14107500Y-18722072D01*
X14093214Y-18750643D01*
X14078928Y-18764929D01*
X14050357Y-18779214D01*
X13964643Y-18779214D01*
X13936071Y-18764929D01*
X13921786Y-18750643D01*
X14221786Y-18479214D02*
X14221786Y-18536357D01*
X14336071Y-18479214D02*
X14336071Y-18536357D01*
X14778928Y-18893500D02*
X14764643Y-18879214D01*
X14736071Y-18836357D01*
X14721786Y-18807786D01*
X14707500Y-18764929D01*
X14693214Y-18693500D01*
X14693214Y-18636357D01*
X14707500Y-18564929D01*
X14721786Y-18522072D01*
X14736071Y-18493500D01*
X14764643Y-18450643D01*
X14778928Y-18436357D01*
X15021786Y-18579214D02*
X15021786Y-18779214D01*
X14950357Y-18464929D02*
X14878928Y-18679214D01*
X15064643Y-18679214D01*
X15407500Y-18779214D02*
X15407500Y-18479214D01*
X15536071Y-18779214D02*
X15536071Y-18622072D01*
X15521786Y-18593500D01*
X15493214Y-18579214D01*
X15450357Y-18579214D01*
X15421786Y-18593500D01*
X15407500Y-18607786D01*
X15721786Y-18779214D02*
X15693214Y-18764929D01*
X15678928Y-18750643D01*
X15664643Y-18722072D01*
X15664643Y-18636357D01*
X15678928Y-18607786D01*
X15693214Y-18593500D01*
X15721786Y-18579214D01*
X15764643Y-18579214D01*
X15793214Y-18593500D01*
X15807500Y-18607786D01*
X15821786Y-18636357D01*
X15821786Y-18722072D01*
X15807500Y-18750643D01*
X15793214Y-18764929D01*
X15764643Y-18779214D01*
X15721786Y-18779214D01*
X15993214Y-18779214D02*
X15964643Y-18764929D01*
X15950357Y-18736357D01*
X15950357Y-18479214D01*
X16221786Y-18764929D02*
X16193214Y-18779214D01*
X16136071Y-18779214D01*
X16107500Y-18764929D01*
X16093214Y-18736357D01*
X16093214Y-18622072D01*
X16107500Y-18593500D01*
X16136071Y-18579214D01*
X16193214Y-18579214D01*
X16221786Y-18593500D01*
X16236071Y-18622072D01*
X16236071Y-18650643D01*
X16093214Y-18679214D01*
X16350357Y-18764929D02*
X16378928Y-18779214D01*
X16436071Y-18779214D01*
X16464643Y-18764929D01*
X16478928Y-18736357D01*
X16478928Y-18722072D01*
X16464643Y-18693500D01*
X16436071Y-18679214D01*
X16393214Y-18679214D01*
X16364643Y-18664929D01*
X16350357Y-18636357D01*
X16350357Y-18622072D01*
X16364643Y-18593500D01*
X16393214Y-18579214D01*
X16436071Y-18579214D01*
X16464643Y-18593500D01*
X16578928Y-18893500D02*
X16593214Y-18879214D01*
X16621786Y-18836357D01*
X16636071Y-18807786D01*
X16650357Y-18764929D01*
X16664643Y-18693500D01*
X16664643Y-18636357D01*
X16650357Y-18564929D01*
X16636071Y-18522072D01*
X16621786Y-18493500D01*
X16593214Y-18450643D01*
X16578928Y-18436357D01*
X9962500Y-18974500D02*
X10092500Y-19104500D01*
X10092500Y-18974500D02*
X9962500Y-19104500D01*
X10073462Y-19085463D02*
X10073462Y-18993538D01*
X9981538Y-18993538D01*
X9981538Y-19085463D01*
X10073462Y-19085463D01*
X10536071Y-19175214D02*
X10364643Y-19175214D01*
X10450357Y-19175214D02*
X10450357Y-18875214D01*
X10421786Y-18918072D01*
X10393214Y-18946643D01*
X10364643Y-18960929D01*
X10664643Y-19146643D02*
X10678928Y-19160929D01*
X10664643Y-19175214D01*
X10650357Y-19160929D01*
X10664643Y-19146643D01*
X10664643Y-19175214D01*
X10778928Y-18875214D02*
X10964643Y-18875214D01*
X10864643Y-18989500D01*
X10907500Y-18989500D01*
X10936071Y-19003786D01*
X10950357Y-19018072D01*
X10964643Y-19046643D01*
X10964643Y-19118072D01*
X10950357Y-19146643D01*
X10936071Y-19160929D01*
X10907500Y-19175214D01*
X10821786Y-19175214D01*
X10793214Y-19160929D01*
X10778928Y-19146643D01*
X11150357Y-18875214D02*
X11178928Y-18875214D01*
X11207500Y-18889500D01*
X11221786Y-18903786D01*
X11236071Y-18932357D01*
X11250357Y-18989500D01*
X11250357Y-19060929D01*
X11236071Y-19118072D01*
X11221786Y-19146643D01*
X11207500Y-19160929D01*
X11178928Y-19175214D01*
X11150357Y-19175214D01*
X11121786Y-19160929D01*
X11107500Y-19146643D01*
X11093214Y-19118072D01*
X11078928Y-19060929D01*
X11078928Y-18989500D01*
X11093214Y-18932357D01*
X11107500Y-18903786D01*
X11121786Y-18889500D01*
X11150357Y-18875214D01*
X11378928Y-19175214D02*
X11378928Y-18975214D01*
X11378928Y-19003786D02*
X11393214Y-18989500D01*
X11421786Y-18975214D01*
X11464643Y-18975214D01*
X11493214Y-18989500D01*
X11507500Y-19018072D01*
X11507500Y-19175214D01*
X11507500Y-19018072D02*
X11521786Y-18989500D01*
X11550357Y-18975214D01*
X11593214Y-18975214D01*
X11621786Y-18989500D01*
X11636071Y-19018072D01*
X11636071Y-19175214D01*
X11778928Y-19175214D02*
X11778928Y-18975214D01*
X11778928Y-19003786D02*
X11793214Y-18989500D01*
X11821786Y-18975214D01*
X11864643Y-18975214D01*
X11893214Y-18989500D01*
X11907500Y-19018072D01*
X11907500Y-19175214D01*
X11907500Y-19018072D02*
X11921786Y-18989500D01*
X11950357Y-18975214D01*
X11993214Y-18975214D01*
X12021786Y-18989500D01*
X12036071Y-19018072D01*
X12036071Y-19175214D01*
X12621786Y-18860929D02*
X12364643Y-19246643D01*
X13007500Y-18875214D02*
X13036071Y-18875214D01*
X13064643Y-18889500D01*
X13078928Y-18903786D01*
X13093214Y-18932357D01*
X13107500Y-18989500D01*
X13107500Y-19060929D01*
X13093214Y-19118072D01*
X13078928Y-19146643D01*
X13064643Y-19160929D01*
X13036071Y-19175214D01*
X13007500Y-19175214D01*
X12978928Y-19160929D01*
X12964643Y-19146643D01*
X12950357Y-19118072D01*
X12936071Y-19060929D01*
X12936071Y-18989500D01*
X12950357Y-18932357D01*
X12964643Y-18903786D01*
X12978928Y-18889500D01*
X13007500Y-18875214D01*
X13236071Y-19146643D02*
X13250357Y-19160929D01*
X13236071Y-19175214D01*
X13221786Y-19160929D01*
X13236071Y-19146643D01*
X13236071Y-19175214D01*
X13436071Y-18875214D02*
X13464643Y-18875214D01*
X13493214Y-18889500D01*
X13507500Y-18903786D01*
X13521786Y-18932357D01*
X13536071Y-18989500D01*
X13536071Y-19060929D01*
X13521786Y-19118072D01*
X13507500Y-19146643D01*
X13493214Y-19160929D01*
X13464643Y-19175214D01*
X13436071Y-19175214D01*
X13407500Y-19160929D01*
X13393214Y-19146643D01*
X13378928Y-19118072D01*
X13364643Y-19060929D01*
X13364643Y-18989500D01*
X13378928Y-18932357D01*
X13393214Y-18903786D01*
X13407500Y-18889500D01*
X13436071Y-18875214D01*
X13807500Y-18875214D02*
X13664643Y-18875214D01*
X13650357Y-19018072D01*
X13664643Y-19003786D01*
X13693214Y-18989500D01*
X13764643Y-18989500D01*
X13793214Y-19003786D01*
X13807500Y-19018072D01*
X13821786Y-19046643D01*
X13821786Y-19118072D01*
X13807500Y-19146643D01*
X13793214Y-19160929D01*
X13764643Y-19175214D01*
X13693214Y-19175214D01*
X13664643Y-19160929D01*
X13650357Y-19146643D01*
X14107500Y-19175214D02*
X13936071Y-19175214D01*
X14021786Y-19175214D02*
X14021786Y-18875214D01*
X13993214Y-18918072D01*
X13964643Y-18946643D01*
X13936071Y-18960929D01*
X14221786Y-18875214D02*
X14221786Y-18932357D01*
X14336071Y-18875214D02*
X14336071Y-18932357D01*
X14778928Y-19289500D02*
X14764643Y-19275214D01*
X14736071Y-19232357D01*
X14721786Y-19203786D01*
X14707500Y-19160929D01*
X14693214Y-19089500D01*
X14693214Y-19032357D01*
X14707500Y-18960929D01*
X14721786Y-18918072D01*
X14736071Y-18889500D01*
X14764643Y-18846643D01*
X14778928Y-18832357D01*
X14864643Y-18875214D02*
X15050357Y-18875214D01*
X14950357Y-18989500D01*
X14993214Y-18989500D01*
X15021786Y-19003786D01*
X15036071Y-19018072D01*
X15050357Y-19046643D01*
X15050357Y-19118072D01*
X15036071Y-19146643D01*
X15021786Y-19160929D01*
X14993214Y-19175214D01*
X14907500Y-19175214D01*
X14878928Y-19160929D01*
X14864643Y-19146643D01*
X15407500Y-19175214D02*
X15407500Y-18875214D01*
X15536071Y-19175214D02*
X15536071Y-19018072D01*
X15521786Y-18989500D01*
X15493214Y-18975214D01*
X15450357Y-18975214D01*
X15421786Y-18989500D01*
X15407500Y-19003786D01*
X15721786Y-19175214D02*
X15693214Y-19160929D01*
X15678928Y-19146643D01*
X15664643Y-19118072D01*
X15664643Y-19032357D01*
X15678928Y-19003786D01*
X15693214Y-18989500D01*
X15721786Y-18975214D01*
X15764643Y-18975214D01*
X15793214Y-18989500D01*
X15807500Y-19003786D01*
X15821786Y-19032357D01*
X15821786Y-19118072D01*
X15807500Y-19146643D01*
X15793214Y-19160929D01*
X15764643Y-19175214D01*
X15721786Y-19175214D01*
X15993214Y-19175214D02*
X15964643Y-19160929D01*
X15950357Y-19132357D01*
X15950357Y-18875214D01*
X16221786Y-19160929D02*
X16193214Y-19175214D01*
X16136071Y-19175214D01*
X16107500Y-19160929D01*
X16093214Y-19132357D01*
X16093214Y-19018072D01*
X16107500Y-18989500D01*
X16136071Y-18975214D01*
X16193214Y-18975214D01*
X16221786Y-18989500D01*
X16236071Y-19018072D01*
X16236071Y-19046643D01*
X16093214Y-19075214D01*
X16350357Y-19160929D02*
X16378928Y-19175214D01*
X16436071Y-19175214D01*
X16464643Y-19160929D01*
X16478928Y-19132357D01*
X16478928Y-19118072D01*
X16464643Y-19089500D01*
X16436071Y-19075214D01*
X16393214Y-19075214D01*
X16364643Y-19060929D01*
X16350357Y-19032357D01*
X16350357Y-19018072D01*
X16364643Y-18989500D01*
X16393214Y-18975214D01*
X16436071Y-18975214D01*
X16464643Y-18989500D01*
X16578928Y-19289500D02*
X16593214Y-19275214D01*
X16621786Y-19232357D01*
X16636071Y-19203786D01*
X16650357Y-19160929D01*
X16664643Y-19089500D01*
X16664643Y-19032357D01*
X16650357Y-18960929D01*
X16636071Y-18918072D01*
X16621786Y-18889500D01*
X16593214Y-18846643D01*
X16578928Y-18832357D01*
X9942500Y-19360500D02*
X10092500Y-19510500D01*
X10092500Y-19360500D02*
X9942500Y-19510500D01*
X10017500Y-19510500D02*
X10092500Y-19435500D01*
X10017500Y-19360500D01*
X9942500Y-19435500D01*
X10017500Y-19510500D01*
X10536071Y-19571214D02*
X10364643Y-19571214D01*
X10450357Y-19571214D02*
X10450357Y-19271214D01*
X10421786Y-19314072D01*
X10393214Y-19342643D01*
X10364643Y-19356929D01*
X10664643Y-19542643D02*
X10678928Y-19556929D01*
X10664643Y-19571214D01*
X10650357Y-19556929D01*
X10664643Y-19542643D01*
X10664643Y-19571214D01*
X10950357Y-19271214D02*
X10807500Y-19271214D01*
X10793214Y-19414072D01*
X10807500Y-19399786D01*
X10836071Y-19385500D01*
X10907500Y-19385500D01*
X10936071Y-19399786D01*
X10950357Y-19414072D01*
X10964643Y-19442643D01*
X10964643Y-19514072D01*
X10950357Y-19542643D01*
X10936071Y-19556929D01*
X10907500Y-19571214D01*
X10836071Y-19571214D01*
X10807500Y-19556929D01*
X10793214Y-19542643D01*
X11150357Y-19271214D02*
X11178928Y-19271214D01*
X11207500Y-19285500D01*
X11221786Y-19299786D01*
X11236071Y-19328357D01*
X11250357Y-19385500D01*
X11250357Y-19456929D01*
X11236071Y-19514072D01*
X11221786Y-19542643D01*
X11207500Y-19556929D01*
X11178928Y-19571214D01*
X11150357Y-19571214D01*
X11121786Y-19556929D01*
X11107500Y-19542643D01*
X11093214Y-19514072D01*
X11078928Y-19456929D01*
X11078928Y-19385500D01*
X11093214Y-19328357D01*
X11107500Y-19299786D01*
X11121786Y-19285500D01*
X11150357Y-19271214D01*
X11378928Y-19571214D02*
X11378928Y-19371214D01*
X11378928Y-19399786D02*
X11393214Y-19385500D01*
X11421786Y-19371214D01*
X11464643Y-19371214D01*
X11493214Y-19385500D01*
X11507500Y-19414072D01*
X11507500Y-19571214D01*
X11507500Y-19414072D02*
X11521786Y-19385500D01*
X11550357Y-19371214D01*
X11593214Y-19371214D01*
X11621786Y-19385500D01*
X11636071Y-19414072D01*
X11636071Y-19571214D01*
X11778928Y-19571214D02*
X11778928Y-19371214D01*
X11778928Y-19399786D02*
X11793214Y-19385500D01*
X11821786Y-19371214D01*
X11864643Y-19371214D01*
X11893214Y-19385500D01*
X11907500Y-19414072D01*
X11907500Y-19571214D01*
X11907500Y-19414072D02*
X11921786Y-19385500D01*
X11950357Y-19371214D01*
X11993214Y-19371214D01*
X12021786Y-19385500D01*
X12036071Y-19414072D01*
X12036071Y-19571214D01*
X12621786Y-19256929D02*
X12364643Y-19642643D01*
X13007500Y-19271214D02*
X13036071Y-19271214D01*
X13064643Y-19285500D01*
X13078928Y-19299786D01*
X13093214Y-19328357D01*
X13107500Y-19385500D01*
X13107500Y-19456929D01*
X13093214Y-19514072D01*
X13078928Y-19542643D01*
X13064643Y-19556929D01*
X13036071Y-19571214D01*
X13007500Y-19571214D01*
X12978928Y-19556929D01*
X12964643Y-19542643D01*
X12950357Y-19514072D01*
X12936071Y-19456929D01*
X12936071Y-19385500D01*
X12950357Y-19328357D01*
X12964643Y-19299786D01*
X12978928Y-19285500D01*
X13007500Y-19271214D01*
X13236071Y-19542643D02*
X13250357Y-19556929D01*
X13236071Y-19571214D01*
X13221786Y-19556929D01*
X13236071Y-19542643D01*
X13236071Y-19571214D01*
X13436071Y-19271214D02*
X13464643Y-19271214D01*
X13493214Y-19285500D01*
X13507500Y-19299786D01*
X13521786Y-19328357D01*
X13536071Y-19385500D01*
X13536071Y-19456929D01*
X13521786Y-19514072D01*
X13507500Y-19542643D01*
X13493214Y-19556929D01*
X13464643Y-19571214D01*
X13436071Y-19571214D01*
X13407500Y-19556929D01*
X13393214Y-19542643D01*
X13378928Y-19514072D01*
X13364643Y-19456929D01*
X13364643Y-19385500D01*
X13378928Y-19328357D01*
X13393214Y-19299786D01*
X13407500Y-19285500D01*
X13436071Y-19271214D01*
X13807500Y-19271214D02*
X13664643Y-19271214D01*
X13650357Y-19414072D01*
X13664643Y-19399786D01*
X13693214Y-19385500D01*
X13764643Y-19385500D01*
X13793214Y-19399786D01*
X13807500Y-19414072D01*
X13821786Y-19442643D01*
X13821786Y-19514072D01*
X13807500Y-19542643D01*
X13793214Y-19556929D01*
X13764643Y-19571214D01*
X13693214Y-19571214D01*
X13664643Y-19556929D01*
X13650357Y-19542643D01*
X13964643Y-19571214D02*
X14021786Y-19571214D01*
X14050357Y-19556929D01*
X14064643Y-19542643D01*
X14093214Y-19499786D01*
X14107500Y-19442643D01*
X14107500Y-19328357D01*
X14093214Y-19299786D01*
X14078928Y-19285500D01*
X14050357Y-19271214D01*
X13993214Y-19271214D01*
X13964643Y-19285500D01*
X13950357Y-19299786D01*
X13936071Y-19328357D01*
X13936071Y-19399786D01*
X13950357Y-19428357D01*
X13964643Y-19442643D01*
X13993214Y-19456929D01*
X14050357Y-19456929D01*
X14078928Y-19442643D01*
X14093214Y-19428357D01*
X14107500Y-19399786D01*
X14221786Y-19271214D02*
X14221786Y-19328357D01*
X14336071Y-19271214D02*
X14336071Y-19328357D01*
X14778928Y-19685500D02*
X14764643Y-19671214D01*
X14736071Y-19628357D01*
X14721786Y-19599786D01*
X14707500Y-19556929D01*
X14693214Y-19485500D01*
X14693214Y-19428357D01*
X14707500Y-19356929D01*
X14721786Y-19314072D01*
X14736071Y-19285500D01*
X14764643Y-19242643D01*
X14778928Y-19228357D01*
X15021786Y-19371214D02*
X15021786Y-19571214D01*
X14950357Y-19256929D02*
X14878928Y-19471214D01*
X15064643Y-19471214D01*
X15407500Y-19571214D02*
X15407500Y-19271214D01*
X15536071Y-19571214D02*
X15536071Y-19414072D01*
X15521786Y-19385500D01*
X15493214Y-19371214D01*
X15450357Y-19371214D01*
X15421786Y-19385500D01*
X15407500Y-19399786D01*
X15721786Y-19571214D02*
X15693214Y-19556929D01*
X15678928Y-19542643D01*
X15664643Y-19514072D01*
X15664643Y-19428357D01*
X15678928Y-19399786D01*
X15693214Y-19385500D01*
X15721786Y-19371214D01*
X15764643Y-19371214D01*
X15793214Y-19385500D01*
X15807500Y-19399786D01*
X15821786Y-19428357D01*
X15821786Y-19514072D01*
X15807500Y-19542643D01*
X15793214Y-19556929D01*
X15764643Y-19571214D01*
X15721786Y-19571214D01*
X15993214Y-19571214D02*
X15964643Y-19556929D01*
X15950357Y-19528357D01*
X15950357Y-19271214D01*
X16221786Y-19556929D02*
X16193214Y-19571214D01*
X16136071Y-19571214D01*
X16107500Y-19556929D01*
X16093214Y-19528357D01*
X16093214Y-19414072D01*
X16107500Y-19385500D01*
X16136071Y-19371214D01*
X16193214Y-19371214D01*
X16221786Y-19385500D01*
X16236071Y-19414072D01*
X16236071Y-19442643D01*
X16093214Y-19471214D01*
X16350357Y-19556929D02*
X16378928Y-19571214D01*
X16436071Y-19571214D01*
X16464643Y-19556929D01*
X16478928Y-19528357D01*
X16478928Y-19514072D01*
X16464643Y-19485500D01*
X16436071Y-19471214D01*
X16393214Y-19471214D01*
X16364643Y-19456929D01*
X16350357Y-19428357D01*
X16350357Y-19414072D01*
X16364643Y-19385500D01*
X16393214Y-19371214D01*
X16436071Y-19371214D01*
X16464643Y-19385500D01*
X16578928Y-19685500D02*
X16593214Y-19671214D01*
X16621786Y-19628357D01*
X16636071Y-19599786D01*
X16650357Y-19556929D01*
X16664643Y-19485500D01*
X16664643Y-19428357D01*
X16650357Y-19356929D01*
X16636071Y-19314072D01*
X16621786Y-19285500D01*
X16593214Y-19242643D01*
X16578928Y-19228357D01*
X9932500Y-19671500D02*
X9932500Y-19991500D01*
X9772500Y-19831500D02*
X10092500Y-19831500D01*
X10092500Y-19831500D02*
G75*
G03X10092500Y-19831500I-160000J0D01*
G01*
X10350357Y-19667214D02*
X10536071Y-19667214D01*
X10436071Y-19781500D01*
X10478928Y-19781500D01*
X10507500Y-19795786D01*
X10521786Y-19810072D01*
X10536071Y-19838643D01*
X10536071Y-19910072D01*
X10521786Y-19938643D01*
X10507500Y-19952929D01*
X10478928Y-19967214D01*
X10393214Y-19967214D01*
X10364643Y-19952929D01*
X10350357Y-19938643D01*
X10664643Y-19938643D02*
X10678928Y-19952929D01*
X10664643Y-19967214D01*
X10650357Y-19952929D01*
X10664643Y-19938643D01*
X10664643Y-19967214D01*
X10793214Y-19695786D02*
X10807500Y-19681500D01*
X10836071Y-19667214D01*
X10907500Y-19667214D01*
X10936071Y-19681500D01*
X10950357Y-19695786D01*
X10964643Y-19724357D01*
X10964643Y-19752929D01*
X10950357Y-19795786D01*
X10778928Y-19967214D01*
X10964643Y-19967214D01*
X11150357Y-19667214D02*
X11178928Y-19667214D01*
X11207500Y-19681500D01*
X11221786Y-19695786D01*
X11236071Y-19724357D01*
X11250357Y-19781500D01*
X11250357Y-19852929D01*
X11236071Y-19910072D01*
X11221786Y-19938643D01*
X11207500Y-19952929D01*
X11178928Y-19967214D01*
X11150357Y-19967214D01*
X11121786Y-19952929D01*
X11107500Y-19938643D01*
X11093214Y-19910072D01*
X11078928Y-19852929D01*
X11078928Y-19781500D01*
X11093214Y-19724357D01*
X11107500Y-19695786D01*
X11121786Y-19681500D01*
X11150357Y-19667214D01*
X11378928Y-19967214D02*
X11378928Y-19767214D01*
X11378928Y-19795786D02*
X11393214Y-19781500D01*
X11421786Y-19767214D01*
X11464643Y-19767214D01*
X11493214Y-19781500D01*
X11507500Y-19810072D01*
X11507500Y-19967214D01*
X11507500Y-19810072D02*
X11521786Y-19781500D01*
X11550357Y-19767214D01*
X11593214Y-19767214D01*
X11621786Y-19781500D01*
X11636071Y-19810072D01*
X11636071Y-19967214D01*
X11778928Y-19967214D02*
X11778928Y-19767214D01*
X11778928Y-19795786D02*
X11793214Y-19781500D01*
X11821786Y-19767214D01*
X11864643Y-19767214D01*
X11893214Y-19781500D01*
X11907500Y-19810072D01*
X11907500Y-19967214D01*
X11907500Y-19810072D02*
X11921786Y-19781500D01*
X11950357Y-19767214D01*
X11993214Y-19767214D01*
X12021786Y-19781500D01*
X12036071Y-19810072D01*
X12036071Y-19967214D01*
X12621786Y-19652929D02*
X12364643Y-20038643D01*
X13007500Y-19667214D02*
X13036071Y-19667214D01*
X13064643Y-19681500D01*
X13078928Y-19695786D01*
X13093214Y-19724357D01*
X13107500Y-19781500D01*
X13107500Y-19852929D01*
X13093214Y-19910072D01*
X13078928Y-19938643D01*
X13064643Y-19952929D01*
X13036071Y-19967214D01*
X13007500Y-19967214D01*
X12978928Y-19952929D01*
X12964643Y-19938643D01*
X12950357Y-19910072D01*
X12936071Y-19852929D01*
X12936071Y-19781500D01*
X12950357Y-19724357D01*
X12964643Y-19695786D01*
X12978928Y-19681500D01*
X13007500Y-19667214D01*
X13236071Y-19938643D02*
X13250357Y-19952929D01*
X13236071Y-19967214D01*
X13221786Y-19952929D01*
X13236071Y-19938643D01*
X13236071Y-19967214D01*
X13536071Y-19967214D02*
X13364643Y-19967214D01*
X13450357Y-19967214D02*
X13450357Y-19667214D01*
X13421786Y-19710072D01*
X13393214Y-19738643D01*
X13364643Y-19752929D01*
X13650357Y-19695786D02*
X13664643Y-19681500D01*
X13693214Y-19667214D01*
X13764643Y-19667214D01*
X13793214Y-19681500D01*
X13807500Y-19695786D01*
X13821786Y-19724357D01*
X13821786Y-19752929D01*
X13807500Y-19795786D01*
X13636071Y-19967214D01*
X13821786Y-19967214D01*
X14078928Y-19667214D02*
X14021786Y-19667214D01*
X13993214Y-19681500D01*
X13978928Y-19695786D01*
X13950357Y-19738643D01*
X13936071Y-19795786D01*
X13936071Y-19910072D01*
X13950357Y-19938643D01*
X13964643Y-19952929D01*
X13993214Y-19967214D01*
X14050357Y-19967214D01*
X14078928Y-19952929D01*
X14093214Y-19938643D01*
X14107500Y-19910072D01*
X14107500Y-19838643D01*
X14093214Y-19810072D01*
X14078928Y-19795786D01*
X14050357Y-19781500D01*
X13993214Y-19781500D01*
X13964643Y-19795786D01*
X13950357Y-19810072D01*
X13936071Y-19838643D01*
X14221786Y-19667214D02*
X14221786Y-19724357D01*
X14336071Y-19667214D02*
X14336071Y-19724357D01*
X14778928Y-20081500D02*
X14764643Y-20067214D01*
X14736071Y-20024357D01*
X14721786Y-19995786D01*
X14707500Y-19952929D01*
X14693214Y-19881500D01*
X14693214Y-19824357D01*
X14707500Y-19752929D01*
X14721786Y-19710072D01*
X14736071Y-19681500D01*
X14764643Y-19638643D01*
X14778928Y-19624357D01*
X15021786Y-19767214D02*
X15021786Y-19967214D01*
X14950357Y-19652929D02*
X14878928Y-19867214D01*
X15064643Y-19867214D01*
X15407500Y-19967214D02*
X15407500Y-19667214D01*
X15536071Y-19967214D02*
X15536071Y-19810072D01*
X15521786Y-19781500D01*
X15493214Y-19767214D01*
X15450357Y-19767214D01*
X15421786Y-19781500D01*
X15407500Y-19795786D01*
X15721786Y-19967214D02*
X15693214Y-19952929D01*
X15678928Y-19938643D01*
X15664643Y-19910072D01*
X15664643Y-19824357D01*
X15678928Y-19795786D01*
X15693214Y-19781500D01*
X15721786Y-19767214D01*
X15764643Y-19767214D01*
X15793214Y-19781500D01*
X15807500Y-19795786D01*
X15821786Y-19824357D01*
X15821786Y-19910072D01*
X15807500Y-19938643D01*
X15793214Y-19952929D01*
X15764643Y-19967214D01*
X15721786Y-19967214D01*
X15993214Y-19967214D02*
X15964643Y-19952929D01*
X15950357Y-19924357D01*
X15950357Y-19667214D01*
X16221786Y-19952929D02*
X16193214Y-19967214D01*
X16136071Y-19967214D01*
X16107500Y-19952929D01*
X16093214Y-19924357D01*
X16093214Y-19810072D01*
X16107500Y-19781500D01*
X16136071Y-19767214D01*
X16193214Y-19767214D01*
X16221786Y-19781500D01*
X16236071Y-19810072D01*
X16236071Y-19838643D01*
X16093214Y-19867214D01*
X16350357Y-19952929D02*
X16378928Y-19967214D01*
X16436071Y-19967214D01*
X16464643Y-19952929D01*
X16478928Y-19924357D01*
X16478928Y-19910072D01*
X16464643Y-19881500D01*
X16436071Y-19867214D01*
X16393214Y-19867214D01*
X16364643Y-19852929D01*
X16350357Y-19824357D01*
X16350357Y-19810072D01*
X16364643Y-19781500D01*
X16393214Y-19767214D01*
X16436071Y-19767214D01*
X16464643Y-19781500D01*
X16578928Y-20081500D02*
X16593214Y-20067214D01*
X16621786Y-20024357D01*
X16636071Y-19995786D01*
X16650357Y-19952929D01*
X16664643Y-19881500D01*
X16664643Y-19824357D01*
X16650357Y-19752929D01*
X16636071Y-19710072D01*
X16621786Y-19681500D01*
X16593214Y-19638643D01*
X16578928Y-19624357D01*
M02*
